%TF.GenerationSoftware,KiCad,Pcbnew,8.0.8*%
%TF.CreationDate,2025-01-31T10:38:55-07:00*%
%TF.ProjectId,Uno_Shield_ThermoPro,556e6f5f-5368-4696-956c-645f54686572,rev?*%
%TF.SameCoordinates,Original*%
%TF.FileFunction,Soldermask,Top*%
%TF.FilePolarity,Negative*%
%FSLAX46Y46*%
G04 Gerber Fmt 4.6, Leading zero omitted, Abs format (unit mm)*
G04 Created by KiCad (PCBNEW 8.0.8) date 2025-01-31 10:38:55*
%MOMM*%
%LPD*%
G01*
G04 APERTURE LIST*
G04 Aperture macros list*
%AMRoundRect*
0 Rectangle with rounded corners*
0 $1 Rounding radius*
0 $2 $3 $4 $5 $6 $7 $8 $9 X,Y pos of 4 corners*
0 Add a 4 corners polygon primitive as box body*
4,1,4,$2,$3,$4,$5,$6,$7,$8,$9,$2,$3,0*
0 Add four circle primitives for the rounded corners*
1,1,$1+$1,$2,$3*
1,1,$1+$1,$4,$5*
1,1,$1+$1,$6,$7*
1,1,$1+$1,$8,$9*
0 Add four rect primitives between the rounded corners*
20,1,$1+$1,$2,$3,$4,$5,0*
20,1,$1+$1,$4,$5,$6,$7,0*
20,1,$1+$1,$6,$7,$8,$9,0*
20,1,$1+$1,$8,$9,$2,$3,0*%
G04 Aperture macros list end*
%ADD10C,1.600000*%
%ADD11O,1.600000X1.600000*%
%ADD12RoundRect,0.250000X-0.600000X-0.725000X0.600000X-0.725000X0.600000X0.725000X-0.600000X0.725000X0*%
%ADD13O,1.700000X1.950000*%
%ADD14R,1.700000X1.700000*%
%ADD15O,1.700000X1.700000*%
%ADD16C,2.000000*%
%ADD17R,1.800000X1.800000*%
%ADD18C,1.800000*%
%ADD19C,1.440000*%
G04 APERTURE END LIST*
D10*
%TO.C,R5*%
X156920000Y-67500000D03*
D11*
X167080000Y-67500000D03*
%TD*%
D10*
%TO.C,R4*%
X158500000Y-71500000D03*
D11*
X148340000Y-71500000D03*
%TD*%
D10*
%TO.C,R3*%
X153160000Y-53500000D03*
D11*
X143000000Y-53500000D03*
%TD*%
D10*
%TO.C,R2*%
X156920000Y-63000000D03*
D11*
X167080000Y-63000000D03*
%TD*%
D10*
%TO.C,R1*%
X139080000Y-53500000D03*
D11*
X128920000Y-53500000D03*
%TD*%
D12*
%TO.C,J7*%
X134500000Y-59000000D03*
D13*
X137000000Y-59000000D03*
X139500000Y-59000000D03*
%TD*%
D14*
%TO.C,J1*%
X127940000Y-97460000D03*
D15*
X130480000Y-97460000D03*
X133020000Y-97460000D03*
X135560000Y-97460000D03*
X138100000Y-97460000D03*
X140640000Y-97460000D03*
X143180000Y-97460000D03*
X145720000Y-97460000D03*
%TD*%
D14*
%TO.C,J3*%
X150800000Y-97460000D03*
D15*
X153340000Y-97460000D03*
X155880000Y-97460000D03*
X158420000Y-97460000D03*
X160960000Y-97460000D03*
X163500000Y-97460000D03*
%TD*%
D14*
%TO.C,J2*%
X118796000Y-49200000D03*
D15*
X121336000Y-49200000D03*
X123876000Y-49200000D03*
X126416000Y-49200000D03*
X128956000Y-49200000D03*
X131496000Y-49200000D03*
X134036000Y-49200000D03*
X136576000Y-49200000D03*
X139116000Y-49200000D03*
X141656000Y-49200000D03*
%TD*%
%TO.C,J4*%
X163500000Y-49200000D03*
X160960000Y-49200000D03*
X158420000Y-49200000D03*
X155880000Y-49200000D03*
X153340000Y-49200000D03*
X150800000Y-49200000D03*
X148260000Y-49200000D03*
D14*
X145720000Y-49200000D03*
%TD*%
D16*
%TO.C,SW4*%
X161750000Y-77750000D03*
X161750000Y-71250000D03*
X166250000Y-77750000D03*
X166250000Y-71250000D03*
%TD*%
D17*
%TO.C,D1*%
X135500000Y-68500000D03*
D18*
X132960000Y-68500000D03*
%TD*%
D16*
%TO.C,SW5*%
X140500000Y-77500000D03*
X140500000Y-71000000D03*
X145000000Y-77500000D03*
X145000000Y-71000000D03*
%TD*%
%TO.C,SW2*%
X149750000Y-57500000D03*
X149750000Y-64000000D03*
X145250000Y-57500000D03*
X145250000Y-64000000D03*
%TD*%
D14*
%TO.C,J6*%
X111500000Y-70975000D03*
D15*
X114040000Y-70975000D03*
X116580000Y-70975000D03*
X119120000Y-70975000D03*
%TD*%
D16*
%TO.C,SW1*%
X159000000Y-59500000D03*
X159000000Y-53000000D03*
X163500000Y-59500000D03*
X163500000Y-53000000D03*
%TD*%
D19*
%TO.C,RV1*%
X148500000Y-89500000D03*
X151040000Y-92040000D03*
X153580000Y-89500000D03*
%TD*%
D14*
%TO.C,J5*%
X107920000Y-66000000D03*
D15*
X110460000Y-66000000D03*
X113000000Y-66000000D03*
X115540000Y-66000000D03*
X118080000Y-66000000D03*
X120620000Y-66000000D03*
X123160000Y-66000000D03*
X125700000Y-66000000D03*
%TD*%
D10*
%TO.C,R6*%
X150080000Y-67500000D03*
D11*
X139920000Y-67500000D03*
%TD*%
D16*
%TO.C,SW3*%
X155500000Y-75000000D03*
X155500000Y-81500000D03*
X151000000Y-75000000D03*
X151000000Y-81500000D03*
%TD*%
M02*
