%TF.GenerationSoftware,KiCad,Pcbnew,8.0.8*%
%TF.CreationDate,2025-02-02T20:20:46-07:00*%
%TF.ProjectId,Uno_Shield_ThermoPro,556e6f5f-5368-4696-956c-645f54686572,rev?*%
%TF.SameCoordinates,Original*%
%TF.FileFunction,Copper,L2,Bot*%
%TF.FilePolarity,Positive*%
%FSLAX46Y46*%
G04 Gerber Fmt 4.6, Leading zero omitted, Abs format (unit mm)*
G04 Created by KiCad (PCBNEW 8.0.8) date 2025-02-02 20:20:46*
%MOMM*%
%LPD*%
G01*
G04 APERTURE LIST*
G04 Aperture macros list*
%AMRoundRect*
0 Rectangle with rounded corners*
0 $1 Rounding radius*
0 $2 $3 $4 $5 $6 $7 $8 $9 X,Y pos of 4 corners*
0 Add a 4 corners polygon primitive as box body*
4,1,4,$2,$3,$4,$5,$6,$7,$8,$9,$2,$3,0*
0 Add four circle primitives for the rounded corners*
1,1,$1+$1,$2,$3*
1,1,$1+$1,$4,$5*
1,1,$1+$1,$6,$7*
1,1,$1+$1,$8,$9*
0 Add four rect primitives between the rounded corners*
20,1,$1+$1,$2,$3,$4,$5,0*
20,1,$1+$1,$4,$5,$6,$7,0*
20,1,$1+$1,$6,$7,$8,$9,0*
20,1,$1+$1,$8,$9,$2,$3,0*%
G04 Aperture macros list end*
%TA.AperFunction,ComponentPad*%
%ADD10R,1.700000X1.700000*%
%TD*%
%TA.AperFunction,ComponentPad*%
%ADD11O,1.700000X1.700000*%
%TD*%
%TA.AperFunction,ComponentPad*%
%ADD12C,2.000000*%
%TD*%
%TA.AperFunction,ComponentPad*%
%ADD13R,1.800000X1.800000*%
%TD*%
%TA.AperFunction,ComponentPad*%
%ADD14C,1.800000*%
%TD*%
%TA.AperFunction,ComponentPad*%
%ADD15C,1.600000*%
%TD*%
%TA.AperFunction,ComponentPad*%
%ADD16O,1.600000X1.600000*%
%TD*%
%TA.AperFunction,ComponentPad*%
%ADD17RoundRect,0.250000X-0.725000X0.600000X-0.725000X-0.600000X0.725000X-0.600000X0.725000X0.600000X0*%
%TD*%
%TA.AperFunction,ComponentPad*%
%ADD18O,1.950000X1.700000*%
%TD*%
%TA.AperFunction,ComponentPad*%
%ADD19C,1.440000*%
%TD*%
G04 APERTURE END LIST*
D10*
%TO.P,J1,1,Pin_1*%
%TO.N,unconnected-(J1-Pin_1-Pad1)*%
X127940000Y-97460000D03*
D11*
%TO.P,J1,2,Pin_2*%
%TO.N,/IOREF*%
X130480000Y-97460000D03*
%TO.P,J1,3,Pin_3*%
%TO.N,/~{RESET}*%
X133020000Y-97460000D03*
%TO.P,J1,4,Pin_4*%
%TO.N,+3V3*%
X135560000Y-97460000D03*
%TO.P,J1,5,Pin_5*%
%TO.N,+5V*%
X138100000Y-97460000D03*
%TO.P,J1,6,Pin_6*%
%TO.N,GND*%
X140640000Y-97460000D03*
%TO.P,J1,7,Pin_7*%
X143180000Y-97460000D03*
%TO.P,J1,8,Pin_8*%
%TO.N,VCC*%
X145720000Y-97460000D03*
%TD*%
D10*
%TO.P,J3,1,Pin_1*%
%TO.N,/temp_sensor*%
X150800000Y-97460000D03*
D11*
%TO.P,J3,2,Pin_2*%
%TO.N,/A1*%
X153340000Y-97460000D03*
%TO.P,J3,3,Pin_3*%
%TO.N,/A2*%
X155880000Y-97460000D03*
%TO.P,J3,4,Pin_4*%
%TO.N,/A3*%
X158420000Y-97460000D03*
%TO.P,J3,5,Pin_5*%
%TO.N,/SDA{slash}A4*%
X160960000Y-97460000D03*
%TO.P,J3,6,Pin_6*%
%TO.N,/SCL{slash}A5*%
X163500000Y-97460000D03*
%TD*%
D10*
%TO.P,J2,1,Pin_1*%
%TO.N,/I2C_SCL*%
X118796000Y-49200000D03*
D11*
%TO.P,J2,2,Pin_2*%
%TO.N,/I2C_SDA*%
X121336000Y-49200000D03*
%TO.P,J2,3,Pin_3*%
%TO.N,/AREF*%
X123876000Y-49200000D03*
%TO.P,J2,4,Pin_4*%
%TO.N,GND*%
X126416000Y-49200000D03*
%TO.P,J2,5,Pin_5*%
%TO.N,/13*%
X128956000Y-49200000D03*
%TO.P,J2,6,Pin_6*%
%TO.N,/12*%
X131496000Y-49200000D03*
%TO.P,J2,7,Pin_7*%
%TO.N,/\u002A11*%
X134036000Y-49200000D03*
%TO.P,J2,8,Pin_8*%
%TO.N,/\u002A10*%
X136576000Y-49200000D03*
%TO.P,J2,9,Pin_9*%
%TO.N,/led_light*%
X139116000Y-49200000D03*
%TO.P,J2,10,Pin_10*%
%TO.N,/temp_digital*%
X141656000Y-49200000D03*
%TD*%
D10*
%TO.P,J4,1,Pin_1*%
%TO.N,/7*%
X145720000Y-49200000D03*
D11*
%TO.P,J4,2,Pin_2*%
%TO.N,/button_light*%
X148260000Y-49200000D03*
%TO.P,J4,3,Pin_3*%
%TO.N,/button_cal*%
X150800000Y-49200000D03*
%TO.P,J4,4,Pin_4*%
%TO.N,/button_units*%
X153340000Y-49200000D03*
%TO.P,J4,5,Pin_5*%
%TO.N,/button_lock*%
X155880000Y-49200000D03*
%TO.P,J4,6,Pin_6*%
%TO.N,/button_onoff*%
X158420000Y-49200000D03*
%TO.P,J4,7,Pin_7*%
%TO.N,/TX{slash}1*%
X160960000Y-49200000D03*
%TO.P,J4,8,Pin_8*%
%TO.N,/RX{slash}0*%
X163500000Y-49200000D03*
%TD*%
D12*
%TO.P,SW4,1,A*%
%TO.N,/button_lock*%
X157750000Y-71750000D03*
X164250000Y-71750000D03*
%TO.P,SW4,2,B*%
%TO.N,+5V*%
X157750000Y-76250000D03*
X164250000Y-76250000D03*
%TD*%
D13*
%TO.P,D1,1,K*%
%TO.N,GND*%
X131500000Y-65500000D03*
D14*
%TO.P,D1,2,A*%
%TO.N,Net-(D1-A)*%
X134040000Y-65500000D03*
%TD*%
D12*
%TO.P,SW5,1,A*%
%TO.N,/button_light*%
X133000000Y-71500000D03*
X139500000Y-71500000D03*
%TO.P,SW5,2,B*%
%TO.N,+5V*%
X133000000Y-76000000D03*
X139500000Y-76000000D03*
%TD*%
%TO.P,SW2,1,A*%
%TO.N,/button_units*%
X151250000Y-76250000D03*
X144750000Y-76250000D03*
%TO.P,SW2,2,B*%
%TO.N,+5V*%
X151250000Y-71750000D03*
X144750000Y-71750000D03*
%TD*%
D15*
%TO.P,R4,1*%
%TO.N,/button_cal*%
X151080000Y-53500000D03*
D16*
%TO.P,R4,2*%
%TO.N,GND*%
X140920000Y-53500000D03*
%TD*%
D15*
%TO.P,R1,1*%
%TO.N,/led_light*%
X137500000Y-52420000D03*
D16*
%TO.P,R1,2*%
%TO.N,Net-(D1-A)*%
X137500000Y-62580000D03*
%TD*%
D12*
%TO.P,SW3,1,A*%
%TO.N,/button_cal*%
X142750000Y-58500000D03*
X149250000Y-58500000D03*
%TO.P,SW3,2,B*%
%TO.N,+5V*%
X142750000Y-63000000D03*
X149250000Y-63000000D03*
%TD*%
D10*
%TO.P,J6,1,Pin_1*%
%TO.N,GND*%
X111500000Y-70975000D03*
D11*
%TO.P,J6,2,Pin_2*%
%TO.N,+5V*%
X114040000Y-70975000D03*
%TO.P,J6,3,Pin_3*%
%TO.N,/I2C_SCL*%
X116580000Y-70975000D03*
%TO.P,J6,4,Pin_4*%
%TO.N,/I2C_SDA*%
X119120000Y-70975000D03*
%TD*%
D12*
%TO.P,SW1,1,A*%
%TO.N,/button_onoff*%
X156750000Y-58250000D03*
X163250000Y-58250000D03*
%TO.P,SW1,2,B*%
%TO.N,+5V*%
X156750000Y-62750000D03*
X163250000Y-62750000D03*
%TD*%
D15*
%TO.P,R5,1*%
%TO.N,/button_lock*%
X154420000Y-67500000D03*
D16*
%TO.P,R5,2*%
%TO.N,GND*%
X164580000Y-67500000D03*
%TD*%
D15*
%TO.P,R2,1*%
%TO.N,/button_onoff*%
X164580000Y-53500000D03*
D16*
%TO.P,R2,2*%
%TO.N,GND*%
X154420000Y-53500000D03*
%TD*%
D17*
%TO.P,J7,1,Pin_1*%
%TO.N,GND*%
X132500000Y-54000000D03*
D18*
%TO.P,J7,2,Pin_2*%
%TO.N,/temp_digital*%
X132500000Y-56500000D03*
%TO.P,J7,3,Pin_3*%
%TO.N,+5V*%
X132500000Y-59000000D03*
%TD*%
D19*
%TO.P,RV1,1,1*%
%TO.N,+5V*%
X148500000Y-89500000D03*
%TO.P,RV1,2,2*%
%TO.N,/temp_sensor*%
X151040000Y-92040000D03*
%TO.P,RV1,3,3*%
%TO.N,GND*%
X153580000Y-89500000D03*
%TD*%
D10*
%TO.P,J5,1,Pin_1*%
%TO.N,+5V*%
X107920000Y-66000000D03*
D11*
%TO.P,J5,2,Pin_2*%
%TO.N,GND*%
X110460000Y-66000000D03*
%TO.P,J5,3,Pin_3*%
%TO.N,/I2C_SCL*%
X113000000Y-66000000D03*
%TO.P,J5,4,Pin_4*%
%TO.N,/I2C_SDA*%
X115540000Y-66000000D03*
%TO.P,J5,5,Pin_5*%
%TO.N,unconnected-(J5-Pin_5-Pad5)*%
X118080000Y-66000000D03*
%TO.P,J5,6,Pin_6*%
%TO.N,unconnected-(J5-Pin_6-Pad6)*%
X120620000Y-66000000D03*
%TO.P,J5,7,Pin_7*%
%TO.N,unconnected-(J5-Pin_7-Pad7)*%
X123160000Y-66000000D03*
%TO.P,J5,8,Pin_8*%
%TO.N,unconnected-(J5-Pin_8-Pad8)*%
X125700000Y-66000000D03*
%TD*%
D15*
%TO.P,R6,1*%
%TO.N,/button_light*%
X140420000Y-67500000D03*
D16*
%TO.P,R6,2*%
%TO.N,GND*%
X150580000Y-67500000D03*
%TD*%
D15*
%TO.P,R3,1*%
%TO.N,/button_units*%
X152080000Y-80500000D03*
D16*
%TO.P,R3,2*%
%TO.N,GND*%
X141920000Y-80500000D03*
%TD*%
%TA.AperFunction,Conductor*%
%TO.N,GND*%
G36*
X142714075Y-97267007D02*
G01*
X142680000Y-97394174D01*
X142680000Y-97525826D01*
X142714075Y-97652993D01*
X142746988Y-97710000D01*
X141073012Y-97710000D01*
X141105925Y-97652993D01*
X141140000Y-97525826D01*
X141140000Y-97394174D01*
X141105925Y-97267007D01*
X141073012Y-97210000D01*
X142746988Y-97210000D01*
X142714075Y-97267007D01*
G37*
%TD.AperFunction*%
%TA.AperFunction,Conductor*%
G36*
X163484404Y-46755185D02*
G01*
X163505046Y-46771819D01*
X165928181Y-49194954D01*
X165961666Y-49256277D01*
X165964500Y-49282635D01*
X165964500Y-52813567D01*
X165944815Y-52880606D01*
X165892011Y-52926361D01*
X165822853Y-52936305D01*
X165759297Y-52907280D01*
X165728118Y-52865973D01*
X165717523Y-52843251D01*
X165586198Y-52655700D01*
X165424300Y-52493802D01*
X165236749Y-52362477D01*
X165236745Y-52362475D01*
X165029249Y-52265718D01*
X165029238Y-52265714D01*
X164808089Y-52206457D01*
X164808081Y-52206456D01*
X164580002Y-52186502D01*
X164579998Y-52186502D01*
X164351918Y-52206456D01*
X164351910Y-52206457D01*
X164130761Y-52265714D01*
X164130750Y-52265718D01*
X163923254Y-52362475D01*
X163923252Y-52362476D01*
X163923251Y-52362477D01*
X163735700Y-52493802D01*
X163735698Y-52493803D01*
X163735695Y-52493806D01*
X163573806Y-52655695D01*
X163573803Y-52655698D01*
X163573802Y-52655700D01*
X163491767Y-52772856D01*
X163442476Y-52843252D01*
X163442475Y-52843254D01*
X163345718Y-53050750D01*
X163345714Y-53050761D01*
X163286457Y-53271910D01*
X163286456Y-53271918D01*
X163266502Y-53499998D01*
X163266502Y-53500001D01*
X163286456Y-53728081D01*
X163286457Y-53728089D01*
X163345714Y-53949238D01*
X163345718Y-53949249D01*
X163431882Y-54134028D01*
X163442477Y-54156749D01*
X163573802Y-54344300D01*
X163735700Y-54506198D01*
X163923251Y-54637523D01*
X164048091Y-54695736D01*
X164130750Y-54734281D01*
X164130752Y-54734281D01*
X164130757Y-54734284D01*
X164351913Y-54793543D01*
X164514832Y-54807796D01*
X164579998Y-54813498D01*
X164580000Y-54813498D01*
X164580002Y-54813498D01*
X164637021Y-54808509D01*
X164808087Y-54793543D01*
X165029243Y-54734284D01*
X165236749Y-54637523D01*
X165424300Y-54506198D01*
X165586198Y-54344300D01*
X165717523Y-54156749D01*
X165728118Y-54134028D01*
X165774290Y-54081588D01*
X165841483Y-54062436D01*
X165908364Y-54082651D01*
X165953699Y-54135816D01*
X165964500Y-54186432D01*
X165964500Y-59344982D01*
X165964500Y-59375018D01*
X165975994Y-59402767D01*
X165975995Y-59402768D01*
X168468181Y-61894954D01*
X168501666Y-61956277D01*
X168504500Y-61982635D01*
X168504500Y-96107364D01*
X168484815Y-96174403D01*
X168468181Y-96195045D01*
X165997233Y-98665994D01*
X165975995Y-98687231D01*
X165964500Y-98714982D01*
X165964500Y-99231907D01*
X165963903Y-99244062D01*
X165952505Y-99359778D01*
X165947763Y-99383618D01*
X165917832Y-99482290D01*
X165915789Y-99489024D01*
X165906486Y-99511482D01*
X165854561Y-99608627D01*
X165841056Y-99628839D01*
X165771176Y-99713988D01*
X165753988Y-99731176D01*
X165668839Y-99801056D01*
X165648627Y-99814561D01*
X165551482Y-99866486D01*
X165529028Y-99875787D01*
X165487028Y-99888528D01*
X165423618Y-99907763D01*
X165399778Y-99912505D01*
X165291162Y-99923203D01*
X165284060Y-99923903D01*
X165271907Y-99924500D01*
X100768093Y-99924500D01*
X100755939Y-99923903D01*
X100747995Y-99923120D01*
X100640221Y-99912505D01*
X100616381Y-99907763D01*
X100599445Y-99902625D01*
X100510968Y-99875786D01*
X100488517Y-99866486D01*
X100391372Y-99814561D01*
X100371160Y-99801056D01*
X100286011Y-99731176D01*
X100268823Y-99713988D01*
X100198943Y-99628839D01*
X100185438Y-99608627D01*
X100133510Y-99511476D01*
X100124215Y-99489037D01*
X100092234Y-99383612D01*
X100087494Y-99359777D01*
X100076097Y-99244061D01*
X100075500Y-99231907D01*
X100075500Y-96561345D01*
X126581500Y-96561345D01*
X126581500Y-98358654D01*
X126588011Y-98419202D01*
X126588011Y-98419204D01*
X126639111Y-98556204D01*
X126726739Y-98673261D01*
X126843796Y-98760889D01*
X126980799Y-98811989D01*
X127008050Y-98814918D01*
X127041345Y-98818499D01*
X127041362Y-98818500D01*
X128838638Y-98818500D01*
X128838654Y-98818499D01*
X128865692Y-98815591D01*
X128899201Y-98811989D01*
X129036204Y-98760889D01*
X129153261Y-98673261D01*
X129240889Y-98556204D01*
X129286138Y-98434887D01*
X129328009Y-98378956D01*
X129393474Y-98354539D01*
X129461746Y-98369391D01*
X129493545Y-98394236D01*
X129556760Y-98462906D01*
X129734424Y-98601189D01*
X129734425Y-98601189D01*
X129734427Y-98601191D01*
X129861135Y-98669761D01*
X129932426Y-98708342D01*
X130145365Y-98781444D01*
X130367431Y-98818500D01*
X130592569Y-98818500D01*
X130814635Y-98781444D01*
X131027574Y-98708342D01*
X131225576Y-98601189D01*
X131403240Y-98462906D01*
X131524594Y-98331082D01*
X131555715Y-98297276D01*
X131555715Y-98297275D01*
X131555722Y-98297268D01*
X131646193Y-98158790D01*
X131699338Y-98113437D01*
X131768569Y-98104013D01*
X131831905Y-98133515D01*
X131853804Y-98158787D01*
X131944278Y-98297268D01*
X131944283Y-98297273D01*
X131944284Y-98297276D01*
X132070968Y-98434889D01*
X132096760Y-98462906D01*
X132274424Y-98601189D01*
X132274425Y-98601189D01*
X132274427Y-98601191D01*
X132401135Y-98669761D01*
X132472426Y-98708342D01*
X132685365Y-98781444D01*
X132907431Y-98818500D01*
X133132569Y-98818500D01*
X133354635Y-98781444D01*
X133567574Y-98708342D01*
X133765576Y-98601189D01*
X133943240Y-98462906D01*
X134064594Y-98331082D01*
X134095715Y-98297276D01*
X134095715Y-98297275D01*
X134095722Y-98297268D01*
X134186193Y-98158790D01*
X134239338Y-98113437D01*
X134308569Y-98104013D01*
X134371905Y-98133515D01*
X134393804Y-98158787D01*
X134484278Y-98297268D01*
X134484283Y-98297273D01*
X134484284Y-98297276D01*
X134610968Y-98434889D01*
X134636760Y-98462906D01*
X134814424Y-98601189D01*
X134814425Y-98601189D01*
X134814427Y-98601191D01*
X134941135Y-98669761D01*
X135012426Y-98708342D01*
X135225365Y-98781444D01*
X135447431Y-98818500D01*
X135672569Y-98818500D01*
X135894635Y-98781444D01*
X136107574Y-98708342D01*
X136305576Y-98601189D01*
X136483240Y-98462906D01*
X136604594Y-98331082D01*
X136635715Y-98297276D01*
X136635715Y-98297275D01*
X136635722Y-98297268D01*
X136726193Y-98158790D01*
X136779338Y-98113437D01*
X136848569Y-98104013D01*
X136911905Y-98133515D01*
X136933804Y-98158787D01*
X137024278Y-98297268D01*
X137024283Y-98297273D01*
X137024284Y-98297276D01*
X137150968Y-98434889D01*
X137176760Y-98462906D01*
X137354424Y-98601189D01*
X137354425Y-98601189D01*
X137354427Y-98601191D01*
X137481135Y-98669761D01*
X137552426Y-98708342D01*
X137765365Y-98781444D01*
X137987431Y-98818500D01*
X138212569Y-98818500D01*
X138434635Y-98781444D01*
X138647574Y-98708342D01*
X138845576Y-98601189D01*
X139023240Y-98462906D01*
X139144594Y-98331082D01*
X139175715Y-98297276D01*
X139175715Y-98297275D01*
X139175722Y-98297268D01*
X139269749Y-98153347D01*
X139322894Y-98107994D01*
X139392125Y-98098570D01*
X139455461Y-98128072D01*
X139475130Y-98150048D01*
X139601890Y-98331078D01*
X139768917Y-98498105D01*
X139962421Y-98633600D01*
X140176507Y-98733429D01*
X140176516Y-98733433D01*
X140390000Y-98790634D01*
X140390000Y-97893012D01*
X140447007Y-97925925D01*
X140574174Y-97960000D01*
X140705826Y-97960000D01*
X140832993Y-97925925D01*
X140890000Y-97893012D01*
X140890000Y-98790633D01*
X141103483Y-98733433D01*
X141103492Y-98733429D01*
X141317578Y-98633600D01*
X141511082Y-98498105D01*
X141678105Y-98331082D01*
X141808425Y-98144968D01*
X141863002Y-98101344D01*
X141932501Y-98094151D01*
X141994855Y-98125673D01*
X142011575Y-98144968D01*
X142141894Y-98331082D01*
X142308917Y-98498105D01*
X142502421Y-98633600D01*
X142716507Y-98733429D01*
X142716516Y-98733433D01*
X142930000Y-98790634D01*
X142930000Y-97893012D01*
X142987007Y-97925925D01*
X143114174Y-97960000D01*
X143245826Y-97960000D01*
X143372993Y-97925925D01*
X143430000Y-97893012D01*
X143430000Y-98790633D01*
X143643483Y-98733433D01*
X143643492Y-98733429D01*
X143857578Y-98633600D01*
X144051082Y-98498105D01*
X144218105Y-98331082D01*
X144344868Y-98150048D01*
X144399445Y-98106423D01*
X144468944Y-98099231D01*
X144531298Y-98130753D01*
X144550251Y-98153350D01*
X144644276Y-98297265D01*
X144644284Y-98297276D01*
X144770968Y-98434889D01*
X144796760Y-98462906D01*
X144974424Y-98601189D01*
X144974425Y-98601189D01*
X144974427Y-98601191D01*
X145101135Y-98669761D01*
X145172426Y-98708342D01*
X145385365Y-98781444D01*
X145607431Y-98818500D01*
X145832569Y-98818500D01*
X146054635Y-98781444D01*
X146267574Y-98708342D01*
X146465576Y-98601189D01*
X146643240Y-98462906D01*
X146764594Y-98331082D01*
X146795715Y-98297276D01*
X146795717Y-98297273D01*
X146795722Y-98297268D01*
X146918860Y-98108791D01*
X147009296Y-97902616D01*
X147064564Y-97684368D01*
X147067164Y-97652993D01*
X147083156Y-97460005D01*
X147083156Y-97459994D01*
X147064565Y-97235640D01*
X147064563Y-97235628D01*
X147009296Y-97017385D01*
X146999071Y-96994075D01*
X146918860Y-96811209D01*
X146902706Y-96786484D01*
X146795723Y-96622734D01*
X146795715Y-96622723D01*
X146739212Y-96561345D01*
X149441500Y-96561345D01*
X149441500Y-98358654D01*
X149448011Y-98419202D01*
X149448011Y-98419204D01*
X149499111Y-98556204D01*
X149586739Y-98673261D01*
X149703796Y-98760889D01*
X149840799Y-98811989D01*
X149868050Y-98814918D01*
X149901345Y-98818499D01*
X149901362Y-98818500D01*
X151698638Y-98818500D01*
X151698654Y-98818499D01*
X151725692Y-98815591D01*
X151759201Y-98811989D01*
X151896204Y-98760889D01*
X152013261Y-98673261D01*
X152100889Y-98556204D01*
X152146138Y-98434887D01*
X152188009Y-98378956D01*
X152253474Y-98354539D01*
X152321746Y-98369391D01*
X152353545Y-98394236D01*
X152416760Y-98462906D01*
X152594424Y-98601189D01*
X152594425Y-98601189D01*
X152594427Y-98601191D01*
X152721135Y-98669761D01*
X152792426Y-98708342D01*
X153005365Y-98781444D01*
X153227431Y-98818500D01*
X153452569Y-98818500D01*
X153674635Y-98781444D01*
X153887574Y-98708342D01*
X154085576Y-98601189D01*
X154263240Y-98462906D01*
X154384594Y-98331082D01*
X154415715Y-98297276D01*
X154415715Y-98297275D01*
X154415722Y-98297268D01*
X154506193Y-98158790D01*
X154559338Y-98113437D01*
X154628569Y-98104013D01*
X154691905Y-98133515D01*
X154713804Y-98158787D01*
X154804278Y-98297268D01*
X154804283Y-98297273D01*
X154804284Y-98297276D01*
X154930968Y-98434889D01*
X154956760Y-98462906D01*
X155134424Y-98601189D01*
X155134425Y-98601189D01*
X155134427Y-98601191D01*
X155261135Y-98669761D01*
X155332426Y-98708342D01*
X155545365Y-98781444D01*
X155767431Y-98818500D01*
X155992569Y-98818500D01*
X156214635Y-98781444D01*
X156427574Y-98708342D01*
X156625576Y-98601189D01*
X156803240Y-98462906D01*
X156924594Y-98331082D01*
X156955715Y-98297276D01*
X156955715Y-98297275D01*
X156955722Y-98297268D01*
X157046193Y-98158790D01*
X157099338Y-98113437D01*
X157168569Y-98104013D01*
X157231905Y-98133515D01*
X157253804Y-98158787D01*
X157344278Y-98297268D01*
X157344283Y-98297273D01*
X157344284Y-98297276D01*
X157470968Y-98434889D01*
X157496760Y-98462906D01*
X157674424Y-98601189D01*
X157674425Y-98601189D01*
X157674427Y-98601191D01*
X157801135Y-98669761D01*
X157872426Y-98708342D01*
X158085365Y-98781444D01*
X158307431Y-98818500D01*
X158532569Y-98818500D01*
X158754635Y-98781444D01*
X158967574Y-98708342D01*
X159165576Y-98601189D01*
X159343240Y-98462906D01*
X159464594Y-98331082D01*
X159495715Y-98297276D01*
X159495715Y-98297275D01*
X159495722Y-98297268D01*
X159586193Y-98158790D01*
X159639338Y-98113437D01*
X159708569Y-98104013D01*
X159771905Y-98133515D01*
X159793804Y-98158787D01*
X159884278Y-98297268D01*
X159884283Y-98297273D01*
X159884284Y-98297276D01*
X160010968Y-98434889D01*
X160036760Y-98462906D01*
X160214424Y-98601189D01*
X160214425Y-98601189D01*
X160214427Y-98601191D01*
X160341135Y-98669761D01*
X160412426Y-98708342D01*
X160625365Y-98781444D01*
X160847431Y-98818500D01*
X161072569Y-98818500D01*
X161294635Y-98781444D01*
X161507574Y-98708342D01*
X161705576Y-98601189D01*
X161883240Y-98462906D01*
X162004594Y-98331082D01*
X162035715Y-98297276D01*
X162035715Y-98297275D01*
X162035722Y-98297268D01*
X162126193Y-98158790D01*
X162179338Y-98113437D01*
X162248569Y-98104013D01*
X162311905Y-98133515D01*
X162333804Y-98158787D01*
X162424278Y-98297268D01*
X162424283Y-98297273D01*
X162424284Y-98297276D01*
X162550968Y-98434889D01*
X162576760Y-98462906D01*
X162754424Y-98601189D01*
X162754425Y-98601189D01*
X162754427Y-98601191D01*
X162881135Y-98669761D01*
X162952426Y-98708342D01*
X163165365Y-98781444D01*
X163387431Y-98818500D01*
X163612569Y-98818500D01*
X163834635Y-98781444D01*
X164047574Y-98708342D01*
X164245576Y-98601189D01*
X164423240Y-98462906D01*
X164544594Y-98331082D01*
X164575715Y-98297276D01*
X164575717Y-98297273D01*
X164575722Y-98297268D01*
X164698860Y-98108791D01*
X164789296Y-97902616D01*
X164844564Y-97684368D01*
X164847164Y-97652993D01*
X164863156Y-97460005D01*
X164863156Y-97459994D01*
X164844565Y-97235640D01*
X164844563Y-97235628D01*
X164789296Y-97017385D01*
X164779071Y-96994075D01*
X164698860Y-96811209D01*
X164682706Y-96786484D01*
X164575723Y-96622734D01*
X164575715Y-96622723D01*
X164423243Y-96457097D01*
X164423238Y-96457092D01*
X164245577Y-96318812D01*
X164245572Y-96318808D01*
X164047580Y-96211661D01*
X164047577Y-96211659D01*
X164047574Y-96211658D01*
X164047571Y-96211657D01*
X164047569Y-96211656D01*
X163834637Y-96138556D01*
X163612569Y-96101500D01*
X163387431Y-96101500D01*
X163165362Y-96138556D01*
X162952430Y-96211656D01*
X162952419Y-96211661D01*
X162754427Y-96318808D01*
X162754422Y-96318812D01*
X162576761Y-96457092D01*
X162576756Y-96457097D01*
X162424284Y-96622723D01*
X162424276Y-96622734D01*
X162333808Y-96761206D01*
X162280662Y-96806562D01*
X162211431Y-96815986D01*
X162148095Y-96786484D01*
X162126192Y-96761206D01*
X162035723Y-96622734D01*
X162035715Y-96622723D01*
X161883243Y-96457097D01*
X161883238Y-96457092D01*
X161705577Y-96318812D01*
X161705572Y-96318808D01*
X161507580Y-96211661D01*
X161507577Y-96211659D01*
X161507574Y-96211658D01*
X161507571Y-96211657D01*
X161507569Y-96211656D01*
X161294637Y-96138556D01*
X161072569Y-96101500D01*
X160847431Y-96101500D01*
X160625362Y-96138556D01*
X160412430Y-96211656D01*
X160412419Y-96211661D01*
X160214427Y-96318808D01*
X160214422Y-96318812D01*
X160036761Y-96457092D01*
X160036756Y-96457097D01*
X159884284Y-96622723D01*
X159884276Y-96622734D01*
X159793808Y-96761206D01*
X159740662Y-96806562D01*
X159671431Y-96815986D01*
X159608095Y-96786484D01*
X159586192Y-96761206D01*
X159495723Y-96622734D01*
X159495715Y-96622723D01*
X159343243Y-96457097D01*
X159343238Y-96457092D01*
X159165577Y-96318812D01*
X159165572Y-96318808D01*
X158967580Y-96211661D01*
X158967577Y-96211659D01*
X158967574Y-96211658D01*
X158967571Y-96211657D01*
X158967569Y-96211656D01*
X158754637Y-96138556D01*
X158532569Y-96101500D01*
X158307431Y-96101500D01*
X158085362Y-96138556D01*
X157872430Y-96211656D01*
X157872419Y-96211661D01*
X157674427Y-96318808D01*
X157674422Y-96318812D01*
X157496761Y-96457092D01*
X157496756Y-96457097D01*
X157344284Y-96622723D01*
X157344276Y-96622734D01*
X157253808Y-96761206D01*
X157200662Y-96806562D01*
X157131431Y-96815986D01*
X157068095Y-96786484D01*
X157046192Y-96761206D01*
X156955723Y-96622734D01*
X156955715Y-96622723D01*
X156803243Y-96457097D01*
X156803238Y-96457092D01*
X156625577Y-96318812D01*
X156625572Y-96318808D01*
X156427580Y-96211661D01*
X156427577Y-96211659D01*
X156427574Y-96211658D01*
X156427571Y-96211657D01*
X156427569Y-96211656D01*
X156214637Y-96138556D01*
X155992569Y-96101500D01*
X155767431Y-96101500D01*
X155545362Y-96138556D01*
X155332430Y-96211656D01*
X155332419Y-96211661D01*
X155134427Y-96318808D01*
X155134422Y-96318812D01*
X154956761Y-96457092D01*
X154956756Y-96457097D01*
X154804284Y-96622723D01*
X154804276Y-96622734D01*
X154713808Y-96761206D01*
X154660662Y-96806562D01*
X154591431Y-96815986D01*
X154528095Y-96786484D01*
X154506192Y-96761206D01*
X154415723Y-96622734D01*
X154415715Y-96622723D01*
X154263243Y-96457097D01*
X154263238Y-96457092D01*
X154085577Y-96318812D01*
X154085572Y-96318808D01*
X153887580Y-96211661D01*
X153887577Y-96211659D01*
X153887574Y-96211658D01*
X153887571Y-96211657D01*
X153887569Y-96211656D01*
X153674637Y-96138556D01*
X153452569Y-96101500D01*
X153227431Y-96101500D01*
X153005362Y-96138556D01*
X152792430Y-96211656D01*
X152792419Y-96211661D01*
X152594427Y-96318808D01*
X152594422Y-96318812D01*
X152416761Y-96457092D01*
X152353548Y-96525760D01*
X152293661Y-96561750D01*
X152223823Y-96559649D01*
X152166207Y-96520124D01*
X152146138Y-96485110D01*
X152100889Y-96363796D01*
X152067214Y-96318812D01*
X152013261Y-96246739D01*
X151896204Y-96159111D01*
X151895172Y-96158726D01*
X151759203Y-96108011D01*
X151698654Y-96101500D01*
X151698638Y-96101500D01*
X149901362Y-96101500D01*
X149901345Y-96101500D01*
X149840797Y-96108011D01*
X149840795Y-96108011D01*
X149703795Y-96159111D01*
X149586739Y-96246739D01*
X149499111Y-96363795D01*
X149448011Y-96500795D01*
X149448011Y-96500797D01*
X149441500Y-96561345D01*
X146739212Y-96561345D01*
X146643243Y-96457097D01*
X146643238Y-96457092D01*
X146465577Y-96318812D01*
X146465572Y-96318808D01*
X146267580Y-96211661D01*
X146267577Y-96211659D01*
X146267574Y-96211658D01*
X146267571Y-96211657D01*
X146267569Y-96211656D01*
X146054637Y-96138556D01*
X145832569Y-96101500D01*
X145607431Y-96101500D01*
X145385362Y-96138556D01*
X145172430Y-96211656D01*
X145172419Y-96211661D01*
X144974427Y-96318808D01*
X144974422Y-96318812D01*
X144796761Y-96457092D01*
X144796756Y-96457097D01*
X144644284Y-96622723D01*
X144644276Y-96622734D01*
X144550251Y-96766650D01*
X144497105Y-96812007D01*
X144427873Y-96821430D01*
X144364538Y-96791928D01*
X144344868Y-96769951D01*
X144218113Y-96588926D01*
X144218108Y-96588920D01*
X144051082Y-96421894D01*
X143857578Y-96286399D01*
X143643492Y-96186570D01*
X143643486Y-96186567D01*
X143430000Y-96129364D01*
X143430000Y-97026988D01*
X143372993Y-96994075D01*
X143245826Y-96960000D01*
X143114174Y-96960000D01*
X142987007Y-96994075D01*
X142930000Y-97026988D01*
X142930000Y-96129364D01*
X142929999Y-96129364D01*
X142716513Y-96186567D01*
X142716507Y-96186570D01*
X142502422Y-96286399D01*
X142502420Y-96286400D01*
X142308926Y-96421886D01*
X142308920Y-96421891D01*
X142141891Y-96588920D01*
X142141890Y-96588922D01*
X142011575Y-96775031D01*
X141956998Y-96818655D01*
X141887499Y-96825848D01*
X141825145Y-96794326D01*
X141808425Y-96775031D01*
X141678109Y-96588922D01*
X141678108Y-96588920D01*
X141511082Y-96421894D01*
X141317578Y-96286399D01*
X141103492Y-96186570D01*
X141103486Y-96186567D01*
X140890000Y-96129364D01*
X140890000Y-97026988D01*
X140832993Y-96994075D01*
X140705826Y-96960000D01*
X140574174Y-96960000D01*
X140447007Y-96994075D01*
X140390000Y-97026988D01*
X140390000Y-96129364D01*
X140389999Y-96129364D01*
X140176513Y-96186567D01*
X140176507Y-96186570D01*
X139962422Y-96286399D01*
X139962420Y-96286400D01*
X139768926Y-96421886D01*
X139768920Y-96421891D01*
X139601891Y-96588920D01*
X139601890Y-96588922D01*
X139475131Y-96769952D01*
X139420554Y-96813577D01*
X139351055Y-96820769D01*
X139288701Y-96789247D01*
X139269752Y-96766656D01*
X139175722Y-96622732D01*
X139175715Y-96622725D01*
X139175715Y-96622723D01*
X139023243Y-96457097D01*
X139023238Y-96457092D01*
X138845577Y-96318812D01*
X138845572Y-96318808D01*
X138647580Y-96211661D01*
X138647577Y-96211659D01*
X138647574Y-96211658D01*
X138647571Y-96211657D01*
X138647569Y-96211656D01*
X138434637Y-96138556D01*
X138212569Y-96101500D01*
X137987431Y-96101500D01*
X137765362Y-96138556D01*
X137552430Y-96211656D01*
X137552419Y-96211661D01*
X137354427Y-96318808D01*
X137354422Y-96318812D01*
X137176761Y-96457092D01*
X137176756Y-96457097D01*
X137024284Y-96622723D01*
X137024276Y-96622734D01*
X136933808Y-96761206D01*
X136880662Y-96806562D01*
X136811431Y-96815986D01*
X136748095Y-96786484D01*
X136726192Y-96761206D01*
X136635723Y-96622734D01*
X136635715Y-96622723D01*
X136483243Y-96457097D01*
X136483238Y-96457092D01*
X136305577Y-96318812D01*
X136305572Y-96318808D01*
X136107580Y-96211661D01*
X136107577Y-96211659D01*
X136107574Y-96211658D01*
X136107571Y-96211657D01*
X136107569Y-96211656D01*
X135894637Y-96138556D01*
X135672569Y-96101500D01*
X135447431Y-96101500D01*
X135225362Y-96138556D01*
X135012430Y-96211656D01*
X135012419Y-96211661D01*
X134814427Y-96318808D01*
X134814422Y-96318812D01*
X134636761Y-96457092D01*
X134636756Y-96457097D01*
X134484284Y-96622723D01*
X134484276Y-96622734D01*
X134393808Y-96761206D01*
X134340662Y-96806562D01*
X134271431Y-96815986D01*
X134208095Y-96786484D01*
X134186192Y-96761206D01*
X134095723Y-96622734D01*
X134095715Y-96622723D01*
X133943243Y-96457097D01*
X133943238Y-96457092D01*
X133765577Y-96318812D01*
X133765572Y-96318808D01*
X133567580Y-96211661D01*
X133567577Y-96211659D01*
X133567574Y-96211658D01*
X133567571Y-96211657D01*
X133567569Y-96211656D01*
X133354637Y-96138556D01*
X133132569Y-96101500D01*
X132907431Y-96101500D01*
X132685362Y-96138556D01*
X132472430Y-96211656D01*
X132472419Y-96211661D01*
X132274427Y-96318808D01*
X132274422Y-96318812D01*
X132096761Y-96457092D01*
X132096756Y-96457097D01*
X131944284Y-96622723D01*
X131944276Y-96622734D01*
X131853808Y-96761206D01*
X131800662Y-96806562D01*
X131731431Y-96815986D01*
X131668095Y-96786484D01*
X131646192Y-96761206D01*
X131555723Y-96622734D01*
X131555715Y-96622723D01*
X131403243Y-96457097D01*
X131403238Y-96457092D01*
X131225577Y-96318812D01*
X131225572Y-96318808D01*
X131027580Y-96211661D01*
X131027577Y-96211659D01*
X131027574Y-96211658D01*
X131027571Y-96211657D01*
X131027569Y-96211656D01*
X130814637Y-96138556D01*
X130592569Y-96101500D01*
X130367431Y-96101500D01*
X130145362Y-96138556D01*
X129932430Y-96211656D01*
X129932419Y-96211661D01*
X129734427Y-96318808D01*
X129734422Y-96318812D01*
X129556761Y-96457092D01*
X129493548Y-96525760D01*
X129433661Y-96561750D01*
X129363823Y-96559649D01*
X129306207Y-96520124D01*
X129286138Y-96485110D01*
X129240889Y-96363796D01*
X129207214Y-96318812D01*
X129153261Y-96246739D01*
X129036204Y-96159111D01*
X129035172Y-96158726D01*
X128899203Y-96108011D01*
X128838654Y-96101500D01*
X128838638Y-96101500D01*
X127041362Y-96101500D01*
X127041345Y-96101500D01*
X126980797Y-96108011D01*
X126980795Y-96108011D01*
X126843795Y-96159111D01*
X126726739Y-96246739D01*
X126639111Y-96363795D01*
X126588011Y-96500795D01*
X126588011Y-96500797D01*
X126581500Y-96561345D01*
X100075500Y-96561345D01*
X100075500Y-92039998D01*
X149806807Y-92039998D01*
X149806807Y-92040001D01*
X149825541Y-92254136D01*
X149825542Y-92254144D01*
X149881176Y-92461772D01*
X149881177Y-92461774D01*
X149881178Y-92461777D01*
X149972024Y-92656597D01*
X149972026Y-92656601D01*
X150095319Y-92832682D01*
X150247317Y-92984680D01*
X150423398Y-93107973D01*
X150423400Y-93107974D01*
X150423403Y-93107976D01*
X150618223Y-93198822D01*
X150825858Y-93254458D01*
X150978816Y-93267840D01*
X151039998Y-93273193D01*
X151040000Y-93273193D01*
X151040002Y-93273193D01*
X151093535Y-93268509D01*
X151254142Y-93254458D01*
X151461777Y-93198822D01*
X151656597Y-93107976D01*
X151832681Y-92984681D01*
X151984681Y-92832681D01*
X152107976Y-92656597D01*
X152198822Y-92461777D01*
X152254458Y-92254142D01*
X152273193Y-92040000D01*
X152254458Y-91825858D01*
X152198822Y-91618223D01*
X152107976Y-91423404D01*
X151984681Y-91247319D01*
X151984679Y-91247316D01*
X151832682Y-91095319D01*
X151656601Y-90972026D01*
X151656597Y-90972024D01*
X151656595Y-90972023D01*
X151461777Y-90881178D01*
X151461774Y-90881177D01*
X151461772Y-90881176D01*
X151254144Y-90825542D01*
X151254136Y-90825541D01*
X151040002Y-90806807D01*
X151039998Y-90806807D01*
X150825863Y-90825541D01*
X150825855Y-90825542D01*
X150618227Y-90881176D01*
X150618221Y-90881179D01*
X150423405Y-90972023D01*
X150423403Y-90972024D01*
X150247316Y-91095320D01*
X150095320Y-91247316D01*
X149972024Y-91423403D01*
X149972023Y-91423405D01*
X149881179Y-91618221D01*
X149881176Y-91618227D01*
X149825542Y-91825855D01*
X149825541Y-91825863D01*
X149806807Y-92039998D01*
X100075500Y-92039998D01*
X100075500Y-89499998D01*
X147266807Y-89499998D01*
X147266807Y-89500001D01*
X147285541Y-89714136D01*
X147285542Y-89714144D01*
X147341176Y-89921772D01*
X147341177Y-89921774D01*
X147341178Y-89921777D01*
X147430032Y-90112325D01*
X147432024Y-90116597D01*
X147432026Y-90116601D01*
X147555319Y-90292682D01*
X147707317Y-90444680D01*
X147883398Y-90567973D01*
X147883400Y-90567974D01*
X147883403Y-90567976D01*
X148078223Y-90658822D01*
X148285858Y-90714458D01*
X148438816Y-90727840D01*
X148499998Y-90733193D01*
X148500000Y-90733193D01*
X148500002Y-90733193D01*
X148553535Y-90728509D01*
X148714142Y-90714458D01*
X148921777Y-90658822D01*
X149116597Y-90567976D01*
X149292681Y-90444681D01*
X149444681Y-90292681D01*
X149567976Y-90116597D01*
X149658822Y-89921777D01*
X149714458Y-89714142D01*
X149733193Y-89500000D01*
X149733193Y-89499997D01*
X152355340Y-89499997D01*
X152355340Y-89500002D01*
X152373944Y-89712654D01*
X152373945Y-89712662D01*
X152429194Y-89918853D01*
X152429197Y-89918859D01*
X152519413Y-90112329D01*
X152558415Y-90168030D01*
X153180000Y-89546445D01*
X153180000Y-89552661D01*
X153207259Y-89654394D01*
X153259920Y-89745606D01*
X153334394Y-89820080D01*
X153425606Y-89872741D01*
X153527339Y-89900000D01*
X153533554Y-89900000D01*
X152911968Y-90521584D01*
X152967663Y-90560582D01*
X152967669Y-90560586D01*
X153161140Y-90650802D01*
X153161146Y-90650805D01*
X153367337Y-90706054D01*
X153367345Y-90706055D01*
X153579998Y-90724660D01*
X153580002Y-90724660D01*
X153792654Y-90706055D01*
X153792662Y-90706054D01*
X153998853Y-90650805D01*
X153998864Y-90650801D01*
X154192325Y-90560589D01*
X154248030Y-90521583D01*
X153626447Y-89900000D01*
X153632661Y-89900000D01*
X153734394Y-89872741D01*
X153825606Y-89820080D01*
X153900080Y-89745606D01*
X153952741Y-89654394D01*
X153980000Y-89552661D01*
X153980000Y-89546446D01*
X154601583Y-90168029D01*
X154640589Y-90112325D01*
X154730801Y-89918864D01*
X154730805Y-89918853D01*
X154786054Y-89712662D01*
X154786055Y-89712654D01*
X154804660Y-89500002D01*
X154804660Y-89499997D01*
X154786055Y-89287345D01*
X154786054Y-89287337D01*
X154730805Y-89081146D01*
X154730802Y-89081140D01*
X154640586Y-88887669D01*
X154640582Y-88887663D01*
X154601584Y-88831968D01*
X153980000Y-89453552D01*
X153980000Y-89447339D01*
X153952741Y-89345606D01*
X153900080Y-89254394D01*
X153825606Y-89179920D01*
X153734394Y-89127259D01*
X153632661Y-89100000D01*
X153626447Y-89100000D01*
X154248030Y-88478415D01*
X154192329Y-88439413D01*
X153998859Y-88349197D01*
X153998853Y-88349194D01*
X153792662Y-88293945D01*
X153792654Y-88293944D01*
X153580002Y-88275340D01*
X153579998Y-88275340D01*
X153367345Y-88293944D01*
X153367337Y-88293945D01*
X153161146Y-88349194D01*
X153161140Y-88349197D01*
X152967671Y-88439412D01*
X152967669Y-88439413D01*
X152911969Y-88478415D01*
X152911968Y-88478415D01*
X153533554Y-89100000D01*
X153527339Y-89100000D01*
X153425606Y-89127259D01*
X153334394Y-89179920D01*
X153259920Y-89254394D01*
X153207259Y-89345606D01*
X153180000Y-89447339D01*
X153180000Y-89453553D01*
X152558415Y-88831968D01*
X152558415Y-88831969D01*
X152519413Y-88887669D01*
X152519412Y-88887671D01*
X152429197Y-89081140D01*
X152429194Y-89081146D01*
X152373945Y-89287337D01*
X152373944Y-89287345D01*
X152355340Y-89499997D01*
X149733193Y-89499997D01*
X149714458Y-89285858D01*
X149658822Y-89078223D01*
X149567976Y-88883404D01*
X149444681Y-88707319D01*
X149444679Y-88707316D01*
X149292682Y-88555319D01*
X149116601Y-88432026D01*
X149116597Y-88432024D01*
X149116595Y-88432023D01*
X148921777Y-88341178D01*
X148921774Y-88341177D01*
X148921772Y-88341176D01*
X148714144Y-88285542D01*
X148714136Y-88285541D01*
X148500002Y-88266807D01*
X148499998Y-88266807D01*
X148285863Y-88285541D01*
X148285855Y-88285542D01*
X148078227Y-88341176D01*
X148078221Y-88341179D01*
X147883405Y-88432023D01*
X147883403Y-88432024D01*
X147707316Y-88555320D01*
X147555320Y-88707316D01*
X147432024Y-88883403D01*
X147432023Y-88883405D01*
X147341179Y-89078221D01*
X147341176Y-89078227D01*
X147285542Y-89285855D01*
X147285541Y-89285863D01*
X147266807Y-89499998D01*
X100075500Y-89499998D01*
X100075500Y-80249999D01*
X140641127Y-80249999D01*
X140641128Y-80250000D01*
X141604314Y-80250000D01*
X141599920Y-80254394D01*
X141547259Y-80345606D01*
X141520000Y-80447339D01*
X141520000Y-80552661D01*
X141547259Y-80654394D01*
X141599920Y-80745606D01*
X141604314Y-80750000D01*
X140641128Y-80750000D01*
X140693730Y-80946317D01*
X140693734Y-80946326D01*
X140789865Y-81152482D01*
X140920342Y-81338820D01*
X141081179Y-81499657D01*
X141267517Y-81630134D01*
X141473673Y-81726265D01*
X141473682Y-81726269D01*
X141669999Y-81778872D01*
X141670000Y-81778871D01*
X141670000Y-80815686D01*
X141674394Y-80820080D01*
X141765606Y-80872741D01*
X141867339Y-80900000D01*
X141972661Y-80900000D01*
X142074394Y-80872741D01*
X142165606Y-80820080D01*
X142170000Y-80815686D01*
X142170000Y-81778872D01*
X142366317Y-81726269D01*
X142366326Y-81726265D01*
X142572482Y-81630134D01*
X142758820Y-81499657D01*
X142919657Y-81338820D01*
X143050134Y-81152482D01*
X143146265Y-80946326D01*
X143146269Y-80946317D01*
X143198872Y-80750000D01*
X142235686Y-80750000D01*
X142240080Y-80745606D01*
X142292741Y-80654394D01*
X142320000Y-80552661D01*
X142320000Y-80499998D01*
X150766502Y-80499998D01*
X150766502Y-80500001D01*
X150786456Y-80728081D01*
X150786457Y-80728089D01*
X150845714Y-80949238D01*
X150845718Y-80949249D01*
X150940487Y-81152482D01*
X150942477Y-81156749D01*
X151073802Y-81344300D01*
X151235700Y-81506198D01*
X151423251Y-81637523D01*
X151548091Y-81695736D01*
X151630750Y-81734281D01*
X151630752Y-81734281D01*
X151630757Y-81734284D01*
X151851913Y-81793543D01*
X152014832Y-81807796D01*
X152079998Y-81813498D01*
X152080000Y-81813498D01*
X152080002Y-81813498D01*
X152137021Y-81808509D01*
X152308087Y-81793543D01*
X152529243Y-81734284D01*
X152736749Y-81637523D01*
X152924300Y-81506198D01*
X153086198Y-81344300D01*
X153217523Y-81156749D01*
X153314284Y-80949243D01*
X153373543Y-80728087D01*
X153393498Y-80500000D01*
X153373543Y-80271913D01*
X153314284Y-80050757D01*
X153217523Y-79843251D01*
X153086198Y-79655700D01*
X152924300Y-79493802D01*
X152736749Y-79362477D01*
X152736745Y-79362475D01*
X152529249Y-79265718D01*
X152529238Y-79265714D01*
X152308089Y-79206457D01*
X152308081Y-79206456D01*
X152080002Y-79186502D01*
X152079998Y-79186502D01*
X151851918Y-79206456D01*
X151851910Y-79206457D01*
X151630761Y-79265714D01*
X151630750Y-79265718D01*
X151423254Y-79362475D01*
X151423252Y-79362476D01*
X151423251Y-79362477D01*
X151235700Y-79493802D01*
X151235698Y-79493803D01*
X151235695Y-79493806D01*
X151073806Y-79655695D01*
X150942476Y-79843252D01*
X150942475Y-79843254D01*
X150845718Y-80050750D01*
X150845714Y-80050761D01*
X150786457Y-80271910D01*
X150786456Y-80271918D01*
X150766502Y-80499998D01*
X142320000Y-80499998D01*
X142320000Y-80447339D01*
X142292741Y-80345606D01*
X142240080Y-80254394D01*
X142235686Y-80250000D01*
X143198872Y-80250000D01*
X143198872Y-80249999D01*
X143146269Y-80053682D01*
X143146265Y-80053673D01*
X143050134Y-79847517D01*
X142919657Y-79661179D01*
X142758820Y-79500342D01*
X142572482Y-79369865D01*
X142366328Y-79273734D01*
X142170000Y-79221127D01*
X142170000Y-80184314D01*
X142165606Y-80179920D01*
X142074394Y-80127259D01*
X141972661Y-80100000D01*
X141867339Y-80100000D01*
X141765606Y-80127259D01*
X141674394Y-80179920D01*
X141670000Y-80184314D01*
X141670000Y-79221127D01*
X141473671Y-79273734D01*
X141267517Y-79369865D01*
X141081179Y-79500342D01*
X140920342Y-79661179D01*
X140789865Y-79847517D01*
X140693734Y-80053673D01*
X140693730Y-80053682D01*
X140641127Y-80249999D01*
X100075500Y-80249999D01*
X100075500Y-76000000D01*
X131486835Y-76000000D01*
X131505465Y-76236714D01*
X131560895Y-76467595D01*
X131560895Y-76467597D01*
X131651757Y-76686959D01*
X131651759Y-76686962D01*
X131775820Y-76889410D01*
X131775821Y-76889413D01*
X131775824Y-76889416D01*
X131930031Y-77069969D01*
X132011343Y-77139416D01*
X132110586Y-77224178D01*
X132110589Y-77224179D01*
X132313037Y-77348240D01*
X132313040Y-77348242D01*
X132532403Y-77439104D01*
X132532404Y-77439104D01*
X132532406Y-77439105D01*
X132763289Y-77494535D01*
X133000000Y-77513165D01*
X133236711Y-77494535D01*
X133467594Y-77439105D01*
X133467596Y-77439104D01*
X133467597Y-77439104D01*
X133686959Y-77348242D01*
X133686960Y-77348241D01*
X133686963Y-77348240D01*
X133889416Y-77224176D01*
X134069969Y-77069969D01*
X134224176Y-76889416D01*
X134348240Y-76686963D01*
X134431186Y-76486714D01*
X134439104Y-76467597D01*
X134439104Y-76467596D01*
X134439105Y-76467594D01*
X134494535Y-76236711D01*
X134513165Y-76000000D01*
X137986835Y-76000000D01*
X138005465Y-76236714D01*
X138060895Y-76467595D01*
X138060895Y-76467597D01*
X138151757Y-76686959D01*
X138151759Y-76686962D01*
X138275820Y-76889410D01*
X138275821Y-76889413D01*
X138275824Y-76889416D01*
X138430031Y-77069969D01*
X138511343Y-77139416D01*
X138610586Y-77224178D01*
X138610589Y-77224179D01*
X138813037Y-77348240D01*
X138813040Y-77348242D01*
X139032403Y-77439104D01*
X139032404Y-77439104D01*
X139032406Y-77439105D01*
X139263289Y-77494535D01*
X139500000Y-77513165D01*
X139736711Y-77494535D01*
X139967594Y-77439105D01*
X139967596Y-77439104D01*
X139967597Y-77439104D01*
X140186959Y-77348242D01*
X140186960Y-77348241D01*
X140186963Y-77348240D01*
X140389416Y-77224176D01*
X140569969Y-77069969D01*
X140724176Y-76889416D01*
X140848240Y-76686963D01*
X140931186Y-76486714D01*
X140939104Y-76467597D01*
X140939104Y-76467596D01*
X140939105Y-76467594D01*
X140991345Y-76250000D01*
X143236835Y-76250000D01*
X143255465Y-76486714D01*
X143310895Y-76717595D01*
X143310895Y-76717597D01*
X143401757Y-76936959D01*
X143401759Y-76936962D01*
X143525820Y-77139410D01*
X143525821Y-77139413D01*
X143525824Y-77139416D01*
X143680031Y-77319969D01*
X143819520Y-77439104D01*
X143860586Y-77474178D01*
X143860589Y-77474179D01*
X144063037Y-77598240D01*
X144063040Y-77598242D01*
X144282403Y-77689104D01*
X144282404Y-77689104D01*
X144282406Y-77689105D01*
X144513289Y-77744535D01*
X144750000Y-77763165D01*
X144986711Y-77744535D01*
X145217594Y-77689105D01*
X145217596Y-77689104D01*
X145217597Y-77689104D01*
X145436959Y-77598242D01*
X145436960Y-77598241D01*
X145436963Y-77598240D01*
X145639416Y-77474176D01*
X145819969Y-77319969D01*
X145974176Y-77139416D01*
X146098240Y-76936963D01*
X146117935Y-76889416D01*
X146189104Y-76717597D01*
X146189104Y-76717596D01*
X146189105Y-76717594D01*
X146244535Y-76486711D01*
X146263165Y-76250000D01*
X149736835Y-76250000D01*
X149755465Y-76486714D01*
X149810895Y-76717595D01*
X149810895Y-76717597D01*
X149901757Y-76936959D01*
X149901759Y-76936962D01*
X150025820Y-77139410D01*
X150025821Y-77139413D01*
X150025824Y-77139416D01*
X150180031Y-77319969D01*
X150319520Y-77439104D01*
X150360586Y-77474178D01*
X150360589Y-77474179D01*
X150563037Y-77598240D01*
X150563040Y-77598242D01*
X150782403Y-77689104D01*
X150782404Y-77689104D01*
X150782406Y-77689105D01*
X151013289Y-77744535D01*
X151250000Y-77763165D01*
X151486711Y-77744535D01*
X151717594Y-77689105D01*
X151717596Y-77689104D01*
X151717597Y-77689104D01*
X151936959Y-77598242D01*
X151936960Y-77598241D01*
X151936963Y-77598240D01*
X152139416Y-77474176D01*
X152319969Y-77319969D01*
X152474176Y-77139416D01*
X152598240Y-76936963D01*
X152617935Y-76889416D01*
X152689104Y-76717597D01*
X152689104Y-76717596D01*
X152689105Y-76717594D01*
X152744535Y-76486711D01*
X152763165Y-76250000D01*
X156236835Y-76250000D01*
X156255465Y-76486714D01*
X156310895Y-76717595D01*
X156310895Y-76717597D01*
X156401757Y-76936959D01*
X156401759Y-76936962D01*
X156525820Y-77139410D01*
X156525821Y-77139413D01*
X156525824Y-77139416D01*
X156680031Y-77319969D01*
X156819520Y-77439104D01*
X156860586Y-77474178D01*
X156860589Y-77474179D01*
X157063037Y-77598240D01*
X157063040Y-77598242D01*
X157282403Y-77689104D01*
X157282404Y-77689104D01*
X157282406Y-77689105D01*
X157513289Y-77744535D01*
X157750000Y-77763165D01*
X157986711Y-77744535D01*
X158217594Y-77689105D01*
X158217596Y-77689104D01*
X158217597Y-77689104D01*
X158436959Y-77598242D01*
X158436960Y-77598241D01*
X158436963Y-77598240D01*
X158639416Y-77474176D01*
X158819969Y-77319969D01*
X158974176Y-77139416D01*
X159098240Y-76936963D01*
X159117935Y-76889416D01*
X159189104Y-76717597D01*
X159189104Y-76717596D01*
X159189105Y-76717594D01*
X159244535Y-76486711D01*
X159263165Y-76250000D01*
X162736835Y-76250000D01*
X162755465Y-76486714D01*
X162810895Y-76717595D01*
X162810895Y-76717597D01*
X162901757Y-76936959D01*
X162901759Y-76936962D01*
X163025820Y-77139410D01*
X163025821Y-77139413D01*
X163025824Y-77139416D01*
X163180031Y-77319969D01*
X163319520Y-77439104D01*
X163360586Y-77474178D01*
X163360589Y-77474179D01*
X163563037Y-77598240D01*
X163563040Y-77598242D01*
X163782403Y-77689104D01*
X163782404Y-77689104D01*
X163782406Y-77689105D01*
X164013289Y-77744535D01*
X164250000Y-77763165D01*
X164486711Y-77744535D01*
X164717594Y-77689105D01*
X164717596Y-77689104D01*
X164717597Y-77689104D01*
X164936959Y-77598242D01*
X164936960Y-77598241D01*
X164936963Y-77598240D01*
X165139416Y-77474176D01*
X165319969Y-77319969D01*
X165474176Y-77139416D01*
X165598240Y-76936963D01*
X165617935Y-76889416D01*
X165689104Y-76717597D01*
X165689104Y-76717596D01*
X165689105Y-76717594D01*
X165744535Y-76486711D01*
X165763165Y-76250000D01*
X165744535Y-76013289D01*
X165689105Y-75782406D01*
X165689104Y-75782403D01*
X165689104Y-75782402D01*
X165598242Y-75563040D01*
X165598240Y-75563037D01*
X165474179Y-75360589D01*
X165474178Y-75360586D01*
X165439340Y-75319797D01*
X165319969Y-75180031D01*
X165200596Y-75078076D01*
X165139413Y-75025821D01*
X165139410Y-75025820D01*
X164936962Y-74901759D01*
X164936959Y-74901757D01*
X164717596Y-74810895D01*
X164486714Y-74755465D01*
X164250000Y-74736835D01*
X164013285Y-74755465D01*
X163782404Y-74810895D01*
X163782402Y-74810895D01*
X163563040Y-74901757D01*
X163563037Y-74901759D01*
X163360589Y-75025820D01*
X163360586Y-75025821D01*
X163180031Y-75180031D01*
X163025821Y-75360586D01*
X163025820Y-75360589D01*
X162901759Y-75563037D01*
X162901757Y-75563040D01*
X162810895Y-75782402D01*
X162810895Y-75782404D01*
X162755465Y-76013285D01*
X162736835Y-76250000D01*
X159263165Y-76250000D01*
X159244535Y-76013289D01*
X159189105Y-75782406D01*
X159189104Y-75782403D01*
X159189104Y-75782402D01*
X159098242Y-75563040D01*
X159098240Y-75563037D01*
X158974179Y-75360589D01*
X158974178Y-75360586D01*
X158939340Y-75319797D01*
X158819969Y-75180031D01*
X158700596Y-75078076D01*
X158639413Y-75025821D01*
X158639410Y-75025820D01*
X158436962Y-74901759D01*
X158436959Y-74901757D01*
X158217596Y-74810895D01*
X157986714Y-74755465D01*
X157750000Y-74736835D01*
X157513285Y-74755465D01*
X157282404Y-74810895D01*
X157282402Y-74810895D01*
X157063040Y-74901757D01*
X157063037Y-74901759D01*
X156860589Y-75025820D01*
X156860586Y-75025821D01*
X156680031Y-75180031D01*
X156525821Y-75360586D01*
X156525820Y-75360589D01*
X156401759Y-75563037D01*
X156401757Y-75563040D01*
X156310895Y-75782402D01*
X156310895Y-75782404D01*
X156255465Y-76013285D01*
X156236835Y-76250000D01*
X152763165Y-76250000D01*
X152744535Y-76013289D01*
X152689105Y-75782406D01*
X152689104Y-75782403D01*
X152689104Y-75782402D01*
X152598242Y-75563040D01*
X152598240Y-75563037D01*
X152474179Y-75360589D01*
X152474178Y-75360586D01*
X152439340Y-75319797D01*
X152319969Y-75180031D01*
X152200596Y-75078076D01*
X152139413Y-75025821D01*
X152139410Y-75025820D01*
X151936962Y-74901759D01*
X151936959Y-74901757D01*
X151717596Y-74810895D01*
X151486714Y-74755465D01*
X151250000Y-74736835D01*
X151013285Y-74755465D01*
X150782404Y-74810895D01*
X150782402Y-74810895D01*
X150563040Y-74901757D01*
X150563037Y-74901759D01*
X150360589Y-75025820D01*
X150360586Y-75025821D01*
X150180031Y-75180031D01*
X150025821Y-75360586D01*
X150025820Y-75360589D01*
X149901759Y-75563037D01*
X149901757Y-75563040D01*
X149810895Y-75782402D01*
X149810895Y-75782404D01*
X149755465Y-76013285D01*
X149736835Y-76250000D01*
X146263165Y-76250000D01*
X146244535Y-76013289D01*
X146189105Y-75782406D01*
X146189104Y-75782403D01*
X146189104Y-75782402D01*
X146098242Y-75563040D01*
X146098240Y-75563037D01*
X145974179Y-75360589D01*
X145974178Y-75360586D01*
X145939340Y-75319797D01*
X145819969Y-75180031D01*
X145700596Y-75078076D01*
X145639413Y-75025821D01*
X145639410Y-75025820D01*
X145436962Y-74901759D01*
X145436959Y-74901757D01*
X145217596Y-74810895D01*
X144986714Y-74755465D01*
X144750000Y-74736835D01*
X144513285Y-74755465D01*
X144282404Y-74810895D01*
X144282402Y-74810895D01*
X144063040Y-74901757D01*
X144063037Y-74901759D01*
X143860589Y-75025820D01*
X143860586Y-75025821D01*
X143680031Y-75180031D01*
X143525821Y-75360586D01*
X143525820Y-75360589D01*
X143401759Y-75563037D01*
X143401757Y-75563040D01*
X143310895Y-75782402D01*
X143310895Y-75782404D01*
X143255465Y-76013285D01*
X143236835Y-76250000D01*
X140991345Y-76250000D01*
X140994535Y-76236711D01*
X141013165Y-76000000D01*
X140994535Y-75763289D01*
X140939105Y-75532406D01*
X140939104Y-75532403D01*
X140939104Y-75532402D01*
X140848242Y-75313040D01*
X140848240Y-75313037D01*
X140724179Y-75110589D01*
X140724178Y-75110586D01*
X140651781Y-75025821D01*
X140569969Y-74930031D01*
X140430479Y-74810895D01*
X140389413Y-74775821D01*
X140389410Y-74775820D01*
X140186962Y-74651759D01*
X140186959Y-74651757D01*
X139967596Y-74560895D01*
X139736714Y-74505465D01*
X139500000Y-74486835D01*
X139263285Y-74505465D01*
X139032404Y-74560895D01*
X139032402Y-74560895D01*
X138813040Y-74651757D01*
X138813037Y-74651759D01*
X138610589Y-74775820D01*
X138610586Y-74775821D01*
X138430031Y-74930031D01*
X138275821Y-75110586D01*
X138275820Y-75110589D01*
X138151759Y-75313037D01*
X138151757Y-75313040D01*
X138060895Y-75532402D01*
X138060895Y-75532404D01*
X138005465Y-75763285D01*
X137986835Y-76000000D01*
X134513165Y-76000000D01*
X134494535Y-75763289D01*
X134439105Y-75532406D01*
X134439104Y-75532403D01*
X134439104Y-75532402D01*
X134348242Y-75313040D01*
X134348240Y-75313037D01*
X134224179Y-75110589D01*
X134224178Y-75110586D01*
X134151781Y-75025821D01*
X134069969Y-74930031D01*
X133930479Y-74810895D01*
X133889413Y-74775821D01*
X133889410Y-74775820D01*
X133686962Y-74651759D01*
X133686959Y-74651757D01*
X133467596Y-74560895D01*
X133236714Y-74505465D01*
X133000000Y-74486835D01*
X132763285Y-74505465D01*
X132532404Y-74560895D01*
X132532402Y-74560895D01*
X132313040Y-74651757D01*
X132313037Y-74651759D01*
X132110589Y-74775820D01*
X132110586Y-74775821D01*
X131930031Y-74930031D01*
X131775821Y-75110586D01*
X131775820Y-75110589D01*
X131651759Y-75313037D01*
X131651757Y-75313040D01*
X131560895Y-75532402D01*
X131560895Y-75532404D01*
X131505465Y-75763285D01*
X131486835Y-76000000D01*
X100075500Y-76000000D01*
X100075500Y-70077155D01*
X110150000Y-70077155D01*
X110150000Y-70725000D01*
X111066988Y-70725000D01*
X111034075Y-70782007D01*
X111000000Y-70909174D01*
X111000000Y-71040826D01*
X111034075Y-71167993D01*
X111066988Y-71225000D01*
X110150000Y-71225000D01*
X110150000Y-71872844D01*
X110156401Y-71932372D01*
X110156403Y-71932379D01*
X110206645Y-72067086D01*
X110206649Y-72067093D01*
X110292809Y-72182187D01*
X110292812Y-72182190D01*
X110407906Y-72268350D01*
X110407913Y-72268354D01*
X110542620Y-72318596D01*
X110542627Y-72318598D01*
X110602155Y-72324999D01*
X110602172Y-72325000D01*
X111250000Y-72325000D01*
X111250000Y-71408012D01*
X111307007Y-71440925D01*
X111434174Y-71475000D01*
X111565826Y-71475000D01*
X111692993Y-71440925D01*
X111750000Y-71408012D01*
X111750000Y-72325000D01*
X112397828Y-72325000D01*
X112397844Y-72324999D01*
X112457372Y-72318598D01*
X112457379Y-72318596D01*
X112592086Y-72268354D01*
X112592093Y-72268350D01*
X112707187Y-72182190D01*
X112707190Y-72182187D01*
X112793350Y-72067093D01*
X112793354Y-72067086D01*
X112839681Y-71942877D01*
X112881552Y-71886943D01*
X112947016Y-71862526D01*
X113015289Y-71877377D01*
X113047089Y-71902223D01*
X113116760Y-71977906D01*
X113294424Y-72116189D01*
X113294425Y-72116189D01*
X113294427Y-72116191D01*
X113416378Y-72182187D01*
X113492426Y-72223342D01*
X113705365Y-72296444D01*
X113927431Y-72333500D01*
X114152569Y-72333500D01*
X114374635Y-72296444D01*
X114587574Y-72223342D01*
X114785576Y-72116189D01*
X114963240Y-71977906D01*
X115115722Y-71812268D01*
X115206193Y-71673790D01*
X115259338Y-71628437D01*
X115328569Y-71619013D01*
X115391905Y-71648515D01*
X115413804Y-71673787D01*
X115504278Y-71812268D01*
X115504283Y-71812273D01*
X115504284Y-71812276D01*
X115656756Y-71977902D01*
X115656761Y-71977907D01*
X115668076Y-71986714D01*
X115834424Y-72116189D01*
X115834425Y-72116189D01*
X115834427Y-72116191D01*
X115956378Y-72182187D01*
X116032426Y-72223342D01*
X116245365Y-72296444D01*
X116467431Y-72333500D01*
X116692569Y-72333500D01*
X116914635Y-72296444D01*
X117127574Y-72223342D01*
X117325576Y-72116189D01*
X117503240Y-71977906D01*
X117655722Y-71812268D01*
X117746193Y-71673790D01*
X117799338Y-71628437D01*
X117868569Y-71619013D01*
X117931905Y-71648515D01*
X117953804Y-71673787D01*
X118044278Y-71812268D01*
X118044283Y-71812273D01*
X118044284Y-71812276D01*
X118196756Y-71977902D01*
X118196761Y-71977907D01*
X118208076Y-71986714D01*
X118374424Y-72116189D01*
X118374425Y-72116189D01*
X118374427Y-72116191D01*
X118496378Y-72182187D01*
X118572426Y-72223342D01*
X118785365Y-72296444D01*
X119007431Y-72333500D01*
X119232569Y-72333500D01*
X119454635Y-72296444D01*
X119667574Y-72223342D01*
X119865576Y-72116189D01*
X120043240Y-71977906D01*
X120195722Y-71812268D01*
X120318860Y-71623791D01*
X120373159Y-71500000D01*
X131486835Y-71500000D01*
X131505465Y-71736714D01*
X131560895Y-71967595D01*
X131560895Y-71967597D01*
X131651757Y-72186959D01*
X131651759Y-72186962D01*
X131775820Y-72389410D01*
X131775821Y-72389413D01*
X131775824Y-72389416D01*
X131930031Y-72569969D01*
X132011343Y-72639416D01*
X132110586Y-72724178D01*
X132110589Y-72724179D01*
X132313037Y-72848240D01*
X132313040Y-72848242D01*
X132532403Y-72939104D01*
X132532404Y-72939104D01*
X132532406Y-72939105D01*
X132763289Y-72994535D01*
X133000000Y-73013165D01*
X133236711Y-72994535D01*
X133467594Y-72939105D01*
X133467596Y-72939104D01*
X133467597Y-72939104D01*
X133686959Y-72848242D01*
X133686960Y-72848241D01*
X133686963Y-72848240D01*
X133889416Y-72724176D01*
X134069969Y-72569969D01*
X134224176Y-72389416D01*
X134348240Y-72186963D01*
X134350219Y-72182187D01*
X134439104Y-71967597D01*
X134439104Y-71967596D01*
X134439105Y-71967594D01*
X134494535Y-71736711D01*
X134513165Y-71500000D01*
X137986835Y-71500000D01*
X138005465Y-71736714D01*
X138060895Y-71967595D01*
X138060895Y-71967597D01*
X138151757Y-72186959D01*
X138151759Y-72186962D01*
X138275820Y-72389410D01*
X138275821Y-72389413D01*
X138275824Y-72389416D01*
X138430031Y-72569969D01*
X138511343Y-72639416D01*
X138610586Y-72724178D01*
X138610589Y-72724179D01*
X138813037Y-72848240D01*
X138813040Y-72848242D01*
X139032403Y-72939104D01*
X139032404Y-72939104D01*
X139032406Y-72939105D01*
X139263289Y-72994535D01*
X139500000Y-73013165D01*
X139736711Y-72994535D01*
X139967594Y-72939105D01*
X139967596Y-72939104D01*
X139967597Y-72939104D01*
X140186959Y-72848242D01*
X140186960Y-72848241D01*
X140186963Y-72848240D01*
X140389416Y-72724176D01*
X140569969Y-72569969D01*
X140724176Y-72389416D01*
X140848240Y-72186963D01*
X140850219Y-72182187D01*
X140939104Y-71967597D01*
X140939104Y-71967596D01*
X140939105Y-71967594D01*
X140991345Y-71750000D01*
X143236835Y-71750000D01*
X143255465Y-71986714D01*
X143310895Y-72217595D01*
X143310895Y-72217597D01*
X143401757Y-72436959D01*
X143401759Y-72436962D01*
X143525820Y-72639410D01*
X143525821Y-72639413D01*
X143525824Y-72639416D01*
X143680031Y-72819969D01*
X143819520Y-72939104D01*
X143860586Y-72974178D01*
X143860589Y-72974179D01*
X144063037Y-73098240D01*
X144063040Y-73098242D01*
X144282403Y-73189104D01*
X144282404Y-73189104D01*
X144282406Y-73189105D01*
X144513289Y-73244535D01*
X144750000Y-73263165D01*
X144986711Y-73244535D01*
X145217594Y-73189105D01*
X145217596Y-73189104D01*
X145217597Y-73189104D01*
X145436959Y-73098242D01*
X145436960Y-73098241D01*
X145436963Y-73098240D01*
X145639416Y-72974176D01*
X145819969Y-72819969D01*
X145974176Y-72639416D01*
X146098240Y-72436963D01*
X146117935Y-72389416D01*
X146189104Y-72217597D01*
X146189104Y-72217596D01*
X146189105Y-72217594D01*
X146244535Y-71986711D01*
X146263165Y-71750000D01*
X149736835Y-71750000D01*
X149755465Y-71986714D01*
X149810895Y-72217595D01*
X149810895Y-72217597D01*
X149901757Y-72436959D01*
X149901759Y-72436962D01*
X150025820Y-72639410D01*
X150025821Y-72639413D01*
X150025824Y-72639416D01*
X150180031Y-72819969D01*
X150319520Y-72939104D01*
X150360586Y-72974178D01*
X150360589Y-72974179D01*
X150563037Y-73098240D01*
X150563040Y-73098242D01*
X150782403Y-73189104D01*
X150782404Y-73189104D01*
X150782406Y-73189105D01*
X151013289Y-73244535D01*
X151250000Y-73263165D01*
X151486711Y-73244535D01*
X151717594Y-73189105D01*
X151717596Y-73189104D01*
X151717597Y-73189104D01*
X151936959Y-73098242D01*
X151936960Y-73098241D01*
X151936963Y-73098240D01*
X152139416Y-72974176D01*
X152319969Y-72819969D01*
X152474176Y-72639416D01*
X152598240Y-72436963D01*
X152617935Y-72389416D01*
X152689104Y-72217597D01*
X152689104Y-72217596D01*
X152689105Y-72217594D01*
X152744535Y-71986711D01*
X152763165Y-71750000D01*
X156236835Y-71750000D01*
X156255465Y-71986714D01*
X156310895Y-72217595D01*
X156310895Y-72217597D01*
X156401757Y-72436959D01*
X156401759Y-72436962D01*
X156525820Y-72639410D01*
X156525821Y-72639413D01*
X156525824Y-72639416D01*
X156680031Y-72819969D01*
X156819520Y-72939104D01*
X156860586Y-72974178D01*
X156860589Y-72974179D01*
X157063037Y-73098240D01*
X157063040Y-73098242D01*
X157282403Y-73189104D01*
X157282404Y-73189104D01*
X157282406Y-73189105D01*
X157513289Y-73244535D01*
X157750000Y-73263165D01*
X157986711Y-73244535D01*
X158217594Y-73189105D01*
X158217596Y-73189104D01*
X158217597Y-73189104D01*
X158436959Y-73098242D01*
X158436960Y-73098241D01*
X158436963Y-73098240D01*
X158639416Y-72974176D01*
X158819969Y-72819969D01*
X158974176Y-72639416D01*
X159098240Y-72436963D01*
X159117935Y-72389416D01*
X159189104Y-72217597D01*
X159189104Y-72217596D01*
X159189105Y-72217594D01*
X159244535Y-71986711D01*
X159263165Y-71750000D01*
X162736835Y-71750000D01*
X162755465Y-71986714D01*
X162810895Y-72217595D01*
X162810895Y-72217597D01*
X162901757Y-72436959D01*
X162901759Y-72436962D01*
X163025820Y-72639410D01*
X163025821Y-72639413D01*
X163025824Y-72639416D01*
X163180031Y-72819969D01*
X163319520Y-72939104D01*
X163360586Y-72974178D01*
X163360589Y-72974179D01*
X163563037Y-73098240D01*
X163563040Y-73098242D01*
X163782403Y-73189104D01*
X163782404Y-73189104D01*
X163782406Y-73189105D01*
X164013289Y-73244535D01*
X164250000Y-73263165D01*
X164486711Y-73244535D01*
X164717594Y-73189105D01*
X164717596Y-73189104D01*
X164717597Y-73189104D01*
X164936959Y-73098242D01*
X164936960Y-73098241D01*
X164936963Y-73098240D01*
X165139416Y-72974176D01*
X165319969Y-72819969D01*
X165474176Y-72639416D01*
X165598240Y-72436963D01*
X165617935Y-72389416D01*
X165689104Y-72217597D01*
X165689104Y-72217596D01*
X165689105Y-72217594D01*
X165744535Y-71986711D01*
X165763165Y-71750000D01*
X165744535Y-71513289D01*
X165689105Y-71282406D01*
X165689104Y-71282403D01*
X165689104Y-71282402D01*
X165598242Y-71063040D01*
X165598240Y-71063037D01*
X165474179Y-70860589D01*
X165474178Y-70860586D01*
X165439340Y-70819797D01*
X165319969Y-70680031D01*
X165147097Y-70532384D01*
X165139413Y-70525821D01*
X165139410Y-70525820D01*
X164936962Y-70401759D01*
X164936959Y-70401757D01*
X164717596Y-70310895D01*
X164486714Y-70255465D01*
X164250000Y-70236835D01*
X164013285Y-70255465D01*
X163782404Y-70310895D01*
X163782402Y-70310895D01*
X163563040Y-70401757D01*
X163563037Y-70401759D01*
X163360589Y-70525820D01*
X163360586Y-70525821D01*
X163180031Y-70680031D01*
X163025821Y-70860586D01*
X163025820Y-70860589D01*
X162901759Y-71063037D01*
X162901757Y-71063040D01*
X162810895Y-71282402D01*
X162810895Y-71282404D01*
X162755465Y-71513285D01*
X162736835Y-71750000D01*
X159263165Y-71750000D01*
X159244535Y-71513289D01*
X159189105Y-71282406D01*
X159189104Y-71282403D01*
X159189104Y-71282402D01*
X159098242Y-71063040D01*
X159098240Y-71063037D01*
X158974179Y-70860589D01*
X158974178Y-70860586D01*
X158939340Y-70819797D01*
X158819969Y-70680031D01*
X158647097Y-70532384D01*
X158639413Y-70525821D01*
X158639410Y-70525820D01*
X158436962Y-70401759D01*
X158436959Y-70401757D01*
X158217596Y-70310895D01*
X157986714Y-70255465D01*
X157750000Y-70236835D01*
X157513285Y-70255465D01*
X157282404Y-70310895D01*
X157282402Y-70310895D01*
X157063040Y-70401757D01*
X157063037Y-70401759D01*
X156860589Y-70525820D01*
X156860586Y-70525821D01*
X156680031Y-70680031D01*
X156525821Y-70860586D01*
X156525820Y-70860589D01*
X156401759Y-71063037D01*
X156401757Y-71063040D01*
X156310895Y-71282402D01*
X156310895Y-71282404D01*
X156255465Y-71513285D01*
X156236835Y-71750000D01*
X152763165Y-71750000D01*
X152744535Y-71513289D01*
X152689105Y-71282406D01*
X152689104Y-71282403D01*
X152689104Y-71282402D01*
X152598242Y-71063040D01*
X152598240Y-71063037D01*
X152474179Y-70860589D01*
X152474178Y-70860586D01*
X152439340Y-70819797D01*
X152319969Y-70680031D01*
X152147097Y-70532384D01*
X152139413Y-70525821D01*
X152139410Y-70525820D01*
X151936962Y-70401759D01*
X151936959Y-70401757D01*
X151717596Y-70310895D01*
X151486714Y-70255465D01*
X151250000Y-70236835D01*
X151013285Y-70255465D01*
X150782404Y-70310895D01*
X150782402Y-70310895D01*
X150563040Y-70401757D01*
X150563037Y-70401759D01*
X150360589Y-70525820D01*
X150360586Y-70525821D01*
X150180031Y-70680031D01*
X150025821Y-70860586D01*
X150025820Y-70860589D01*
X149901759Y-71063037D01*
X149901757Y-71063040D01*
X149810895Y-71282402D01*
X149810895Y-71282404D01*
X149755465Y-71513285D01*
X149736835Y-71750000D01*
X146263165Y-71750000D01*
X146244535Y-71513289D01*
X146189105Y-71282406D01*
X146189104Y-71282403D01*
X146189104Y-71282402D01*
X146098242Y-71063040D01*
X146098240Y-71063037D01*
X145974179Y-70860589D01*
X145974178Y-70860586D01*
X145939340Y-70819797D01*
X145819969Y-70680031D01*
X145647097Y-70532384D01*
X145639413Y-70525821D01*
X145639410Y-70525820D01*
X145436962Y-70401759D01*
X145436959Y-70401757D01*
X145217596Y-70310895D01*
X144986714Y-70255465D01*
X144750000Y-70236835D01*
X144513285Y-70255465D01*
X144282404Y-70310895D01*
X144282402Y-70310895D01*
X144063040Y-70401757D01*
X144063037Y-70401759D01*
X143860589Y-70525820D01*
X143860586Y-70525821D01*
X143680031Y-70680031D01*
X143525821Y-70860586D01*
X143525820Y-70860589D01*
X143401759Y-71063037D01*
X143401757Y-71063040D01*
X143310895Y-71282402D01*
X143310895Y-71282404D01*
X143255465Y-71513285D01*
X143236835Y-71750000D01*
X140991345Y-71750000D01*
X140994535Y-71736711D01*
X141013165Y-71500000D01*
X140994535Y-71263289D01*
X140939105Y-71032406D01*
X140939104Y-71032403D01*
X140939104Y-71032402D01*
X140848242Y-70813040D01*
X140848240Y-70813037D01*
X140809998Y-70750632D01*
X140724178Y-70610588D01*
X140724178Y-70610586D01*
X140689340Y-70569797D01*
X140569969Y-70430031D01*
X140419460Y-70301484D01*
X140389413Y-70275821D01*
X140389410Y-70275820D01*
X140186962Y-70151759D01*
X140186959Y-70151757D01*
X139967596Y-70060895D01*
X139736714Y-70005465D01*
X139500000Y-69986835D01*
X139263285Y-70005465D01*
X139032404Y-70060895D01*
X139032402Y-70060895D01*
X138813040Y-70151757D01*
X138813037Y-70151759D01*
X138610589Y-70275820D01*
X138610586Y-70275821D01*
X138430031Y-70430031D01*
X138275821Y-70610586D01*
X138275820Y-70610589D01*
X138151759Y-70813037D01*
X138151757Y-70813040D01*
X138060895Y-71032402D01*
X138060895Y-71032404D01*
X138005465Y-71263285D01*
X137986835Y-71500000D01*
X134513165Y-71500000D01*
X134494535Y-71263289D01*
X134439105Y-71032406D01*
X134439104Y-71032403D01*
X134439104Y-71032402D01*
X134348242Y-70813040D01*
X134348240Y-70813037D01*
X134309998Y-70750632D01*
X134224178Y-70610588D01*
X134224178Y-70610586D01*
X134189340Y-70569797D01*
X134069969Y-70430031D01*
X133919460Y-70301484D01*
X133889413Y-70275821D01*
X133889410Y-70275820D01*
X133686962Y-70151759D01*
X133686959Y-70151757D01*
X133467596Y-70060895D01*
X133236714Y-70005465D01*
X133000000Y-69986835D01*
X132763285Y-70005465D01*
X132532404Y-70060895D01*
X132532402Y-70060895D01*
X132313040Y-70151757D01*
X132313037Y-70151759D01*
X132110589Y-70275820D01*
X132110586Y-70275821D01*
X131930031Y-70430031D01*
X131775821Y-70610586D01*
X131775820Y-70610589D01*
X131651759Y-70813037D01*
X131651757Y-70813040D01*
X131560895Y-71032402D01*
X131560895Y-71032404D01*
X131505465Y-71263285D01*
X131486835Y-71500000D01*
X120373159Y-71500000D01*
X120409296Y-71417616D01*
X120464564Y-71199368D01*
X120475861Y-71063037D01*
X120483156Y-70975005D01*
X120483156Y-70974994D01*
X120464565Y-70750640D01*
X120464563Y-70750628D01*
X120409296Y-70532385D01*
X120406418Y-70525824D01*
X120318860Y-70326209D01*
X120302706Y-70301484D01*
X120195723Y-70137734D01*
X120195715Y-70137723D01*
X120043243Y-69972097D01*
X120043238Y-69972092D01*
X119865577Y-69833812D01*
X119865572Y-69833808D01*
X119667580Y-69726661D01*
X119667577Y-69726659D01*
X119667574Y-69726658D01*
X119667571Y-69726657D01*
X119667569Y-69726656D01*
X119454637Y-69653556D01*
X119232569Y-69616500D01*
X119007431Y-69616500D01*
X118785362Y-69653556D01*
X118572430Y-69726656D01*
X118572419Y-69726661D01*
X118374427Y-69833808D01*
X118374422Y-69833812D01*
X118196761Y-69972092D01*
X118196756Y-69972097D01*
X118044284Y-70137723D01*
X118044276Y-70137734D01*
X117953808Y-70276206D01*
X117900662Y-70321562D01*
X117831431Y-70330986D01*
X117768095Y-70301484D01*
X117746192Y-70276206D01*
X117655723Y-70137734D01*
X117655715Y-70137723D01*
X117503243Y-69972097D01*
X117503238Y-69972092D01*
X117325577Y-69833812D01*
X117325572Y-69833808D01*
X117127580Y-69726661D01*
X117127577Y-69726659D01*
X117127574Y-69726658D01*
X117127571Y-69726657D01*
X117127569Y-69726656D01*
X116914637Y-69653556D01*
X116692569Y-69616500D01*
X116467431Y-69616500D01*
X116245362Y-69653556D01*
X116032430Y-69726656D01*
X116032419Y-69726661D01*
X115834427Y-69833808D01*
X115834422Y-69833812D01*
X115656761Y-69972092D01*
X115656756Y-69972097D01*
X115504284Y-70137723D01*
X115504276Y-70137734D01*
X115413808Y-70276206D01*
X115360662Y-70321562D01*
X115291431Y-70330986D01*
X115228095Y-70301484D01*
X115206192Y-70276206D01*
X115115723Y-70137734D01*
X115115715Y-70137723D01*
X114963243Y-69972097D01*
X114963238Y-69972092D01*
X114785577Y-69833812D01*
X114785572Y-69833808D01*
X114587580Y-69726661D01*
X114587577Y-69726659D01*
X114587574Y-69726658D01*
X114587571Y-69726657D01*
X114587569Y-69726656D01*
X114374637Y-69653556D01*
X114152569Y-69616500D01*
X113927431Y-69616500D01*
X113705362Y-69653556D01*
X113492430Y-69726656D01*
X113492419Y-69726661D01*
X113294427Y-69833808D01*
X113294422Y-69833812D01*
X113116761Y-69972092D01*
X113047092Y-70047773D01*
X112987205Y-70083763D01*
X112917367Y-70081662D01*
X112859751Y-70042137D01*
X112839681Y-70007122D01*
X112793354Y-69882913D01*
X112793350Y-69882906D01*
X112707190Y-69767812D01*
X112707187Y-69767809D01*
X112592093Y-69681649D01*
X112592086Y-69681645D01*
X112457379Y-69631403D01*
X112457372Y-69631401D01*
X112397844Y-69625000D01*
X111750000Y-69625000D01*
X111750000Y-70541988D01*
X111692993Y-70509075D01*
X111565826Y-70475000D01*
X111434174Y-70475000D01*
X111307007Y-70509075D01*
X111250000Y-70541988D01*
X111250000Y-69625000D01*
X110602155Y-69625000D01*
X110542627Y-69631401D01*
X110542620Y-69631403D01*
X110407913Y-69681645D01*
X110407906Y-69681649D01*
X110292812Y-69767809D01*
X110292809Y-69767812D01*
X110206649Y-69882906D01*
X110206645Y-69882913D01*
X110156403Y-70017620D01*
X110156401Y-70017627D01*
X110150000Y-70077155D01*
X100075500Y-70077155D01*
X100075500Y-67499998D01*
X139106502Y-67499998D01*
X139106502Y-67500001D01*
X139126456Y-67728081D01*
X139126457Y-67728089D01*
X139185714Y-67949238D01*
X139185718Y-67949249D01*
X139280487Y-68152482D01*
X139282477Y-68156749D01*
X139413802Y-68344300D01*
X139575700Y-68506198D01*
X139763251Y-68637523D01*
X139888091Y-68695736D01*
X139970750Y-68734281D01*
X139970752Y-68734281D01*
X139970757Y-68734284D01*
X140191913Y-68793543D01*
X140354832Y-68807796D01*
X140419998Y-68813498D01*
X140420000Y-68813498D01*
X140420002Y-68813498D01*
X140477021Y-68808509D01*
X140648087Y-68793543D01*
X140869243Y-68734284D01*
X141076749Y-68637523D01*
X141264300Y-68506198D01*
X141426198Y-68344300D01*
X141557523Y-68156749D01*
X141654284Y-67949243D01*
X141713543Y-67728087D01*
X141733498Y-67500000D01*
X141713543Y-67271913D01*
X141707671Y-67249999D01*
X149301127Y-67249999D01*
X149301128Y-67250000D01*
X150264314Y-67250000D01*
X150259920Y-67254394D01*
X150207259Y-67345606D01*
X150180000Y-67447339D01*
X150180000Y-67552661D01*
X150207259Y-67654394D01*
X150259920Y-67745606D01*
X150264314Y-67750000D01*
X149301128Y-67750000D01*
X149353730Y-67946317D01*
X149353734Y-67946326D01*
X149449865Y-68152482D01*
X149580342Y-68338820D01*
X149741179Y-68499657D01*
X149927517Y-68630134D01*
X150133673Y-68726265D01*
X150133682Y-68726269D01*
X150329999Y-68778872D01*
X150330000Y-68778871D01*
X150330000Y-67815686D01*
X150334394Y-67820080D01*
X150425606Y-67872741D01*
X150527339Y-67900000D01*
X150632661Y-67900000D01*
X150734394Y-67872741D01*
X150825606Y-67820080D01*
X150830000Y-67815686D01*
X150830000Y-68778872D01*
X151026317Y-68726269D01*
X151026326Y-68726265D01*
X151232482Y-68630134D01*
X151418820Y-68499657D01*
X151579657Y-68338820D01*
X151710134Y-68152482D01*
X151806265Y-67946326D01*
X151806269Y-67946317D01*
X151858872Y-67750000D01*
X150895686Y-67750000D01*
X150900080Y-67745606D01*
X150952741Y-67654394D01*
X150980000Y-67552661D01*
X150980000Y-67499998D01*
X153106502Y-67499998D01*
X153106502Y-67500001D01*
X153126456Y-67728081D01*
X153126457Y-67728089D01*
X153185714Y-67949238D01*
X153185718Y-67949249D01*
X153280487Y-68152482D01*
X153282477Y-68156749D01*
X153413802Y-68344300D01*
X153575700Y-68506198D01*
X153763251Y-68637523D01*
X153888091Y-68695736D01*
X153970750Y-68734281D01*
X153970752Y-68734281D01*
X153970757Y-68734284D01*
X154191913Y-68793543D01*
X154354832Y-68807796D01*
X154419998Y-68813498D01*
X154420000Y-68813498D01*
X154420002Y-68813498D01*
X154477021Y-68808509D01*
X154648087Y-68793543D01*
X154869243Y-68734284D01*
X155076749Y-68637523D01*
X155264300Y-68506198D01*
X155426198Y-68344300D01*
X155557523Y-68156749D01*
X155654284Y-67949243D01*
X155713543Y-67728087D01*
X155733498Y-67500000D01*
X155713543Y-67271913D01*
X155707671Y-67249999D01*
X163301127Y-67249999D01*
X163301128Y-67250000D01*
X164264314Y-67250000D01*
X164259920Y-67254394D01*
X164207259Y-67345606D01*
X164180000Y-67447339D01*
X164180000Y-67552661D01*
X164207259Y-67654394D01*
X164259920Y-67745606D01*
X164264314Y-67750000D01*
X163301128Y-67750000D01*
X163353730Y-67946317D01*
X163353734Y-67946326D01*
X163449865Y-68152482D01*
X163580342Y-68338820D01*
X163741179Y-68499657D01*
X163927517Y-68630134D01*
X164133673Y-68726265D01*
X164133682Y-68726269D01*
X164329999Y-68778872D01*
X164330000Y-68778871D01*
X164330000Y-67815686D01*
X164334394Y-67820080D01*
X164425606Y-67872741D01*
X164527339Y-67900000D01*
X164632661Y-67900000D01*
X164734394Y-67872741D01*
X164825606Y-67820080D01*
X164830000Y-67815686D01*
X164830000Y-68778872D01*
X165026317Y-68726269D01*
X165026326Y-68726265D01*
X165232482Y-68630134D01*
X165418820Y-68499657D01*
X165579657Y-68338820D01*
X165710134Y-68152482D01*
X165806265Y-67946326D01*
X165806269Y-67946317D01*
X165858872Y-67750000D01*
X164895686Y-67750000D01*
X164900080Y-67745606D01*
X164952741Y-67654394D01*
X164980000Y-67552661D01*
X164980000Y-67447339D01*
X164952741Y-67345606D01*
X164900080Y-67254394D01*
X164895686Y-67250000D01*
X165858872Y-67250000D01*
X165858872Y-67249999D01*
X165806269Y-67053682D01*
X165806265Y-67053673D01*
X165710134Y-66847517D01*
X165579657Y-66661179D01*
X165418820Y-66500342D01*
X165232482Y-66369865D01*
X165026328Y-66273734D01*
X164830000Y-66221127D01*
X164830000Y-67184314D01*
X164825606Y-67179920D01*
X164734394Y-67127259D01*
X164632661Y-67100000D01*
X164527339Y-67100000D01*
X164425606Y-67127259D01*
X164334394Y-67179920D01*
X164330000Y-67184314D01*
X164330000Y-66221127D01*
X164133671Y-66273734D01*
X163927517Y-66369865D01*
X163741179Y-66500342D01*
X163580342Y-66661179D01*
X163449865Y-66847517D01*
X163353734Y-67053673D01*
X163353730Y-67053682D01*
X163301127Y-67249999D01*
X155707671Y-67249999D01*
X155654284Y-67050757D01*
X155648384Y-67038105D01*
X155583985Y-66899999D01*
X155557523Y-66843251D01*
X155426198Y-66655700D01*
X155264300Y-66493802D01*
X155076749Y-66362477D01*
X155076745Y-66362475D01*
X154869249Y-66265718D01*
X154869238Y-66265714D01*
X154648089Y-66206457D01*
X154648081Y-66206456D01*
X154420002Y-66186502D01*
X154419998Y-66186502D01*
X154191918Y-66206456D01*
X154191910Y-66206457D01*
X153970761Y-66265714D01*
X153970750Y-66265718D01*
X153763254Y-66362475D01*
X153763252Y-66362476D01*
X153755243Y-66368084D01*
X153575700Y-66493802D01*
X153575698Y-66493803D01*
X153575695Y-66493806D01*
X153413806Y-66655695D01*
X153413803Y-66655698D01*
X153413802Y-66655700D01*
X153387439Y-66693350D01*
X153282476Y-66843252D01*
X153282475Y-66843254D01*
X153185718Y-67050750D01*
X153185714Y-67050761D01*
X153126457Y-67271910D01*
X153126456Y-67271918D01*
X153106502Y-67499998D01*
X150980000Y-67499998D01*
X150980000Y-67447339D01*
X150952741Y-67345606D01*
X150900080Y-67254394D01*
X150895686Y-67250000D01*
X151858872Y-67250000D01*
X151858872Y-67249999D01*
X151806269Y-67053682D01*
X151806265Y-67053673D01*
X151710134Y-66847517D01*
X151579657Y-66661179D01*
X151418820Y-66500342D01*
X151232482Y-66369865D01*
X151026328Y-66273734D01*
X150830000Y-66221127D01*
X150830000Y-67184314D01*
X150825606Y-67179920D01*
X150734394Y-67127259D01*
X150632661Y-67100000D01*
X150527339Y-67100000D01*
X150425606Y-67127259D01*
X150334394Y-67179920D01*
X150330000Y-67184314D01*
X150330000Y-66221127D01*
X150133671Y-66273734D01*
X149927517Y-66369865D01*
X149741179Y-66500342D01*
X149580342Y-66661179D01*
X149449865Y-66847517D01*
X149353734Y-67053673D01*
X149353730Y-67053682D01*
X149301127Y-67249999D01*
X141707671Y-67249999D01*
X141654284Y-67050757D01*
X141648384Y-67038105D01*
X141583985Y-66899999D01*
X141557523Y-66843251D01*
X141426198Y-66655700D01*
X141264300Y-66493802D01*
X141076749Y-66362477D01*
X141076745Y-66362475D01*
X140869249Y-66265718D01*
X140869238Y-66265714D01*
X140648089Y-66206457D01*
X140648081Y-66206456D01*
X140420002Y-66186502D01*
X140419998Y-66186502D01*
X140191918Y-66206456D01*
X140191910Y-66206457D01*
X139970761Y-66265714D01*
X139970750Y-66265718D01*
X139763254Y-66362475D01*
X139763252Y-66362476D01*
X139755243Y-66368084D01*
X139575700Y-66493802D01*
X139575698Y-66493803D01*
X139575695Y-66493806D01*
X139413806Y-66655695D01*
X139413803Y-66655698D01*
X139413802Y-66655700D01*
X139387439Y-66693350D01*
X139282476Y-66843252D01*
X139282475Y-66843254D01*
X139185718Y-67050750D01*
X139185714Y-67050761D01*
X139126457Y-67271910D01*
X139126456Y-67271918D01*
X139106502Y-67499998D01*
X100075500Y-67499998D01*
X100075500Y-65101345D01*
X106561500Y-65101345D01*
X106561500Y-66898654D01*
X106568011Y-66959202D01*
X106568011Y-66959204D01*
X106603251Y-67053682D01*
X106619111Y-67096204D01*
X106706739Y-67213261D01*
X106823796Y-67300889D01*
X106960799Y-67351989D01*
X106988050Y-67354918D01*
X107021345Y-67358499D01*
X107021362Y-67358500D01*
X108818638Y-67358500D01*
X108818654Y-67358499D01*
X108845692Y-67355591D01*
X108879201Y-67351989D01*
X109016204Y-67300889D01*
X109133261Y-67213261D01*
X109220889Y-67096204D01*
X109269223Y-66966615D01*
X109311093Y-66910686D01*
X109376557Y-66886269D01*
X109444830Y-66901121D01*
X109473084Y-66922272D01*
X109588917Y-67038105D01*
X109782421Y-67173600D01*
X109996507Y-67273429D01*
X109996516Y-67273433D01*
X110210000Y-67330634D01*
X110210000Y-66433012D01*
X110267007Y-66465925D01*
X110394174Y-66500000D01*
X110525826Y-66500000D01*
X110652993Y-66465925D01*
X110710000Y-66433012D01*
X110710000Y-67330633D01*
X110923483Y-67273433D01*
X110923492Y-67273429D01*
X111137578Y-67173600D01*
X111331082Y-67038105D01*
X111498105Y-66871082D01*
X111624868Y-66690048D01*
X111679445Y-66646423D01*
X111748944Y-66639231D01*
X111811298Y-66670753D01*
X111830251Y-66693350D01*
X111924276Y-66837265D01*
X111924284Y-66837276D01*
X112043355Y-66966619D01*
X112076760Y-67002906D01*
X112254424Y-67141189D01*
X112254425Y-67141189D01*
X112254427Y-67141191D01*
X112314314Y-67173600D01*
X112452426Y-67248342D01*
X112665365Y-67321444D01*
X112887431Y-67358500D01*
X113112569Y-67358500D01*
X113334635Y-67321444D01*
X113547574Y-67248342D01*
X113745576Y-67141189D01*
X113923240Y-67002906D01*
X114066287Y-66847517D01*
X114075715Y-66837276D01*
X114075715Y-66837275D01*
X114075722Y-66837268D01*
X114166193Y-66698790D01*
X114219338Y-66653437D01*
X114288569Y-66644013D01*
X114351905Y-66673515D01*
X114373804Y-66698787D01*
X114464278Y-66837268D01*
X114464283Y-66837273D01*
X114464284Y-66837276D01*
X114583355Y-66966619D01*
X114616760Y-67002906D01*
X114794424Y-67141189D01*
X114794425Y-67141189D01*
X114794427Y-67141191D01*
X114854314Y-67173600D01*
X114992426Y-67248342D01*
X115205365Y-67321444D01*
X115427431Y-67358500D01*
X115652569Y-67358500D01*
X115874635Y-67321444D01*
X116087574Y-67248342D01*
X116285576Y-67141189D01*
X116463240Y-67002906D01*
X116606287Y-66847517D01*
X116615715Y-66837276D01*
X116615715Y-66837275D01*
X116615722Y-66837268D01*
X116706193Y-66698790D01*
X116759338Y-66653437D01*
X116828569Y-66644013D01*
X116891905Y-66673515D01*
X116913804Y-66698787D01*
X117004278Y-66837268D01*
X117004283Y-66837273D01*
X117004284Y-66837276D01*
X117123355Y-66966619D01*
X117156760Y-67002906D01*
X117334424Y-67141189D01*
X117334425Y-67141189D01*
X117334427Y-67141191D01*
X117394314Y-67173600D01*
X117532426Y-67248342D01*
X117745365Y-67321444D01*
X117967431Y-67358500D01*
X118192569Y-67358500D01*
X118414635Y-67321444D01*
X118627574Y-67248342D01*
X118825576Y-67141189D01*
X119003240Y-67002906D01*
X119146287Y-66847517D01*
X119155715Y-66837276D01*
X119155715Y-66837275D01*
X119155722Y-66837268D01*
X119246193Y-66698790D01*
X119299338Y-66653437D01*
X119368569Y-66644013D01*
X119431905Y-66673515D01*
X119453804Y-66698787D01*
X119544278Y-66837268D01*
X119544283Y-66837273D01*
X119544284Y-66837276D01*
X119663355Y-66966619D01*
X119696760Y-67002906D01*
X119874424Y-67141189D01*
X119874425Y-67141189D01*
X119874427Y-67141191D01*
X119934314Y-67173600D01*
X120072426Y-67248342D01*
X120285365Y-67321444D01*
X120507431Y-67358500D01*
X120732569Y-67358500D01*
X120954635Y-67321444D01*
X121167574Y-67248342D01*
X121365576Y-67141189D01*
X121543240Y-67002906D01*
X121686287Y-66847517D01*
X121695715Y-66837276D01*
X121695715Y-66837275D01*
X121695722Y-66837268D01*
X121786193Y-66698790D01*
X121839338Y-66653437D01*
X121908569Y-66644013D01*
X121971905Y-66673515D01*
X121993804Y-66698787D01*
X122084278Y-66837268D01*
X122084283Y-66837273D01*
X122084284Y-66837276D01*
X122203355Y-66966619D01*
X122236760Y-67002906D01*
X122414424Y-67141189D01*
X122414425Y-67141189D01*
X122414427Y-67141191D01*
X122474314Y-67173600D01*
X122612426Y-67248342D01*
X122825365Y-67321444D01*
X123047431Y-67358500D01*
X123272569Y-67358500D01*
X123494635Y-67321444D01*
X123707574Y-67248342D01*
X123905576Y-67141189D01*
X124083240Y-67002906D01*
X124226287Y-66847517D01*
X124235715Y-66837276D01*
X124235715Y-66837275D01*
X124235722Y-66837268D01*
X124326193Y-66698790D01*
X124379338Y-66653437D01*
X124448569Y-66644013D01*
X124511905Y-66673515D01*
X124533804Y-66698787D01*
X124624278Y-66837268D01*
X124624283Y-66837273D01*
X124624284Y-66837276D01*
X124743355Y-66966619D01*
X124776760Y-67002906D01*
X124954424Y-67141189D01*
X124954425Y-67141189D01*
X124954427Y-67141191D01*
X125014314Y-67173600D01*
X125152426Y-67248342D01*
X125365365Y-67321444D01*
X125587431Y-67358500D01*
X125812569Y-67358500D01*
X126034635Y-67321444D01*
X126247574Y-67248342D01*
X126445576Y-67141189D01*
X126623240Y-67002906D01*
X126766287Y-66847517D01*
X126775715Y-66837276D01*
X126775717Y-66837273D01*
X126775722Y-66837268D01*
X126898860Y-66648791D01*
X126989296Y-66442616D01*
X127044564Y-66224368D01*
X127046048Y-66206457D01*
X127063156Y-66000005D01*
X127063156Y-65999994D01*
X127044565Y-65775640D01*
X127044563Y-65775628D01*
X126989296Y-65557385D01*
X126979071Y-65534075D01*
X126898860Y-65351209D01*
X126882706Y-65326484D01*
X126775723Y-65162734D01*
X126775715Y-65162723D01*
X126623243Y-64997097D01*
X126623238Y-64997092D01*
X126445577Y-64858812D01*
X126445572Y-64858808D01*
X126247580Y-64751661D01*
X126247577Y-64751659D01*
X126247574Y-64751658D01*
X126247571Y-64751657D01*
X126247569Y-64751656D01*
X126034637Y-64678556D01*
X125812569Y-64641500D01*
X125587431Y-64641500D01*
X125365362Y-64678556D01*
X125152430Y-64751656D01*
X125152419Y-64751661D01*
X124954427Y-64858808D01*
X124954422Y-64858812D01*
X124776761Y-64997092D01*
X124776756Y-64997097D01*
X124624284Y-65162723D01*
X124624276Y-65162734D01*
X124533808Y-65301206D01*
X124480662Y-65346562D01*
X124411431Y-65355986D01*
X124348095Y-65326484D01*
X124326192Y-65301206D01*
X124235723Y-65162734D01*
X124235715Y-65162723D01*
X124083243Y-64997097D01*
X124083238Y-64997092D01*
X123905577Y-64858812D01*
X123905572Y-64858808D01*
X123707580Y-64751661D01*
X123707577Y-64751659D01*
X123707574Y-64751658D01*
X123707571Y-64751657D01*
X123707569Y-64751656D01*
X123494637Y-64678556D01*
X123272569Y-64641500D01*
X123047431Y-64641500D01*
X122825362Y-64678556D01*
X122612430Y-64751656D01*
X122612419Y-64751661D01*
X122414427Y-64858808D01*
X122414422Y-64858812D01*
X122236761Y-64997092D01*
X122236756Y-64997097D01*
X122084284Y-65162723D01*
X122084276Y-65162734D01*
X121993808Y-65301206D01*
X121940662Y-65346562D01*
X121871431Y-65355986D01*
X121808095Y-65326484D01*
X121786192Y-65301206D01*
X121695723Y-65162734D01*
X121695715Y-65162723D01*
X121543243Y-64997097D01*
X121543238Y-64997092D01*
X121365577Y-64858812D01*
X121365572Y-64858808D01*
X121167580Y-64751661D01*
X121167577Y-64751659D01*
X121167574Y-64751658D01*
X121167571Y-64751657D01*
X121167569Y-64751656D01*
X120954637Y-64678556D01*
X120732569Y-64641500D01*
X120507431Y-64641500D01*
X120285362Y-64678556D01*
X120072430Y-64751656D01*
X120072419Y-64751661D01*
X119874427Y-64858808D01*
X119874422Y-64858812D01*
X119696761Y-64997092D01*
X119696756Y-64997097D01*
X119544284Y-65162723D01*
X119544276Y-65162734D01*
X119453808Y-65301206D01*
X119400662Y-65346562D01*
X119331431Y-65355986D01*
X119268095Y-65326484D01*
X119246192Y-65301206D01*
X119155723Y-65162734D01*
X119155715Y-65162723D01*
X119003243Y-64997097D01*
X119003238Y-64997092D01*
X118825577Y-64858812D01*
X118825572Y-64858808D01*
X118627580Y-64751661D01*
X118627577Y-64751659D01*
X118627574Y-64751658D01*
X118627571Y-64751657D01*
X118627569Y-64751656D01*
X118414637Y-64678556D01*
X118192569Y-64641500D01*
X117967431Y-64641500D01*
X117745362Y-64678556D01*
X117532430Y-64751656D01*
X117532419Y-64751661D01*
X117334427Y-64858808D01*
X117334422Y-64858812D01*
X117156761Y-64997092D01*
X117156756Y-64997097D01*
X117004284Y-65162723D01*
X117004276Y-65162734D01*
X116913808Y-65301206D01*
X116860662Y-65346562D01*
X116791431Y-65355986D01*
X116728095Y-65326484D01*
X116706192Y-65301206D01*
X116615723Y-65162734D01*
X116615715Y-65162723D01*
X116463243Y-64997097D01*
X116463238Y-64997092D01*
X116285577Y-64858812D01*
X116285572Y-64858808D01*
X116087580Y-64751661D01*
X116087577Y-64751659D01*
X116087574Y-64751658D01*
X116087571Y-64751657D01*
X116087569Y-64751656D01*
X115874637Y-64678556D01*
X115652569Y-64641500D01*
X115427431Y-64641500D01*
X115205362Y-64678556D01*
X114992430Y-64751656D01*
X114992419Y-64751661D01*
X114794427Y-64858808D01*
X114794422Y-64858812D01*
X114616761Y-64997092D01*
X114616756Y-64997097D01*
X114464284Y-65162723D01*
X114464276Y-65162734D01*
X114373808Y-65301206D01*
X114320662Y-65346562D01*
X114251431Y-65355986D01*
X114188095Y-65326484D01*
X114166192Y-65301206D01*
X114075723Y-65162734D01*
X114075715Y-65162723D01*
X113923243Y-64997097D01*
X113923238Y-64997092D01*
X113745577Y-64858812D01*
X113745572Y-64858808D01*
X113547580Y-64751661D01*
X113547577Y-64751659D01*
X113547574Y-64751658D01*
X113547571Y-64751657D01*
X113547569Y-64751656D01*
X113334637Y-64678556D01*
X113112569Y-64641500D01*
X112887431Y-64641500D01*
X112665362Y-64678556D01*
X112452430Y-64751656D01*
X112452419Y-64751661D01*
X112254427Y-64858808D01*
X112254422Y-64858812D01*
X112076761Y-64997092D01*
X112076756Y-64997097D01*
X111924284Y-65162723D01*
X111924276Y-65162734D01*
X111830251Y-65306650D01*
X111777105Y-65352007D01*
X111707873Y-65361430D01*
X111644538Y-65331928D01*
X111624868Y-65309951D01*
X111498113Y-65128926D01*
X111498108Y-65128920D01*
X111331082Y-64961894D01*
X111137578Y-64826399D01*
X110923492Y-64726570D01*
X110923486Y-64726567D01*
X110710000Y-64669364D01*
X110710000Y-65566988D01*
X110652993Y-65534075D01*
X110525826Y-65500000D01*
X110394174Y-65500000D01*
X110267007Y-65534075D01*
X110210000Y-65566988D01*
X110210000Y-64669364D01*
X110209999Y-64669364D01*
X109996513Y-64726567D01*
X109996507Y-64726570D01*
X109782422Y-64826399D01*
X109782420Y-64826400D01*
X109588926Y-64961886D01*
X109473084Y-65077728D01*
X109411761Y-65111212D01*
X109342069Y-65106228D01*
X109286136Y-65064356D01*
X109269223Y-65033384D01*
X109220889Y-64903796D01*
X109133261Y-64786739D01*
X109016204Y-64699111D01*
X108879203Y-64648011D01*
X108818654Y-64641500D01*
X108818638Y-64641500D01*
X107021362Y-64641500D01*
X107021345Y-64641500D01*
X106960797Y-64648011D01*
X106960795Y-64648011D01*
X106823795Y-64699111D01*
X106706739Y-64786739D01*
X106619111Y-64903795D01*
X106568011Y-65040795D01*
X106568011Y-65040797D01*
X106561500Y-65101345D01*
X100075500Y-65101345D01*
X100075500Y-64552155D01*
X130100000Y-64552155D01*
X130100000Y-65250000D01*
X131124722Y-65250000D01*
X131080667Y-65326306D01*
X131050000Y-65440756D01*
X131050000Y-65559244D01*
X131080667Y-65673694D01*
X131124722Y-65750000D01*
X130100000Y-65750000D01*
X130100000Y-66447844D01*
X130106401Y-66507372D01*
X130106403Y-66507379D01*
X130156645Y-66642086D01*
X130156649Y-66642093D01*
X130242809Y-66757187D01*
X130242812Y-66757190D01*
X130357906Y-66843350D01*
X130357913Y-66843354D01*
X130492620Y-66893596D01*
X130492627Y-66893598D01*
X130552155Y-66899999D01*
X130552172Y-66900000D01*
X131250000Y-66900000D01*
X131250000Y-65875277D01*
X131326306Y-65919333D01*
X131440756Y-65950000D01*
X131559244Y-65950000D01*
X131673694Y-65919333D01*
X131750000Y-65875277D01*
X131750000Y-66900000D01*
X132447828Y-66900000D01*
X132447844Y-66899999D01*
X132507372Y-66893598D01*
X132507379Y-66893596D01*
X132642086Y-66843354D01*
X132642093Y-66843350D01*
X132757187Y-66757190D01*
X132757190Y-66757187D01*
X132843350Y-66642093D01*
X132843355Y-66642084D01*
X132868940Y-66573486D01*
X132910810Y-66517552D01*
X132976274Y-66493134D01*
X133044547Y-66507985D01*
X133076349Y-66532832D01*
X133082780Y-66539818D01*
X133266983Y-66683190D01*
X133266985Y-66683191D01*
X133266988Y-66683193D01*
X133285757Y-66693350D01*
X133472273Y-66794287D01*
X133586914Y-66833643D01*
X133693045Y-66870079D01*
X133693047Y-66870079D01*
X133693049Y-66870080D01*
X133923288Y-66908500D01*
X133923289Y-66908500D01*
X134156711Y-66908500D01*
X134156712Y-66908500D01*
X134386951Y-66870080D01*
X134607727Y-66794287D01*
X134813017Y-66683190D01*
X134997220Y-66539818D01*
X135155314Y-66368083D01*
X135282984Y-66172669D01*
X135376749Y-65958907D01*
X135434051Y-65732626D01*
X135448572Y-65557384D01*
X135453327Y-65500005D01*
X135453327Y-65499994D01*
X135437579Y-65309951D01*
X135434051Y-65267374D01*
X135376749Y-65041093D01*
X135282984Y-64827331D01*
X135256464Y-64786739D01*
X135155313Y-64631915D01*
X134997223Y-64460185D01*
X134997222Y-64460184D01*
X134997220Y-64460182D01*
X134813017Y-64316810D01*
X134813015Y-64316809D01*
X134813014Y-64316808D01*
X134813011Y-64316806D01*
X134607733Y-64205716D01*
X134607730Y-64205715D01*
X134607727Y-64205713D01*
X134607721Y-64205711D01*
X134607719Y-64205710D01*
X134386954Y-64129920D01*
X134207650Y-64100000D01*
X134156712Y-64091500D01*
X133923288Y-64091500D01*
X133882897Y-64098240D01*
X133693045Y-64129920D01*
X133472280Y-64205710D01*
X133472266Y-64205716D01*
X133266988Y-64316806D01*
X133266985Y-64316808D01*
X133082781Y-64460181D01*
X133082776Y-64460185D01*
X133076346Y-64467170D01*
X133016457Y-64503157D01*
X132946619Y-64501052D01*
X132889005Y-64461524D01*
X132868940Y-64426513D01*
X132843355Y-64357915D01*
X132843350Y-64357906D01*
X132757190Y-64242812D01*
X132757187Y-64242809D01*
X132642093Y-64156649D01*
X132642086Y-64156645D01*
X132507379Y-64106403D01*
X132507372Y-64106401D01*
X132447844Y-64100000D01*
X131750000Y-64100000D01*
X131750000Y-65124722D01*
X131673694Y-65080667D01*
X131559244Y-65050000D01*
X131440756Y-65050000D01*
X131326306Y-65080667D01*
X131250000Y-65124722D01*
X131250000Y-64100000D01*
X130552155Y-64100000D01*
X130492627Y-64106401D01*
X130492620Y-64106403D01*
X130357913Y-64156645D01*
X130357906Y-64156649D01*
X130242812Y-64242809D01*
X130242809Y-64242812D01*
X130156649Y-64357906D01*
X130156645Y-64357913D01*
X130106403Y-64492620D01*
X130106401Y-64492627D01*
X130100000Y-64552155D01*
X100075500Y-64552155D01*
X100075500Y-62579998D01*
X136186502Y-62579998D01*
X136186502Y-62580001D01*
X136206456Y-62808081D01*
X136206457Y-62808089D01*
X136265714Y-63029238D01*
X136265718Y-63029249D01*
X136353545Y-63217594D01*
X136362477Y-63236749D01*
X136493802Y-63424300D01*
X136655700Y-63586198D01*
X136843251Y-63717523D01*
X136968091Y-63775736D01*
X137050750Y-63814281D01*
X137050752Y-63814281D01*
X137050757Y-63814284D01*
X137271913Y-63873543D01*
X137434832Y-63887796D01*
X137499998Y-63893498D01*
X137500000Y-63893498D01*
X137500002Y-63893498D01*
X137557021Y-63888509D01*
X137728087Y-63873543D01*
X137949243Y-63814284D01*
X138156749Y-63717523D01*
X138344300Y-63586198D01*
X138506198Y-63424300D01*
X138637523Y-63236749D01*
X138734284Y-63029243D01*
X138742120Y-63000000D01*
X141236835Y-63000000D01*
X141255465Y-63236714D01*
X141310895Y-63467595D01*
X141310895Y-63467597D01*
X141401757Y-63686959D01*
X141401759Y-63686962D01*
X141525820Y-63889410D01*
X141525821Y-63889413D01*
X141525824Y-63889416D01*
X141680031Y-64069969D01*
X141781520Y-64156649D01*
X141860586Y-64224178D01*
X141860589Y-64224179D01*
X142063037Y-64348240D01*
X142063040Y-64348242D01*
X142282403Y-64439104D01*
X142282404Y-64439104D01*
X142282406Y-64439105D01*
X142513289Y-64494535D01*
X142750000Y-64513165D01*
X142986711Y-64494535D01*
X143217594Y-64439105D01*
X143217596Y-64439104D01*
X143217597Y-64439104D01*
X143436959Y-64348242D01*
X143436960Y-64348241D01*
X143436963Y-64348240D01*
X143639416Y-64224176D01*
X143819969Y-64069969D01*
X143974176Y-63889416D01*
X144098240Y-63686963D01*
X144117935Y-63639416D01*
X144189104Y-63467597D01*
X144189104Y-63467596D01*
X144189105Y-63467594D01*
X144244535Y-63236711D01*
X144263165Y-63000000D01*
X147736835Y-63000000D01*
X147755465Y-63236714D01*
X147810895Y-63467595D01*
X147810895Y-63467597D01*
X147901757Y-63686959D01*
X147901759Y-63686962D01*
X148025820Y-63889410D01*
X148025821Y-63889413D01*
X148025824Y-63889416D01*
X148180031Y-64069969D01*
X148281520Y-64156649D01*
X148360586Y-64224178D01*
X148360589Y-64224179D01*
X148563037Y-64348240D01*
X148563040Y-64348242D01*
X148782403Y-64439104D01*
X148782404Y-64439104D01*
X148782406Y-64439105D01*
X149013289Y-64494535D01*
X149250000Y-64513165D01*
X149486711Y-64494535D01*
X149717594Y-64439105D01*
X149717596Y-64439104D01*
X149717597Y-64439104D01*
X149936959Y-64348242D01*
X149936960Y-64348241D01*
X149936963Y-64348240D01*
X150139416Y-64224176D01*
X150319969Y-64069969D01*
X150474176Y-63889416D01*
X150598240Y-63686963D01*
X150617935Y-63639416D01*
X150689104Y-63467597D01*
X150689104Y-63467596D01*
X150689105Y-63467594D01*
X150744535Y-63236711D01*
X150763165Y-63000000D01*
X150744535Y-62763289D01*
X150741345Y-62750000D01*
X155236835Y-62750000D01*
X155255465Y-62986714D01*
X155310895Y-63217595D01*
X155310895Y-63217597D01*
X155401757Y-63436959D01*
X155401759Y-63436962D01*
X155525820Y-63639410D01*
X155525821Y-63639413D01*
X155525824Y-63639416D01*
X155680031Y-63819969D01*
X155819797Y-63939340D01*
X155860586Y-63974178D01*
X155860589Y-63974179D01*
X156063037Y-64098240D01*
X156063040Y-64098242D01*
X156282403Y-64189104D01*
X156282404Y-64189104D01*
X156282406Y-64189105D01*
X156513289Y-64244535D01*
X156750000Y-64263165D01*
X156986711Y-64244535D01*
X157217594Y-64189105D01*
X157217596Y-64189104D01*
X157217597Y-64189104D01*
X157436959Y-64098242D01*
X157436960Y-64098241D01*
X157436963Y-64098240D01*
X157639416Y-63974176D01*
X157819969Y-63819969D01*
X157974176Y-63639416D01*
X158098240Y-63436963D01*
X158103484Y-63424304D01*
X158189104Y-63217597D01*
X158189104Y-63217596D01*
X158189105Y-63217594D01*
X158244535Y-62986711D01*
X158263165Y-62750000D01*
X161736835Y-62750000D01*
X161755465Y-62986714D01*
X161810895Y-63217595D01*
X161810895Y-63217597D01*
X161901757Y-63436959D01*
X161901759Y-63436962D01*
X162025820Y-63639410D01*
X162025821Y-63639413D01*
X162025824Y-63639416D01*
X162180031Y-63819969D01*
X162319797Y-63939340D01*
X162360586Y-63974178D01*
X162360589Y-63974179D01*
X162563037Y-64098240D01*
X162563040Y-64098242D01*
X162782403Y-64189104D01*
X162782404Y-64189104D01*
X162782406Y-64189105D01*
X163013289Y-64244535D01*
X163250000Y-64263165D01*
X163486711Y-64244535D01*
X163717594Y-64189105D01*
X163717596Y-64189104D01*
X163717597Y-64189104D01*
X163936959Y-64098242D01*
X163936960Y-64098241D01*
X163936963Y-64098240D01*
X164139416Y-63974176D01*
X164319969Y-63819969D01*
X164474176Y-63639416D01*
X164598240Y-63436963D01*
X164603484Y-63424304D01*
X164689104Y-63217597D01*
X164689104Y-63217596D01*
X164689105Y-63217594D01*
X164744535Y-62986711D01*
X164763165Y-62750000D01*
X164744535Y-62513289D01*
X164689105Y-62282406D01*
X164689104Y-62282403D01*
X164689104Y-62282402D01*
X164598242Y-62063040D01*
X164598240Y-62063037D01*
X164474179Y-61860589D01*
X164474178Y-61860586D01*
X164401781Y-61775821D01*
X164319969Y-61680031D01*
X164180479Y-61560895D01*
X164139413Y-61525821D01*
X164139410Y-61525820D01*
X163936962Y-61401759D01*
X163936959Y-61401757D01*
X163717596Y-61310895D01*
X163486714Y-61255465D01*
X163250000Y-61236835D01*
X163013285Y-61255465D01*
X162782404Y-61310895D01*
X162782402Y-61310895D01*
X162563040Y-61401757D01*
X162563037Y-61401759D01*
X162360589Y-61525820D01*
X162360586Y-61525821D01*
X162180031Y-61680031D01*
X162025821Y-61860586D01*
X162025820Y-61860589D01*
X161901759Y-62063037D01*
X161901757Y-62063040D01*
X161810895Y-62282402D01*
X161810895Y-62282404D01*
X161755465Y-62513285D01*
X161736835Y-62750000D01*
X158263165Y-62750000D01*
X158244535Y-62513289D01*
X158189105Y-62282406D01*
X158189104Y-62282403D01*
X158189104Y-62282402D01*
X158098242Y-62063040D01*
X158098240Y-62063037D01*
X157974179Y-61860589D01*
X157974178Y-61860586D01*
X157901781Y-61775821D01*
X157819969Y-61680031D01*
X157680479Y-61560895D01*
X157639413Y-61525821D01*
X157639410Y-61525820D01*
X157436962Y-61401759D01*
X157436959Y-61401757D01*
X157217596Y-61310895D01*
X156986714Y-61255465D01*
X156750000Y-61236835D01*
X156513285Y-61255465D01*
X156282404Y-61310895D01*
X156282402Y-61310895D01*
X156063040Y-61401757D01*
X156063037Y-61401759D01*
X155860589Y-61525820D01*
X155860586Y-61525821D01*
X155680031Y-61680031D01*
X155525821Y-61860586D01*
X155525820Y-61860589D01*
X155401759Y-62063037D01*
X155401757Y-62063040D01*
X155310895Y-62282402D01*
X155310895Y-62282404D01*
X155255465Y-62513285D01*
X155236835Y-62750000D01*
X150741345Y-62750000D01*
X150689105Y-62532406D01*
X150689104Y-62532403D01*
X150689104Y-62532402D01*
X150598242Y-62313040D01*
X150598240Y-62313037D01*
X150579467Y-62282402D01*
X150474178Y-62110588D01*
X150474178Y-62110586D01*
X150439340Y-62069797D01*
X150319969Y-61930031D01*
X150200596Y-61828076D01*
X150139413Y-61775821D01*
X150139410Y-61775820D01*
X149936962Y-61651759D01*
X149936959Y-61651757D01*
X149717596Y-61560895D01*
X149486714Y-61505465D01*
X149250000Y-61486835D01*
X149013285Y-61505465D01*
X148782404Y-61560895D01*
X148782402Y-61560895D01*
X148563040Y-61651757D01*
X148563037Y-61651759D01*
X148360589Y-61775820D01*
X148360586Y-61775821D01*
X148180031Y-61930031D01*
X148025821Y-62110586D01*
X148025820Y-62110589D01*
X147901759Y-62313037D01*
X147901757Y-62313040D01*
X147810895Y-62532402D01*
X147810895Y-62532404D01*
X147755465Y-62763285D01*
X147736835Y-63000000D01*
X144263165Y-63000000D01*
X144244535Y-62763289D01*
X144189105Y-62532406D01*
X144189104Y-62532403D01*
X144189104Y-62532402D01*
X144098242Y-62313040D01*
X144098240Y-62313037D01*
X144079467Y-62282402D01*
X143974178Y-62110588D01*
X143974178Y-62110586D01*
X143939340Y-62069797D01*
X143819969Y-61930031D01*
X143700596Y-61828076D01*
X143639413Y-61775821D01*
X143639410Y-61775820D01*
X143436962Y-61651759D01*
X143436959Y-61651757D01*
X143217596Y-61560895D01*
X142986714Y-61505465D01*
X142750000Y-61486835D01*
X142513285Y-61505465D01*
X142282404Y-61560895D01*
X142282402Y-61560895D01*
X142063040Y-61651757D01*
X142063037Y-61651759D01*
X141860589Y-61775820D01*
X141860586Y-61775821D01*
X141680031Y-61930031D01*
X141525821Y-62110586D01*
X141525820Y-62110589D01*
X141401759Y-62313037D01*
X141401757Y-62313040D01*
X141310895Y-62532402D01*
X141310895Y-62532404D01*
X141255465Y-62763285D01*
X141236835Y-63000000D01*
X138742120Y-63000000D01*
X138793543Y-62808087D01*
X138813498Y-62580000D01*
X138793543Y-62351913D01*
X138734284Y-62130757D01*
X138637523Y-61923251D01*
X138506198Y-61735700D01*
X138344300Y-61573802D01*
X138156749Y-61442477D01*
X138069431Y-61401760D01*
X137949249Y-61345718D01*
X137949238Y-61345714D01*
X137728089Y-61286457D01*
X137728081Y-61286456D01*
X137500002Y-61266502D01*
X137499998Y-61266502D01*
X137271918Y-61286456D01*
X137271910Y-61286457D01*
X137050761Y-61345714D01*
X137050750Y-61345718D01*
X136843254Y-61442475D01*
X136843252Y-61442476D01*
X136843251Y-61442477D01*
X136655700Y-61573802D01*
X136655698Y-61573803D01*
X136655695Y-61573806D01*
X136493806Y-61735695D01*
X136362476Y-61923252D01*
X136362475Y-61923254D01*
X136265718Y-62130750D01*
X136265714Y-62130761D01*
X136206457Y-62351910D01*
X136206456Y-62351918D01*
X136186502Y-62579998D01*
X100075500Y-62579998D01*
X100075500Y-56393084D01*
X131016500Y-56393084D01*
X131016500Y-56606915D01*
X131049951Y-56818117D01*
X131116026Y-57021480D01*
X131116027Y-57021483D01*
X131196812Y-57180031D01*
X131213106Y-57212009D01*
X131338794Y-57385004D01*
X131489996Y-57536206D01*
X131592344Y-57610566D01*
X131646182Y-57649682D01*
X131688847Y-57705012D01*
X131694826Y-57774626D01*
X131662220Y-57836421D01*
X131646182Y-57850318D01*
X131577297Y-57900365D01*
X131489996Y-57963794D01*
X131489994Y-57963796D01*
X131489993Y-57963796D01*
X131338796Y-58114993D01*
X131213106Y-58287990D01*
X131116027Y-58478516D01*
X131116026Y-58478519D01*
X131049951Y-58681882D01*
X131016500Y-58893084D01*
X131016500Y-59106915D01*
X131049951Y-59318117D01*
X131116026Y-59521480D01*
X131116027Y-59521483D01*
X131201435Y-59689104D01*
X131213106Y-59712009D01*
X131338794Y-59885004D01*
X131489996Y-60036206D01*
X131662991Y-60161894D01*
X131756438Y-60209507D01*
X131853516Y-60258972D01*
X131853519Y-60258973D01*
X131955200Y-60292010D01*
X132056884Y-60325049D01*
X132268084Y-60358500D01*
X132268085Y-60358500D01*
X132731915Y-60358500D01*
X132731916Y-60358500D01*
X132943116Y-60325049D01*
X133146483Y-60258972D01*
X133337009Y-60161894D01*
X133510004Y-60036206D01*
X133661206Y-59885004D01*
X133786894Y-59712009D01*
X133883972Y-59521483D01*
X133950049Y-59318116D01*
X133983500Y-59106916D01*
X133983500Y-58893084D01*
X133950049Y-58681884D01*
X133890952Y-58500000D01*
X141236835Y-58500000D01*
X141255465Y-58736714D01*
X141310895Y-58967595D01*
X141310895Y-58967597D01*
X141401757Y-59186959D01*
X141401759Y-59186962D01*
X141525820Y-59389410D01*
X141525821Y-59389413D01*
X141578076Y-59450596D01*
X141680031Y-59569969D01*
X141819520Y-59689104D01*
X141860586Y-59724178D01*
X141860589Y-59724179D01*
X142063037Y-59848240D01*
X142063040Y-59848242D01*
X142282403Y-59939104D01*
X142282404Y-59939104D01*
X142282406Y-59939105D01*
X142513289Y-59994535D01*
X142750000Y-60013165D01*
X142986711Y-59994535D01*
X143217594Y-59939105D01*
X143217596Y-59939104D01*
X143217597Y-59939104D01*
X143436959Y-59848242D01*
X143436960Y-59848241D01*
X143436963Y-59848240D01*
X143639416Y-59724176D01*
X143819969Y-59569969D01*
X143974176Y-59389416D01*
X144098240Y-59186963D01*
X144117935Y-59139416D01*
X144189104Y-58967597D01*
X144189104Y-58967596D01*
X144189105Y-58967594D01*
X144244535Y-58736711D01*
X144263165Y-58500000D01*
X147736835Y-58500000D01*
X147755465Y-58736714D01*
X147810895Y-58967595D01*
X147810895Y-58967597D01*
X147901757Y-59186959D01*
X147901759Y-59186962D01*
X148025820Y-59389410D01*
X148025821Y-59389413D01*
X148078076Y-59450596D01*
X148180031Y-59569969D01*
X148319520Y-59689104D01*
X148360586Y-59724178D01*
X148360589Y-59724179D01*
X148563037Y-59848240D01*
X148563040Y-59848242D01*
X148782403Y-59939104D01*
X148782404Y-59939104D01*
X148782406Y-59939105D01*
X149013289Y-59994535D01*
X149250000Y-60013165D01*
X149486711Y-59994535D01*
X149717594Y-59939105D01*
X149717596Y-59939104D01*
X149717597Y-59939104D01*
X149936959Y-59848242D01*
X149936960Y-59848241D01*
X149936963Y-59848240D01*
X150139416Y-59724176D01*
X150319969Y-59569969D01*
X150474176Y-59389416D01*
X150598240Y-59186963D01*
X150617935Y-59139416D01*
X150689104Y-58967597D01*
X150689104Y-58967596D01*
X150689105Y-58967594D01*
X150744535Y-58736711D01*
X150763165Y-58500000D01*
X150744535Y-58263289D01*
X150741345Y-58250000D01*
X155236835Y-58250000D01*
X155255465Y-58486714D01*
X155310895Y-58717595D01*
X155310895Y-58717597D01*
X155401757Y-58936959D01*
X155401759Y-58936962D01*
X155525820Y-59139410D01*
X155525821Y-59139413D01*
X155525824Y-59139416D01*
X155680031Y-59319969D01*
X155761343Y-59389416D01*
X155860586Y-59474178D01*
X155860589Y-59474179D01*
X156063037Y-59598240D01*
X156063040Y-59598242D01*
X156282403Y-59689104D01*
X156282404Y-59689104D01*
X156282406Y-59689105D01*
X156513289Y-59744535D01*
X156750000Y-59763165D01*
X156986711Y-59744535D01*
X157217594Y-59689105D01*
X157217596Y-59689104D01*
X157217597Y-59689104D01*
X157436959Y-59598242D01*
X157436960Y-59598241D01*
X157436963Y-59598240D01*
X157639416Y-59474176D01*
X157819969Y-59319969D01*
X157974176Y-59139416D01*
X158098240Y-58936963D01*
X158181186Y-58736714D01*
X158189104Y-58717597D01*
X158189104Y-58717596D01*
X158189105Y-58717594D01*
X158244535Y-58486711D01*
X158263165Y-58250000D01*
X161736835Y-58250000D01*
X161755465Y-58486714D01*
X161810895Y-58717595D01*
X161810895Y-58717597D01*
X161901757Y-58936959D01*
X161901759Y-58936962D01*
X162025820Y-59139410D01*
X162025821Y-59139413D01*
X162025824Y-59139416D01*
X162180031Y-59319969D01*
X162261343Y-59389416D01*
X162360586Y-59474178D01*
X162360589Y-59474179D01*
X162563037Y-59598240D01*
X162563040Y-59598242D01*
X162782403Y-59689104D01*
X162782404Y-59689104D01*
X162782406Y-59689105D01*
X163013289Y-59744535D01*
X163250000Y-59763165D01*
X163486711Y-59744535D01*
X163717594Y-59689105D01*
X163717596Y-59689104D01*
X163717597Y-59689104D01*
X163936959Y-59598242D01*
X163936960Y-59598241D01*
X163936963Y-59598240D01*
X164139416Y-59474176D01*
X164319969Y-59319969D01*
X164474176Y-59139416D01*
X164598240Y-58936963D01*
X164681186Y-58736714D01*
X164689104Y-58717597D01*
X164689104Y-58717596D01*
X164689105Y-58717594D01*
X164744535Y-58486711D01*
X164763165Y-58250000D01*
X164744535Y-58013289D01*
X164689105Y-57782406D01*
X164689104Y-57782403D01*
X164689104Y-57782402D01*
X164598242Y-57563040D01*
X164598240Y-57563037D01*
X164474179Y-57360589D01*
X164474178Y-57360586D01*
X164401781Y-57275821D01*
X164319969Y-57180031D01*
X164180479Y-57060895D01*
X164139413Y-57025821D01*
X164139410Y-57025820D01*
X163936962Y-56901759D01*
X163936959Y-56901757D01*
X163717596Y-56810895D01*
X163486714Y-56755465D01*
X163250000Y-56736835D01*
X163013285Y-56755465D01*
X162782404Y-56810895D01*
X162782402Y-56810895D01*
X162563040Y-56901757D01*
X162563037Y-56901759D01*
X162360589Y-57025820D01*
X162360586Y-57025821D01*
X162180031Y-57180031D01*
X162025821Y-57360586D01*
X162025820Y-57360589D01*
X161901759Y-57563037D01*
X161901757Y-57563040D01*
X161810895Y-57782402D01*
X161810895Y-57782404D01*
X161755465Y-58013285D01*
X161736835Y-58250000D01*
X158263165Y-58250000D01*
X158244535Y-58013289D01*
X158189105Y-57782406D01*
X158189104Y-57782403D01*
X158189104Y-57782402D01*
X158098242Y-57563040D01*
X158098240Y-57563037D01*
X157974179Y-57360589D01*
X157974178Y-57360586D01*
X157901781Y-57275821D01*
X157819969Y-57180031D01*
X157680479Y-57060895D01*
X157639413Y-57025821D01*
X157639410Y-57025820D01*
X157436962Y-56901759D01*
X157436959Y-56901757D01*
X157217596Y-56810895D01*
X156986714Y-56755465D01*
X156750000Y-56736835D01*
X156513285Y-56755465D01*
X156282404Y-56810895D01*
X156282402Y-56810895D01*
X156063040Y-56901757D01*
X156063037Y-56901759D01*
X155860589Y-57025820D01*
X155860586Y-57025821D01*
X155680031Y-57180031D01*
X155525821Y-57360586D01*
X155525820Y-57360589D01*
X155401759Y-57563037D01*
X155401757Y-57563040D01*
X155310895Y-57782402D01*
X155310895Y-57782404D01*
X155255465Y-58013285D01*
X155236835Y-58250000D01*
X150741345Y-58250000D01*
X150689105Y-58032406D01*
X150689104Y-58032403D01*
X150689104Y-58032402D01*
X150598242Y-57813040D01*
X150598240Y-57813037D01*
X150474178Y-57610588D01*
X150474178Y-57610586D01*
X150439340Y-57569797D01*
X150319969Y-57430031D01*
X150200596Y-57328076D01*
X150139413Y-57275821D01*
X150139410Y-57275820D01*
X149936962Y-57151759D01*
X149936959Y-57151757D01*
X149717596Y-57060895D01*
X149486714Y-57005465D01*
X149250000Y-56986835D01*
X149013285Y-57005465D01*
X148782404Y-57060895D01*
X148782402Y-57060895D01*
X148563040Y-57151757D01*
X148563037Y-57151759D01*
X148360589Y-57275820D01*
X148360586Y-57275821D01*
X148180031Y-57430031D01*
X148025821Y-57610586D01*
X148025820Y-57610589D01*
X147901759Y-57813037D01*
X147901757Y-57813040D01*
X147810895Y-58032402D01*
X147810895Y-58032404D01*
X147755465Y-58263285D01*
X147736835Y-58500000D01*
X144263165Y-58500000D01*
X144244535Y-58263289D01*
X144189105Y-58032406D01*
X144189104Y-58032403D01*
X144189104Y-58032402D01*
X144098242Y-57813040D01*
X144098240Y-57813037D01*
X143974178Y-57610588D01*
X143974178Y-57610586D01*
X143939340Y-57569797D01*
X143819969Y-57430031D01*
X143700596Y-57328076D01*
X143639413Y-57275821D01*
X143639410Y-57275820D01*
X143436962Y-57151759D01*
X143436959Y-57151757D01*
X143217596Y-57060895D01*
X142986714Y-57005465D01*
X142750000Y-56986835D01*
X142513285Y-57005465D01*
X142282404Y-57060895D01*
X142282402Y-57060895D01*
X142063040Y-57151757D01*
X142063037Y-57151759D01*
X141860589Y-57275820D01*
X141860586Y-57275821D01*
X141680031Y-57430031D01*
X141525821Y-57610586D01*
X141525820Y-57610589D01*
X141401759Y-57813037D01*
X141401757Y-57813040D01*
X141310895Y-58032402D01*
X141310895Y-58032404D01*
X141255465Y-58263285D01*
X141236835Y-58500000D01*
X133890952Y-58500000D01*
X133883973Y-58478519D01*
X133883972Y-58478516D01*
X133786893Y-58287990D01*
X133759292Y-58250000D01*
X133661206Y-58114996D01*
X133510004Y-57963794D01*
X133510000Y-57963791D01*
X133353818Y-57850318D01*
X133311152Y-57794988D01*
X133305173Y-57725375D01*
X133337779Y-57663580D01*
X133353818Y-57649682D01*
X133407624Y-57610589D01*
X133510004Y-57536206D01*
X133661206Y-57385004D01*
X133786894Y-57212009D01*
X133883972Y-57021483D01*
X133950049Y-56818116D01*
X133983500Y-56606916D01*
X133983500Y-56393084D01*
X133950049Y-56181884D01*
X133883972Y-55978517D01*
X133883972Y-55978516D01*
X133786893Y-55787990D01*
X133661206Y-55614996D01*
X133522929Y-55476719D01*
X133489444Y-55415396D01*
X133494428Y-55345704D01*
X133536300Y-55289771D01*
X133545513Y-55283499D01*
X133693345Y-55192315D01*
X133817315Y-55068345D01*
X133909356Y-54919124D01*
X133909358Y-54919119D01*
X133964505Y-54752697D01*
X133964506Y-54752690D01*
X133974999Y-54649986D01*
X133975000Y-54649973D01*
X133975000Y-54250000D01*
X132904146Y-54250000D01*
X132942630Y-54183343D01*
X132975000Y-54062535D01*
X132975000Y-53937465D01*
X132942630Y-53816657D01*
X132904146Y-53750000D01*
X133974999Y-53750000D01*
X133974999Y-53350028D01*
X133974998Y-53350013D01*
X133964505Y-53247302D01*
X133909358Y-53080880D01*
X133909356Y-53080875D01*
X133817315Y-52931654D01*
X133693345Y-52807684D01*
X133544124Y-52715643D01*
X133544119Y-52715641D01*
X133377697Y-52660494D01*
X133377690Y-52660493D01*
X133274986Y-52650000D01*
X132750000Y-52650000D01*
X132750000Y-53595854D01*
X132683343Y-53557370D01*
X132562535Y-53525000D01*
X132437465Y-53525000D01*
X132316657Y-53557370D01*
X132250000Y-53595854D01*
X132250000Y-52650000D01*
X131725028Y-52650000D01*
X131725012Y-52650001D01*
X131622302Y-52660494D01*
X131455880Y-52715641D01*
X131455875Y-52715643D01*
X131306654Y-52807684D01*
X131182684Y-52931654D01*
X131090643Y-53080875D01*
X131090641Y-53080880D01*
X131035494Y-53247302D01*
X131035493Y-53247309D01*
X131025000Y-53350013D01*
X131025000Y-53750000D01*
X132095854Y-53750000D01*
X132057370Y-53816657D01*
X132025000Y-53937465D01*
X132025000Y-54062535D01*
X132057370Y-54183343D01*
X132095854Y-54250000D01*
X131025001Y-54250000D01*
X131025001Y-54649986D01*
X131035494Y-54752697D01*
X131090641Y-54919119D01*
X131090643Y-54919124D01*
X131182684Y-55068345D01*
X131306654Y-55192315D01*
X131454486Y-55283499D01*
X131501210Y-55335447D01*
X131512433Y-55404410D01*
X131484589Y-55468492D01*
X131477071Y-55476719D01*
X131338793Y-55614997D01*
X131213106Y-55787990D01*
X131116027Y-55978516D01*
X131116026Y-55978519D01*
X131049951Y-56181882D01*
X131016500Y-56393084D01*
X100075500Y-56393084D01*
X100075500Y-52419998D01*
X136186502Y-52419998D01*
X136186502Y-52420001D01*
X136206456Y-52648081D01*
X136206457Y-52648089D01*
X136265714Y-52869238D01*
X136265718Y-52869249D01*
X136351721Y-53053682D01*
X136362477Y-53076749D01*
X136493802Y-53264300D01*
X136655700Y-53426198D01*
X136843251Y-53557523D01*
X136968091Y-53615736D01*
X137050750Y-53654281D01*
X137050752Y-53654281D01*
X137050757Y-53654284D01*
X137271913Y-53713543D01*
X137434832Y-53727796D01*
X137499998Y-53733498D01*
X137500000Y-53733498D01*
X137500002Y-53733498D01*
X137561917Y-53728081D01*
X137728087Y-53713543D01*
X137949243Y-53654284D01*
X138156749Y-53557523D01*
X138344300Y-53426198D01*
X138506198Y-53264300D01*
X138516212Y-53249999D01*
X139641127Y-53249999D01*
X139641128Y-53250000D01*
X140604314Y-53250000D01*
X140599920Y-53254394D01*
X140547259Y-53345606D01*
X140520000Y-53447339D01*
X140520000Y-53552661D01*
X140547259Y-53654394D01*
X140599920Y-53745606D01*
X140604314Y-53750000D01*
X139641128Y-53750000D01*
X139693730Y-53946317D01*
X139693734Y-53946326D01*
X139789865Y-54152482D01*
X139920342Y-54338820D01*
X140081179Y-54499657D01*
X140267517Y-54630134D01*
X140473673Y-54726265D01*
X140473682Y-54726269D01*
X140669999Y-54778872D01*
X140670000Y-54778871D01*
X140670000Y-53815686D01*
X140674394Y-53820080D01*
X140765606Y-53872741D01*
X140867339Y-53900000D01*
X140972661Y-53900000D01*
X141074394Y-53872741D01*
X141165606Y-53820080D01*
X141170000Y-53815686D01*
X141170000Y-54778872D01*
X141366317Y-54726269D01*
X141366326Y-54726265D01*
X141572482Y-54630134D01*
X141758820Y-54499657D01*
X141919657Y-54338820D01*
X142050134Y-54152482D01*
X142146265Y-53946326D01*
X142146269Y-53946317D01*
X142198872Y-53750000D01*
X141235686Y-53750000D01*
X141240080Y-53745606D01*
X141292741Y-53654394D01*
X141320000Y-53552661D01*
X141320000Y-53499998D01*
X149766502Y-53499998D01*
X149766502Y-53500001D01*
X149786456Y-53728081D01*
X149786457Y-53728089D01*
X149845714Y-53949238D01*
X149845718Y-53949249D01*
X149931882Y-54134028D01*
X149942477Y-54156749D01*
X150073802Y-54344300D01*
X150235700Y-54506198D01*
X150423251Y-54637523D01*
X150548091Y-54695736D01*
X150630750Y-54734281D01*
X150630752Y-54734281D01*
X150630757Y-54734284D01*
X150851913Y-54793543D01*
X151014832Y-54807796D01*
X151079998Y-54813498D01*
X151080000Y-54813498D01*
X151080002Y-54813498D01*
X151137021Y-54808509D01*
X151308087Y-54793543D01*
X151529243Y-54734284D01*
X151736749Y-54637523D01*
X151924300Y-54506198D01*
X152086198Y-54344300D01*
X152217523Y-54156749D01*
X152314284Y-53949243D01*
X152373543Y-53728087D01*
X152393498Y-53500000D01*
X152373543Y-53271913D01*
X152367671Y-53249999D01*
X153141127Y-53249999D01*
X153141128Y-53250000D01*
X154104314Y-53250000D01*
X154099920Y-53254394D01*
X154047259Y-53345606D01*
X154020000Y-53447339D01*
X154020000Y-53552661D01*
X154047259Y-53654394D01*
X154099920Y-53745606D01*
X154104314Y-53750000D01*
X153141128Y-53750000D01*
X153193730Y-53946317D01*
X153193734Y-53946326D01*
X153289865Y-54152482D01*
X153420342Y-54338820D01*
X153581179Y-54499657D01*
X153767517Y-54630134D01*
X153973673Y-54726265D01*
X153973682Y-54726269D01*
X154169999Y-54778872D01*
X154170000Y-54778871D01*
X154170000Y-53815686D01*
X154174394Y-53820080D01*
X154265606Y-53872741D01*
X154367339Y-53900000D01*
X154472661Y-53900000D01*
X154574394Y-53872741D01*
X154665606Y-53820080D01*
X154670000Y-53815686D01*
X154670000Y-54778872D01*
X154866317Y-54726269D01*
X154866326Y-54726265D01*
X155072482Y-54630134D01*
X155258820Y-54499657D01*
X155419657Y-54338820D01*
X155550134Y-54152482D01*
X155646265Y-53946326D01*
X155646269Y-53946317D01*
X155698872Y-53750000D01*
X154735686Y-53750000D01*
X154740080Y-53745606D01*
X154792741Y-53654394D01*
X154820000Y-53552661D01*
X154820000Y-53447339D01*
X154792741Y-53345606D01*
X154740080Y-53254394D01*
X154735686Y-53250000D01*
X155698872Y-53250000D01*
X155698872Y-53249999D01*
X155646269Y-53053682D01*
X155646265Y-53053673D01*
X155550134Y-52847517D01*
X155419657Y-52661179D01*
X155258820Y-52500342D01*
X155072482Y-52369865D01*
X154866328Y-52273734D01*
X154670000Y-52221127D01*
X154670000Y-53184314D01*
X154665606Y-53179920D01*
X154574394Y-53127259D01*
X154472661Y-53100000D01*
X154367339Y-53100000D01*
X154265606Y-53127259D01*
X154174394Y-53179920D01*
X154170000Y-53184314D01*
X154170000Y-52221127D01*
X153973671Y-52273734D01*
X153767517Y-52369865D01*
X153581179Y-52500342D01*
X153420342Y-52661179D01*
X153289865Y-52847517D01*
X153193734Y-53053673D01*
X153193730Y-53053682D01*
X153141127Y-53249999D01*
X152367671Y-53249999D01*
X152314284Y-53050757D01*
X152217523Y-52843251D01*
X152086198Y-52655700D01*
X151924300Y-52493802D01*
X151736749Y-52362477D01*
X151736745Y-52362475D01*
X151529249Y-52265718D01*
X151529238Y-52265714D01*
X151308089Y-52206457D01*
X151308081Y-52206456D01*
X151080002Y-52186502D01*
X151079998Y-52186502D01*
X150851918Y-52206456D01*
X150851910Y-52206457D01*
X150630761Y-52265714D01*
X150630750Y-52265718D01*
X150423254Y-52362475D01*
X150423252Y-52362476D01*
X150423251Y-52362477D01*
X150235700Y-52493802D01*
X150235698Y-52493803D01*
X150235695Y-52493806D01*
X150073806Y-52655695D01*
X150073803Y-52655698D01*
X150073802Y-52655700D01*
X149991767Y-52772856D01*
X149942476Y-52843252D01*
X149942475Y-52843254D01*
X149845718Y-53050750D01*
X149845714Y-53050761D01*
X149786457Y-53271910D01*
X149786456Y-53271918D01*
X149766502Y-53499998D01*
X141320000Y-53499998D01*
X141320000Y-53447339D01*
X141292741Y-53345606D01*
X141240080Y-53254394D01*
X141235686Y-53250000D01*
X142198872Y-53250000D01*
X142198872Y-53249999D01*
X142146269Y-53053682D01*
X142146265Y-53053673D01*
X142050134Y-52847517D01*
X141919657Y-52661179D01*
X141758820Y-52500342D01*
X141572482Y-52369865D01*
X141366328Y-52273734D01*
X141170000Y-52221127D01*
X141170000Y-53184314D01*
X141165606Y-53179920D01*
X141074394Y-53127259D01*
X140972661Y-53100000D01*
X140867339Y-53100000D01*
X140765606Y-53127259D01*
X140674394Y-53179920D01*
X140670000Y-53184314D01*
X140670000Y-52221127D01*
X140473671Y-52273734D01*
X140267517Y-52369865D01*
X140081179Y-52500342D01*
X139920342Y-52661179D01*
X139789865Y-52847517D01*
X139693734Y-53053673D01*
X139693730Y-53053682D01*
X139641127Y-53249999D01*
X138516212Y-53249999D01*
X138637523Y-53076749D01*
X138734284Y-52869243D01*
X138793543Y-52648087D01*
X138813498Y-52420000D01*
X138793543Y-52191913D01*
X138734284Y-51970757D01*
X138637523Y-51763251D01*
X138506198Y-51575700D01*
X138344300Y-51413802D01*
X138156749Y-51282477D01*
X138156745Y-51282475D01*
X137949249Y-51185718D01*
X137949238Y-51185714D01*
X137728089Y-51126457D01*
X137728081Y-51126456D01*
X137500002Y-51106502D01*
X137499998Y-51106502D01*
X137271918Y-51126456D01*
X137271910Y-51126457D01*
X137050761Y-51185714D01*
X137050750Y-51185718D01*
X136843254Y-51282475D01*
X136843252Y-51282476D01*
X136843251Y-51282477D01*
X136655700Y-51413802D01*
X136655698Y-51413803D01*
X136655695Y-51413806D01*
X136493806Y-51575695D01*
X136362476Y-51763252D01*
X136362475Y-51763254D01*
X136265718Y-51970750D01*
X136265714Y-51970761D01*
X136206457Y-52191910D01*
X136206456Y-52191918D01*
X136186502Y-52419998D01*
X100075500Y-52419998D01*
X100075500Y-48301345D01*
X117437500Y-48301345D01*
X117437500Y-50098654D01*
X117444011Y-50159202D01*
X117444011Y-50159204D01*
X117495111Y-50296204D01*
X117582739Y-50413261D01*
X117699796Y-50500889D01*
X117836799Y-50551989D01*
X117864050Y-50554918D01*
X117897345Y-50558499D01*
X117897362Y-50558500D01*
X119694638Y-50558500D01*
X119694654Y-50558499D01*
X119721692Y-50555591D01*
X119755201Y-50551989D01*
X119892204Y-50500889D01*
X120009261Y-50413261D01*
X120096889Y-50296204D01*
X120142138Y-50174887D01*
X120184009Y-50118956D01*
X120249474Y-50094539D01*
X120317746Y-50109391D01*
X120349545Y-50134236D01*
X120412760Y-50202906D01*
X120590424Y-50341189D01*
X120590425Y-50341189D01*
X120590427Y-50341191D01*
X120650314Y-50373600D01*
X120788426Y-50448342D01*
X121001365Y-50521444D01*
X121223431Y-50558500D01*
X121448569Y-50558500D01*
X121670635Y-50521444D01*
X121883574Y-50448342D01*
X122081576Y-50341189D01*
X122259240Y-50202906D01*
X122380594Y-50071082D01*
X122411715Y-50037276D01*
X122411715Y-50037275D01*
X122411722Y-50037268D01*
X122502193Y-49898790D01*
X122555338Y-49853437D01*
X122624569Y-49844013D01*
X122687905Y-49873515D01*
X122709804Y-49898787D01*
X122800278Y-50037268D01*
X122800283Y-50037273D01*
X122800284Y-50037276D01*
X122926968Y-50174889D01*
X122952760Y-50202906D01*
X123130424Y-50341189D01*
X123130425Y-50341189D01*
X123130427Y-50341191D01*
X123190314Y-50373600D01*
X123328426Y-50448342D01*
X123541365Y-50521444D01*
X123763431Y-50558500D01*
X123988569Y-50558500D01*
X124210635Y-50521444D01*
X124423574Y-50448342D01*
X124621576Y-50341189D01*
X124799240Y-50202906D01*
X124920594Y-50071082D01*
X124951715Y-50037276D01*
X124951715Y-50037275D01*
X124951722Y-50037268D01*
X125045749Y-49893347D01*
X125098894Y-49847994D01*
X125168125Y-49838570D01*
X125231461Y-49868072D01*
X125251130Y-49890048D01*
X125377890Y-50071078D01*
X125544917Y-50238105D01*
X125738421Y-50373600D01*
X125952507Y-50473429D01*
X125952516Y-50473433D01*
X126166000Y-50530634D01*
X126166000Y-49633012D01*
X126223007Y-49665925D01*
X126350174Y-49700000D01*
X126481826Y-49700000D01*
X126608993Y-49665925D01*
X126666000Y-49633012D01*
X126666000Y-50530633D01*
X126879483Y-50473433D01*
X126879492Y-50473429D01*
X127093578Y-50373600D01*
X127287082Y-50238105D01*
X127454105Y-50071082D01*
X127580868Y-49890048D01*
X127635445Y-49846423D01*
X127704944Y-49839231D01*
X127767298Y-49870753D01*
X127786251Y-49893350D01*
X127880276Y-50037265D01*
X127880284Y-50037276D01*
X128006968Y-50174889D01*
X128032760Y-50202906D01*
X128210424Y-50341189D01*
X128210425Y-50341189D01*
X128210427Y-50341191D01*
X128270314Y-50373600D01*
X128408426Y-50448342D01*
X128621365Y-50521444D01*
X128843431Y-50558500D01*
X129068569Y-50558500D01*
X129290635Y-50521444D01*
X129503574Y-50448342D01*
X129701576Y-50341189D01*
X129879240Y-50202906D01*
X130000594Y-50071082D01*
X130031715Y-50037276D01*
X130031715Y-50037275D01*
X130031722Y-50037268D01*
X130122193Y-49898790D01*
X130175338Y-49853437D01*
X130244569Y-49844013D01*
X130307905Y-49873515D01*
X130329804Y-49898787D01*
X130420278Y-50037268D01*
X130420283Y-50037273D01*
X130420284Y-50037276D01*
X130546968Y-50174889D01*
X130572760Y-50202906D01*
X130750424Y-50341189D01*
X130750425Y-50341189D01*
X130750427Y-50341191D01*
X130810314Y-50373600D01*
X130948426Y-50448342D01*
X131161365Y-50521444D01*
X131383431Y-50558500D01*
X131608569Y-50558500D01*
X131830635Y-50521444D01*
X132043574Y-50448342D01*
X132241576Y-50341189D01*
X132419240Y-50202906D01*
X132540594Y-50071082D01*
X132571715Y-50037276D01*
X132571715Y-50037275D01*
X132571722Y-50037268D01*
X132662193Y-49898790D01*
X132715338Y-49853437D01*
X132784569Y-49844013D01*
X132847905Y-49873515D01*
X132869804Y-49898787D01*
X132960278Y-50037268D01*
X132960283Y-50037273D01*
X132960284Y-50037276D01*
X133086968Y-50174889D01*
X133112760Y-50202906D01*
X133290424Y-50341189D01*
X133290425Y-50341189D01*
X133290427Y-50341191D01*
X133350314Y-50373600D01*
X133488426Y-50448342D01*
X133701365Y-50521444D01*
X133923431Y-50558500D01*
X134148569Y-50558500D01*
X134370635Y-50521444D01*
X134583574Y-50448342D01*
X134781576Y-50341189D01*
X134959240Y-50202906D01*
X135080594Y-50071082D01*
X135111715Y-50037276D01*
X135111715Y-50037275D01*
X135111722Y-50037268D01*
X135202193Y-49898790D01*
X135255338Y-49853437D01*
X135324569Y-49844013D01*
X135387905Y-49873515D01*
X135409804Y-49898787D01*
X135500278Y-50037268D01*
X135500283Y-50037273D01*
X135500284Y-50037276D01*
X135626968Y-50174889D01*
X135652760Y-50202906D01*
X135830424Y-50341189D01*
X135830425Y-50341189D01*
X135830427Y-50341191D01*
X135890314Y-50373600D01*
X136028426Y-50448342D01*
X136241365Y-50521444D01*
X136463431Y-50558500D01*
X136688569Y-50558500D01*
X136910635Y-50521444D01*
X137123574Y-50448342D01*
X137321576Y-50341189D01*
X137499240Y-50202906D01*
X137620594Y-50071082D01*
X137651715Y-50037276D01*
X137651715Y-50037275D01*
X137651722Y-50037268D01*
X137742193Y-49898790D01*
X137795338Y-49853437D01*
X137864569Y-49844013D01*
X137927905Y-49873515D01*
X137949804Y-49898787D01*
X138040278Y-50037268D01*
X138040283Y-50037273D01*
X138040284Y-50037276D01*
X138166968Y-50174889D01*
X138192760Y-50202906D01*
X138370424Y-50341189D01*
X138370425Y-50341189D01*
X138370427Y-50341191D01*
X138430314Y-50373600D01*
X138568426Y-50448342D01*
X138781365Y-50521444D01*
X139003431Y-50558500D01*
X139228569Y-50558500D01*
X139450635Y-50521444D01*
X139663574Y-50448342D01*
X139861576Y-50341189D01*
X140039240Y-50202906D01*
X140160594Y-50071082D01*
X140191715Y-50037276D01*
X140191715Y-50037275D01*
X140191722Y-50037268D01*
X140282193Y-49898790D01*
X140335338Y-49853437D01*
X140404569Y-49844013D01*
X140467905Y-49873515D01*
X140489804Y-49898787D01*
X140580278Y-50037268D01*
X140580283Y-50037273D01*
X140580284Y-50037276D01*
X140706968Y-50174889D01*
X140732760Y-50202906D01*
X140910424Y-50341189D01*
X140910425Y-50341189D01*
X140910427Y-50341191D01*
X140970314Y-50373600D01*
X141108426Y-50448342D01*
X141321365Y-50521444D01*
X141543431Y-50558500D01*
X141768569Y-50558500D01*
X141990635Y-50521444D01*
X142203574Y-50448342D01*
X142401576Y-50341189D01*
X142579240Y-50202906D01*
X142700594Y-50071082D01*
X142731715Y-50037276D01*
X142731717Y-50037273D01*
X142731722Y-50037268D01*
X142854860Y-49848791D01*
X142945296Y-49642616D01*
X143000564Y-49424368D01*
X143012309Y-49282635D01*
X143019156Y-49200005D01*
X143019156Y-49199994D01*
X143000565Y-48975640D01*
X143000563Y-48975628D01*
X142945296Y-48757385D01*
X142935071Y-48734075D01*
X142854860Y-48551209D01*
X142838706Y-48526484D01*
X142731723Y-48362734D01*
X142731715Y-48362723D01*
X142675212Y-48301345D01*
X144361500Y-48301345D01*
X144361500Y-50098654D01*
X144368011Y-50159202D01*
X144368011Y-50159204D01*
X144419111Y-50296204D01*
X144506739Y-50413261D01*
X144623796Y-50500889D01*
X144760799Y-50551989D01*
X144788050Y-50554918D01*
X144821345Y-50558499D01*
X144821362Y-50558500D01*
X146618638Y-50558500D01*
X146618654Y-50558499D01*
X146645692Y-50555591D01*
X146679201Y-50551989D01*
X146816204Y-50500889D01*
X146933261Y-50413261D01*
X147020889Y-50296204D01*
X147066138Y-50174887D01*
X147108009Y-50118956D01*
X147173474Y-50094539D01*
X147241746Y-50109391D01*
X147273545Y-50134236D01*
X147336760Y-50202906D01*
X147514424Y-50341189D01*
X147514425Y-50341189D01*
X147514427Y-50341191D01*
X147574314Y-50373600D01*
X147712426Y-50448342D01*
X147925365Y-50521444D01*
X148147431Y-50558500D01*
X148372569Y-50558500D01*
X148594635Y-50521444D01*
X148807574Y-50448342D01*
X149005576Y-50341189D01*
X149183240Y-50202906D01*
X149304594Y-50071082D01*
X149335715Y-50037276D01*
X149335715Y-50037275D01*
X149335722Y-50037268D01*
X149426193Y-49898790D01*
X149479338Y-49853437D01*
X149548569Y-49844013D01*
X149611905Y-49873515D01*
X149633804Y-49898787D01*
X149724278Y-50037268D01*
X149724283Y-50037273D01*
X149724284Y-50037276D01*
X149850968Y-50174889D01*
X149876760Y-50202906D01*
X150054424Y-50341189D01*
X150054425Y-50341189D01*
X150054427Y-50341191D01*
X150114314Y-50373600D01*
X150252426Y-50448342D01*
X150465365Y-50521444D01*
X150687431Y-50558500D01*
X150912569Y-50558500D01*
X151134635Y-50521444D01*
X151347574Y-50448342D01*
X151545576Y-50341189D01*
X151723240Y-50202906D01*
X151844594Y-50071082D01*
X151875715Y-50037276D01*
X151875715Y-50037275D01*
X151875722Y-50037268D01*
X151966193Y-49898790D01*
X152019338Y-49853437D01*
X152088569Y-49844013D01*
X152151905Y-49873515D01*
X152173804Y-49898787D01*
X152264278Y-50037268D01*
X152264283Y-50037273D01*
X152264284Y-50037276D01*
X152390968Y-50174889D01*
X152416760Y-50202906D01*
X152594424Y-50341189D01*
X152594425Y-50341189D01*
X152594427Y-50341191D01*
X152654314Y-50373600D01*
X152792426Y-50448342D01*
X153005365Y-50521444D01*
X153227431Y-50558500D01*
X153452569Y-50558500D01*
X153674635Y-50521444D01*
X153887574Y-50448342D01*
X154085576Y-50341189D01*
X154263240Y-50202906D01*
X154384594Y-50071082D01*
X154415715Y-50037276D01*
X154415715Y-50037275D01*
X154415722Y-50037268D01*
X154506193Y-49898790D01*
X154559338Y-49853437D01*
X154628569Y-49844013D01*
X154691905Y-49873515D01*
X154713804Y-49898787D01*
X154804278Y-50037268D01*
X154804283Y-50037273D01*
X154804284Y-50037276D01*
X154930968Y-50174889D01*
X154956760Y-50202906D01*
X155134424Y-50341189D01*
X155134425Y-50341189D01*
X155134427Y-50341191D01*
X155194314Y-50373600D01*
X155332426Y-50448342D01*
X155545365Y-50521444D01*
X155767431Y-50558500D01*
X155992569Y-50558500D01*
X156214635Y-50521444D01*
X156427574Y-50448342D01*
X156625576Y-50341189D01*
X156803240Y-50202906D01*
X156924594Y-50071082D01*
X156955715Y-50037276D01*
X156955715Y-50037275D01*
X156955722Y-50037268D01*
X157046193Y-49898790D01*
X157099338Y-49853437D01*
X157168569Y-49844013D01*
X157231905Y-49873515D01*
X157253804Y-49898787D01*
X157344278Y-50037268D01*
X157344283Y-50037273D01*
X157344284Y-50037276D01*
X157470968Y-50174889D01*
X157496760Y-50202906D01*
X157674424Y-50341189D01*
X157674425Y-50341189D01*
X157674427Y-50341191D01*
X157734314Y-50373600D01*
X157872426Y-50448342D01*
X158085365Y-50521444D01*
X158307431Y-50558500D01*
X158532569Y-50558500D01*
X158754635Y-50521444D01*
X158967574Y-50448342D01*
X159165576Y-50341189D01*
X159343240Y-50202906D01*
X159464594Y-50071082D01*
X159495715Y-50037276D01*
X159495715Y-50037275D01*
X159495722Y-50037268D01*
X159586193Y-49898790D01*
X159639338Y-49853437D01*
X159708569Y-49844013D01*
X159771905Y-49873515D01*
X159793804Y-49898787D01*
X159884278Y-50037268D01*
X159884283Y-50037273D01*
X159884284Y-50037276D01*
X160010968Y-50174889D01*
X160036760Y-50202906D01*
X160214424Y-50341189D01*
X160214425Y-50341189D01*
X160214427Y-50341191D01*
X160274314Y-50373600D01*
X160412426Y-50448342D01*
X160625365Y-50521444D01*
X160847431Y-50558500D01*
X161072569Y-50558500D01*
X161294635Y-50521444D01*
X161507574Y-50448342D01*
X161705576Y-50341189D01*
X161883240Y-50202906D01*
X162004594Y-50071082D01*
X162035715Y-50037276D01*
X162035715Y-50037275D01*
X162035722Y-50037268D01*
X162126193Y-49898790D01*
X162179338Y-49853437D01*
X162248569Y-49844013D01*
X162311905Y-49873515D01*
X162333804Y-49898787D01*
X162424278Y-50037268D01*
X162424283Y-50037273D01*
X162424284Y-50037276D01*
X162550968Y-50174889D01*
X162576760Y-50202906D01*
X162754424Y-50341189D01*
X162754425Y-50341189D01*
X162754427Y-50341191D01*
X162814314Y-50373600D01*
X162952426Y-50448342D01*
X163165365Y-50521444D01*
X163387431Y-50558500D01*
X163612569Y-50558500D01*
X163834635Y-50521444D01*
X164047574Y-50448342D01*
X164245576Y-50341189D01*
X164423240Y-50202906D01*
X164544594Y-50071082D01*
X164575715Y-50037276D01*
X164575717Y-50037273D01*
X164575722Y-50037268D01*
X164698860Y-49848791D01*
X164789296Y-49642616D01*
X164844564Y-49424368D01*
X164856309Y-49282635D01*
X164863156Y-49200005D01*
X164863156Y-49199994D01*
X164844565Y-48975640D01*
X164844563Y-48975628D01*
X164789296Y-48757385D01*
X164779071Y-48734075D01*
X164698860Y-48551209D01*
X164682706Y-48526484D01*
X164575723Y-48362734D01*
X164575715Y-48362723D01*
X164423243Y-48197097D01*
X164423238Y-48197092D01*
X164245577Y-48058812D01*
X164245572Y-48058808D01*
X164047580Y-47951661D01*
X164047577Y-47951659D01*
X164047574Y-47951658D01*
X164047571Y-47951657D01*
X164047569Y-47951656D01*
X163834637Y-47878556D01*
X163612569Y-47841500D01*
X163387431Y-47841500D01*
X163165362Y-47878556D01*
X162952430Y-47951656D01*
X162952419Y-47951661D01*
X162754427Y-48058808D01*
X162754422Y-48058812D01*
X162576761Y-48197092D01*
X162576756Y-48197097D01*
X162424284Y-48362723D01*
X162424276Y-48362734D01*
X162333808Y-48501206D01*
X162280662Y-48546562D01*
X162211431Y-48555986D01*
X162148095Y-48526484D01*
X162126192Y-48501206D01*
X162035723Y-48362734D01*
X162035715Y-48362723D01*
X161883243Y-48197097D01*
X161883238Y-48197092D01*
X161705577Y-48058812D01*
X161705572Y-48058808D01*
X161507580Y-47951661D01*
X161507577Y-47951659D01*
X161507574Y-47951658D01*
X161507571Y-47951657D01*
X161507569Y-47951656D01*
X161294637Y-47878556D01*
X161072569Y-47841500D01*
X160847431Y-47841500D01*
X160625362Y-47878556D01*
X160412430Y-47951656D01*
X160412419Y-47951661D01*
X160214427Y-48058808D01*
X160214422Y-48058812D01*
X160036761Y-48197092D01*
X160036756Y-48197097D01*
X159884284Y-48362723D01*
X159884276Y-48362734D01*
X159793808Y-48501206D01*
X159740662Y-48546562D01*
X159671431Y-48555986D01*
X159608095Y-48526484D01*
X159586192Y-48501206D01*
X159495723Y-48362734D01*
X159495715Y-48362723D01*
X159343243Y-48197097D01*
X159343238Y-48197092D01*
X159165577Y-48058812D01*
X159165572Y-48058808D01*
X158967580Y-47951661D01*
X158967577Y-47951659D01*
X158967574Y-47951658D01*
X158967571Y-47951657D01*
X158967569Y-47951656D01*
X158754637Y-47878556D01*
X158532569Y-47841500D01*
X158307431Y-47841500D01*
X158085362Y-47878556D01*
X157872430Y-47951656D01*
X157872419Y-47951661D01*
X157674427Y-48058808D01*
X157674422Y-48058812D01*
X157496761Y-48197092D01*
X157496756Y-48197097D01*
X157344284Y-48362723D01*
X157344276Y-48362734D01*
X157253808Y-48501206D01*
X157200662Y-48546562D01*
X157131431Y-48555986D01*
X157068095Y-48526484D01*
X157046192Y-48501206D01*
X156955723Y-48362734D01*
X156955715Y-48362723D01*
X156803243Y-48197097D01*
X156803238Y-48197092D01*
X156625577Y-48058812D01*
X156625572Y-48058808D01*
X156427580Y-47951661D01*
X156427577Y-47951659D01*
X156427574Y-47951658D01*
X156427571Y-47951657D01*
X156427569Y-47951656D01*
X156214637Y-47878556D01*
X155992569Y-47841500D01*
X155767431Y-47841500D01*
X155545362Y-47878556D01*
X155332430Y-47951656D01*
X155332419Y-47951661D01*
X155134427Y-48058808D01*
X155134422Y-48058812D01*
X154956761Y-48197092D01*
X154956756Y-48197097D01*
X154804284Y-48362723D01*
X154804276Y-48362734D01*
X154713808Y-48501206D01*
X154660662Y-48546562D01*
X154591431Y-48555986D01*
X154528095Y-48526484D01*
X154506192Y-48501206D01*
X154415723Y-48362734D01*
X154415715Y-48362723D01*
X154263243Y-48197097D01*
X154263238Y-48197092D01*
X154085577Y-48058812D01*
X154085572Y-48058808D01*
X153887580Y-47951661D01*
X153887577Y-47951659D01*
X153887574Y-47951658D01*
X153887571Y-47951657D01*
X153887569Y-47951656D01*
X153674637Y-47878556D01*
X153452569Y-47841500D01*
X153227431Y-47841500D01*
X153005362Y-47878556D01*
X152792430Y-47951656D01*
X152792419Y-47951661D01*
X152594427Y-48058808D01*
X152594422Y-48058812D01*
X152416761Y-48197092D01*
X152416756Y-48197097D01*
X152264284Y-48362723D01*
X152264276Y-48362734D01*
X152173808Y-48501206D01*
X152120662Y-48546562D01*
X152051431Y-48555986D01*
X151988095Y-48526484D01*
X151966192Y-48501206D01*
X151875723Y-48362734D01*
X151875715Y-48362723D01*
X151723243Y-48197097D01*
X151723238Y-48197092D01*
X151545577Y-48058812D01*
X151545572Y-48058808D01*
X151347580Y-47951661D01*
X151347577Y-47951659D01*
X151347574Y-47951658D01*
X151347571Y-47951657D01*
X151347569Y-47951656D01*
X151134637Y-47878556D01*
X150912569Y-47841500D01*
X150687431Y-47841500D01*
X150465362Y-47878556D01*
X150252430Y-47951656D01*
X150252419Y-47951661D01*
X150054427Y-48058808D01*
X150054422Y-48058812D01*
X149876761Y-48197092D01*
X149876756Y-48197097D01*
X149724284Y-48362723D01*
X149724276Y-48362734D01*
X149633808Y-48501206D01*
X149580662Y-48546562D01*
X149511431Y-48555986D01*
X149448095Y-48526484D01*
X149426192Y-48501206D01*
X149335723Y-48362734D01*
X149335715Y-48362723D01*
X149183243Y-48197097D01*
X149183238Y-48197092D01*
X149005577Y-48058812D01*
X149005572Y-48058808D01*
X148807580Y-47951661D01*
X148807577Y-47951659D01*
X148807574Y-47951658D01*
X148807571Y-47951657D01*
X148807569Y-47951656D01*
X148594637Y-47878556D01*
X148372569Y-47841500D01*
X148147431Y-47841500D01*
X147925362Y-47878556D01*
X147712430Y-47951656D01*
X147712419Y-47951661D01*
X147514427Y-48058808D01*
X147514422Y-48058812D01*
X147336761Y-48197092D01*
X147273548Y-48265760D01*
X147213661Y-48301750D01*
X147143823Y-48299649D01*
X147086207Y-48260124D01*
X147066138Y-48225110D01*
X147020889Y-48103796D01*
X146987214Y-48058812D01*
X146933261Y-47986739D01*
X146816204Y-47899111D01*
X146679203Y-47848011D01*
X146618654Y-47841500D01*
X146618638Y-47841500D01*
X144821362Y-47841500D01*
X144821345Y-47841500D01*
X144760797Y-47848011D01*
X144760795Y-47848011D01*
X144623795Y-47899111D01*
X144506739Y-47986739D01*
X144419111Y-48103795D01*
X144368011Y-48240795D01*
X144368011Y-48240797D01*
X144361500Y-48301345D01*
X142675212Y-48301345D01*
X142579243Y-48197097D01*
X142579238Y-48197092D01*
X142401577Y-48058812D01*
X142401572Y-48058808D01*
X142203580Y-47951661D01*
X142203577Y-47951659D01*
X142203574Y-47951658D01*
X142203571Y-47951657D01*
X142203569Y-47951656D01*
X141990637Y-47878556D01*
X141768569Y-47841500D01*
X141543431Y-47841500D01*
X141321362Y-47878556D01*
X141108430Y-47951656D01*
X141108419Y-47951661D01*
X140910427Y-48058808D01*
X140910422Y-48058812D01*
X140732761Y-48197092D01*
X140732756Y-48197097D01*
X140580284Y-48362723D01*
X140580276Y-48362734D01*
X140489808Y-48501206D01*
X140436662Y-48546562D01*
X140367431Y-48555986D01*
X140304095Y-48526484D01*
X140282192Y-48501206D01*
X140191723Y-48362734D01*
X140191715Y-48362723D01*
X140039243Y-48197097D01*
X140039238Y-48197092D01*
X139861577Y-48058812D01*
X139861572Y-48058808D01*
X139663580Y-47951661D01*
X139663577Y-47951659D01*
X139663574Y-47951658D01*
X139663571Y-47951657D01*
X139663569Y-47951656D01*
X139450637Y-47878556D01*
X139228569Y-47841500D01*
X139003431Y-47841500D01*
X138781362Y-47878556D01*
X138568430Y-47951656D01*
X138568419Y-47951661D01*
X138370427Y-48058808D01*
X138370422Y-48058812D01*
X138192761Y-48197092D01*
X138192756Y-48197097D01*
X138040284Y-48362723D01*
X138040276Y-48362734D01*
X137949808Y-48501206D01*
X137896662Y-48546562D01*
X137827431Y-48555986D01*
X137764095Y-48526484D01*
X137742192Y-48501206D01*
X137651723Y-48362734D01*
X137651715Y-48362723D01*
X137499243Y-48197097D01*
X137499238Y-48197092D01*
X137321577Y-48058812D01*
X137321572Y-48058808D01*
X137123580Y-47951661D01*
X137123577Y-47951659D01*
X137123574Y-47951658D01*
X137123571Y-47951657D01*
X137123569Y-47951656D01*
X136910637Y-47878556D01*
X136688569Y-47841500D01*
X136463431Y-47841500D01*
X136241362Y-47878556D01*
X136028430Y-47951656D01*
X136028419Y-47951661D01*
X135830427Y-48058808D01*
X135830422Y-48058812D01*
X135652761Y-48197092D01*
X135652756Y-48197097D01*
X135500284Y-48362723D01*
X135500276Y-48362734D01*
X135409808Y-48501206D01*
X135356662Y-48546562D01*
X135287431Y-48555986D01*
X135224095Y-48526484D01*
X135202192Y-48501206D01*
X135111723Y-48362734D01*
X135111715Y-48362723D01*
X134959243Y-48197097D01*
X134959238Y-48197092D01*
X134781577Y-48058812D01*
X134781572Y-48058808D01*
X134583580Y-47951661D01*
X134583577Y-47951659D01*
X134583574Y-47951658D01*
X134583571Y-47951657D01*
X134583569Y-47951656D01*
X134370637Y-47878556D01*
X134148569Y-47841500D01*
X133923431Y-47841500D01*
X133701362Y-47878556D01*
X133488430Y-47951656D01*
X133488419Y-47951661D01*
X133290427Y-48058808D01*
X133290422Y-48058812D01*
X133112761Y-48197092D01*
X133112756Y-48197097D01*
X132960284Y-48362723D01*
X132960276Y-48362734D01*
X132869808Y-48501206D01*
X132816662Y-48546562D01*
X132747431Y-48555986D01*
X132684095Y-48526484D01*
X132662192Y-48501206D01*
X132571723Y-48362734D01*
X132571715Y-48362723D01*
X132419243Y-48197097D01*
X132419238Y-48197092D01*
X132241577Y-48058812D01*
X132241572Y-48058808D01*
X132043580Y-47951661D01*
X132043577Y-47951659D01*
X132043574Y-47951658D01*
X132043571Y-47951657D01*
X132043569Y-47951656D01*
X131830637Y-47878556D01*
X131608569Y-47841500D01*
X131383431Y-47841500D01*
X131161362Y-47878556D01*
X130948430Y-47951656D01*
X130948419Y-47951661D01*
X130750427Y-48058808D01*
X130750422Y-48058812D01*
X130572761Y-48197092D01*
X130572756Y-48197097D01*
X130420284Y-48362723D01*
X130420276Y-48362734D01*
X130329808Y-48501206D01*
X130276662Y-48546562D01*
X130207431Y-48555986D01*
X130144095Y-48526484D01*
X130122192Y-48501206D01*
X130031723Y-48362734D01*
X130031715Y-48362723D01*
X129879243Y-48197097D01*
X129879238Y-48197092D01*
X129701577Y-48058812D01*
X129701572Y-48058808D01*
X129503580Y-47951661D01*
X129503577Y-47951659D01*
X129503574Y-47951658D01*
X129503571Y-47951657D01*
X129503569Y-47951656D01*
X129290637Y-47878556D01*
X129068569Y-47841500D01*
X128843431Y-47841500D01*
X128621362Y-47878556D01*
X128408430Y-47951656D01*
X128408419Y-47951661D01*
X128210427Y-48058808D01*
X128210422Y-48058812D01*
X128032761Y-48197092D01*
X128032756Y-48197097D01*
X127880284Y-48362723D01*
X127880276Y-48362734D01*
X127786251Y-48506650D01*
X127733105Y-48552007D01*
X127663873Y-48561430D01*
X127600538Y-48531928D01*
X127580868Y-48509951D01*
X127454113Y-48328926D01*
X127454108Y-48328920D01*
X127287082Y-48161894D01*
X127093578Y-48026399D01*
X126879492Y-47926570D01*
X126879486Y-47926567D01*
X126666000Y-47869364D01*
X126666000Y-48766988D01*
X126608993Y-48734075D01*
X126481826Y-48700000D01*
X126350174Y-48700000D01*
X126223007Y-48734075D01*
X126166000Y-48766988D01*
X126166000Y-47869364D01*
X126165999Y-47869364D01*
X125952513Y-47926567D01*
X125952507Y-47926570D01*
X125738422Y-48026399D01*
X125738420Y-48026400D01*
X125544926Y-48161886D01*
X125544920Y-48161891D01*
X125377891Y-48328920D01*
X125377890Y-48328922D01*
X125251131Y-48509952D01*
X125196554Y-48553577D01*
X125127055Y-48560769D01*
X125064701Y-48529247D01*
X125045752Y-48506656D01*
X124951722Y-48362732D01*
X124951715Y-48362725D01*
X124951715Y-48362723D01*
X124799243Y-48197097D01*
X124799238Y-48197092D01*
X124621577Y-48058812D01*
X124621572Y-48058808D01*
X124423580Y-47951661D01*
X124423577Y-47951659D01*
X124423574Y-47951658D01*
X124423571Y-47951657D01*
X124423569Y-47951656D01*
X124210637Y-47878556D01*
X123988569Y-47841500D01*
X123763431Y-47841500D01*
X123541362Y-47878556D01*
X123328430Y-47951656D01*
X123328419Y-47951661D01*
X123130427Y-48058808D01*
X123130422Y-48058812D01*
X122952761Y-48197092D01*
X122952756Y-48197097D01*
X122800284Y-48362723D01*
X122800276Y-48362734D01*
X122709808Y-48501206D01*
X122656662Y-48546562D01*
X122587431Y-48555986D01*
X122524095Y-48526484D01*
X122502192Y-48501206D01*
X122411723Y-48362734D01*
X122411715Y-48362723D01*
X122259243Y-48197097D01*
X122259238Y-48197092D01*
X122081577Y-48058812D01*
X122081572Y-48058808D01*
X121883580Y-47951661D01*
X121883577Y-47951659D01*
X121883574Y-47951658D01*
X121883571Y-47951657D01*
X121883569Y-47951656D01*
X121670637Y-47878556D01*
X121448569Y-47841500D01*
X121223431Y-47841500D01*
X121001362Y-47878556D01*
X120788430Y-47951656D01*
X120788419Y-47951661D01*
X120590427Y-48058808D01*
X120590422Y-48058812D01*
X120412761Y-48197092D01*
X120349548Y-48265760D01*
X120289661Y-48301750D01*
X120219823Y-48299649D01*
X120162207Y-48260124D01*
X120142138Y-48225110D01*
X120096889Y-48103796D01*
X120063214Y-48058812D01*
X120009261Y-47986739D01*
X119892204Y-47899111D01*
X119755203Y-47848011D01*
X119694654Y-47841500D01*
X119694638Y-47841500D01*
X117897362Y-47841500D01*
X117897345Y-47841500D01*
X117836797Y-47848011D01*
X117836795Y-47848011D01*
X117699795Y-47899111D01*
X117582739Y-47986739D01*
X117495111Y-48103795D01*
X117444011Y-48240795D01*
X117444011Y-48240797D01*
X117437500Y-48301345D01*
X100075500Y-48301345D01*
X100075500Y-47428092D01*
X100076097Y-47415938D01*
X100087494Y-47300222D01*
X100092234Y-47276389D01*
X100124216Y-47170959D01*
X100133508Y-47148526D01*
X100185442Y-47051365D01*
X100198938Y-47031166D01*
X100268827Y-46946006D01*
X100286006Y-46928827D01*
X100371166Y-46858938D01*
X100391365Y-46845442D01*
X100488526Y-46793508D01*
X100510959Y-46784216D01*
X100616389Y-46752234D01*
X100640220Y-46747494D01*
X100755939Y-46736097D01*
X100768093Y-46735500D01*
X100786531Y-46735500D01*
X163417365Y-46735500D01*
X163484404Y-46755185D01*
G37*
%TD.AperFunction*%
%TD*%
M02*
