M48
; DRILL file {KiCad 8.0.8} date 2025-02-02T20:20:40-0700
; FORMAT={-:-/ absolute / inch / decimal}
; #@! TF.CreationDate,2025-02-02T20:20:40-07:00
; #@! TF.GenerationSoftware,Kicad,Pcbnew,8.0.8
; #@! TF.FileFunction,Plated,1,2,PTH
FMAT,2
INCH
; #@! TA.AperFunction,Plated,PTH,ComponentDrill
T1C0.0315
; #@! TA.AperFunction,Plated,PTH,ComponentDrill
T2C0.0354
; #@! TA.AperFunction,Plated,PTH,ComponentDrill
T3C0.0374
; #@! TA.AperFunction,Plated,PTH,ComponentDrill
T4C0.0394
; #@! TA.AperFunction,Plated,PTH,ComponentDrill
T5C0.0433
%
G90
G05
T1
X5.4134Y-2.0638
X5.4134Y-2.4638
X5.5283Y-2.6575
X5.548Y-2.1063
X5.5874Y-3.1693
X5.8465Y-3.5236
X5.9283Y-2.6575
X5.9465Y-3.6236
X5.948Y-2.1063
X5.9874Y-3.1693
X6.0465Y-3.5236
X6.0795Y-2.1063
X6.0795Y-2.6575
X6.4795Y-2.1063
X6.4795Y-2.6575
T2
X5.1772Y-2.5787
X5.2772Y-2.5787
T3
X5.2165Y-2.126
X5.2165Y-2.2244
X5.2165Y-2.3228
T4
X4.2488Y-2.5984
X4.3488Y-2.5984
X4.3898Y-2.7943
X4.4488Y-2.5984
X4.4898Y-2.7943
X4.5488Y-2.5984
X4.5898Y-2.7943
X4.6488Y-2.5984
X4.677Y-1.937
X4.6898Y-2.7943
X4.7488Y-2.5984
X4.777Y-1.937
X4.8488Y-2.5984
X4.877Y-1.937
X4.9488Y-2.5984
X4.977Y-1.937
X5.037Y-3.837
X5.077Y-1.937
X5.137Y-3.837
X5.177Y-1.937
X5.237Y-3.837
X5.277Y-1.937
X5.337Y-3.837
X5.377Y-1.937
X5.437Y-3.837
X5.477Y-1.937
X5.537Y-3.837
X5.577Y-1.937
X5.637Y-3.837
X5.737Y-1.937
X5.737Y-3.837
X5.837Y-1.937
X5.937Y-1.937
X5.937Y-3.837
X6.037Y-1.937
X6.037Y-3.837
X6.137Y-1.937
X6.137Y-3.837
X6.237Y-1.937
X6.237Y-3.837
X6.337Y-1.937
X6.337Y-3.837
X6.437Y-1.937
X6.437Y-3.837
T5
X5.2362Y-2.815
X5.2362Y-2.9921
X5.4921Y-2.815
X5.4921Y-2.9921
X5.6201Y-2.3031
X5.6201Y-2.4803
X5.6988Y-2.8248
X5.6988Y-3.002
X5.876Y-2.3031
X5.876Y-2.4803
X5.9547Y-2.8248
X5.9547Y-3.002
X6.1713Y-2.2933
X6.1713Y-2.4705
X6.2106Y-2.8248
X6.2106Y-3.002
X6.4272Y-2.2933
X6.4272Y-2.4705
X6.4665Y-2.8248
X6.4665Y-3.002
M30
