%TF.GenerationSoftware,KiCad,Pcbnew,8.0.8*%
%TF.CreationDate,2025-01-31T10:38:55-07:00*%
%TF.ProjectId,Uno_Shield_ThermoPro,556e6f5f-5368-4696-956c-645f54686572,rev?*%
%TF.SameCoordinates,Original*%
%TF.FileFunction,Copper,L2,Bot*%
%TF.FilePolarity,Positive*%
%FSLAX46Y46*%
G04 Gerber Fmt 4.6, Leading zero omitted, Abs format (unit mm)*
G04 Created by KiCad (PCBNEW 8.0.8) date 2025-01-31 10:38:55*
%MOMM*%
%LPD*%
G01*
G04 APERTURE LIST*
G04 Aperture macros list*
%AMRoundRect*
0 Rectangle with rounded corners*
0 $1 Rounding radius*
0 $2 $3 $4 $5 $6 $7 $8 $9 X,Y pos of 4 corners*
0 Add a 4 corners polygon primitive as box body*
4,1,4,$2,$3,$4,$5,$6,$7,$8,$9,$2,$3,0*
0 Add four circle primitives for the rounded corners*
1,1,$1+$1,$2,$3*
1,1,$1+$1,$4,$5*
1,1,$1+$1,$6,$7*
1,1,$1+$1,$8,$9*
0 Add four rect primitives between the rounded corners*
20,1,$1+$1,$2,$3,$4,$5,0*
20,1,$1+$1,$4,$5,$6,$7,0*
20,1,$1+$1,$6,$7,$8,$9,0*
20,1,$1+$1,$8,$9,$2,$3,0*%
G04 Aperture macros list end*
%TA.AperFunction,ComponentPad*%
%ADD10C,1.600000*%
%TD*%
%TA.AperFunction,ComponentPad*%
%ADD11O,1.600000X1.600000*%
%TD*%
%TA.AperFunction,ComponentPad*%
%ADD12RoundRect,0.250000X-0.600000X-0.725000X0.600000X-0.725000X0.600000X0.725000X-0.600000X0.725000X0*%
%TD*%
%TA.AperFunction,ComponentPad*%
%ADD13O,1.700000X1.950000*%
%TD*%
%TA.AperFunction,ComponentPad*%
%ADD14R,1.700000X1.700000*%
%TD*%
%TA.AperFunction,ComponentPad*%
%ADD15O,1.700000X1.700000*%
%TD*%
%TA.AperFunction,ComponentPad*%
%ADD16C,2.000000*%
%TD*%
%TA.AperFunction,ComponentPad*%
%ADD17R,1.800000X1.800000*%
%TD*%
%TA.AperFunction,ComponentPad*%
%ADD18C,1.800000*%
%TD*%
%TA.AperFunction,ComponentPad*%
%ADD19C,1.440000*%
%TD*%
G04 APERTURE END LIST*
D10*
%TO.P,R5,1*%
%TO.N,/button_lock*%
X156920000Y-67500000D03*
D11*
%TO.P,R5,2*%
%TO.N,GND*%
X167080000Y-67500000D03*
%TD*%
D10*
%TO.P,R4,1*%
%TO.N,/button_cal*%
X158500000Y-71500000D03*
D11*
%TO.P,R4,2*%
%TO.N,GND*%
X148340000Y-71500000D03*
%TD*%
D10*
%TO.P,R3,1*%
%TO.N,/button_units*%
X153160000Y-53500000D03*
D11*
%TO.P,R3,2*%
%TO.N,GND*%
X143000000Y-53500000D03*
%TD*%
D10*
%TO.P,R2,1*%
%TO.N,/button_onoff*%
X156920000Y-63000000D03*
D11*
%TO.P,R2,2*%
%TO.N,GND*%
X167080000Y-63000000D03*
%TD*%
D10*
%TO.P,R1,1*%
%TO.N,/led_light*%
X139080000Y-53500000D03*
D11*
%TO.P,R1,2*%
%TO.N,Net-(D1-A)*%
X128920000Y-53500000D03*
%TD*%
D12*
%TO.P,J7,1,Pin_1*%
%TO.N,GND*%
X134500000Y-59000000D03*
D13*
%TO.P,J7,2,Pin_2*%
%TO.N,/temp_digital*%
X137000000Y-59000000D03*
%TO.P,J7,3,Pin_3*%
%TO.N,+5V*%
X139500000Y-59000000D03*
%TD*%
D14*
%TO.P,J1,1,Pin_1*%
%TO.N,unconnected-(J1-Pin_1-Pad1)*%
X127940000Y-97460000D03*
D15*
%TO.P,J1,2,Pin_2*%
%TO.N,/IOREF*%
X130480000Y-97460000D03*
%TO.P,J1,3,Pin_3*%
%TO.N,/~{RESET}*%
X133020000Y-97460000D03*
%TO.P,J1,4,Pin_4*%
%TO.N,+3V3*%
X135560000Y-97460000D03*
%TO.P,J1,5,Pin_5*%
%TO.N,+5V*%
X138100000Y-97460000D03*
%TO.P,J1,6,Pin_6*%
%TO.N,GND*%
X140640000Y-97460000D03*
%TO.P,J1,7,Pin_7*%
X143180000Y-97460000D03*
%TO.P,J1,8,Pin_8*%
%TO.N,VCC*%
X145720000Y-97460000D03*
%TD*%
D14*
%TO.P,J3,1,Pin_1*%
%TO.N,/temp_sensor*%
X150800000Y-97460000D03*
D15*
%TO.P,J3,2,Pin_2*%
%TO.N,/A1*%
X153340000Y-97460000D03*
%TO.P,J3,3,Pin_3*%
%TO.N,/A2*%
X155880000Y-97460000D03*
%TO.P,J3,4,Pin_4*%
%TO.N,/A3*%
X158420000Y-97460000D03*
%TO.P,J3,5,Pin_5*%
%TO.N,/SDA{slash}A4*%
X160960000Y-97460000D03*
%TO.P,J3,6,Pin_6*%
%TO.N,/SCL{slash}A5*%
X163500000Y-97460000D03*
%TD*%
D14*
%TO.P,J2,1,Pin_1*%
%TO.N,/I2C_SCL*%
X118796000Y-49200000D03*
D15*
%TO.P,J2,2,Pin_2*%
%TO.N,/I2C_SDA*%
X121336000Y-49200000D03*
%TO.P,J2,3,Pin_3*%
%TO.N,/AREF*%
X123876000Y-49200000D03*
%TO.P,J2,4,Pin_4*%
%TO.N,GND*%
X126416000Y-49200000D03*
%TO.P,J2,5,Pin_5*%
%TO.N,/13*%
X128956000Y-49200000D03*
%TO.P,J2,6,Pin_6*%
%TO.N,/12*%
X131496000Y-49200000D03*
%TO.P,J2,7,Pin_7*%
%TO.N,/\u002A11*%
X134036000Y-49200000D03*
%TO.P,J2,8,Pin_8*%
%TO.N,/\u002A10*%
X136576000Y-49200000D03*
%TO.P,J2,9,Pin_9*%
%TO.N,/led_light*%
X139116000Y-49200000D03*
%TO.P,J2,10,Pin_10*%
%TO.N,/temp_digital*%
X141656000Y-49200000D03*
%TD*%
%TO.P,J4,8,Pin_8*%
%TO.N,/RX{slash}0*%
X163500000Y-49200000D03*
%TO.P,J4,7,Pin_7*%
%TO.N,/TX{slash}1*%
X160960000Y-49200000D03*
%TO.P,J4,6,Pin_6*%
%TO.N,/button_onoff*%
X158420000Y-49200000D03*
%TO.P,J4,5,Pin_5*%
%TO.N,/button_lock*%
X155880000Y-49200000D03*
%TO.P,J4,4,Pin_4*%
%TO.N,/button_units*%
X153340000Y-49200000D03*
%TO.P,J4,3,Pin_3*%
%TO.N,/button_cal*%
X150800000Y-49200000D03*
%TO.P,J4,2,Pin_2*%
%TO.N,/button_light*%
X148260000Y-49200000D03*
D14*
%TO.P,J4,1,Pin_1*%
%TO.N,/7*%
X145720000Y-49200000D03*
%TD*%
D16*
%TO.P,SW4,1,A*%
%TO.N,/button_lock*%
X161750000Y-77750000D03*
X161750000Y-71250000D03*
%TO.P,SW4,2,B*%
%TO.N,+5V*%
X166250000Y-77750000D03*
X166250000Y-71250000D03*
%TD*%
D17*
%TO.P,D1,1,K*%
%TO.N,GND*%
X135500000Y-68500000D03*
D18*
%TO.P,D1,2,A*%
%TO.N,Net-(D1-A)*%
X132960000Y-68500000D03*
%TD*%
D16*
%TO.P,SW5,2,B*%
%TO.N,+5V*%
X140500000Y-77500000D03*
X140500000Y-71000000D03*
%TO.P,SW5,1,A*%
%TO.N,/button_light*%
X145000000Y-77500000D03*
X145000000Y-71000000D03*
%TD*%
%TO.P,SW2,1,A*%
%TO.N,/button_units*%
X149750000Y-57500000D03*
X149750000Y-64000000D03*
%TO.P,SW2,2,B*%
%TO.N,+5V*%
X145250000Y-57500000D03*
X145250000Y-64000000D03*
%TD*%
D14*
%TO.P,J6,1,Pin_1*%
%TO.N,GND*%
X111500000Y-70975000D03*
D15*
%TO.P,J6,2,Pin_2*%
%TO.N,+5V*%
X114040000Y-70975000D03*
%TO.P,J6,3,Pin_3*%
%TO.N,/I2C_SCL*%
X116580000Y-70975000D03*
%TO.P,J6,4,Pin_4*%
%TO.N,/I2C_SDA*%
X119120000Y-70975000D03*
%TD*%
D16*
%TO.P,SW1,1,A*%
%TO.N,/button_onoff*%
X159000000Y-59500000D03*
X159000000Y-53000000D03*
%TO.P,SW1,2,B*%
%TO.N,+5V*%
X163500000Y-59500000D03*
X163500000Y-53000000D03*
%TD*%
D19*
%TO.P,RV1,1,1*%
%TO.N,+5V*%
X148500000Y-89500000D03*
%TO.P,RV1,2,2*%
%TO.N,/temp_sensor*%
X151040000Y-92040000D03*
%TO.P,RV1,3,3*%
%TO.N,GND*%
X153580000Y-89500000D03*
%TD*%
D14*
%TO.P,J5,1,Pin_1*%
%TO.N,+5V*%
X107920000Y-66000000D03*
D15*
%TO.P,J5,2,Pin_2*%
%TO.N,GND*%
X110460000Y-66000000D03*
%TO.P,J5,3,Pin_3*%
%TO.N,/I2C_SCL*%
X113000000Y-66000000D03*
%TO.P,J5,4,Pin_4*%
%TO.N,/I2C_SDA*%
X115540000Y-66000000D03*
%TO.P,J5,5,Pin_5*%
%TO.N,unconnected-(J5-Pin_5-Pad5)*%
X118080000Y-66000000D03*
%TO.P,J5,6,Pin_6*%
%TO.N,unconnected-(J5-Pin_6-Pad6)*%
X120620000Y-66000000D03*
%TO.P,J5,7,Pin_7*%
%TO.N,unconnected-(J5-Pin_7-Pad7)*%
X123160000Y-66000000D03*
%TO.P,J5,8,Pin_8*%
%TO.N,unconnected-(J5-Pin_8-Pad8)*%
X125700000Y-66000000D03*
%TD*%
D10*
%TO.P,R6,1*%
%TO.N,/button_light*%
X150080000Y-67500000D03*
D11*
%TO.P,R6,2*%
%TO.N,GND*%
X139920000Y-67500000D03*
%TD*%
D16*
%TO.P,SW3,1,A*%
%TO.N,/button_cal*%
X155500000Y-75000000D03*
X155500000Y-81500000D03*
%TO.P,SW3,2,B*%
%TO.N,+5V*%
X151000000Y-75000000D03*
X151000000Y-81500000D03*
%TD*%
%TA.AperFunction,Conductor*%
%TO.N,GND*%
G36*
X142714075Y-97267007D02*
G01*
X142680000Y-97394174D01*
X142680000Y-97525826D01*
X142714075Y-97652993D01*
X142746988Y-97710000D01*
X141073012Y-97710000D01*
X141105925Y-97652993D01*
X141140000Y-97525826D01*
X141140000Y-97394174D01*
X141105925Y-97267007D01*
X141073012Y-97210000D01*
X142746988Y-97210000D01*
X142714075Y-97267007D01*
G37*
%TD.AperFunction*%
%TA.AperFunction,Conductor*%
G36*
X163484404Y-46755185D02*
G01*
X163505046Y-46771819D01*
X165928181Y-49194954D01*
X165961666Y-49256277D01*
X165964500Y-49282635D01*
X165964500Y-59344982D01*
X165964500Y-59375018D01*
X165975994Y-59402767D01*
X165975995Y-59402768D01*
X168468181Y-61894954D01*
X168501666Y-61956277D01*
X168504500Y-61982635D01*
X168504500Y-62419459D01*
X168484815Y-62486498D01*
X168432011Y-62532253D01*
X168362853Y-62542197D01*
X168299297Y-62513172D01*
X168268118Y-62471864D01*
X168210134Y-62347517D01*
X168079657Y-62161179D01*
X167918820Y-62000342D01*
X167732482Y-61869865D01*
X167526328Y-61773734D01*
X167330000Y-61721127D01*
X167330000Y-62684314D01*
X167325606Y-62679920D01*
X167234394Y-62627259D01*
X167132661Y-62600000D01*
X167027339Y-62600000D01*
X166925606Y-62627259D01*
X166834394Y-62679920D01*
X166830000Y-62684314D01*
X166830000Y-61721127D01*
X166633671Y-61773734D01*
X166427517Y-61869865D01*
X166241179Y-62000342D01*
X166080342Y-62161179D01*
X165949865Y-62347517D01*
X165853734Y-62553673D01*
X165853730Y-62553682D01*
X165801127Y-62749999D01*
X165801128Y-62750000D01*
X166764314Y-62750000D01*
X166759920Y-62754394D01*
X166707259Y-62845606D01*
X166680000Y-62947339D01*
X166680000Y-63052661D01*
X166707259Y-63154394D01*
X166759920Y-63245606D01*
X166764314Y-63250000D01*
X165801128Y-63250000D01*
X165853730Y-63446317D01*
X165853734Y-63446326D01*
X165949865Y-63652482D01*
X166080342Y-63838820D01*
X166241179Y-63999657D01*
X166427517Y-64130134D01*
X166633673Y-64226265D01*
X166633682Y-64226269D01*
X166829999Y-64278872D01*
X166830000Y-64278871D01*
X166830000Y-63315686D01*
X166834394Y-63320080D01*
X166925606Y-63372741D01*
X167027339Y-63400000D01*
X167132661Y-63400000D01*
X167234394Y-63372741D01*
X167325606Y-63320080D01*
X167330000Y-63315686D01*
X167330000Y-64278872D01*
X167526317Y-64226269D01*
X167526326Y-64226265D01*
X167732482Y-64130134D01*
X167918820Y-63999657D01*
X168079657Y-63838820D01*
X168210133Y-63652482D01*
X168268118Y-63528135D01*
X168314290Y-63475696D01*
X168381484Y-63456544D01*
X168448365Y-63476760D01*
X168493699Y-63529925D01*
X168504500Y-63580540D01*
X168504500Y-66919459D01*
X168484815Y-66986498D01*
X168432011Y-67032253D01*
X168362853Y-67042197D01*
X168299297Y-67013172D01*
X168268118Y-66971864D01*
X168210134Y-66847517D01*
X168079657Y-66661179D01*
X167918820Y-66500342D01*
X167732482Y-66369865D01*
X167526328Y-66273734D01*
X167330000Y-66221127D01*
X167330000Y-67184314D01*
X167325606Y-67179920D01*
X167234394Y-67127259D01*
X167132661Y-67100000D01*
X167027339Y-67100000D01*
X166925606Y-67127259D01*
X166834394Y-67179920D01*
X166830000Y-67184314D01*
X166830000Y-66221127D01*
X166633671Y-66273734D01*
X166427517Y-66369865D01*
X166241179Y-66500342D01*
X166080342Y-66661179D01*
X165949865Y-66847517D01*
X165853734Y-67053673D01*
X165853730Y-67053682D01*
X165801127Y-67249999D01*
X165801128Y-67250000D01*
X166764314Y-67250000D01*
X166759920Y-67254394D01*
X166707259Y-67345606D01*
X166680000Y-67447339D01*
X166680000Y-67552661D01*
X166707259Y-67654394D01*
X166759920Y-67745606D01*
X166764314Y-67750000D01*
X165801128Y-67750000D01*
X165853730Y-67946317D01*
X165853734Y-67946326D01*
X165949865Y-68152482D01*
X166080342Y-68338820D01*
X166241179Y-68499657D01*
X166427517Y-68630134D01*
X166633673Y-68726265D01*
X166633682Y-68726269D01*
X166829999Y-68778872D01*
X166830000Y-68778871D01*
X166830000Y-67815686D01*
X166834394Y-67820080D01*
X166925606Y-67872741D01*
X167027339Y-67900000D01*
X167132661Y-67900000D01*
X167234394Y-67872741D01*
X167325606Y-67820080D01*
X167330000Y-67815686D01*
X167330000Y-68778872D01*
X167526317Y-68726269D01*
X167526326Y-68726265D01*
X167732482Y-68630134D01*
X167918820Y-68499657D01*
X168079657Y-68338820D01*
X168210133Y-68152482D01*
X168268118Y-68028135D01*
X168314290Y-67975696D01*
X168381484Y-67956544D01*
X168448365Y-67976760D01*
X168493699Y-68029925D01*
X168504500Y-68080540D01*
X168504500Y-96107364D01*
X168484815Y-96174403D01*
X168468181Y-96195045D01*
X165997233Y-98665994D01*
X165975995Y-98687231D01*
X165964500Y-98714982D01*
X165964500Y-99231907D01*
X165963903Y-99244062D01*
X165952505Y-99359778D01*
X165947763Y-99383618D01*
X165917832Y-99482290D01*
X165915789Y-99489024D01*
X165906486Y-99511482D01*
X165854561Y-99608627D01*
X165841056Y-99628839D01*
X165771176Y-99713988D01*
X165753988Y-99731176D01*
X165668839Y-99801056D01*
X165648627Y-99814561D01*
X165551482Y-99866486D01*
X165529028Y-99875787D01*
X165487028Y-99888528D01*
X165423618Y-99907763D01*
X165399778Y-99912505D01*
X165291162Y-99923203D01*
X165284060Y-99923903D01*
X165271907Y-99924500D01*
X100768093Y-99924500D01*
X100755939Y-99923903D01*
X100747995Y-99923120D01*
X100640221Y-99912505D01*
X100616381Y-99907763D01*
X100599445Y-99902625D01*
X100510968Y-99875786D01*
X100488517Y-99866486D01*
X100391372Y-99814561D01*
X100371160Y-99801056D01*
X100286011Y-99731176D01*
X100268823Y-99713988D01*
X100198943Y-99628839D01*
X100185438Y-99608627D01*
X100133510Y-99511476D01*
X100124215Y-99489037D01*
X100092234Y-99383612D01*
X100087494Y-99359777D01*
X100076097Y-99244061D01*
X100075500Y-99231907D01*
X100075500Y-96561345D01*
X126581500Y-96561345D01*
X126581500Y-98358654D01*
X126588011Y-98419202D01*
X126588011Y-98419204D01*
X126639111Y-98556204D01*
X126726739Y-98673261D01*
X126843796Y-98760889D01*
X126980799Y-98811989D01*
X127008050Y-98814918D01*
X127041345Y-98818499D01*
X127041362Y-98818500D01*
X128838638Y-98818500D01*
X128838654Y-98818499D01*
X128865692Y-98815591D01*
X128899201Y-98811989D01*
X129036204Y-98760889D01*
X129153261Y-98673261D01*
X129240889Y-98556204D01*
X129286138Y-98434887D01*
X129328009Y-98378956D01*
X129393474Y-98354539D01*
X129461746Y-98369391D01*
X129493545Y-98394236D01*
X129556760Y-98462906D01*
X129734424Y-98601189D01*
X129734425Y-98601189D01*
X129734427Y-98601191D01*
X129861135Y-98669761D01*
X129932426Y-98708342D01*
X130145365Y-98781444D01*
X130367431Y-98818500D01*
X130592569Y-98818500D01*
X130814635Y-98781444D01*
X131027574Y-98708342D01*
X131225576Y-98601189D01*
X131403240Y-98462906D01*
X131524594Y-98331082D01*
X131555715Y-98297276D01*
X131555715Y-98297275D01*
X131555722Y-98297268D01*
X131646193Y-98158790D01*
X131699338Y-98113437D01*
X131768569Y-98104013D01*
X131831905Y-98133515D01*
X131853804Y-98158787D01*
X131944278Y-98297268D01*
X131944283Y-98297273D01*
X131944284Y-98297276D01*
X132070968Y-98434889D01*
X132096760Y-98462906D01*
X132274424Y-98601189D01*
X132274425Y-98601189D01*
X132274427Y-98601191D01*
X132401135Y-98669761D01*
X132472426Y-98708342D01*
X132685365Y-98781444D01*
X132907431Y-98818500D01*
X133132569Y-98818500D01*
X133354635Y-98781444D01*
X133567574Y-98708342D01*
X133765576Y-98601189D01*
X133943240Y-98462906D01*
X134064594Y-98331082D01*
X134095715Y-98297276D01*
X134095715Y-98297275D01*
X134095722Y-98297268D01*
X134186193Y-98158790D01*
X134239338Y-98113437D01*
X134308569Y-98104013D01*
X134371905Y-98133515D01*
X134393804Y-98158787D01*
X134484278Y-98297268D01*
X134484283Y-98297273D01*
X134484284Y-98297276D01*
X134610968Y-98434889D01*
X134636760Y-98462906D01*
X134814424Y-98601189D01*
X134814425Y-98601189D01*
X134814427Y-98601191D01*
X134941135Y-98669761D01*
X135012426Y-98708342D01*
X135225365Y-98781444D01*
X135447431Y-98818500D01*
X135672569Y-98818500D01*
X135894635Y-98781444D01*
X136107574Y-98708342D01*
X136305576Y-98601189D01*
X136483240Y-98462906D01*
X136604594Y-98331082D01*
X136635715Y-98297276D01*
X136635715Y-98297275D01*
X136635722Y-98297268D01*
X136726193Y-98158790D01*
X136779338Y-98113437D01*
X136848569Y-98104013D01*
X136911905Y-98133515D01*
X136933804Y-98158787D01*
X137024278Y-98297268D01*
X137024283Y-98297273D01*
X137024284Y-98297276D01*
X137150968Y-98434889D01*
X137176760Y-98462906D01*
X137354424Y-98601189D01*
X137354425Y-98601189D01*
X137354427Y-98601191D01*
X137481135Y-98669761D01*
X137552426Y-98708342D01*
X137765365Y-98781444D01*
X137987431Y-98818500D01*
X138212569Y-98818500D01*
X138434635Y-98781444D01*
X138647574Y-98708342D01*
X138845576Y-98601189D01*
X139023240Y-98462906D01*
X139144594Y-98331082D01*
X139175715Y-98297276D01*
X139175715Y-98297275D01*
X139175722Y-98297268D01*
X139269749Y-98153347D01*
X139322894Y-98107994D01*
X139392125Y-98098570D01*
X139455461Y-98128072D01*
X139475130Y-98150048D01*
X139601890Y-98331078D01*
X139768917Y-98498105D01*
X139962421Y-98633600D01*
X140176507Y-98733429D01*
X140176516Y-98733433D01*
X140390000Y-98790634D01*
X140390000Y-97893012D01*
X140447007Y-97925925D01*
X140574174Y-97960000D01*
X140705826Y-97960000D01*
X140832993Y-97925925D01*
X140890000Y-97893012D01*
X140890000Y-98790633D01*
X141103483Y-98733433D01*
X141103492Y-98733429D01*
X141317578Y-98633600D01*
X141511082Y-98498105D01*
X141678105Y-98331082D01*
X141808425Y-98144968D01*
X141863002Y-98101344D01*
X141932501Y-98094151D01*
X141994855Y-98125673D01*
X142011575Y-98144968D01*
X142141894Y-98331082D01*
X142308917Y-98498105D01*
X142502421Y-98633600D01*
X142716507Y-98733429D01*
X142716516Y-98733433D01*
X142930000Y-98790634D01*
X142930000Y-97893012D01*
X142987007Y-97925925D01*
X143114174Y-97960000D01*
X143245826Y-97960000D01*
X143372993Y-97925925D01*
X143430000Y-97893012D01*
X143430000Y-98790633D01*
X143643483Y-98733433D01*
X143643492Y-98733429D01*
X143857578Y-98633600D01*
X144051082Y-98498105D01*
X144218105Y-98331082D01*
X144344868Y-98150048D01*
X144399445Y-98106423D01*
X144468944Y-98099231D01*
X144531298Y-98130753D01*
X144550251Y-98153350D01*
X144644276Y-98297265D01*
X144644284Y-98297276D01*
X144770968Y-98434889D01*
X144796760Y-98462906D01*
X144974424Y-98601189D01*
X144974425Y-98601189D01*
X144974427Y-98601191D01*
X145101135Y-98669761D01*
X145172426Y-98708342D01*
X145385365Y-98781444D01*
X145607431Y-98818500D01*
X145832569Y-98818500D01*
X146054635Y-98781444D01*
X146267574Y-98708342D01*
X146465576Y-98601189D01*
X146643240Y-98462906D01*
X146764594Y-98331082D01*
X146795715Y-98297276D01*
X146795717Y-98297273D01*
X146795722Y-98297268D01*
X146918860Y-98108791D01*
X147009296Y-97902616D01*
X147064564Y-97684368D01*
X147067164Y-97652993D01*
X147083156Y-97460005D01*
X147083156Y-97459994D01*
X147064565Y-97235640D01*
X147064563Y-97235628D01*
X147009296Y-97017385D01*
X146999071Y-96994075D01*
X146918860Y-96811209D01*
X146902706Y-96786484D01*
X146795723Y-96622734D01*
X146795715Y-96622723D01*
X146739212Y-96561345D01*
X149441500Y-96561345D01*
X149441500Y-98358654D01*
X149448011Y-98419202D01*
X149448011Y-98419204D01*
X149499111Y-98556204D01*
X149586739Y-98673261D01*
X149703796Y-98760889D01*
X149840799Y-98811989D01*
X149868050Y-98814918D01*
X149901345Y-98818499D01*
X149901362Y-98818500D01*
X151698638Y-98818500D01*
X151698654Y-98818499D01*
X151725692Y-98815591D01*
X151759201Y-98811989D01*
X151896204Y-98760889D01*
X152013261Y-98673261D01*
X152100889Y-98556204D01*
X152146138Y-98434887D01*
X152188009Y-98378956D01*
X152253474Y-98354539D01*
X152321746Y-98369391D01*
X152353545Y-98394236D01*
X152416760Y-98462906D01*
X152594424Y-98601189D01*
X152594425Y-98601189D01*
X152594427Y-98601191D01*
X152721135Y-98669761D01*
X152792426Y-98708342D01*
X153005365Y-98781444D01*
X153227431Y-98818500D01*
X153452569Y-98818500D01*
X153674635Y-98781444D01*
X153887574Y-98708342D01*
X154085576Y-98601189D01*
X154263240Y-98462906D01*
X154384594Y-98331082D01*
X154415715Y-98297276D01*
X154415715Y-98297275D01*
X154415722Y-98297268D01*
X154506193Y-98158790D01*
X154559338Y-98113437D01*
X154628569Y-98104013D01*
X154691905Y-98133515D01*
X154713804Y-98158787D01*
X154804278Y-98297268D01*
X154804283Y-98297273D01*
X154804284Y-98297276D01*
X154930968Y-98434889D01*
X154956760Y-98462906D01*
X155134424Y-98601189D01*
X155134425Y-98601189D01*
X155134427Y-98601191D01*
X155261135Y-98669761D01*
X155332426Y-98708342D01*
X155545365Y-98781444D01*
X155767431Y-98818500D01*
X155992569Y-98818500D01*
X156214635Y-98781444D01*
X156427574Y-98708342D01*
X156625576Y-98601189D01*
X156803240Y-98462906D01*
X156924594Y-98331082D01*
X156955715Y-98297276D01*
X156955715Y-98297275D01*
X156955722Y-98297268D01*
X157046193Y-98158790D01*
X157099338Y-98113437D01*
X157168569Y-98104013D01*
X157231905Y-98133515D01*
X157253804Y-98158787D01*
X157344278Y-98297268D01*
X157344283Y-98297273D01*
X157344284Y-98297276D01*
X157470968Y-98434889D01*
X157496760Y-98462906D01*
X157674424Y-98601189D01*
X157674425Y-98601189D01*
X157674427Y-98601191D01*
X157801135Y-98669761D01*
X157872426Y-98708342D01*
X158085365Y-98781444D01*
X158307431Y-98818500D01*
X158532569Y-98818500D01*
X158754635Y-98781444D01*
X158967574Y-98708342D01*
X159165576Y-98601189D01*
X159343240Y-98462906D01*
X159464594Y-98331082D01*
X159495715Y-98297276D01*
X159495715Y-98297275D01*
X159495722Y-98297268D01*
X159586193Y-98158790D01*
X159639338Y-98113437D01*
X159708569Y-98104013D01*
X159771905Y-98133515D01*
X159793804Y-98158787D01*
X159884278Y-98297268D01*
X159884283Y-98297273D01*
X159884284Y-98297276D01*
X160010968Y-98434889D01*
X160036760Y-98462906D01*
X160214424Y-98601189D01*
X160214425Y-98601189D01*
X160214427Y-98601191D01*
X160341135Y-98669761D01*
X160412426Y-98708342D01*
X160625365Y-98781444D01*
X160847431Y-98818500D01*
X161072569Y-98818500D01*
X161294635Y-98781444D01*
X161507574Y-98708342D01*
X161705576Y-98601189D01*
X161883240Y-98462906D01*
X162004594Y-98331082D01*
X162035715Y-98297276D01*
X162035715Y-98297275D01*
X162035722Y-98297268D01*
X162126193Y-98158790D01*
X162179338Y-98113437D01*
X162248569Y-98104013D01*
X162311905Y-98133515D01*
X162333804Y-98158787D01*
X162424278Y-98297268D01*
X162424283Y-98297273D01*
X162424284Y-98297276D01*
X162550968Y-98434889D01*
X162576760Y-98462906D01*
X162754424Y-98601189D01*
X162754425Y-98601189D01*
X162754427Y-98601191D01*
X162881135Y-98669761D01*
X162952426Y-98708342D01*
X163165365Y-98781444D01*
X163387431Y-98818500D01*
X163612569Y-98818500D01*
X163834635Y-98781444D01*
X164047574Y-98708342D01*
X164245576Y-98601189D01*
X164423240Y-98462906D01*
X164544594Y-98331082D01*
X164575715Y-98297276D01*
X164575717Y-98297273D01*
X164575722Y-98297268D01*
X164698860Y-98108791D01*
X164789296Y-97902616D01*
X164844564Y-97684368D01*
X164847164Y-97652993D01*
X164863156Y-97460005D01*
X164863156Y-97459994D01*
X164844565Y-97235640D01*
X164844563Y-97235628D01*
X164789296Y-97017385D01*
X164779071Y-96994075D01*
X164698860Y-96811209D01*
X164682706Y-96786484D01*
X164575723Y-96622734D01*
X164575715Y-96622723D01*
X164423243Y-96457097D01*
X164423238Y-96457092D01*
X164245577Y-96318812D01*
X164245572Y-96318808D01*
X164047580Y-96211661D01*
X164047577Y-96211659D01*
X164047574Y-96211658D01*
X164047571Y-96211657D01*
X164047569Y-96211656D01*
X163834637Y-96138556D01*
X163612569Y-96101500D01*
X163387431Y-96101500D01*
X163165362Y-96138556D01*
X162952430Y-96211656D01*
X162952419Y-96211661D01*
X162754427Y-96318808D01*
X162754422Y-96318812D01*
X162576761Y-96457092D01*
X162576756Y-96457097D01*
X162424284Y-96622723D01*
X162424276Y-96622734D01*
X162333808Y-96761206D01*
X162280662Y-96806562D01*
X162211431Y-96815986D01*
X162148095Y-96786484D01*
X162126192Y-96761206D01*
X162035723Y-96622734D01*
X162035715Y-96622723D01*
X161883243Y-96457097D01*
X161883238Y-96457092D01*
X161705577Y-96318812D01*
X161705572Y-96318808D01*
X161507580Y-96211661D01*
X161507577Y-96211659D01*
X161507574Y-96211658D01*
X161507571Y-96211657D01*
X161507569Y-96211656D01*
X161294637Y-96138556D01*
X161072569Y-96101500D01*
X160847431Y-96101500D01*
X160625362Y-96138556D01*
X160412430Y-96211656D01*
X160412419Y-96211661D01*
X160214427Y-96318808D01*
X160214422Y-96318812D01*
X160036761Y-96457092D01*
X160036756Y-96457097D01*
X159884284Y-96622723D01*
X159884276Y-96622734D01*
X159793808Y-96761206D01*
X159740662Y-96806562D01*
X159671431Y-96815986D01*
X159608095Y-96786484D01*
X159586192Y-96761206D01*
X159495723Y-96622734D01*
X159495715Y-96622723D01*
X159343243Y-96457097D01*
X159343238Y-96457092D01*
X159165577Y-96318812D01*
X159165572Y-96318808D01*
X158967580Y-96211661D01*
X158967577Y-96211659D01*
X158967574Y-96211658D01*
X158967571Y-96211657D01*
X158967569Y-96211656D01*
X158754637Y-96138556D01*
X158532569Y-96101500D01*
X158307431Y-96101500D01*
X158085362Y-96138556D01*
X157872430Y-96211656D01*
X157872419Y-96211661D01*
X157674427Y-96318808D01*
X157674422Y-96318812D01*
X157496761Y-96457092D01*
X157496756Y-96457097D01*
X157344284Y-96622723D01*
X157344276Y-96622734D01*
X157253808Y-96761206D01*
X157200662Y-96806562D01*
X157131431Y-96815986D01*
X157068095Y-96786484D01*
X157046192Y-96761206D01*
X156955723Y-96622734D01*
X156955715Y-96622723D01*
X156803243Y-96457097D01*
X156803238Y-96457092D01*
X156625577Y-96318812D01*
X156625572Y-96318808D01*
X156427580Y-96211661D01*
X156427577Y-96211659D01*
X156427574Y-96211658D01*
X156427571Y-96211657D01*
X156427569Y-96211656D01*
X156214637Y-96138556D01*
X155992569Y-96101500D01*
X155767431Y-96101500D01*
X155545362Y-96138556D01*
X155332430Y-96211656D01*
X155332419Y-96211661D01*
X155134427Y-96318808D01*
X155134422Y-96318812D01*
X154956761Y-96457092D01*
X154956756Y-96457097D01*
X154804284Y-96622723D01*
X154804276Y-96622734D01*
X154713808Y-96761206D01*
X154660662Y-96806562D01*
X154591431Y-96815986D01*
X154528095Y-96786484D01*
X154506192Y-96761206D01*
X154415723Y-96622734D01*
X154415715Y-96622723D01*
X154263243Y-96457097D01*
X154263238Y-96457092D01*
X154085577Y-96318812D01*
X154085572Y-96318808D01*
X153887580Y-96211661D01*
X153887577Y-96211659D01*
X153887574Y-96211658D01*
X153887571Y-96211657D01*
X153887569Y-96211656D01*
X153674637Y-96138556D01*
X153452569Y-96101500D01*
X153227431Y-96101500D01*
X153005362Y-96138556D01*
X152792430Y-96211656D01*
X152792419Y-96211661D01*
X152594427Y-96318808D01*
X152594422Y-96318812D01*
X152416761Y-96457092D01*
X152353548Y-96525760D01*
X152293661Y-96561750D01*
X152223823Y-96559649D01*
X152166207Y-96520124D01*
X152146138Y-96485110D01*
X152100889Y-96363796D01*
X152067214Y-96318812D01*
X152013261Y-96246739D01*
X151896204Y-96159111D01*
X151895172Y-96158726D01*
X151759203Y-96108011D01*
X151698654Y-96101500D01*
X151698638Y-96101500D01*
X149901362Y-96101500D01*
X149901345Y-96101500D01*
X149840797Y-96108011D01*
X149840795Y-96108011D01*
X149703795Y-96159111D01*
X149586739Y-96246739D01*
X149499111Y-96363795D01*
X149448011Y-96500795D01*
X149448011Y-96500797D01*
X149441500Y-96561345D01*
X146739212Y-96561345D01*
X146643243Y-96457097D01*
X146643238Y-96457092D01*
X146465577Y-96318812D01*
X146465572Y-96318808D01*
X146267580Y-96211661D01*
X146267577Y-96211659D01*
X146267574Y-96211658D01*
X146267571Y-96211657D01*
X146267569Y-96211656D01*
X146054637Y-96138556D01*
X145832569Y-96101500D01*
X145607431Y-96101500D01*
X145385362Y-96138556D01*
X145172430Y-96211656D01*
X145172419Y-96211661D01*
X144974427Y-96318808D01*
X144974422Y-96318812D01*
X144796761Y-96457092D01*
X144796756Y-96457097D01*
X144644284Y-96622723D01*
X144644276Y-96622734D01*
X144550251Y-96766650D01*
X144497105Y-96812007D01*
X144427873Y-96821430D01*
X144364538Y-96791928D01*
X144344868Y-96769951D01*
X144218113Y-96588926D01*
X144218108Y-96588920D01*
X144051082Y-96421894D01*
X143857578Y-96286399D01*
X143643492Y-96186570D01*
X143643486Y-96186567D01*
X143430000Y-96129364D01*
X143430000Y-97026988D01*
X143372993Y-96994075D01*
X143245826Y-96960000D01*
X143114174Y-96960000D01*
X142987007Y-96994075D01*
X142930000Y-97026988D01*
X142930000Y-96129364D01*
X142929999Y-96129364D01*
X142716513Y-96186567D01*
X142716507Y-96186570D01*
X142502422Y-96286399D01*
X142502420Y-96286400D01*
X142308926Y-96421886D01*
X142308920Y-96421891D01*
X142141891Y-96588920D01*
X142141890Y-96588922D01*
X142011575Y-96775031D01*
X141956998Y-96818655D01*
X141887499Y-96825848D01*
X141825145Y-96794326D01*
X141808425Y-96775031D01*
X141678109Y-96588922D01*
X141678108Y-96588920D01*
X141511082Y-96421894D01*
X141317578Y-96286399D01*
X141103492Y-96186570D01*
X141103486Y-96186567D01*
X140890000Y-96129364D01*
X140890000Y-97026988D01*
X140832993Y-96994075D01*
X140705826Y-96960000D01*
X140574174Y-96960000D01*
X140447007Y-96994075D01*
X140390000Y-97026988D01*
X140390000Y-96129364D01*
X140389999Y-96129364D01*
X140176513Y-96186567D01*
X140176507Y-96186570D01*
X139962422Y-96286399D01*
X139962420Y-96286400D01*
X139768926Y-96421886D01*
X139768920Y-96421891D01*
X139601891Y-96588920D01*
X139601890Y-96588922D01*
X139475131Y-96769952D01*
X139420554Y-96813577D01*
X139351055Y-96820769D01*
X139288701Y-96789247D01*
X139269752Y-96766656D01*
X139175722Y-96622732D01*
X139175715Y-96622725D01*
X139175715Y-96622723D01*
X139023243Y-96457097D01*
X139023238Y-96457092D01*
X138845577Y-96318812D01*
X138845572Y-96318808D01*
X138647580Y-96211661D01*
X138647577Y-96211659D01*
X138647574Y-96211658D01*
X138647571Y-96211657D01*
X138647569Y-96211656D01*
X138434637Y-96138556D01*
X138212569Y-96101500D01*
X137987431Y-96101500D01*
X137765362Y-96138556D01*
X137552430Y-96211656D01*
X137552419Y-96211661D01*
X137354427Y-96318808D01*
X137354422Y-96318812D01*
X137176761Y-96457092D01*
X137176756Y-96457097D01*
X137024284Y-96622723D01*
X137024276Y-96622734D01*
X136933808Y-96761206D01*
X136880662Y-96806562D01*
X136811431Y-96815986D01*
X136748095Y-96786484D01*
X136726192Y-96761206D01*
X136635723Y-96622734D01*
X136635715Y-96622723D01*
X136483243Y-96457097D01*
X136483238Y-96457092D01*
X136305577Y-96318812D01*
X136305572Y-96318808D01*
X136107580Y-96211661D01*
X136107577Y-96211659D01*
X136107574Y-96211658D01*
X136107571Y-96211657D01*
X136107569Y-96211656D01*
X135894637Y-96138556D01*
X135672569Y-96101500D01*
X135447431Y-96101500D01*
X135225362Y-96138556D01*
X135012430Y-96211656D01*
X135012419Y-96211661D01*
X134814427Y-96318808D01*
X134814422Y-96318812D01*
X134636761Y-96457092D01*
X134636756Y-96457097D01*
X134484284Y-96622723D01*
X134484276Y-96622734D01*
X134393808Y-96761206D01*
X134340662Y-96806562D01*
X134271431Y-96815986D01*
X134208095Y-96786484D01*
X134186192Y-96761206D01*
X134095723Y-96622734D01*
X134095715Y-96622723D01*
X133943243Y-96457097D01*
X133943238Y-96457092D01*
X133765577Y-96318812D01*
X133765572Y-96318808D01*
X133567580Y-96211661D01*
X133567577Y-96211659D01*
X133567574Y-96211658D01*
X133567571Y-96211657D01*
X133567569Y-96211656D01*
X133354637Y-96138556D01*
X133132569Y-96101500D01*
X132907431Y-96101500D01*
X132685362Y-96138556D01*
X132472430Y-96211656D01*
X132472419Y-96211661D01*
X132274427Y-96318808D01*
X132274422Y-96318812D01*
X132096761Y-96457092D01*
X132096756Y-96457097D01*
X131944284Y-96622723D01*
X131944276Y-96622734D01*
X131853808Y-96761206D01*
X131800662Y-96806562D01*
X131731431Y-96815986D01*
X131668095Y-96786484D01*
X131646192Y-96761206D01*
X131555723Y-96622734D01*
X131555715Y-96622723D01*
X131403243Y-96457097D01*
X131403238Y-96457092D01*
X131225577Y-96318812D01*
X131225572Y-96318808D01*
X131027580Y-96211661D01*
X131027577Y-96211659D01*
X131027574Y-96211658D01*
X131027571Y-96211657D01*
X131027569Y-96211656D01*
X130814637Y-96138556D01*
X130592569Y-96101500D01*
X130367431Y-96101500D01*
X130145362Y-96138556D01*
X129932430Y-96211656D01*
X129932419Y-96211661D01*
X129734427Y-96318808D01*
X129734422Y-96318812D01*
X129556761Y-96457092D01*
X129493548Y-96525760D01*
X129433661Y-96561750D01*
X129363823Y-96559649D01*
X129306207Y-96520124D01*
X129286138Y-96485110D01*
X129240889Y-96363796D01*
X129207214Y-96318812D01*
X129153261Y-96246739D01*
X129036204Y-96159111D01*
X129035172Y-96158726D01*
X128899203Y-96108011D01*
X128838654Y-96101500D01*
X128838638Y-96101500D01*
X127041362Y-96101500D01*
X127041345Y-96101500D01*
X126980797Y-96108011D01*
X126980795Y-96108011D01*
X126843795Y-96159111D01*
X126726739Y-96246739D01*
X126639111Y-96363795D01*
X126588011Y-96500795D01*
X126588011Y-96500797D01*
X126581500Y-96561345D01*
X100075500Y-96561345D01*
X100075500Y-92039998D01*
X149806807Y-92039998D01*
X149806807Y-92040001D01*
X149825541Y-92254136D01*
X149825542Y-92254144D01*
X149881176Y-92461772D01*
X149881177Y-92461774D01*
X149881178Y-92461777D01*
X149972024Y-92656597D01*
X149972026Y-92656601D01*
X150095319Y-92832682D01*
X150247317Y-92984680D01*
X150423398Y-93107973D01*
X150423400Y-93107974D01*
X150423403Y-93107976D01*
X150618223Y-93198822D01*
X150825858Y-93254458D01*
X150978816Y-93267840D01*
X151039998Y-93273193D01*
X151040000Y-93273193D01*
X151040002Y-93273193D01*
X151093535Y-93268509D01*
X151254142Y-93254458D01*
X151461777Y-93198822D01*
X151656597Y-93107976D01*
X151832681Y-92984681D01*
X151984681Y-92832681D01*
X152107976Y-92656597D01*
X152198822Y-92461777D01*
X152254458Y-92254142D01*
X152273193Y-92040000D01*
X152254458Y-91825858D01*
X152198822Y-91618223D01*
X152107976Y-91423404D01*
X151984681Y-91247319D01*
X151984679Y-91247316D01*
X151832682Y-91095319D01*
X151656601Y-90972026D01*
X151656597Y-90972024D01*
X151656595Y-90972023D01*
X151461777Y-90881178D01*
X151461774Y-90881177D01*
X151461772Y-90881176D01*
X151254144Y-90825542D01*
X151254136Y-90825541D01*
X151040002Y-90806807D01*
X151039998Y-90806807D01*
X150825863Y-90825541D01*
X150825855Y-90825542D01*
X150618227Y-90881176D01*
X150618221Y-90881179D01*
X150423405Y-90972023D01*
X150423403Y-90972024D01*
X150247316Y-91095320D01*
X150095320Y-91247316D01*
X149972024Y-91423403D01*
X149972023Y-91423405D01*
X149881179Y-91618221D01*
X149881176Y-91618227D01*
X149825542Y-91825855D01*
X149825541Y-91825863D01*
X149806807Y-92039998D01*
X100075500Y-92039998D01*
X100075500Y-89499998D01*
X147266807Y-89499998D01*
X147266807Y-89500001D01*
X147285541Y-89714136D01*
X147285542Y-89714144D01*
X147341176Y-89921772D01*
X147341177Y-89921774D01*
X147341178Y-89921777D01*
X147430032Y-90112325D01*
X147432024Y-90116597D01*
X147432026Y-90116601D01*
X147555319Y-90292682D01*
X147707317Y-90444680D01*
X147883398Y-90567973D01*
X147883400Y-90567974D01*
X147883403Y-90567976D01*
X148078223Y-90658822D01*
X148285858Y-90714458D01*
X148438816Y-90727840D01*
X148499998Y-90733193D01*
X148500000Y-90733193D01*
X148500002Y-90733193D01*
X148553535Y-90728509D01*
X148714142Y-90714458D01*
X148921777Y-90658822D01*
X149116597Y-90567976D01*
X149292681Y-90444681D01*
X149444681Y-90292681D01*
X149567976Y-90116597D01*
X149658822Y-89921777D01*
X149714458Y-89714142D01*
X149733193Y-89500000D01*
X149733193Y-89499997D01*
X152355340Y-89499997D01*
X152355340Y-89500002D01*
X152373944Y-89712654D01*
X152373945Y-89712662D01*
X152429194Y-89918853D01*
X152429197Y-89918859D01*
X152519413Y-90112329D01*
X152558415Y-90168030D01*
X153180000Y-89546445D01*
X153180000Y-89552661D01*
X153207259Y-89654394D01*
X153259920Y-89745606D01*
X153334394Y-89820080D01*
X153425606Y-89872741D01*
X153527339Y-89900000D01*
X153533554Y-89900000D01*
X152911968Y-90521584D01*
X152967663Y-90560582D01*
X152967669Y-90560586D01*
X153161140Y-90650802D01*
X153161146Y-90650805D01*
X153367337Y-90706054D01*
X153367345Y-90706055D01*
X153579998Y-90724660D01*
X153580002Y-90724660D01*
X153792654Y-90706055D01*
X153792662Y-90706054D01*
X153998853Y-90650805D01*
X153998864Y-90650801D01*
X154192325Y-90560589D01*
X154248030Y-90521583D01*
X153626447Y-89900000D01*
X153632661Y-89900000D01*
X153734394Y-89872741D01*
X153825606Y-89820080D01*
X153900080Y-89745606D01*
X153952741Y-89654394D01*
X153980000Y-89552661D01*
X153980000Y-89546446D01*
X154601583Y-90168029D01*
X154640589Y-90112325D01*
X154730801Y-89918864D01*
X154730805Y-89918853D01*
X154786054Y-89712662D01*
X154786055Y-89712654D01*
X154804660Y-89500002D01*
X154804660Y-89499997D01*
X154786055Y-89287345D01*
X154786054Y-89287337D01*
X154730805Y-89081146D01*
X154730802Y-89081140D01*
X154640586Y-88887669D01*
X154640582Y-88887663D01*
X154601584Y-88831968D01*
X153980000Y-89453552D01*
X153980000Y-89447339D01*
X153952741Y-89345606D01*
X153900080Y-89254394D01*
X153825606Y-89179920D01*
X153734394Y-89127259D01*
X153632661Y-89100000D01*
X153626447Y-89100000D01*
X154248030Y-88478415D01*
X154192329Y-88439413D01*
X153998859Y-88349197D01*
X153998853Y-88349194D01*
X153792662Y-88293945D01*
X153792654Y-88293944D01*
X153580002Y-88275340D01*
X153579998Y-88275340D01*
X153367345Y-88293944D01*
X153367337Y-88293945D01*
X153161146Y-88349194D01*
X153161140Y-88349197D01*
X152967671Y-88439412D01*
X152967669Y-88439413D01*
X152911969Y-88478415D01*
X152911968Y-88478415D01*
X153533554Y-89100000D01*
X153527339Y-89100000D01*
X153425606Y-89127259D01*
X153334394Y-89179920D01*
X153259920Y-89254394D01*
X153207259Y-89345606D01*
X153180000Y-89447339D01*
X153180000Y-89453553D01*
X152558415Y-88831968D01*
X152558415Y-88831969D01*
X152519413Y-88887669D01*
X152519412Y-88887671D01*
X152429197Y-89081140D01*
X152429194Y-89081146D01*
X152373945Y-89287337D01*
X152373944Y-89287345D01*
X152355340Y-89499997D01*
X149733193Y-89499997D01*
X149714458Y-89285858D01*
X149658822Y-89078223D01*
X149567976Y-88883404D01*
X149444681Y-88707319D01*
X149444679Y-88707316D01*
X149292682Y-88555319D01*
X149116601Y-88432026D01*
X149116597Y-88432024D01*
X149116595Y-88432023D01*
X148921777Y-88341178D01*
X148921774Y-88341177D01*
X148921772Y-88341176D01*
X148714144Y-88285542D01*
X148714136Y-88285541D01*
X148500002Y-88266807D01*
X148499998Y-88266807D01*
X148285863Y-88285541D01*
X148285855Y-88285542D01*
X148078227Y-88341176D01*
X148078221Y-88341179D01*
X147883405Y-88432023D01*
X147883403Y-88432024D01*
X147707316Y-88555320D01*
X147555320Y-88707316D01*
X147432024Y-88883403D01*
X147432023Y-88883405D01*
X147341179Y-89078221D01*
X147341176Y-89078227D01*
X147285542Y-89285855D01*
X147285541Y-89285863D01*
X147266807Y-89499998D01*
X100075500Y-89499998D01*
X100075500Y-81500000D01*
X149486835Y-81500000D01*
X149505465Y-81736714D01*
X149560895Y-81967595D01*
X149560895Y-81967597D01*
X149651757Y-82186959D01*
X149651759Y-82186962D01*
X149775820Y-82389410D01*
X149775821Y-82389413D01*
X149775824Y-82389416D01*
X149930031Y-82569969D01*
X150069797Y-82689340D01*
X150110586Y-82724178D01*
X150110589Y-82724179D01*
X150313037Y-82848240D01*
X150313040Y-82848242D01*
X150532403Y-82939104D01*
X150532404Y-82939104D01*
X150532406Y-82939105D01*
X150763289Y-82994535D01*
X151000000Y-83013165D01*
X151236711Y-82994535D01*
X151467594Y-82939105D01*
X151467596Y-82939104D01*
X151467597Y-82939104D01*
X151686959Y-82848242D01*
X151686960Y-82848241D01*
X151686963Y-82848240D01*
X151889416Y-82724176D01*
X152069969Y-82569969D01*
X152224176Y-82389416D01*
X152348240Y-82186963D01*
X152439105Y-81967594D01*
X152494535Y-81736711D01*
X152513165Y-81500000D01*
X153986835Y-81500000D01*
X154005465Y-81736714D01*
X154060895Y-81967595D01*
X154060895Y-81967597D01*
X154151757Y-82186959D01*
X154151759Y-82186962D01*
X154275820Y-82389410D01*
X154275821Y-82389413D01*
X154275824Y-82389416D01*
X154430031Y-82569969D01*
X154569797Y-82689340D01*
X154610586Y-82724178D01*
X154610589Y-82724179D01*
X154813037Y-82848240D01*
X154813040Y-82848242D01*
X155032403Y-82939104D01*
X155032404Y-82939104D01*
X155032406Y-82939105D01*
X155263289Y-82994535D01*
X155500000Y-83013165D01*
X155736711Y-82994535D01*
X155967594Y-82939105D01*
X155967596Y-82939104D01*
X155967597Y-82939104D01*
X156186959Y-82848242D01*
X156186960Y-82848241D01*
X156186963Y-82848240D01*
X156389416Y-82724176D01*
X156569969Y-82569969D01*
X156724176Y-82389416D01*
X156848240Y-82186963D01*
X156939105Y-81967594D01*
X156994535Y-81736711D01*
X157013165Y-81500000D01*
X156994535Y-81263289D01*
X156939105Y-81032406D01*
X156939104Y-81032403D01*
X156939104Y-81032402D01*
X156848242Y-80813040D01*
X156848240Y-80813037D01*
X156724179Y-80610589D01*
X156724178Y-80610586D01*
X156689340Y-80569797D01*
X156569969Y-80430031D01*
X156450596Y-80328076D01*
X156389413Y-80275821D01*
X156389410Y-80275820D01*
X156186962Y-80151759D01*
X156186959Y-80151757D01*
X155967596Y-80060895D01*
X155736714Y-80005465D01*
X155500000Y-79986835D01*
X155263285Y-80005465D01*
X155032404Y-80060895D01*
X155032402Y-80060895D01*
X154813040Y-80151757D01*
X154813037Y-80151759D01*
X154610589Y-80275820D01*
X154610586Y-80275821D01*
X154430031Y-80430031D01*
X154275821Y-80610586D01*
X154275820Y-80610589D01*
X154151759Y-80813037D01*
X154151757Y-80813040D01*
X154060895Y-81032402D01*
X154060895Y-81032404D01*
X154005465Y-81263285D01*
X153986835Y-81500000D01*
X152513165Y-81500000D01*
X152494535Y-81263289D01*
X152439105Y-81032406D01*
X152439104Y-81032403D01*
X152439104Y-81032402D01*
X152348242Y-80813040D01*
X152348240Y-80813037D01*
X152224179Y-80610589D01*
X152224178Y-80610586D01*
X152189340Y-80569797D01*
X152069969Y-80430031D01*
X151950596Y-80328076D01*
X151889413Y-80275821D01*
X151889410Y-80275820D01*
X151686962Y-80151759D01*
X151686959Y-80151757D01*
X151467596Y-80060895D01*
X151236714Y-80005465D01*
X151000000Y-79986835D01*
X150763285Y-80005465D01*
X150532404Y-80060895D01*
X150532402Y-80060895D01*
X150313040Y-80151757D01*
X150313037Y-80151759D01*
X150110589Y-80275820D01*
X150110586Y-80275821D01*
X149930031Y-80430031D01*
X149775821Y-80610586D01*
X149775820Y-80610589D01*
X149651759Y-80813037D01*
X149651757Y-80813040D01*
X149560895Y-81032402D01*
X149560895Y-81032404D01*
X149505465Y-81263285D01*
X149486835Y-81500000D01*
X100075500Y-81500000D01*
X100075500Y-77500000D01*
X138986835Y-77500000D01*
X139005465Y-77736714D01*
X139060895Y-77967595D01*
X139060895Y-77967597D01*
X139151757Y-78186959D01*
X139151759Y-78186962D01*
X139275820Y-78389410D01*
X139275821Y-78389413D01*
X139275824Y-78389416D01*
X139430031Y-78569969D01*
X139511343Y-78639416D01*
X139610586Y-78724178D01*
X139610589Y-78724179D01*
X139813037Y-78848240D01*
X139813040Y-78848242D01*
X140032403Y-78939104D01*
X140032404Y-78939104D01*
X140032406Y-78939105D01*
X140263289Y-78994535D01*
X140500000Y-79013165D01*
X140736711Y-78994535D01*
X140967594Y-78939105D01*
X140967596Y-78939104D01*
X140967597Y-78939104D01*
X141186959Y-78848242D01*
X141186960Y-78848241D01*
X141186963Y-78848240D01*
X141389416Y-78724176D01*
X141569969Y-78569969D01*
X141724176Y-78389416D01*
X141848240Y-78186963D01*
X141931186Y-77986714D01*
X141939104Y-77967597D01*
X141939104Y-77967596D01*
X141939105Y-77967594D01*
X141994535Y-77736711D01*
X142013165Y-77500000D01*
X143486835Y-77500000D01*
X143505465Y-77736714D01*
X143560895Y-77967595D01*
X143560895Y-77967597D01*
X143651757Y-78186959D01*
X143651759Y-78186962D01*
X143775820Y-78389410D01*
X143775821Y-78389413D01*
X143775824Y-78389416D01*
X143930031Y-78569969D01*
X144011343Y-78639416D01*
X144110586Y-78724178D01*
X144110589Y-78724179D01*
X144313037Y-78848240D01*
X144313040Y-78848242D01*
X144532403Y-78939104D01*
X144532404Y-78939104D01*
X144532406Y-78939105D01*
X144763289Y-78994535D01*
X145000000Y-79013165D01*
X145236711Y-78994535D01*
X145467594Y-78939105D01*
X145467596Y-78939104D01*
X145467597Y-78939104D01*
X145686959Y-78848242D01*
X145686960Y-78848241D01*
X145686963Y-78848240D01*
X145889416Y-78724176D01*
X146069969Y-78569969D01*
X146224176Y-78389416D01*
X146348240Y-78186963D01*
X146431186Y-77986714D01*
X146439104Y-77967597D01*
X146439104Y-77967596D01*
X146439105Y-77967594D01*
X146491345Y-77750000D01*
X160236835Y-77750000D01*
X160255465Y-77986714D01*
X160310895Y-78217595D01*
X160310895Y-78217597D01*
X160401757Y-78436959D01*
X160401759Y-78436962D01*
X160525820Y-78639410D01*
X160525821Y-78639413D01*
X160525824Y-78639416D01*
X160680031Y-78819969D01*
X160819520Y-78939104D01*
X160860586Y-78974178D01*
X160860589Y-78974179D01*
X161063037Y-79098240D01*
X161063040Y-79098242D01*
X161282403Y-79189104D01*
X161282404Y-79189104D01*
X161282406Y-79189105D01*
X161513289Y-79244535D01*
X161750000Y-79263165D01*
X161986711Y-79244535D01*
X162217594Y-79189105D01*
X162217596Y-79189104D01*
X162217597Y-79189104D01*
X162436959Y-79098242D01*
X162436960Y-79098241D01*
X162436963Y-79098240D01*
X162639416Y-78974176D01*
X162819969Y-78819969D01*
X162974176Y-78639416D01*
X163098240Y-78436963D01*
X163117935Y-78389416D01*
X163189104Y-78217597D01*
X163189104Y-78217596D01*
X163189105Y-78217594D01*
X163244535Y-77986711D01*
X163263165Y-77750000D01*
X164736835Y-77750000D01*
X164755465Y-77986714D01*
X164810895Y-78217595D01*
X164810895Y-78217597D01*
X164901757Y-78436959D01*
X164901759Y-78436962D01*
X165025820Y-78639410D01*
X165025821Y-78639413D01*
X165025824Y-78639416D01*
X165180031Y-78819969D01*
X165319520Y-78939104D01*
X165360586Y-78974178D01*
X165360589Y-78974179D01*
X165563037Y-79098240D01*
X165563040Y-79098242D01*
X165782403Y-79189104D01*
X165782404Y-79189104D01*
X165782406Y-79189105D01*
X166013289Y-79244535D01*
X166250000Y-79263165D01*
X166486711Y-79244535D01*
X166717594Y-79189105D01*
X166717596Y-79189104D01*
X166717597Y-79189104D01*
X166936959Y-79098242D01*
X166936960Y-79098241D01*
X166936963Y-79098240D01*
X167139416Y-78974176D01*
X167319969Y-78819969D01*
X167474176Y-78639416D01*
X167598240Y-78436963D01*
X167617935Y-78389416D01*
X167689104Y-78217597D01*
X167689104Y-78217596D01*
X167689105Y-78217594D01*
X167744535Y-77986711D01*
X167763165Y-77750000D01*
X167744535Y-77513289D01*
X167689105Y-77282406D01*
X167689104Y-77282403D01*
X167689104Y-77282402D01*
X167598242Y-77063040D01*
X167598240Y-77063037D01*
X167474179Y-76860589D01*
X167474178Y-76860586D01*
X167439340Y-76819797D01*
X167319969Y-76680031D01*
X167200596Y-76578076D01*
X167139413Y-76525821D01*
X167139410Y-76525820D01*
X166936962Y-76401759D01*
X166936959Y-76401757D01*
X166717596Y-76310895D01*
X166486714Y-76255465D01*
X166250000Y-76236835D01*
X166013285Y-76255465D01*
X165782404Y-76310895D01*
X165782402Y-76310895D01*
X165563040Y-76401757D01*
X165563037Y-76401759D01*
X165360589Y-76525820D01*
X165360586Y-76525821D01*
X165180031Y-76680031D01*
X165025821Y-76860586D01*
X165025820Y-76860589D01*
X164901759Y-77063037D01*
X164901757Y-77063040D01*
X164810895Y-77282402D01*
X164810895Y-77282404D01*
X164755465Y-77513285D01*
X164736835Y-77750000D01*
X163263165Y-77750000D01*
X163244535Y-77513289D01*
X163189105Y-77282406D01*
X163189104Y-77282403D01*
X163189104Y-77282402D01*
X163098242Y-77063040D01*
X163098240Y-77063037D01*
X162974179Y-76860589D01*
X162974178Y-76860586D01*
X162939340Y-76819797D01*
X162819969Y-76680031D01*
X162700596Y-76578076D01*
X162639413Y-76525821D01*
X162639410Y-76525820D01*
X162436962Y-76401759D01*
X162436959Y-76401757D01*
X162217596Y-76310895D01*
X161986714Y-76255465D01*
X161750000Y-76236835D01*
X161513285Y-76255465D01*
X161282404Y-76310895D01*
X161282402Y-76310895D01*
X161063040Y-76401757D01*
X161063037Y-76401759D01*
X160860589Y-76525820D01*
X160860586Y-76525821D01*
X160680031Y-76680031D01*
X160525821Y-76860586D01*
X160525820Y-76860589D01*
X160401759Y-77063037D01*
X160401757Y-77063040D01*
X160310895Y-77282402D01*
X160310895Y-77282404D01*
X160255465Y-77513285D01*
X160236835Y-77750000D01*
X146491345Y-77750000D01*
X146494535Y-77736711D01*
X146513165Y-77500000D01*
X146494535Y-77263289D01*
X146439105Y-77032406D01*
X146439104Y-77032403D01*
X146439104Y-77032402D01*
X146348242Y-76813040D01*
X146348240Y-76813037D01*
X146224179Y-76610589D01*
X146224178Y-76610586D01*
X146151781Y-76525821D01*
X146069969Y-76430031D01*
X145930479Y-76310895D01*
X145889413Y-76275821D01*
X145889410Y-76275820D01*
X145686962Y-76151759D01*
X145686959Y-76151757D01*
X145467596Y-76060895D01*
X145236714Y-76005465D01*
X145000000Y-75986835D01*
X144763285Y-76005465D01*
X144532404Y-76060895D01*
X144532402Y-76060895D01*
X144313040Y-76151757D01*
X144313037Y-76151759D01*
X144110589Y-76275820D01*
X144110586Y-76275821D01*
X143930031Y-76430031D01*
X143775821Y-76610586D01*
X143775820Y-76610589D01*
X143651759Y-76813037D01*
X143651757Y-76813040D01*
X143560895Y-77032402D01*
X143560895Y-77032404D01*
X143505465Y-77263285D01*
X143486835Y-77500000D01*
X142013165Y-77500000D01*
X141994535Y-77263289D01*
X141939105Y-77032406D01*
X141939104Y-77032403D01*
X141939104Y-77032402D01*
X141848242Y-76813040D01*
X141848240Y-76813037D01*
X141724179Y-76610589D01*
X141724178Y-76610586D01*
X141651781Y-76525821D01*
X141569969Y-76430031D01*
X141430479Y-76310895D01*
X141389413Y-76275821D01*
X141389410Y-76275820D01*
X141186962Y-76151759D01*
X141186959Y-76151757D01*
X140967596Y-76060895D01*
X140736714Y-76005465D01*
X140500000Y-75986835D01*
X140263285Y-76005465D01*
X140032404Y-76060895D01*
X140032402Y-76060895D01*
X139813040Y-76151757D01*
X139813037Y-76151759D01*
X139610589Y-76275820D01*
X139610586Y-76275821D01*
X139430031Y-76430031D01*
X139275821Y-76610586D01*
X139275820Y-76610589D01*
X139151759Y-76813037D01*
X139151757Y-76813040D01*
X139060895Y-77032402D01*
X139060895Y-77032404D01*
X139005465Y-77263285D01*
X138986835Y-77500000D01*
X100075500Y-77500000D01*
X100075500Y-75000000D01*
X149486835Y-75000000D01*
X149505465Y-75236714D01*
X149560895Y-75467595D01*
X149560895Y-75467597D01*
X149651757Y-75686959D01*
X149651759Y-75686962D01*
X149775820Y-75889410D01*
X149775821Y-75889413D01*
X149775824Y-75889416D01*
X149930031Y-76069969D01*
X150025795Y-76151759D01*
X150110586Y-76224178D01*
X150110588Y-76224178D01*
X150252096Y-76310895D01*
X150313037Y-76348240D01*
X150313040Y-76348242D01*
X150532403Y-76439104D01*
X150532404Y-76439104D01*
X150532406Y-76439105D01*
X150763289Y-76494535D01*
X151000000Y-76513165D01*
X151236711Y-76494535D01*
X151467594Y-76439105D01*
X151467596Y-76439104D01*
X151467597Y-76439104D01*
X151686959Y-76348242D01*
X151686960Y-76348241D01*
X151686963Y-76348240D01*
X151889416Y-76224176D01*
X152069969Y-76069969D01*
X152224176Y-75889416D01*
X152348240Y-75686963D01*
X152439105Y-75467594D01*
X152494535Y-75236711D01*
X152513165Y-75000000D01*
X153986835Y-75000000D01*
X154005465Y-75236714D01*
X154060895Y-75467595D01*
X154060895Y-75467597D01*
X154151757Y-75686959D01*
X154151759Y-75686962D01*
X154275820Y-75889410D01*
X154275821Y-75889413D01*
X154275824Y-75889416D01*
X154430031Y-76069969D01*
X154525795Y-76151759D01*
X154610586Y-76224178D01*
X154610588Y-76224178D01*
X154752096Y-76310895D01*
X154813037Y-76348240D01*
X154813040Y-76348242D01*
X155032403Y-76439104D01*
X155032404Y-76439104D01*
X155032406Y-76439105D01*
X155263289Y-76494535D01*
X155500000Y-76513165D01*
X155736711Y-76494535D01*
X155967594Y-76439105D01*
X155967596Y-76439104D01*
X155967597Y-76439104D01*
X156186959Y-76348242D01*
X156186960Y-76348241D01*
X156186963Y-76348240D01*
X156389416Y-76224176D01*
X156569969Y-76069969D01*
X156724176Y-75889416D01*
X156848240Y-75686963D01*
X156939105Y-75467594D01*
X156994535Y-75236711D01*
X157013165Y-75000000D01*
X156994535Y-74763289D01*
X156939105Y-74532406D01*
X156939104Y-74532403D01*
X156939104Y-74532402D01*
X156848242Y-74313040D01*
X156848240Y-74313037D01*
X156724179Y-74110589D01*
X156724178Y-74110586D01*
X156689340Y-74069797D01*
X156569969Y-73930031D01*
X156450596Y-73828076D01*
X156389413Y-73775821D01*
X156389410Y-73775820D01*
X156186962Y-73651759D01*
X156186959Y-73651757D01*
X155967596Y-73560895D01*
X155736714Y-73505465D01*
X155500000Y-73486835D01*
X155263285Y-73505465D01*
X155032404Y-73560895D01*
X155032402Y-73560895D01*
X154813040Y-73651757D01*
X154813037Y-73651759D01*
X154610589Y-73775820D01*
X154610586Y-73775821D01*
X154430031Y-73930031D01*
X154275821Y-74110586D01*
X154275820Y-74110589D01*
X154151759Y-74313037D01*
X154151757Y-74313040D01*
X154060895Y-74532402D01*
X154060895Y-74532404D01*
X154005465Y-74763285D01*
X153986835Y-75000000D01*
X152513165Y-75000000D01*
X152494535Y-74763289D01*
X152439105Y-74532406D01*
X152439104Y-74532403D01*
X152439104Y-74532402D01*
X152348242Y-74313040D01*
X152348240Y-74313037D01*
X152224179Y-74110589D01*
X152224178Y-74110586D01*
X152189340Y-74069797D01*
X152069969Y-73930031D01*
X151950596Y-73828076D01*
X151889413Y-73775821D01*
X151889410Y-73775820D01*
X151686962Y-73651759D01*
X151686959Y-73651757D01*
X151467596Y-73560895D01*
X151236714Y-73505465D01*
X151000000Y-73486835D01*
X150763285Y-73505465D01*
X150532404Y-73560895D01*
X150532402Y-73560895D01*
X150313040Y-73651757D01*
X150313037Y-73651759D01*
X150110589Y-73775820D01*
X150110586Y-73775821D01*
X149930031Y-73930031D01*
X149775821Y-74110586D01*
X149775820Y-74110589D01*
X149651759Y-74313037D01*
X149651757Y-74313040D01*
X149560895Y-74532402D01*
X149560895Y-74532404D01*
X149505465Y-74763285D01*
X149486835Y-75000000D01*
X100075500Y-75000000D01*
X100075500Y-70077155D01*
X110150000Y-70077155D01*
X110150000Y-70725000D01*
X111066988Y-70725000D01*
X111034075Y-70782007D01*
X111000000Y-70909174D01*
X111000000Y-71040826D01*
X111034075Y-71167993D01*
X111066988Y-71225000D01*
X110150000Y-71225000D01*
X110150000Y-71872844D01*
X110156401Y-71932372D01*
X110156403Y-71932379D01*
X110206645Y-72067086D01*
X110206649Y-72067093D01*
X110292809Y-72182187D01*
X110292812Y-72182190D01*
X110407906Y-72268350D01*
X110407913Y-72268354D01*
X110542620Y-72318596D01*
X110542627Y-72318598D01*
X110602155Y-72324999D01*
X110602172Y-72325000D01*
X111250000Y-72325000D01*
X111250000Y-71408012D01*
X111307007Y-71440925D01*
X111434174Y-71475000D01*
X111565826Y-71475000D01*
X111692993Y-71440925D01*
X111750000Y-71408012D01*
X111750000Y-72325000D01*
X112397828Y-72325000D01*
X112397844Y-72324999D01*
X112457372Y-72318598D01*
X112457379Y-72318596D01*
X112592086Y-72268354D01*
X112592093Y-72268350D01*
X112707187Y-72182190D01*
X112707190Y-72182187D01*
X112793350Y-72067093D01*
X112793354Y-72067086D01*
X112839681Y-71942877D01*
X112881552Y-71886943D01*
X112947016Y-71862526D01*
X113015289Y-71877377D01*
X113047089Y-71902223D01*
X113116760Y-71977906D01*
X113294424Y-72116189D01*
X113294425Y-72116189D01*
X113294427Y-72116191D01*
X113416378Y-72182187D01*
X113492426Y-72223342D01*
X113705365Y-72296444D01*
X113927431Y-72333500D01*
X114152569Y-72333500D01*
X114374635Y-72296444D01*
X114587574Y-72223342D01*
X114785576Y-72116189D01*
X114963240Y-71977906D01*
X115069456Y-71862526D01*
X115115715Y-71812276D01*
X115115715Y-71812275D01*
X115115722Y-71812268D01*
X115206193Y-71673790D01*
X115259338Y-71628437D01*
X115328569Y-71619013D01*
X115391905Y-71648515D01*
X115413804Y-71673787D01*
X115504278Y-71812268D01*
X115504283Y-71812273D01*
X115504284Y-71812276D01*
X115630379Y-71949249D01*
X115656760Y-71977906D01*
X115834424Y-72116189D01*
X115834425Y-72116189D01*
X115834427Y-72116191D01*
X115956378Y-72182187D01*
X116032426Y-72223342D01*
X116245365Y-72296444D01*
X116467431Y-72333500D01*
X116692569Y-72333500D01*
X116914635Y-72296444D01*
X117127574Y-72223342D01*
X117325576Y-72116189D01*
X117503240Y-71977906D01*
X117609456Y-71862526D01*
X117655715Y-71812276D01*
X117655715Y-71812275D01*
X117655722Y-71812268D01*
X117746193Y-71673790D01*
X117799338Y-71628437D01*
X117868569Y-71619013D01*
X117931905Y-71648515D01*
X117953804Y-71673787D01*
X118044278Y-71812268D01*
X118044283Y-71812273D01*
X118044284Y-71812276D01*
X118170379Y-71949249D01*
X118196760Y-71977906D01*
X118374424Y-72116189D01*
X118374425Y-72116189D01*
X118374427Y-72116191D01*
X118496378Y-72182187D01*
X118572426Y-72223342D01*
X118785365Y-72296444D01*
X119007431Y-72333500D01*
X119232569Y-72333500D01*
X119454635Y-72296444D01*
X119667574Y-72223342D01*
X119865576Y-72116189D01*
X120043240Y-71977906D01*
X120149456Y-71862526D01*
X120195715Y-71812276D01*
X120195717Y-71812273D01*
X120195722Y-71812268D01*
X120318860Y-71623791D01*
X120409296Y-71417616D01*
X120464564Y-71199368D01*
X120467164Y-71167993D01*
X120481085Y-71000000D01*
X138986835Y-71000000D01*
X139005465Y-71236714D01*
X139060895Y-71467595D01*
X139060895Y-71467597D01*
X139151757Y-71686959D01*
X139151759Y-71686962D01*
X139275820Y-71889410D01*
X139275821Y-71889413D01*
X139312512Y-71932372D01*
X139430031Y-72069969D01*
X139561421Y-72182187D01*
X139610586Y-72224178D01*
X139610589Y-72224179D01*
X139813037Y-72348240D01*
X139813040Y-72348242D01*
X140032403Y-72439104D01*
X140032404Y-72439104D01*
X140032406Y-72439105D01*
X140263289Y-72494535D01*
X140500000Y-72513165D01*
X140736711Y-72494535D01*
X140967594Y-72439105D01*
X140967596Y-72439104D01*
X140967597Y-72439104D01*
X141186959Y-72348242D01*
X141186960Y-72348241D01*
X141186963Y-72348240D01*
X141389416Y-72224176D01*
X141569969Y-72069969D01*
X141724176Y-71889416D01*
X141848240Y-71686963D01*
X141861731Y-71654394D01*
X141939104Y-71467597D01*
X141939104Y-71467596D01*
X141939105Y-71467594D01*
X141994535Y-71236711D01*
X142013165Y-71000000D01*
X143486835Y-71000000D01*
X143505465Y-71236714D01*
X143560895Y-71467595D01*
X143560895Y-71467597D01*
X143651757Y-71686959D01*
X143651759Y-71686962D01*
X143775820Y-71889410D01*
X143775821Y-71889413D01*
X143812512Y-71932372D01*
X143930031Y-72069969D01*
X144061421Y-72182187D01*
X144110586Y-72224178D01*
X144110589Y-72224179D01*
X144313037Y-72348240D01*
X144313040Y-72348242D01*
X144532403Y-72439104D01*
X144532404Y-72439104D01*
X144532406Y-72439105D01*
X144763289Y-72494535D01*
X145000000Y-72513165D01*
X145236711Y-72494535D01*
X145467594Y-72439105D01*
X145467596Y-72439104D01*
X145467597Y-72439104D01*
X145686959Y-72348242D01*
X145686960Y-72348241D01*
X145686963Y-72348240D01*
X145889416Y-72224176D01*
X146069969Y-72069969D01*
X146224176Y-71889416D01*
X146348240Y-71686963D01*
X146361731Y-71654394D01*
X146439104Y-71467597D01*
X146439104Y-71467596D01*
X146439105Y-71467594D01*
X146491345Y-71249999D01*
X147061127Y-71249999D01*
X147061128Y-71250000D01*
X148024314Y-71250000D01*
X148019920Y-71254394D01*
X147967259Y-71345606D01*
X147940000Y-71447339D01*
X147940000Y-71552661D01*
X147967259Y-71654394D01*
X148019920Y-71745606D01*
X148024314Y-71750000D01*
X147061128Y-71750000D01*
X147113730Y-71946317D01*
X147113734Y-71946326D01*
X147209865Y-72152482D01*
X147340342Y-72338820D01*
X147501179Y-72499657D01*
X147687517Y-72630134D01*
X147893673Y-72726265D01*
X147893682Y-72726269D01*
X148089999Y-72778872D01*
X148090000Y-72778871D01*
X148090000Y-71815686D01*
X148094394Y-71820080D01*
X148185606Y-71872741D01*
X148287339Y-71900000D01*
X148392661Y-71900000D01*
X148494394Y-71872741D01*
X148585606Y-71820080D01*
X148590000Y-71815686D01*
X148590000Y-72778872D01*
X148786317Y-72726269D01*
X148786326Y-72726265D01*
X148992482Y-72630134D01*
X149178820Y-72499657D01*
X149339657Y-72338820D01*
X149470134Y-72152482D01*
X149566265Y-71946326D01*
X149566269Y-71946317D01*
X149618872Y-71750000D01*
X148655686Y-71750000D01*
X148660080Y-71745606D01*
X148712741Y-71654394D01*
X148740000Y-71552661D01*
X148740000Y-71499998D01*
X157186502Y-71499998D01*
X157186502Y-71500001D01*
X157206456Y-71728081D01*
X157206457Y-71728089D01*
X157265714Y-71949238D01*
X157265718Y-71949249D01*
X157360487Y-72152482D01*
X157362477Y-72156749D01*
X157493802Y-72344300D01*
X157655700Y-72506198D01*
X157843251Y-72637523D01*
X157953868Y-72689104D01*
X158050750Y-72734281D01*
X158050752Y-72734281D01*
X158050757Y-72734284D01*
X158271913Y-72793543D01*
X158434832Y-72807796D01*
X158499998Y-72813498D01*
X158500000Y-72813498D01*
X158500002Y-72813498D01*
X158557021Y-72808509D01*
X158728087Y-72793543D01*
X158949243Y-72734284D01*
X159156749Y-72637523D01*
X159344300Y-72506198D01*
X159506198Y-72344300D01*
X159637523Y-72156749D01*
X159734284Y-71949243D01*
X159793543Y-71728087D01*
X159813498Y-71500000D01*
X159812335Y-71486711D01*
X159806290Y-71417614D01*
X159793543Y-71271913D01*
X159787671Y-71250000D01*
X160236835Y-71250000D01*
X160255465Y-71486714D01*
X160310895Y-71717595D01*
X160310895Y-71717597D01*
X160401757Y-71936959D01*
X160401759Y-71936962D01*
X160525820Y-72139410D01*
X160525821Y-72139413D01*
X160562354Y-72182187D01*
X160680031Y-72319969D01*
X160819520Y-72439104D01*
X160860586Y-72474178D01*
X160860589Y-72474179D01*
X161063037Y-72598240D01*
X161063040Y-72598242D01*
X161282403Y-72689104D01*
X161282404Y-72689104D01*
X161282406Y-72689105D01*
X161513289Y-72744535D01*
X161750000Y-72763165D01*
X161986711Y-72744535D01*
X162217594Y-72689105D01*
X162217596Y-72689104D01*
X162217597Y-72689104D01*
X162436959Y-72598242D01*
X162436960Y-72598241D01*
X162436963Y-72598240D01*
X162639416Y-72474176D01*
X162819969Y-72319969D01*
X162974176Y-72139416D01*
X163098240Y-71936963D01*
X163113551Y-71900000D01*
X163189104Y-71717597D01*
X163189104Y-71717596D01*
X163189105Y-71717594D01*
X163244535Y-71486711D01*
X163263165Y-71250000D01*
X164736835Y-71250000D01*
X164755465Y-71486714D01*
X164810895Y-71717595D01*
X164810895Y-71717597D01*
X164901757Y-71936959D01*
X164901759Y-71936962D01*
X165025820Y-72139410D01*
X165025821Y-72139413D01*
X165062354Y-72182187D01*
X165180031Y-72319969D01*
X165319520Y-72439104D01*
X165360586Y-72474178D01*
X165360589Y-72474179D01*
X165563037Y-72598240D01*
X165563040Y-72598242D01*
X165782403Y-72689104D01*
X165782404Y-72689104D01*
X165782406Y-72689105D01*
X166013289Y-72744535D01*
X166250000Y-72763165D01*
X166486711Y-72744535D01*
X166717594Y-72689105D01*
X166717596Y-72689104D01*
X166717597Y-72689104D01*
X166936959Y-72598242D01*
X166936960Y-72598241D01*
X166936963Y-72598240D01*
X167139416Y-72474176D01*
X167319969Y-72319969D01*
X167474176Y-72139416D01*
X167598240Y-71936963D01*
X167613551Y-71900000D01*
X167689104Y-71717597D01*
X167689104Y-71717596D01*
X167689105Y-71717594D01*
X167744535Y-71486711D01*
X167763165Y-71250000D01*
X167744535Y-71013289D01*
X167689105Y-70782406D01*
X167689104Y-70782403D01*
X167689104Y-70782402D01*
X167598242Y-70563040D01*
X167598240Y-70563037D01*
X167555815Y-70493806D01*
X167474178Y-70360588D01*
X167474178Y-70360586D01*
X167439340Y-70319797D01*
X167319969Y-70180031D01*
X167158516Y-70042137D01*
X167139413Y-70025821D01*
X167139410Y-70025820D01*
X166936962Y-69901759D01*
X166936959Y-69901757D01*
X166717596Y-69810895D01*
X166486714Y-69755465D01*
X166250000Y-69736835D01*
X166013285Y-69755465D01*
X165782404Y-69810895D01*
X165782402Y-69810895D01*
X165563040Y-69901757D01*
X165563037Y-69901759D01*
X165360589Y-70025820D01*
X165360586Y-70025821D01*
X165180031Y-70180031D01*
X165025821Y-70360586D01*
X165025820Y-70360589D01*
X164901759Y-70563037D01*
X164901757Y-70563040D01*
X164810895Y-70782402D01*
X164810895Y-70782404D01*
X164755465Y-71013285D01*
X164736835Y-71250000D01*
X163263165Y-71250000D01*
X163244535Y-71013289D01*
X163189105Y-70782406D01*
X163189104Y-70782403D01*
X163189104Y-70782402D01*
X163098242Y-70563040D01*
X163098240Y-70563037D01*
X163055815Y-70493806D01*
X162974178Y-70360588D01*
X162974178Y-70360586D01*
X162939340Y-70319797D01*
X162819969Y-70180031D01*
X162658516Y-70042137D01*
X162639413Y-70025821D01*
X162639410Y-70025820D01*
X162436962Y-69901759D01*
X162436959Y-69901757D01*
X162217596Y-69810895D01*
X161986714Y-69755465D01*
X161750000Y-69736835D01*
X161513285Y-69755465D01*
X161282404Y-69810895D01*
X161282402Y-69810895D01*
X161063040Y-69901757D01*
X161063037Y-69901759D01*
X160860589Y-70025820D01*
X160860586Y-70025821D01*
X160680031Y-70180031D01*
X160525821Y-70360586D01*
X160525820Y-70360589D01*
X160401759Y-70563037D01*
X160401757Y-70563040D01*
X160310895Y-70782402D01*
X160310895Y-70782404D01*
X160255465Y-71013285D01*
X160236835Y-71250000D01*
X159787671Y-71250000D01*
X159734284Y-71050757D01*
X159716812Y-71013289D01*
X159637524Y-70843254D01*
X159637523Y-70843252D01*
X159637523Y-70843251D01*
X159506198Y-70655700D01*
X159344300Y-70493802D01*
X159156749Y-70362477D01*
X159152694Y-70360586D01*
X158949249Y-70265718D01*
X158949238Y-70265714D01*
X158728089Y-70206457D01*
X158728081Y-70206456D01*
X158500002Y-70186502D01*
X158499998Y-70186502D01*
X158271918Y-70206456D01*
X158271910Y-70206457D01*
X158050761Y-70265714D01*
X158050750Y-70265718D01*
X157843254Y-70362475D01*
X157843252Y-70362476D01*
X157843251Y-70362477D01*
X157655700Y-70493802D01*
X157655698Y-70493803D01*
X157655695Y-70493806D01*
X157493806Y-70655695D01*
X157493803Y-70655698D01*
X157493802Y-70655700D01*
X157427333Y-70750628D01*
X157362476Y-70843252D01*
X157362475Y-70843254D01*
X157265718Y-71050750D01*
X157265714Y-71050761D01*
X157206457Y-71271910D01*
X157206456Y-71271918D01*
X157186502Y-71499998D01*
X148740000Y-71499998D01*
X148740000Y-71447339D01*
X148712741Y-71345606D01*
X148660080Y-71254394D01*
X148655686Y-71250000D01*
X149618872Y-71250000D01*
X149618872Y-71249999D01*
X149566269Y-71053682D01*
X149566265Y-71053673D01*
X149470134Y-70847517D01*
X149339657Y-70661179D01*
X149178820Y-70500342D01*
X148992482Y-70369865D01*
X148786328Y-70273734D01*
X148590000Y-70221127D01*
X148590000Y-71184314D01*
X148585606Y-71179920D01*
X148494394Y-71127259D01*
X148392661Y-71100000D01*
X148287339Y-71100000D01*
X148185606Y-71127259D01*
X148094394Y-71179920D01*
X148090000Y-71184314D01*
X148090000Y-70221127D01*
X147893671Y-70273734D01*
X147687517Y-70369865D01*
X147501179Y-70500342D01*
X147340342Y-70661179D01*
X147209865Y-70847517D01*
X147113734Y-71053673D01*
X147113730Y-71053682D01*
X147061127Y-71249999D01*
X146491345Y-71249999D01*
X146494535Y-71236711D01*
X146513165Y-71000000D01*
X146494535Y-70763289D01*
X146439105Y-70532406D01*
X146439104Y-70532403D01*
X146439104Y-70532402D01*
X146348242Y-70313040D01*
X146348240Y-70313037D01*
X146319243Y-70265718D01*
X146224178Y-70110588D01*
X146224178Y-70110586D01*
X146170530Y-70047773D01*
X146069969Y-69930031D01*
X145911036Y-69794289D01*
X145889413Y-69775821D01*
X145889410Y-69775820D01*
X145686962Y-69651759D01*
X145686959Y-69651757D01*
X145467596Y-69560895D01*
X145236714Y-69505465D01*
X145000000Y-69486835D01*
X144763285Y-69505465D01*
X144532404Y-69560895D01*
X144532402Y-69560895D01*
X144313040Y-69651757D01*
X144313037Y-69651759D01*
X144110589Y-69775820D01*
X144110586Y-69775821D01*
X143930031Y-69930031D01*
X143775821Y-70110586D01*
X143775820Y-70110589D01*
X143651759Y-70313037D01*
X143651757Y-70313040D01*
X143560895Y-70532402D01*
X143560895Y-70532404D01*
X143505465Y-70763285D01*
X143486835Y-71000000D01*
X142013165Y-71000000D01*
X141994535Y-70763289D01*
X141939105Y-70532406D01*
X141939104Y-70532403D01*
X141939104Y-70532402D01*
X141848242Y-70313040D01*
X141848240Y-70313037D01*
X141819243Y-70265718D01*
X141724178Y-70110588D01*
X141724178Y-70110586D01*
X141670530Y-70047773D01*
X141569969Y-69930031D01*
X141411036Y-69794289D01*
X141389413Y-69775821D01*
X141389410Y-69775820D01*
X141186962Y-69651759D01*
X141186959Y-69651757D01*
X140967596Y-69560895D01*
X140736714Y-69505465D01*
X140500000Y-69486835D01*
X140263285Y-69505465D01*
X140032404Y-69560895D01*
X140032402Y-69560895D01*
X139813040Y-69651757D01*
X139813037Y-69651759D01*
X139610589Y-69775820D01*
X139610586Y-69775821D01*
X139430031Y-69930031D01*
X139275821Y-70110586D01*
X139275820Y-70110589D01*
X139151759Y-70313037D01*
X139151757Y-70313040D01*
X139060895Y-70532402D01*
X139060895Y-70532404D01*
X139005465Y-70763285D01*
X138986835Y-71000000D01*
X120481085Y-71000000D01*
X120483156Y-70975005D01*
X120483156Y-70974994D01*
X120464565Y-70750640D01*
X120464563Y-70750628D01*
X120417058Y-70563037D01*
X120409296Y-70532384D01*
X120318860Y-70326209D01*
X120310256Y-70313040D01*
X120240622Y-70206457D01*
X120195722Y-70137732D01*
X120195719Y-70137729D01*
X120195715Y-70137723D01*
X120043243Y-69972097D01*
X120043238Y-69972092D01*
X119912173Y-69870079D01*
X119865576Y-69833811D01*
X119865575Y-69833810D01*
X119865572Y-69833808D01*
X119667580Y-69726661D01*
X119667577Y-69726659D01*
X119667574Y-69726658D01*
X119667571Y-69726657D01*
X119667569Y-69726656D01*
X119454637Y-69653556D01*
X119232569Y-69616500D01*
X119007431Y-69616500D01*
X118785362Y-69653556D01*
X118572430Y-69726656D01*
X118572419Y-69726661D01*
X118374427Y-69833808D01*
X118374422Y-69833812D01*
X118196761Y-69972092D01*
X118196756Y-69972097D01*
X118044284Y-70137723D01*
X118044276Y-70137734D01*
X117953808Y-70276206D01*
X117900662Y-70321562D01*
X117831431Y-70330986D01*
X117768095Y-70301484D01*
X117746192Y-70276206D01*
X117655723Y-70137734D01*
X117655715Y-70137723D01*
X117503243Y-69972097D01*
X117503238Y-69972092D01*
X117372173Y-69870079D01*
X117325576Y-69833811D01*
X117325575Y-69833810D01*
X117325572Y-69833808D01*
X117127580Y-69726661D01*
X117127577Y-69726659D01*
X117127574Y-69726658D01*
X117127571Y-69726657D01*
X117127569Y-69726656D01*
X116914637Y-69653556D01*
X116692569Y-69616500D01*
X116467431Y-69616500D01*
X116245362Y-69653556D01*
X116032430Y-69726656D01*
X116032419Y-69726661D01*
X115834427Y-69833808D01*
X115834422Y-69833812D01*
X115656761Y-69972092D01*
X115656756Y-69972097D01*
X115504284Y-70137723D01*
X115504276Y-70137734D01*
X115413808Y-70276206D01*
X115360662Y-70321562D01*
X115291431Y-70330986D01*
X115228095Y-70301484D01*
X115206192Y-70276206D01*
X115115723Y-70137734D01*
X115115715Y-70137723D01*
X114963243Y-69972097D01*
X114963238Y-69972092D01*
X114832173Y-69870079D01*
X114785576Y-69833811D01*
X114785575Y-69833810D01*
X114785572Y-69833808D01*
X114587580Y-69726661D01*
X114587577Y-69726659D01*
X114587574Y-69726658D01*
X114587571Y-69726657D01*
X114587569Y-69726656D01*
X114374637Y-69653556D01*
X114152569Y-69616500D01*
X113927431Y-69616500D01*
X113705362Y-69653556D01*
X113492430Y-69726656D01*
X113492419Y-69726661D01*
X113294427Y-69833808D01*
X113294422Y-69833812D01*
X113116761Y-69972092D01*
X113047092Y-70047773D01*
X112987205Y-70083763D01*
X112917367Y-70081662D01*
X112859751Y-70042137D01*
X112839681Y-70007122D01*
X112793354Y-69882913D01*
X112793350Y-69882906D01*
X112707190Y-69767812D01*
X112707187Y-69767809D01*
X112592093Y-69681649D01*
X112592086Y-69681645D01*
X112457379Y-69631403D01*
X112457372Y-69631401D01*
X112397844Y-69625000D01*
X111750000Y-69625000D01*
X111750000Y-70541988D01*
X111692993Y-70509075D01*
X111565826Y-70475000D01*
X111434174Y-70475000D01*
X111307007Y-70509075D01*
X111250000Y-70541988D01*
X111250000Y-69625000D01*
X110602155Y-69625000D01*
X110542627Y-69631401D01*
X110542620Y-69631403D01*
X110407913Y-69681645D01*
X110407906Y-69681649D01*
X110292812Y-69767809D01*
X110292809Y-69767812D01*
X110206649Y-69882906D01*
X110206645Y-69882913D01*
X110156403Y-70017620D01*
X110156401Y-70017627D01*
X110150000Y-70077155D01*
X100075500Y-70077155D01*
X100075500Y-68499994D01*
X131546673Y-68499994D01*
X131546673Y-68500005D01*
X131565948Y-68732622D01*
X131623251Y-68958907D01*
X131717015Y-69172668D01*
X131844686Y-69368084D01*
X131996354Y-69532838D01*
X132002780Y-69539818D01*
X132186983Y-69683190D01*
X132186985Y-69683191D01*
X132186988Y-69683193D01*
X132286111Y-69736835D01*
X132392273Y-69794287D01*
X132506914Y-69833643D01*
X132613045Y-69870079D01*
X132613047Y-69870079D01*
X132613049Y-69870080D01*
X132843288Y-69908500D01*
X132843289Y-69908500D01*
X133076711Y-69908500D01*
X133076712Y-69908500D01*
X133306951Y-69870080D01*
X133527727Y-69794287D01*
X133733017Y-69683190D01*
X133917220Y-69539818D01*
X133923646Y-69532837D01*
X133983531Y-69496845D01*
X134053369Y-69498944D01*
X134110986Y-69538466D01*
X134131059Y-69573485D01*
X134156645Y-69642086D01*
X134156649Y-69642093D01*
X134242809Y-69757187D01*
X134242812Y-69757190D01*
X134357906Y-69843350D01*
X134357913Y-69843354D01*
X134492620Y-69893596D01*
X134492627Y-69893598D01*
X134552155Y-69899999D01*
X134552172Y-69900000D01*
X135250000Y-69900000D01*
X135250000Y-68875277D01*
X135326306Y-68919333D01*
X135440756Y-68950000D01*
X135559244Y-68950000D01*
X135673694Y-68919333D01*
X135750000Y-68875277D01*
X135750000Y-69900000D01*
X136447828Y-69900000D01*
X136447844Y-69899999D01*
X136507372Y-69893598D01*
X136507379Y-69893596D01*
X136642086Y-69843354D01*
X136642093Y-69843350D01*
X136757187Y-69757190D01*
X136757190Y-69757187D01*
X136843350Y-69642093D01*
X136843354Y-69642086D01*
X136893596Y-69507379D01*
X136893598Y-69507372D01*
X136899999Y-69447844D01*
X136900000Y-69447827D01*
X136900000Y-68750000D01*
X135875278Y-68750000D01*
X135919333Y-68673694D01*
X135950000Y-68559244D01*
X135950000Y-68440756D01*
X135919333Y-68326306D01*
X135875278Y-68250000D01*
X136900000Y-68250000D01*
X136900000Y-67552172D01*
X136899999Y-67552155D01*
X136893598Y-67492627D01*
X136893596Y-67492620D01*
X136843354Y-67357913D01*
X136843350Y-67357906D01*
X136762570Y-67249999D01*
X138641127Y-67249999D01*
X138641128Y-67250000D01*
X139604314Y-67250000D01*
X139599920Y-67254394D01*
X139547259Y-67345606D01*
X139520000Y-67447339D01*
X139520000Y-67552661D01*
X139547259Y-67654394D01*
X139599920Y-67745606D01*
X139604314Y-67750000D01*
X138641128Y-67750000D01*
X138693730Y-67946317D01*
X138693734Y-67946326D01*
X138789865Y-68152482D01*
X138920342Y-68338820D01*
X139081179Y-68499657D01*
X139267517Y-68630134D01*
X139473673Y-68726265D01*
X139473682Y-68726269D01*
X139669999Y-68778872D01*
X139670000Y-68778871D01*
X139670000Y-67815686D01*
X139674394Y-67820080D01*
X139765606Y-67872741D01*
X139867339Y-67900000D01*
X139972661Y-67900000D01*
X140074394Y-67872741D01*
X140165606Y-67820080D01*
X140170000Y-67815686D01*
X140170000Y-68778872D01*
X140366317Y-68726269D01*
X140366326Y-68726265D01*
X140572482Y-68630134D01*
X140758820Y-68499657D01*
X140919657Y-68338820D01*
X141050134Y-68152482D01*
X141146265Y-67946326D01*
X141146269Y-67946317D01*
X141198872Y-67750000D01*
X140235686Y-67750000D01*
X140240080Y-67745606D01*
X140292741Y-67654394D01*
X140320000Y-67552661D01*
X140320000Y-67499998D01*
X148766502Y-67499998D01*
X148766502Y-67500001D01*
X148786456Y-67728081D01*
X148786457Y-67728089D01*
X148845714Y-67949238D01*
X148845718Y-67949249D01*
X148934625Y-68139910D01*
X148942477Y-68156749D01*
X149073802Y-68344300D01*
X149235700Y-68506198D01*
X149423251Y-68637523D01*
X149548091Y-68695736D01*
X149630750Y-68734281D01*
X149630752Y-68734281D01*
X149630757Y-68734284D01*
X149851913Y-68793543D01*
X150014832Y-68807796D01*
X150079998Y-68813498D01*
X150080000Y-68813498D01*
X150080002Y-68813498D01*
X150137021Y-68808509D01*
X150308087Y-68793543D01*
X150529243Y-68734284D01*
X150736749Y-68637523D01*
X150924300Y-68506198D01*
X151086198Y-68344300D01*
X151217523Y-68156749D01*
X151314284Y-67949243D01*
X151373543Y-67728087D01*
X151393498Y-67500000D01*
X151393498Y-67499998D01*
X155606502Y-67499998D01*
X155606502Y-67500001D01*
X155626456Y-67728081D01*
X155626457Y-67728089D01*
X155685714Y-67949238D01*
X155685718Y-67949249D01*
X155774625Y-68139910D01*
X155782477Y-68156749D01*
X155913802Y-68344300D01*
X156075700Y-68506198D01*
X156263251Y-68637523D01*
X156388091Y-68695736D01*
X156470750Y-68734281D01*
X156470752Y-68734281D01*
X156470757Y-68734284D01*
X156691913Y-68793543D01*
X156854832Y-68807796D01*
X156919998Y-68813498D01*
X156920000Y-68813498D01*
X156920002Y-68813498D01*
X156977021Y-68808509D01*
X157148087Y-68793543D01*
X157369243Y-68734284D01*
X157576749Y-68637523D01*
X157764300Y-68506198D01*
X157926198Y-68344300D01*
X158057523Y-68156749D01*
X158154284Y-67949243D01*
X158213543Y-67728087D01*
X158233498Y-67500000D01*
X158231962Y-67482448D01*
X158220549Y-67351989D01*
X158213543Y-67271913D01*
X158154284Y-67050757D01*
X158150292Y-67042197D01*
X158084508Y-66901121D01*
X158057523Y-66843251D01*
X157926198Y-66655700D01*
X157764300Y-66493802D01*
X157576749Y-66362477D01*
X157576745Y-66362475D01*
X157369249Y-66265718D01*
X157369238Y-66265714D01*
X157148089Y-66206457D01*
X157148081Y-66206456D01*
X156920002Y-66186502D01*
X156919998Y-66186502D01*
X156691918Y-66206456D01*
X156691910Y-66206457D01*
X156470761Y-66265714D01*
X156470750Y-66265718D01*
X156263254Y-66362475D01*
X156263252Y-66362476D01*
X156263251Y-66362477D01*
X156075700Y-66493802D01*
X156075698Y-66493803D01*
X156075695Y-66493806D01*
X155913806Y-66655695D01*
X155913803Y-66655698D01*
X155913802Y-66655700D01*
X155887439Y-66693350D01*
X155782476Y-66843252D01*
X155782475Y-66843254D01*
X155685718Y-67050750D01*
X155685714Y-67050761D01*
X155626457Y-67271910D01*
X155626456Y-67271918D01*
X155606502Y-67499998D01*
X151393498Y-67499998D01*
X151391962Y-67482448D01*
X151380549Y-67351989D01*
X151373543Y-67271913D01*
X151314284Y-67050757D01*
X151310292Y-67042197D01*
X151244508Y-66901121D01*
X151217523Y-66843251D01*
X151086198Y-66655700D01*
X150924300Y-66493802D01*
X150736749Y-66362477D01*
X150736745Y-66362475D01*
X150529249Y-66265718D01*
X150529238Y-66265714D01*
X150308089Y-66206457D01*
X150308081Y-66206456D01*
X150080002Y-66186502D01*
X150079998Y-66186502D01*
X149851918Y-66206456D01*
X149851910Y-66206457D01*
X149630761Y-66265714D01*
X149630750Y-66265718D01*
X149423254Y-66362475D01*
X149423252Y-66362476D01*
X149423251Y-66362477D01*
X149235700Y-66493802D01*
X149235698Y-66493803D01*
X149235695Y-66493806D01*
X149073806Y-66655695D01*
X149073803Y-66655698D01*
X149073802Y-66655700D01*
X149047439Y-66693350D01*
X148942476Y-66843252D01*
X148942475Y-66843254D01*
X148845718Y-67050750D01*
X148845714Y-67050761D01*
X148786457Y-67271910D01*
X148786456Y-67271918D01*
X148766502Y-67499998D01*
X140320000Y-67499998D01*
X140320000Y-67447339D01*
X140292741Y-67345606D01*
X140240080Y-67254394D01*
X140235686Y-67250000D01*
X141198872Y-67250000D01*
X141198872Y-67249999D01*
X141146269Y-67053682D01*
X141146265Y-67053673D01*
X141050134Y-66847517D01*
X140919657Y-66661179D01*
X140758820Y-66500342D01*
X140572482Y-66369865D01*
X140366328Y-66273734D01*
X140170000Y-66221127D01*
X140170000Y-67184314D01*
X140165606Y-67179920D01*
X140074394Y-67127259D01*
X139972661Y-67100000D01*
X139867339Y-67100000D01*
X139765606Y-67127259D01*
X139674394Y-67179920D01*
X139670000Y-67184314D01*
X139670000Y-66221127D01*
X139473671Y-66273734D01*
X139267517Y-66369865D01*
X139081179Y-66500342D01*
X138920342Y-66661179D01*
X138789865Y-66847517D01*
X138693734Y-67053673D01*
X138693730Y-67053682D01*
X138641127Y-67249999D01*
X136762570Y-67249999D01*
X136757190Y-67242812D01*
X136757187Y-67242809D01*
X136642093Y-67156649D01*
X136642086Y-67156645D01*
X136507379Y-67106403D01*
X136507372Y-67106401D01*
X136447844Y-67100000D01*
X135750000Y-67100000D01*
X135750000Y-68124722D01*
X135673694Y-68080667D01*
X135559244Y-68050000D01*
X135440756Y-68050000D01*
X135326306Y-68080667D01*
X135250000Y-68124722D01*
X135250000Y-67100000D01*
X134552155Y-67100000D01*
X134492627Y-67106401D01*
X134492620Y-67106403D01*
X134357913Y-67156645D01*
X134357906Y-67156649D01*
X134242812Y-67242809D01*
X134242809Y-67242812D01*
X134156649Y-67357906D01*
X134156645Y-67357913D01*
X134131059Y-67426514D01*
X134089188Y-67482448D01*
X134023723Y-67506865D01*
X133955450Y-67492013D01*
X133923649Y-67467165D01*
X133917224Y-67460186D01*
X133917222Y-67460184D01*
X133917220Y-67460182D01*
X133733017Y-67316810D01*
X133733015Y-67316809D01*
X133733014Y-67316808D01*
X133733011Y-67316806D01*
X133527733Y-67205716D01*
X133527730Y-67205715D01*
X133527727Y-67205713D01*
X133527721Y-67205711D01*
X133527719Y-67205710D01*
X133306954Y-67129920D01*
X133127650Y-67100000D01*
X133076712Y-67091500D01*
X132843288Y-67091500D01*
X132797240Y-67099184D01*
X132613045Y-67129920D01*
X132392280Y-67205710D01*
X132392266Y-67205716D01*
X132186988Y-67316806D01*
X132186985Y-67316808D01*
X132002781Y-67460181D01*
X132002776Y-67460185D01*
X131844686Y-67631915D01*
X131717015Y-67827331D01*
X131623251Y-68041092D01*
X131565948Y-68267377D01*
X131546673Y-68499994D01*
X100075500Y-68499994D01*
X100075500Y-65101345D01*
X106561500Y-65101345D01*
X106561500Y-66898654D01*
X106568011Y-66959202D01*
X106568011Y-66959204D01*
X106603251Y-67053682D01*
X106619111Y-67096204D01*
X106706739Y-67213261D01*
X106823796Y-67300889D01*
X106960799Y-67351989D01*
X106988050Y-67354918D01*
X107021345Y-67358499D01*
X107021362Y-67358500D01*
X108818638Y-67358500D01*
X108818654Y-67358499D01*
X108845692Y-67355591D01*
X108879201Y-67351989D01*
X109016204Y-67300889D01*
X109133261Y-67213261D01*
X109220889Y-67096204D01*
X109269223Y-66966615D01*
X109311093Y-66910686D01*
X109376557Y-66886269D01*
X109444830Y-66901121D01*
X109473084Y-66922272D01*
X109588917Y-67038105D01*
X109782421Y-67173600D01*
X109996507Y-67273429D01*
X109996516Y-67273433D01*
X110210000Y-67330634D01*
X110210000Y-66433012D01*
X110267007Y-66465925D01*
X110394174Y-66500000D01*
X110525826Y-66500000D01*
X110652993Y-66465925D01*
X110710000Y-66433012D01*
X110710000Y-67330633D01*
X110923483Y-67273433D01*
X110923492Y-67273429D01*
X111137578Y-67173600D01*
X111331082Y-67038105D01*
X111498105Y-66871082D01*
X111624868Y-66690048D01*
X111679445Y-66646423D01*
X111748944Y-66639231D01*
X111811298Y-66670753D01*
X111830251Y-66693350D01*
X111924276Y-66837265D01*
X111924284Y-66837276D01*
X112076756Y-67002902D01*
X112076761Y-67002907D01*
X112135981Y-67049000D01*
X112254424Y-67141189D01*
X112254425Y-67141189D01*
X112254427Y-67141191D01*
X112314314Y-67173600D01*
X112452426Y-67248342D01*
X112665365Y-67321444D01*
X112887431Y-67358500D01*
X113112569Y-67358500D01*
X113334635Y-67321444D01*
X113547574Y-67248342D01*
X113745576Y-67141189D01*
X113923240Y-67002906D01*
X114066287Y-66847517D01*
X114075715Y-66837276D01*
X114075715Y-66837275D01*
X114075722Y-66837268D01*
X114166193Y-66698790D01*
X114219338Y-66653437D01*
X114288569Y-66644013D01*
X114351905Y-66673515D01*
X114373804Y-66698787D01*
X114464278Y-66837268D01*
X114464283Y-66837273D01*
X114464284Y-66837276D01*
X114616756Y-67002902D01*
X114616761Y-67002907D01*
X114675981Y-67049000D01*
X114794424Y-67141189D01*
X114794425Y-67141189D01*
X114794427Y-67141191D01*
X114854314Y-67173600D01*
X114992426Y-67248342D01*
X115205365Y-67321444D01*
X115427431Y-67358500D01*
X115652569Y-67358500D01*
X115874635Y-67321444D01*
X116087574Y-67248342D01*
X116285576Y-67141189D01*
X116463240Y-67002906D01*
X116606287Y-66847517D01*
X116615715Y-66837276D01*
X116615715Y-66837275D01*
X116615722Y-66837268D01*
X116706193Y-66698790D01*
X116759338Y-66653437D01*
X116828569Y-66644013D01*
X116891905Y-66673515D01*
X116913804Y-66698787D01*
X117004278Y-66837268D01*
X117004283Y-66837273D01*
X117004284Y-66837276D01*
X117156756Y-67002902D01*
X117156761Y-67002907D01*
X117215981Y-67049000D01*
X117334424Y-67141189D01*
X117334425Y-67141189D01*
X117334427Y-67141191D01*
X117394314Y-67173600D01*
X117532426Y-67248342D01*
X117745365Y-67321444D01*
X117967431Y-67358500D01*
X118192569Y-67358500D01*
X118414635Y-67321444D01*
X118627574Y-67248342D01*
X118825576Y-67141189D01*
X119003240Y-67002906D01*
X119146287Y-66847517D01*
X119155715Y-66837276D01*
X119155715Y-66837275D01*
X119155722Y-66837268D01*
X119246193Y-66698790D01*
X119299338Y-66653437D01*
X119368569Y-66644013D01*
X119431905Y-66673515D01*
X119453804Y-66698787D01*
X119544278Y-66837268D01*
X119544283Y-66837273D01*
X119544284Y-66837276D01*
X119696756Y-67002902D01*
X119696761Y-67002907D01*
X119755981Y-67049000D01*
X119874424Y-67141189D01*
X119874425Y-67141189D01*
X119874427Y-67141191D01*
X119934314Y-67173600D01*
X120072426Y-67248342D01*
X120285365Y-67321444D01*
X120507431Y-67358500D01*
X120732569Y-67358500D01*
X120954635Y-67321444D01*
X121167574Y-67248342D01*
X121365576Y-67141189D01*
X121543240Y-67002906D01*
X121686287Y-66847517D01*
X121695715Y-66837276D01*
X121695715Y-66837275D01*
X121695722Y-66837268D01*
X121786193Y-66698790D01*
X121839338Y-66653437D01*
X121908569Y-66644013D01*
X121971905Y-66673515D01*
X121993804Y-66698787D01*
X122084278Y-66837268D01*
X122084283Y-66837273D01*
X122084284Y-66837276D01*
X122236756Y-67002902D01*
X122236761Y-67002907D01*
X122295981Y-67049000D01*
X122414424Y-67141189D01*
X122414425Y-67141189D01*
X122414427Y-67141191D01*
X122474314Y-67173600D01*
X122612426Y-67248342D01*
X122825365Y-67321444D01*
X123047431Y-67358500D01*
X123272569Y-67358500D01*
X123494635Y-67321444D01*
X123707574Y-67248342D01*
X123905576Y-67141189D01*
X124083240Y-67002906D01*
X124226287Y-66847517D01*
X124235715Y-66837276D01*
X124235715Y-66837275D01*
X124235722Y-66837268D01*
X124326193Y-66698790D01*
X124379338Y-66653437D01*
X124448569Y-66644013D01*
X124511905Y-66673515D01*
X124533804Y-66698787D01*
X124624278Y-66837268D01*
X124624283Y-66837273D01*
X124624284Y-66837276D01*
X124776756Y-67002902D01*
X124776761Y-67002907D01*
X124835981Y-67049000D01*
X124954424Y-67141189D01*
X124954425Y-67141189D01*
X124954427Y-67141191D01*
X125014314Y-67173600D01*
X125152426Y-67248342D01*
X125365365Y-67321444D01*
X125587431Y-67358500D01*
X125812569Y-67358500D01*
X126034635Y-67321444D01*
X126247574Y-67248342D01*
X126445576Y-67141189D01*
X126623240Y-67002906D01*
X126766287Y-66847517D01*
X126775715Y-66837276D01*
X126775717Y-66837273D01*
X126775722Y-66837268D01*
X126898860Y-66648791D01*
X126989296Y-66442616D01*
X127044564Y-66224368D01*
X127046048Y-66206457D01*
X127063156Y-66000005D01*
X127063156Y-65999994D01*
X127044565Y-65775640D01*
X127044563Y-65775628D01*
X126989296Y-65557385D01*
X126979071Y-65534075D01*
X126898860Y-65351209D01*
X126896920Y-65348240D01*
X126775723Y-65162734D01*
X126775715Y-65162723D01*
X126623243Y-64997097D01*
X126623238Y-64997092D01*
X126445577Y-64858812D01*
X126445572Y-64858808D01*
X126247580Y-64751661D01*
X126247577Y-64751659D01*
X126247574Y-64751658D01*
X126247571Y-64751657D01*
X126247569Y-64751656D01*
X126034637Y-64678556D01*
X125812569Y-64641500D01*
X125587431Y-64641500D01*
X125365362Y-64678556D01*
X125152430Y-64751656D01*
X125152419Y-64751661D01*
X124954427Y-64858808D01*
X124954422Y-64858812D01*
X124776761Y-64997092D01*
X124776756Y-64997097D01*
X124624284Y-65162723D01*
X124624276Y-65162734D01*
X124533808Y-65301206D01*
X124480662Y-65346562D01*
X124411431Y-65355986D01*
X124348095Y-65326484D01*
X124326192Y-65301206D01*
X124235723Y-65162734D01*
X124235715Y-65162723D01*
X124083243Y-64997097D01*
X124083238Y-64997092D01*
X123905577Y-64858812D01*
X123905572Y-64858808D01*
X123707580Y-64751661D01*
X123707577Y-64751659D01*
X123707574Y-64751658D01*
X123707571Y-64751657D01*
X123707569Y-64751656D01*
X123494637Y-64678556D01*
X123272569Y-64641500D01*
X123047431Y-64641500D01*
X122825362Y-64678556D01*
X122612430Y-64751656D01*
X122612419Y-64751661D01*
X122414427Y-64858808D01*
X122414422Y-64858812D01*
X122236761Y-64997092D01*
X122236756Y-64997097D01*
X122084284Y-65162723D01*
X122084276Y-65162734D01*
X121993808Y-65301206D01*
X121940662Y-65346562D01*
X121871431Y-65355986D01*
X121808095Y-65326484D01*
X121786192Y-65301206D01*
X121695723Y-65162734D01*
X121695715Y-65162723D01*
X121543243Y-64997097D01*
X121543238Y-64997092D01*
X121365577Y-64858812D01*
X121365572Y-64858808D01*
X121167580Y-64751661D01*
X121167577Y-64751659D01*
X121167574Y-64751658D01*
X121167571Y-64751657D01*
X121167569Y-64751656D01*
X120954637Y-64678556D01*
X120732569Y-64641500D01*
X120507431Y-64641500D01*
X120285362Y-64678556D01*
X120072430Y-64751656D01*
X120072419Y-64751661D01*
X119874427Y-64858808D01*
X119874422Y-64858812D01*
X119696761Y-64997092D01*
X119696756Y-64997097D01*
X119544284Y-65162723D01*
X119544276Y-65162734D01*
X119453808Y-65301206D01*
X119400662Y-65346562D01*
X119331431Y-65355986D01*
X119268095Y-65326484D01*
X119246192Y-65301206D01*
X119155723Y-65162734D01*
X119155715Y-65162723D01*
X119003243Y-64997097D01*
X119003238Y-64997092D01*
X118825577Y-64858812D01*
X118825572Y-64858808D01*
X118627580Y-64751661D01*
X118627577Y-64751659D01*
X118627574Y-64751658D01*
X118627571Y-64751657D01*
X118627569Y-64751656D01*
X118414637Y-64678556D01*
X118192569Y-64641500D01*
X117967431Y-64641500D01*
X117745362Y-64678556D01*
X117532430Y-64751656D01*
X117532419Y-64751661D01*
X117334427Y-64858808D01*
X117334422Y-64858812D01*
X117156761Y-64997092D01*
X117156756Y-64997097D01*
X117004284Y-65162723D01*
X117004276Y-65162734D01*
X116913808Y-65301206D01*
X116860662Y-65346562D01*
X116791431Y-65355986D01*
X116728095Y-65326484D01*
X116706192Y-65301206D01*
X116615723Y-65162734D01*
X116615715Y-65162723D01*
X116463243Y-64997097D01*
X116463238Y-64997092D01*
X116285577Y-64858812D01*
X116285572Y-64858808D01*
X116087580Y-64751661D01*
X116087577Y-64751659D01*
X116087574Y-64751658D01*
X116087571Y-64751657D01*
X116087569Y-64751656D01*
X115874637Y-64678556D01*
X115652569Y-64641500D01*
X115427431Y-64641500D01*
X115205362Y-64678556D01*
X114992430Y-64751656D01*
X114992419Y-64751661D01*
X114794427Y-64858808D01*
X114794422Y-64858812D01*
X114616761Y-64997092D01*
X114616756Y-64997097D01*
X114464284Y-65162723D01*
X114464276Y-65162734D01*
X114373808Y-65301206D01*
X114320662Y-65346562D01*
X114251431Y-65355986D01*
X114188095Y-65326484D01*
X114166192Y-65301206D01*
X114075723Y-65162734D01*
X114075715Y-65162723D01*
X113923243Y-64997097D01*
X113923238Y-64997092D01*
X113745577Y-64858812D01*
X113745572Y-64858808D01*
X113547580Y-64751661D01*
X113547577Y-64751659D01*
X113547574Y-64751658D01*
X113547571Y-64751657D01*
X113547569Y-64751656D01*
X113334637Y-64678556D01*
X113112569Y-64641500D01*
X112887431Y-64641500D01*
X112665362Y-64678556D01*
X112452430Y-64751656D01*
X112452419Y-64751661D01*
X112254427Y-64858808D01*
X112254422Y-64858812D01*
X112076761Y-64997092D01*
X112076756Y-64997097D01*
X111924284Y-65162723D01*
X111924276Y-65162734D01*
X111830251Y-65306650D01*
X111777105Y-65352007D01*
X111707873Y-65361430D01*
X111644538Y-65331928D01*
X111624868Y-65309951D01*
X111498113Y-65128926D01*
X111498108Y-65128920D01*
X111331082Y-64961894D01*
X111137578Y-64826399D01*
X110923492Y-64726570D01*
X110923486Y-64726567D01*
X110710000Y-64669364D01*
X110710000Y-65566988D01*
X110652993Y-65534075D01*
X110525826Y-65500000D01*
X110394174Y-65500000D01*
X110267007Y-65534075D01*
X110210000Y-65566988D01*
X110210000Y-64669364D01*
X110209999Y-64669364D01*
X109996513Y-64726567D01*
X109996507Y-64726570D01*
X109782422Y-64826399D01*
X109782420Y-64826400D01*
X109588926Y-64961886D01*
X109473084Y-65077728D01*
X109411761Y-65111212D01*
X109342069Y-65106228D01*
X109286136Y-65064356D01*
X109269223Y-65033384D01*
X109220889Y-64903796D01*
X109133261Y-64786739D01*
X109016204Y-64699111D01*
X108879203Y-64648011D01*
X108818654Y-64641500D01*
X108818638Y-64641500D01*
X107021362Y-64641500D01*
X107021345Y-64641500D01*
X106960797Y-64648011D01*
X106960795Y-64648011D01*
X106823795Y-64699111D01*
X106706739Y-64786739D01*
X106619111Y-64903795D01*
X106568011Y-65040795D01*
X106568011Y-65040797D01*
X106561500Y-65101345D01*
X100075500Y-65101345D01*
X100075500Y-64000000D01*
X143736835Y-64000000D01*
X143755465Y-64236714D01*
X143810895Y-64467595D01*
X143810895Y-64467597D01*
X143901757Y-64686959D01*
X143901759Y-64686962D01*
X144025820Y-64889410D01*
X144025821Y-64889413D01*
X144078076Y-64950596D01*
X144180031Y-65069969D01*
X144288645Y-65162734D01*
X144360586Y-65224178D01*
X144360589Y-65224179D01*
X144563037Y-65348240D01*
X144563040Y-65348242D01*
X144782403Y-65439104D01*
X144782404Y-65439104D01*
X144782406Y-65439105D01*
X145013289Y-65494535D01*
X145250000Y-65513165D01*
X145486711Y-65494535D01*
X145717594Y-65439105D01*
X145717596Y-65439104D01*
X145717597Y-65439104D01*
X145936959Y-65348242D01*
X145936960Y-65348241D01*
X145936963Y-65348240D01*
X146139416Y-65224176D01*
X146319969Y-65069969D01*
X146474176Y-64889416D01*
X146598240Y-64686963D01*
X146601723Y-64678556D01*
X146689104Y-64467597D01*
X146689104Y-64467596D01*
X146689105Y-64467594D01*
X146744535Y-64236711D01*
X146763165Y-64000000D01*
X148236835Y-64000000D01*
X148255465Y-64236714D01*
X148310895Y-64467595D01*
X148310895Y-64467597D01*
X148401757Y-64686959D01*
X148401759Y-64686962D01*
X148525820Y-64889410D01*
X148525821Y-64889413D01*
X148578076Y-64950596D01*
X148680031Y-65069969D01*
X148788645Y-65162734D01*
X148860586Y-65224178D01*
X148860589Y-65224179D01*
X149063037Y-65348240D01*
X149063040Y-65348242D01*
X149282403Y-65439104D01*
X149282404Y-65439104D01*
X149282406Y-65439105D01*
X149513289Y-65494535D01*
X149750000Y-65513165D01*
X149986711Y-65494535D01*
X150217594Y-65439105D01*
X150217596Y-65439104D01*
X150217597Y-65439104D01*
X150436959Y-65348242D01*
X150436960Y-65348241D01*
X150436963Y-65348240D01*
X150639416Y-65224176D01*
X150819969Y-65069969D01*
X150974176Y-64889416D01*
X151098240Y-64686963D01*
X151101723Y-64678556D01*
X151189104Y-64467597D01*
X151189104Y-64467596D01*
X151189105Y-64467594D01*
X151244535Y-64236711D01*
X151263165Y-64000000D01*
X151244535Y-63763289D01*
X151189105Y-63532406D01*
X151189104Y-63532403D01*
X151189104Y-63532402D01*
X151098242Y-63313040D01*
X151098240Y-63313037D01*
X150974179Y-63110589D01*
X150974178Y-63110586D01*
X150879728Y-63000000D01*
X150879726Y-62999998D01*
X155606502Y-62999998D01*
X155606502Y-63000001D01*
X155626456Y-63228081D01*
X155626457Y-63228089D01*
X155685714Y-63449238D01*
X155685718Y-63449249D01*
X155723338Y-63529925D01*
X155782477Y-63656749D01*
X155913802Y-63844300D01*
X156075700Y-64006198D01*
X156263251Y-64137523D01*
X156388091Y-64195736D01*
X156470750Y-64234281D01*
X156470752Y-64234281D01*
X156470757Y-64234284D01*
X156691913Y-64293543D01*
X156854832Y-64307796D01*
X156919998Y-64313498D01*
X156920000Y-64313498D01*
X156920002Y-64313498D01*
X156977021Y-64308509D01*
X157148087Y-64293543D01*
X157369243Y-64234284D01*
X157576749Y-64137523D01*
X157764300Y-64006198D01*
X157926198Y-63844300D01*
X158057523Y-63656749D01*
X158154284Y-63449243D01*
X158213543Y-63228087D01*
X158233498Y-63000000D01*
X158213543Y-62771913D01*
X158154284Y-62550757D01*
X158150292Y-62542197D01*
X158057524Y-62343254D01*
X158057523Y-62343252D01*
X158057523Y-62343251D01*
X157926198Y-62155700D01*
X157764300Y-61993802D01*
X157576749Y-61862477D01*
X157565501Y-61857232D01*
X157369249Y-61765718D01*
X157369238Y-61765714D01*
X157148089Y-61706457D01*
X157148081Y-61706456D01*
X156920002Y-61686502D01*
X156919998Y-61686502D01*
X156691918Y-61706456D01*
X156691910Y-61706457D01*
X156470761Y-61765714D01*
X156470750Y-61765718D01*
X156263254Y-61862475D01*
X156263252Y-61862476D01*
X156216869Y-61894954D01*
X156075700Y-61993802D01*
X156075698Y-61993803D01*
X156075695Y-61993806D01*
X155913806Y-62155695D01*
X155782476Y-62343252D01*
X155782475Y-62343254D01*
X155685718Y-62550750D01*
X155685714Y-62550761D01*
X155626457Y-62771910D01*
X155626456Y-62771918D01*
X155606502Y-62999998D01*
X150879726Y-62999998D01*
X150819969Y-62930031D01*
X150700596Y-62828076D01*
X150639413Y-62775821D01*
X150639410Y-62775820D01*
X150436962Y-62651759D01*
X150436959Y-62651757D01*
X150217596Y-62560895D01*
X149986714Y-62505465D01*
X149750000Y-62486835D01*
X149513285Y-62505465D01*
X149282404Y-62560895D01*
X149282402Y-62560895D01*
X149063040Y-62651757D01*
X149063037Y-62651759D01*
X148860589Y-62775820D01*
X148860586Y-62775821D01*
X148680031Y-62930031D01*
X148525821Y-63110586D01*
X148525820Y-63110589D01*
X148401759Y-63313037D01*
X148401757Y-63313040D01*
X148310895Y-63532402D01*
X148310895Y-63532404D01*
X148255465Y-63763285D01*
X148236835Y-64000000D01*
X146763165Y-64000000D01*
X146744535Y-63763289D01*
X146689105Y-63532406D01*
X146689104Y-63532403D01*
X146689104Y-63532402D01*
X146598242Y-63313040D01*
X146598240Y-63313037D01*
X146474179Y-63110589D01*
X146474178Y-63110586D01*
X146379728Y-63000000D01*
X146319969Y-62930031D01*
X146200596Y-62828076D01*
X146139413Y-62775821D01*
X146139410Y-62775820D01*
X145936962Y-62651759D01*
X145936959Y-62651757D01*
X145717596Y-62560895D01*
X145486714Y-62505465D01*
X145250000Y-62486835D01*
X145013285Y-62505465D01*
X144782404Y-62560895D01*
X144782402Y-62560895D01*
X144563040Y-62651757D01*
X144563037Y-62651759D01*
X144360589Y-62775820D01*
X144360586Y-62775821D01*
X144180031Y-62930031D01*
X144025821Y-63110586D01*
X144025820Y-63110589D01*
X143901759Y-63313037D01*
X143901757Y-63313040D01*
X143810895Y-63532402D01*
X143810895Y-63532404D01*
X143755465Y-63763285D01*
X143736835Y-64000000D01*
X100075500Y-64000000D01*
X100075500Y-58225013D01*
X133150000Y-58225013D01*
X133150000Y-58750000D01*
X134095854Y-58750000D01*
X134057370Y-58816657D01*
X134025000Y-58937465D01*
X134025000Y-59062535D01*
X134057370Y-59183343D01*
X134095854Y-59250000D01*
X133150001Y-59250000D01*
X133150001Y-59774986D01*
X133160494Y-59877697D01*
X133215641Y-60044119D01*
X133215643Y-60044124D01*
X133307684Y-60193345D01*
X133431654Y-60317315D01*
X133580875Y-60409356D01*
X133580880Y-60409358D01*
X133747302Y-60464505D01*
X133747309Y-60464506D01*
X133850019Y-60474999D01*
X134249999Y-60474999D01*
X134250000Y-60474998D01*
X134250000Y-59404145D01*
X134316657Y-59442630D01*
X134437465Y-59475000D01*
X134562535Y-59475000D01*
X134683343Y-59442630D01*
X134750000Y-59404145D01*
X134750000Y-60474999D01*
X135149972Y-60474999D01*
X135149986Y-60474998D01*
X135252697Y-60464505D01*
X135419119Y-60409358D01*
X135419124Y-60409356D01*
X135568345Y-60317315D01*
X135692315Y-60193345D01*
X135783499Y-60045513D01*
X135835447Y-59998789D01*
X135904410Y-59987566D01*
X135968492Y-60015410D01*
X135976719Y-60022929D01*
X136114996Y-60161206D01*
X136287991Y-60286894D01*
X136381438Y-60334507D01*
X136478516Y-60383972D01*
X136478519Y-60383973D01*
X136556642Y-60409356D01*
X136681884Y-60450049D01*
X136893084Y-60483500D01*
X136893085Y-60483500D01*
X137106915Y-60483500D01*
X137106916Y-60483500D01*
X137318116Y-60450049D01*
X137521483Y-60383972D01*
X137712009Y-60286894D01*
X137885004Y-60161206D01*
X138036206Y-60010004D01*
X138113076Y-59904200D01*
X138149682Y-59853818D01*
X138205012Y-59811152D01*
X138274625Y-59805173D01*
X138336420Y-59837779D01*
X138350318Y-59853818D01*
X138447492Y-59987566D01*
X138463794Y-60010004D01*
X138614996Y-60161206D01*
X138787991Y-60286894D01*
X138881438Y-60334507D01*
X138978516Y-60383972D01*
X138978519Y-60383973D01*
X139056642Y-60409356D01*
X139181884Y-60450049D01*
X139393084Y-60483500D01*
X139393085Y-60483500D01*
X139606915Y-60483500D01*
X139606916Y-60483500D01*
X139818116Y-60450049D01*
X140021483Y-60383972D01*
X140212009Y-60286894D01*
X140385004Y-60161206D01*
X140536206Y-60010004D01*
X140661894Y-59837009D01*
X140758972Y-59646483D01*
X140806567Y-59500000D01*
X157486835Y-59500000D01*
X157505465Y-59736714D01*
X157560895Y-59967595D01*
X157560895Y-59967597D01*
X157651757Y-60186959D01*
X157651759Y-60186962D01*
X157775820Y-60389410D01*
X157775821Y-60389413D01*
X157775824Y-60389416D01*
X157930031Y-60569969D01*
X158069797Y-60689340D01*
X158110586Y-60724178D01*
X158110589Y-60724179D01*
X158313037Y-60848240D01*
X158313040Y-60848242D01*
X158532403Y-60939104D01*
X158532404Y-60939104D01*
X158532406Y-60939105D01*
X158763289Y-60994535D01*
X159000000Y-61013165D01*
X159236711Y-60994535D01*
X159467594Y-60939105D01*
X159467596Y-60939104D01*
X159467597Y-60939104D01*
X159686959Y-60848242D01*
X159686960Y-60848241D01*
X159686963Y-60848240D01*
X159889416Y-60724176D01*
X160069969Y-60569969D01*
X160224176Y-60389416D01*
X160348240Y-60186963D01*
X160407406Y-60044124D01*
X160439104Y-59967597D01*
X160439104Y-59967596D01*
X160439105Y-59967594D01*
X160494535Y-59736711D01*
X160513165Y-59500000D01*
X161986835Y-59500000D01*
X162005465Y-59736714D01*
X162060895Y-59967595D01*
X162060895Y-59967597D01*
X162151757Y-60186959D01*
X162151759Y-60186962D01*
X162275820Y-60389410D01*
X162275821Y-60389413D01*
X162275824Y-60389416D01*
X162430031Y-60569969D01*
X162569797Y-60689340D01*
X162610586Y-60724178D01*
X162610589Y-60724179D01*
X162813037Y-60848240D01*
X162813040Y-60848242D01*
X163032403Y-60939104D01*
X163032404Y-60939104D01*
X163032406Y-60939105D01*
X163263289Y-60994535D01*
X163500000Y-61013165D01*
X163736711Y-60994535D01*
X163967594Y-60939105D01*
X163967596Y-60939104D01*
X163967597Y-60939104D01*
X164186959Y-60848242D01*
X164186960Y-60848241D01*
X164186963Y-60848240D01*
X164389416Y-60724176D01*
X164569969Y-60569969D01*
X164724176Y-60389416D01*
X164848240Y-60186963D01*
X164907406Y-60044124D01*
X164939104Y-59967597D01*
X164939104Y-59967596D01*
X164939105Y-59967594D01*
X164994535Y-59736711D01*
X165013165Y-59500000D01*
X164994535Y-59263289D01*
X164939105Y-59032406D01*
X164939104Y-59032403D01*
X164939104Y-59032402D01*
X164848242Y-58813040D01*
X164848240Y-58813037D01*
X164724179Y-58610589D01*
X164724178Y-58610586D01*
X164651080Y-58525000D01*
X164569969Y-58430031D01*
X164450596Y-58328076D01*
X164389413Y-58275821D01*
X164389410Y-58275820D01*
X164186962Y-58151759D01*
X164186959Y-58151757D01*
X163967596Y-58060895D01*
X163736714Y-58005465D01*
X163500000Y-57986835D01*
X163263285Y-58005465D01*
X163032404Y-58060895D01*
X163032402Y-58060895D01*
X162813040Y-58151757D01*
X162813037Y-58151759D01*
X162610589Y-58275820D01*
X162610586Y-58275821D01*
X162430031Y-58430031D01*
X162275821Y-58610586D01*
X162275820Y-58610589D01*
X162151759Y-58813037D01*
X162151757Y-58813040D01*
X162060895Y-59032402D01*
X162060895Y-59032404D01*
X162005465Y-59263285D01*
X161986835Y-59500000D01*
X160513165Y-59500000D01*
X160494535Y-59263289D01*
X160439105Y-59032406D01*
X160439104Y-59032403D01*
X160439104Y-59032402D01*
X160348242Y-58813040D01*
X160348240Y-58813037D01*
X160224179Y-58610589D01*
X160224178Y-58610586D01*
X160151080Y-58525000D01*
X160069969Y-58430031D01*
X159950596Y-58328076D01*
X159889413Y-58275821D01*
X159889410Y-58275820D01*
X159686962Y-58151759D01*
X159686959Y-58151757D01*
X159467596Y-58060895D01*
X159236714Y-58005465D01*
X159000000Y-57986835D01*
X158763285Y-58005465D01*
X158532404Y-58060895D01*
X158532402Y-58060895D01*
X158313040Y-58151757D01*
X158313037Y-58151759D01*
X158110589Y-58275820D01*
X158110586Y-58275821D01*
X157930031Y-58430031D01*
X157775821Y-58610586D01*
X157775820Y-58610589D01*
X157651759Y-58813037D01*
X157651757Y-58813040D01*
X157560895Y-59032402D01*
X157560895Y-59032404D01*
X157505465Y-59263285D01*
X157486835Y-59500000D01*
X140806567Y-59500000D01*
X140825049Y-59443116D01*
X140858500Y-59231916D01*
X140858500Y-58768084D01*
X140825049Y-58556884D01*
X140758972Y-58353517D01*
X140758972Y-58353516D01*
X140693496Y-58225013D01*
X140661894Y-58162991D01*
X140536206Y-57989996D01*
X140385004Y-57838794D01*
X140212009Y-57713106D01*
X140152303Y-57682684D01*
X140021483Y-57616027D01*
X140021480Y-57616026D01*
X139818117Y-57549951D01*
X139712516Y-57533225D01*
X139606916Y-57516500D01*
X139393084Y-57516500D01*
X139339411Y-57525001D01*
X139181882Y-57549951D01*
X138978519Y-57616026D01*
X138978516Y-57616027D01*
X138787990Y-57713106D01*
X138614993Y-57838796D01*
X138463796Y-57989993D01*
X138463796Y-57989994D01*
X138463794Y-57989996D01*
X138448857Y-58010555D01*
X138350318Y-58146182D01*
X138294988Y-58188847D01*
X138225374Y-58194826D01*
X138163579Y-58162220D01*
X138149682Y-58146182D01*
X138124930Y-58112115D01*
X138036206Y-57989996D01*
X137885004Y-57838794D01*
X137712009Y-57713106D01*
X137652303Y-57682684D01*
X137521483Y-57616027D01*
X137521480Y-57616026D01*
X137318117Y-57549951D01*
X137212516Y-57533225D01*
X137106916Y-57516500D01*
X136893084Y-57516500D01*
X136839411Y-57525001D01*
X136681882Y-57549951D01*
X136478519Y-57616026D01*
X136478516Y-57616027D01*
X136287990Y-57713106D01*
X136114997Y-57838793D01*
X135976719Y-57977071D01*
X135915396Y-58010555D01*
X135845704Y-58005571D01*
X135789771Y-57963699D01*
X135783499Y-57954486D01*
X135692315Y-57806654D01*
X135568345Y-57682684D01*
X135419124Y-57590643D01*
X135419119Y-57590641D01*
X135252697Y-57535494D01*
X135252690Y-57535493D01*
X135149986Y-57525000D01*
X134750000Y-57525000D01*
X134750000Y-58595854D01*
X134683343Y-58557370D01*
X134562535Y-58525000D01*
X134437465Y-58525000D01*
X134316657Y-58557370D01*
X134250000Y-58595854D01*
X134250000Y-57525000D01*
X133850028Y-57525000D01*
X133850012Y-57525001D01*
X133747302Y-57535494D01*
X133580880Y-57590641D01*
X133580875Y-57590643D01*
X133431654Y-57682684D01*
X133307684Y-57806654D01*
X133215643Y-57955875D01*
X133215641Y-57955880D01*
X133160494Y-58122302D01*
X133160493Y-58122309D01*
X133150000Y-58225013D01*
X100075500Y-58225013D01*
X100075500Y-57500000D01*
X143736835Y-57500000D01*
X143755465Y-57736714D01*
X143810895Y-57967595D01*
X143810895Y-57967597D01*
X143901757Y-58186959D01*
X143901759Y-58186962D01*
X144025820Y-58389410D01*
X144025821Y-58389413D01*
X144078076Y-58450596D01*
X144180031Y-58569969D01*
X144319797Y-58689340D01*
X144360586Y-58724178D01*
X144360588Y-58724178D01*
X144563037Y-58848240D01*
X144563040Y-58848242D01*
X144782403Y-58939104D01*
X144782404Y-58939104D01*
X144782406Y-58939105D01*
X145013289Y-58994535D01*
X145250000Y-59013165D01*
X145486711Y-58994535D01*
X145717594Y-58939105D01*
X145717596Y-58939104D01*
X145717597Y-58939104D01*
X145936959Y-58848242D01*
X145936960Y-58848241D01*
X145936963Y-58848240D01*
X146139416Y-58724176D01*
X146319969Y-58569969D01*
X146474176Y-58389416D01*
X146598240Y-58186963D01*
X146608170Y-58162991D01*
X146689104Y-57967597D01*
X146689104Y-57967596D01*
X146689105Y-57967594D01*
X146744535Y-57736711D01*
X146763165Y-57500000D01*
X148236835Y-57500000D01*
X148255465Y-57736714D01*
X148310895Y-57967595D01*
X148310895Y-57967597D01*
X148401757Y-58186959D01*
X148401759Y-58186962D01*
X148525820Y-58389410D01*
X148525821Y-58389413D01*
X148578076Y-58450596D01*
X148680031Y-58569969D01*
X148819797Y-58689340D01*
X148860586Y-58724178D01*
X148860588Y-58724178D01*
X149063037Y-58848240D01*
X149063040Y-58848242D01*
X149282403Y-58939104D01*
X149282404Y-58939104D01*
X149282406Y-58939105D01*
X149513289Y-58994535D01*
X149750000Y-59013165D01*
X149986711Y-58994535D01*
X150217594Y-58939105D01*
X150217596Y-58939104D01*
X150217597Y-58939104D01*
X150436959Y-58848242D01*
X150436960Y-58848241D01*
X150436963Y-58848240D01*
X150639416Y-58724176D01*
X150819969Y-58569969D01*
X150974176Y-58389416D01*
X151098240Y-58186963D01*
X151108170Y-58162991D01*
X151189104Y-57967597D01*
X151189104Y-57967596D01*
X151189105Y-57967594D01*
X151244535Y-57736711D01*
X151263165Y-57500000D01*
X151244535Y-57263289D01*
X151189105Y-57032406D01*
X151189104Y-57032403D01*
X151189104Y-57032402D01*
X151098242Y-56813040D01*
X151098240Y-56813037D01*
X150974179Y-56610589D01*
X150974178Y-56610586D01*
X150939340Y-56569797D01*
X150819969Y-56430031D01*
X150700596Y-56328076D01*
X150639413Y-56275821D01*
X150639410Y-56275820D01*
X150436962Y-56151759D01*
X150436959Y-56151757D01*
X150217596Y-56060895D01*
X149986714Y-56005465D01*
X149750000Y-55986835D01*
X149513285Y-56005465D01*
X149282404Y-56060895D01*
X149282402Y-56060895D01*
X149063040Y-56151757D01*
X149063037Y-56151759D01*
X148860589Y-56275820D01*
X148860586Y-56275821D01*
X148680031Y-56430031D01*
X148525821Y-56610586D01*
X148525820Y-56610589D01*
X148401759Y-56813037D01*
X148401757Y-56813040D01*
X148310895Y-57032402D01*
X148310895Y-57032404D01*
X148255465Y-57263285D01*
X148236835Y-57500000D01*
X146763165Y-57500000D01*
X146744535Y-57263289D01*
X146689105Y-57032406D01*
X146689104Y-57032403D01*
X146689104Y-57032402D01*
X146598242Y-56813040D01*
X146598240Y-56813037D01*
X146474179Y-56610589D01*
X146474178Y-56610586D01*
X146439340Y-56569797D01*
X146319969Y-56430031D01*
X146200596Y-56328076D01*
X146139413Y-56275821D01*
X146139410Y-56275820D01*
X145936962Y-56151759D01*
X145936959Y-56151757D01*
X145717596Y-56060895D01*
X145486714Y-56005465D01*
X145250000Y-55986835D01*
X145013285Y-56005465D01*
X144782404Y-56060895D01*
X144782402Y-56060895D01*
X144563040Y-56151757D01*
X144563037Y-56151759D01*
X144360589Y-56275820D01*
X144360586Y-56275821D01*
X144180031Y-56430031D01*
X144025821Y-56610586D01*
X144025820Y-56610589D01*
X143901759Y-56813037D01*
X143901757Y-56813040D01*
X143810895Y-57032402D01*
X143810895Y-57032404D01*
X143755465Y-57263285D01*
X143736835Y-57500000D01*
X100075500Y-57500000D01*
X100075500Y-53499998D01*
X127606502Y-53499998D01*
X127606502Y-53500001D01*
X127626456Y-53728081D01*
X127626457Y-53728089D01*
X127685714Y-53949238D01*
X127685718Y-53949249D01*
X127742011Y-54069969D01*
X127782477Y-54156749D01*
X127913802Y-54344300D01*
X128075700Y-54506198D01*
X128263251Y-54637523D01*
X128388091Y-54695736D01*
X128470750Y-54734281D01*
X128470752Y-54734281D01*
X128470757Y-54734284D01*
X128691913Y-54793543D01*
X128854832Y-54807796D01*
X128919998Y-54813498D01*
X128920000Y-54813498D01*
X128920002Y-54813498D01*
X128977021Y-54808509D01*
X129148087Y-54793543D01*
X129369243Y-54734284D01*
X129576749Y-54637523D01*
X129764300Y-54506198D01*
X129926198Y-54344300D01*
X130057523Y-54156749D01*
X130154284Y-53949243D01*
X130213543Y-53728087D01*
X130233498Y-53500000D01*
X130233498Y-53499998D01*
X137766502Y-53499998D01*
X137766502Y-53500001D01*
X137786456Y-53728081D01*
X137786457Y-53728089D01*
X137845714Y-53949238D01*
X137845718Y-53949249D01*
X137902011Y-54069969D01*
X137942477Y-54156749D01*
X138073802Y-54344300D01*
X138235700Y-54506198D01*
X138423251Y-54637523D01*
X138548091Y-54695736D01*
X138630750Y-54734281D01*
X138630752Y-54734281D01*
X138630757Y-54734284D01*
X138851913Y-54793543D01*
X139014832Y-54807796D01*
X139079998Y-54813498D01*
X139080000Y-54813498D01*
X139080002Y-54813498D01*
X139137021Y-54808509D01*
X139308087Y-54793543D01*
X139529243Y-54734284D01*
X139736749Y-54637523D01*
X139924300Y-54506198D01*
X140086198Y-54344300D01*
X140217523Y-54156749D01*
X140314284Y-53949243D01*
X140373543Y-53728087D01*
X140393498Y-53500000D01*
X140373543Y-53271913D01*
X140367671Y-53249999D01*
X141721127Y-53249999D01*
X141721128Y-53250000D01*
X142684314Y-53250000D01*
X142679920Y-53254394D01*
X142627259Y-53345606D01*
X142600000Y-53447339D01*
X142600000Y-53552661D01*
X142627259Y-53654394D01*
X142679920Y-53745606D01*
X142684314Y-53750000D01*
X141721128Y-53750000D01*
X141773730Y-53946317D01*
X141773734Y-53946326D01*
X141869865Y-54152482D01*
X142000342Y-54338820D01*
X142161179Y-54499657D01*
X142347517Y-54630134D01*
X142553673Y-54726265D01*
X142553682Y-54726269D01*
X142749999Y-54778872D01*
X142750000Y-54778871D01*
X142750000Y-53815686D01*
X142754394Y-53820080D01*
X142845606Y-53872741D01*
X142947339Y-53900000D01*
X143052661Y-53900000D01*
X143154394Y-53872741D01*
X143245606Y-53820080D01*
X143250000Y-53815686D01*
X143250000Y-54778872D01*
X143446317Y-54726269D01*
X143446326Y-54726265D01*
X143652482Y-54630134D01*
X143838820Y-54499657D01*
X143999657Y-54338820D01*
X144130134Y-54152482D01*
X144226265Y-53946326D01*
X144226269Y-53946317D01*
X144278872Y-53750000D01*
X143315686Y-53750000D01*
X143320080Y-53745606D01*
X143372741Y-53654394D01*
X143400000Y-53552661D01*
X143400000Y-53499998D01*
X151846502Y-53499998D01*
X151846502Y-53500001D01*
X151866456Y-53728081D01*
X151866457Y-53728089D01*
X151925714Y-53949238D01*
X151925718Y-53949249D01*
X151982011Y-54069969D01*
X152022477Y-54156749D01*
X152153802Y-54344300D01*
X152315700Y-54506198D01*
X152503251Y-54637523D01*
X152628091Y-54695736D01*
X152710750Y-54734281D01*
X152710752Y-54734281D01*
X152710757Y-54734284D01*
X152931913Y-54793543D01*
X153094832Y-54807796D01*
X153159998Y-54813498D01*
X153160000Y-54813498D01*
X153160002Y-54813498D01*
X153217021Y-54808509D01*
X153388087Y-54793543D01*
X153609243Y-54734284D01*
X153816749Y-54637523D01*
X154004300Y-54506198D01*
X154166198Y-54344300D01*
X154297523Y-54156749D01*
X154394284Y-53949243D01*
X154453543Y-53728087D01*
X154473498Y-53500000D01*
X154453543Y-53271913D01*
X154394284Y-53050757D01*
X154370616Y-53000000D01*
X157486835Y-53000000D01*
X157505465Y-53236714D01*
X157560895Y-53467595D01*
X157560895Y-53467597D01*
X157651757Y-53686959D01*
X157651759Y-53686962D01*
X157775820Y-53889410D01*
X157775821Y-53889413D01*
X157824422Y-53946317D01*
X157930031Y-54069969D01*
X158069797Y-54189340D01*
X158110586Y-54224178D01*
X158110589Y-54224179D01*
X158313037Y-54348240D01*
X158313040Y-54348242D01*
X158532403Y-54439104D01*
X158532404Y-54439104D01*
X158532406Y-54439105D01*
X158763289Y-54494535D01*
X159000000Y-54513165D01*
X159236711Y-54494535D01*
X159467594Y-54439105D01*
X159467596Y-54439104D01*
X159467597Y-54439104D01*
X159686959Y-54348242D01*
X159686960Y-54348241D01*
X159686963Y-54348240D01*
X159889416Y-54224176D01*
X160069969Y-54069969D01*
X160224176Y-53889416D01*
X160348240Y-53686963D01*
X160361731Y-53654394D01*
X160439104Y-53467597D01*
X160439104Y-53467596D01*
X160439105Y-53467594D01*
X160494535Y-53236711D01*
X160513165Y-53000000D01*
X161986835Y-53000000D01*
X162005465Y-53236714D01*
X162060895Y-53467595D01*
X162060895Y-53467597D01*
X162151757Y-53686959D01*
X162151759Y-53686962D01*
X162275820Y-53889410D01*
X162275821Y-53889413D01*
X162324422Y-53946317D01*
X162430031Y-54069969D01*
X162569797Y-54189340D01*
X162610586Y-54224178D01*
X162610589Y-54224179D01*
X162813037Y-54348240D01*
X162813040Y-54348242D01*
X163032403Y-54439104D01*
X163032404Y-54439104D01*
X163032406Y-54439105D01*
X163263289Y-54494535D01*
X163500000Y-54513165D01*
X163736711Y-54494535D01*
X163967594Y-54439105D01*
X163967596Y-54439104D01*
X163967597Y-54439104D01*
X164186959Y-54348242D01*
X164186960Y-54348241D01*
X164186963Y-54348240D01*
X164389416Y-54224176D01*
X164569969Y-54069969D01*
X164724176Y-53889416D01*
X164848240Y-53686963D01*
X164861731Y-53654394D01*
X164939104Y-53467597D01*
X164939104Y-53467596D01*
X164939105Y-53467594D01*
X164994535Y-53236711D01*
X165013165Y-53000000D01*
X164994535Y-52763289D01*
X164939105Y-52532406D01*
X164939104Y-52532403D01*
X164939104Y-52532402D01*
X164848242Y-52313040D01*
X164848240Y-52313037D01*
X164819243Y-52265718D01*
X164724178Y-52110588D01*
X164724178Y-52110586D01*
X164689340Y-52069797D01*
X164569969Y-51930031D01*
X164450596Y-51828076D01*
X164389413Y-51775821D01*
X164389410Y-51775820D01*
X164186962Y-51651759D01*
X164186959Y-51651757D01*
X163967596Y-51560895D01*
X163736714Y-51505465D01*
X163500000Y-51486835D01*
X163263285Y-51505465D01*
X163032404Y-51560895D01*
X163032402Y-51560895D01*
X162813040Y-51651757D01*
X162813037Y-51651759D01*
X162610589Y-51775820D01*
X162610586Y-51775821D01*
X162430031Y-51930031D01*
X162275821Y-52110586D01*
X162275820Y-52110589D01*
X162151759Y-52313037D01*
X162151757Y-52313040D01*
X162060895Y-52532402D01*
X162060895Y-52532404D01*
X162005465Y-52763285D01*
X161986835Y-53000000D01*
X160513165Y-53000000D01*
X160494535Y-52763289D01*
X160439105Y-52532406D01*
X160439104Y-52532403D01*
X160439104Y-52532402D01*
X160348242Y-52313040D01*
X160348240Y-52313037D01*
X160319243Y-52265718D01*
X160224178Y-52110588D01*
X160224178Y-52110586D01*
X160189340Y-52069797D01*
X160069969Y-51930031D01*
X159950596Y-51828076D01*
X159889413Y-51775821D01*
X159889410Y-51775820D01*
X159686962Y-51651759D01*
X159686959Y-51651757D01*
X159467596Y-51560895D01*
X159236714Y-51505465D01*
X159000000Y-51486835D01*
X158763285Y-51505465D01*
X158532404Y-51560895D01*
X158532402Y-51560895D01*
X158313040Y-51651757D01*
X158313037Y-51651759D01*
X158110589Y-51775820D01*
X158110586Y-51775821D01*
X157930031Y-51930031D01*
X157775821Y-52110586D01*
X157775820Y-52110589D01*
X157651759Y-52313037D01*
X157651757Y-52313040D01*
X157560895Y-52532402D01*
X157560895Y-52532404D01*
X157505465Y-52763285D01*
X157486835Y-53000000D01*
X154370616Y-53000000D01*
X154297523Y-52843251D01*
X154166198Y-52655700D01*
X154004300Y-52493802D01*
X153816749Y-52362477D01*
X153816745Y-52362475D01*
X153609249Y-52265718D01*
X153609238Y-52265714D01*
X153388089Y-52206457D01*
X153388081Y-52206456D01*
X153160002Y-52186502D01*
X153159998Y-52186502D01*
X152931918Y-52206456D01*
X152931910Y-52206457D01*
X152710761Y-52265714D01*
X152710750Y-52265718D01*
X152503254Y-52362475D01*
X152503252Y-52362476D01*
X152503251Y-52362477D01*
X152315700Y-52493802D01*
X152315698Y-52493803D01*
X152315695Y-52493806D01*
X152153806Y-52655695D01*
X152022476Y-52843252D01*
X152022475Y-52843254D01*
X151925718Y-53050750D01*
X151925714Y-53050761D01*
X151866457Y-53271910D01*
X151866456Y-53271918D01*
X151846502Y-53499998D01*
X143400000Y-53499998D01*
X143400000Y-53447339D01*
X143372741Y-53345606D01*
X143320080Y-53254394D01*
X143315686Y-53250000D01*
X144278872Y-53250000D01*
X144278872Y-53249999D01*
X144226269Y-53053682D01*
X144226265Y-53053673D01*
X144130134Y-52847517D01*
X143999657Y-52661179D01*
X143838820Y-52500342D01*
X143652482Y-52369865D01*
X143446328Y-52273734D01*
X143250000Y-52221127D01*
X143250000Y-53184314D01*
X143245606Y-53179920D01*
X143154394Y-53127259D01*
X143052661Y-53100000D01*
X142947339Y-53100000D01*
X142845606Y-53127259D01*
X142754394Y-53179920D01*
X142750000Y-53184314D01*
X142750000Y-52221127D01*
X142553671Y-52273734D01*
X142347517Y-52369865D01*
X142161179Y-52500342D01*
X142000342Y-52661179D01*
X141869865Y-52847517D01*
X141773734Y-53053673D01*
X141773730Y-53053682D01*
X141721127Y-53249999D01*
X140367671Y-53249999D01*
X140314284Y-53050757D01*
X140217523Y-52843251D01*
X140086198Y-52655700D01*
X139924300Y-52493802D01*
X139736749Y-52362477D01*
X139736745Y-52362475D01*
X139529249Y-52265718D01*
X139529238Y-52265714D01*
X139308089Y-52206457D01*
X139308081Y-52206456D01*
X139080002Y-52186502D01*
X139079998Y-52186502D01*
X138851918Y-52206456D01*
X138851910Y-52206457D01*
X138630761Y-52265714D01*
X138630750Y-52265718D01*
X138423254Y-52362475D01*
X138423252Y-52362476D01*
X138423251Y-52362477D01*
X138235700Y-52493802D01*
X138235698Y-52493803D01*
X138235695Y-52493806D01*
X138073806Y-52655695D01*
X137942476Y-52843252D01*
X137942475Y-52843254D01*
X137845718Y-53050750D01*
X137845714Y-53050761D01*
X137786457Y-53271910D01*
X137786456Y-53271918D01*
X137766502Y-53499998D01*
X130233498Y-53499998D01*
X130213543Y-53271913D01*
X130154284Y-53050757D01*
X130057523Y-52843251D01*
X129926198Y-52655700D01*
X129764300Y-52493802D01*
X129576749Y-52362477D01*
X129576745Y-52362475D01*
X129369249Y-52265718D01*
X129369238Y-52265714D01*
X129148089Y-52206457D01*
X129148081Y-52206456D01*
X128920002Y-52186502D01*
X128919998Y-52186502D01*
X128691918Y-52206456D01*
X128691910Y-52206457D01*
X128470761Y-52265714D01*
X128470750Y-52265718D01*
X128263254Y-52362475D01*
X128263252Y-52362476D01*
X128263251Y-52362477D01*
X128075700Y-52493802D01*
X128075698Y-52493803D01*
X128075695Y-52493806D01*
X127913806Y-52655695D01*
X127782476Y-52843252D01*
X127782475Y-52843254D01*
X127685718Y-53050750D01*
X127685714Y-53050761D01*
X127626457Y-53271910D01*
X127626456Y-53271918D01*
X127606502Y-53499998D01*
X100075500Y-53499998D01*
X100075500Y-48301345D01*
X117437500Y-48301345D01*
X117437500Y-50098654D01*
X117444011Y-50159202D01*
X117444011Y-50159204D01*
X117495111Y-50296204D01*
X117582739Y-50413261D01*
X117699796Y-50500889D01*
X117836799Y-50551989D01*
X117864050Y-50554918D01*
X117897345Y-50558499D01*
X117897362Y-50558500D01*
X119694638Y-50558500D01*
X119694654Y-50558499D01*
X119721692Y-50555591D01*
X119755201Y-50551989D01*
X119892204Y-50500889D01*
X120009261Y-50413261D01*
X120096889Y-50296204D01*
X120142138Y-50174887D01*
X120184009Y-50118956D01*
X120249474Y-50094539D01*
X120317746Y-50109391D01*
X120349545Y-50134236D01*
X120412760Y-50202906D01*
X120590424Y-50341189D01*
X120590425Y-50341189D01*
X120590427Y-50341191D01*
X120650314Y-50373600D01*
X120788426Y-50448342D01*
X121001365Y-50521444D01*
X121223431Y-50558500D01*
X121448569Y-50558500D01*
X121670635Y-50521444D01*
X121883574Y-50448342D01*
X122081576Y-50341189D01*
X122259240Y-50202906D01*
X122380594Y-50071082D01*
X122411715Y-50037276D01*
X122411715Y-50037275D01*
X122411722Y-50037268D01*
X122502193Y-49898790D01*
X122555338Y-49853437D01*
X122624569Y-49844013D01*
X122687905Y-49873515D01*
X122709804Y-49898787D01*
X122800278Y-50037268D01*
X122800283Y-50037273D01*
X122800284Y-50037276D01*
X122926968Y-50174889D01*
X122952760Y-50202906D01*
X123130424Y-50341189D01*
X123130425Y-50341189D01*
X123130427Y-50341191D01*
X123190314Y-50373600D01*
X123328426Y-50448342D01*
X123541365Y-50521444D01*
X123763431Y-50558500D01*
X123988569Y-50558500D01*
X124210635Y-50521444D01*
X124423574Y-50448342D01*
X124621576Y-50341189D01*
X124799240Y-50202906D01*
X124920594Y-50071082D01*
X124951715Y-50037276D01*
X124951715Y-50037275D01*
X124951722Y-50037268D01*
X125045749Y-49893347D01*
X125098894Y-49847994D01*
X125168125Y-49838570D01*
X125231461Y-49868072D01*
X125251130Y-49890048D01*
X125377890Y-50071078D01*
X125544917Y-50238105D01*
X125738421Y-50373600D01*
X125952507Y-50473429D01*
X125952516Y-50473433D01*
X126166000Y-50530634D01*
X126166000Y-49633012D01*
X126223007Y-49665925D01*
X126350174Y-49700000D01*
X126481826Y-49700000D01*
X126608993Y-49665925D01*
X126666000Y-49633012D01*
X126666000Y-50530633D01*
X126879483Y-50473433D01*
X126879492Y-50473429D01*
X127093578Y-50373600D01*
X127287082Y-50238105D01*
X127454105Y-50071082D01*
X127580868Y-49890048D01*
X127635445Y-49846423D01*
X127704944Y-49839231D01*
X127767298Y-49870753D01*
X127786251Y-49893350D01*
X127880276Y-50037265D01*
X127880284Y-50037276D01*
X128006968Y-50174889D01*
X128032760Y-50202906D01*
X128210424Y-50341189D01*
X128210425Y-50341189D01*
X128210427Y-50341191D01*
X128270314Y-50373600D01*
X128408426Y-50448342D01*
X128621365Y-50521444D01*
X128843431Y-50558500D01*
X129068569Y-50558500D01*
X129290635Y-50521444D01*
X129503574Y-50448342D01*
X129701576Y-50341189D01*
X129879240Y-50202906D01*
X130000594Y-50071082D01*
X130031715Y-50037276D01*
X130031715Y-50037275D01*
X130031722Y-50037268D01*
X130122193Y-49898790D01*
X130175338Y-49853437D01*
X130244569Y-49844013D01*
X130307905Y-49873515D01*
X130329804Y-49898787D01*
X130420278Y-50037268D01*
X130420283Y-50037273D01*
X130420284Y-50037276D01*
X130546968Y-50174889D01*
X130572760Y-50202906D01*
X130750424Y-50341189D01*
X130750425Y-50341189D01*
X130750427Y-50341191D01*
X130810314Y-50373600D01*
X130948426Y-50448342D01*
X131161365Y-50521444D01*
X131383431Y-50558500D01*
X131608569Y-50558500D01*
X131830635Y-50521444D01*
X132043574Y-50448342D01*
X132241576Y-50341189D01*
X132419240Y-50202906D01*
X132540594Y-50071082D01*
X132571715Y-50037276D01*
X132571715Y-50037275D01*
X132571722Y-50037268D01*
X132662193Y-49898790D01*
X132715338Y-49853437D01*
X132784569Y-49844013D01*
X132847905Y-49873515D01*
X132869804Y-49898787D01*
X132960278Y-50037268D01*
X132960283Y-50037273D01*
X132960284Y-50037276D01*
X133086968Y-50174889D01*
X133112760Y-50202906D01*
X133290424Y-50341189D01*
X133290425Y-50341189D01*
X133290427Y-50341191D01*
X133350314Y-50373600D01*
X133488426Y-50448342D01*
X133701365Y-50521444D01*
X133923431Y-50558500D01*
X134148569Y-50558500D01*
X134370635Y-50521444D01*
X134583574Y-50448342D01*
X134781576Y-50341189D01*
X134959240Y-50202906D01*
X135080594Y-50071082D01*
X135111715Y-50037276D01*
X135111715Y-50037275D01*
X135111722Y-50037268D01*
X135202193Y-49898790D01*
X135255338Y-49853437D01*
X135324569Y-49844013D01*
X135387905Y-49873515D01*
X135409804Y-49898787D01*
X135500278Y-50037268D01*
X135500283Y-50037273D01*
X135500284Y-50037276D01*
X135626968Y-50174889D01*
X135652760Y-50202906D01*
X135830424Y-50341189D01*
X135830425Y-50341189D01*
X135830427Y-50341191D01*
X135890314Y-50373600D01*
X136028426Y-50448342D01*
X136241365Y-50521444D01*
X136463431Y-50558500D01*
X136688569Y-50558500D01*
X136910635Y-50521444D01*
X137123574Y-50448342D01*
X137321576Y-50341189D01*
X137499240Y-50202906D01*
X137620594Y-50071082D01*
X137651715Y-50037276D01*
X137651715Y-50037275D01*
X137651722Y-50037268D01*
X137742193Y-49898790D01*
X137795338Y-49853437D01*
X137864569Y-49844013D01*
X137927905Y-49873515D01*
X137949804Y-49898787D01*
X138040278Y-50037268D01*
X138040283Y-50037273D01*
X138040284Y-50037276D01*
X138166968Y-50174889D01*
X138192760Y-50202906D01*
X138370424Y-50341189D01*
X138370425Y-50341189D01*
X138370427Y-50341191D01*
X138430314Y-50373600D01*
X138568426Y-50448342D01*
X138781365Y-50521444D01*
X139003431Y-50558500D01*
X139228569Y-50558500D01*
X139450635Y-50521444D01*
X139663574Y-50448342D01*
X139861576Y-50341189D01*
X140039240Y-50202906D01*
X140160594Y-50071082D01*
X140191715Y-50037276D01*
X140191715Y-50037275D01*
X140191722Y-50037268D01*
X140282193Y-49898790D01*
X140335338Y-49853437D01*
X140404569Y-49844013D01*
X140467905Y-49873515D01*
X140489804Y-49898787D01*
X140580278Y-50037268D01*
X140580283Y-50037273D01*
X140580284Y-50037276D01*
X140706968Y-50174889D01*
X140732760Y-50202906D01*
X140910424Y-50341189D01*
X140910425Y-50341189D01*
X140910427Y-50341191D01*
X140970314Y-50373600D01*
X141108426Y-50448342D01*
X141321365Y-50521444D01*
X141543431Y-50558500D01*
X141768569Y-50558500D01*
X141990635Y-50521444D01*
X142203574Y-50448342D01*
X142401576Y-50341189D01*
X142579240Y-50202906D01*
X142700594Y-50071082D01*
X142731715Y-50037276D01*
X142731717Y-50037273D01*
X142731722Y-50037268D01*
X142854860Y-49848791D01*
X142945296Y-49642616D01*
X143000564Y-49424368D01*
X143012309Y-49282635D01*
X143019156Y-49200005D01*
X143019156Y-49199994D01*
X143000565Y-48975640D01*
X143000563Y-48975628D01*
X142945296Y-48757385D01*
X142935071Y-48734075D01*
X142854860Y-48551209D01*
X142838706Y-48526484D01*
X142731723Y-48362734D01*
X142731715Y-48362723D01*
X142675212Y-48301345D01*
X144361500Y-48301345D01*
X144361500Y-50098654D01*
X144368011Y-50159202D01*
X144368011Y-50159204D01*
X144419111Y-50296204D01*
X144506739Y-50413261D01*
X144623796Y-50500889D01*
X144760799Y-50551989D01*
X144788050Y-50554918D01*
X144821345Y-50558499D01*
X144821362Y-50558500D01*
X146618638Y-50558500D01*
X146618654Y-50558499D01*
X146645692Y-50555591D01*
X146679201Y-50551989D01*
X146816204Y-50500889D01*
X146933261Y-50413261D01*
X147020889Y-50296204D01*
X147066138Y-50174887D01*
X147108009Y-50118956D01*
X147173474Y-50094539D01*
X147241746Y-50109391D01*
X147273545Y-50134236D01*
X147336760Y-50202906D01*
X147514424Y-50341189D01*
X147514425Y-50341189D01*
X147514427Y-50341191D01*
X147574314Y-50373600D01*
X147712426Y-50448342D01*
X147925365Y-50521444D01*
X148147431Y-50558500D01*
X148372569Y-50558500D01*
X148594635Y-50521444D01*
X148807574Y-50448342D01*
X149005576Y-50341189D01*
X149183240Y-50202906D01*
X149304594Y-50071082D01*
X149335715Y-50037276D01*
X149335715Y-50037275D01*
X149335722Y-50037268D01*
X149426193Y-49898790D01*
X149479338Y-49853437D01*
X149548569Y-49844013D01*
X149611905Y-49873515D01*
X149633804Y-49898787D01*
X149724278Y-50037268D01*
X149724283Y-50037273D01*
X149724284Y-50037276D01*
X149850968Y-50174889D01*
X149876760Y-50202906D01*
X150054424Y-50341189D01*
X150054425Y-50341189D01*
X150054427Y-50341191D01*
X150114314Y-50373600D01*
X150252426Y-50448342D01*
X150465365Y-50521444D01*
X150687431Y-50558500D01*
X150912569Y-50558500D01*
X151134635Y-50521444D01*
X151347574Y-50448342D01*
X151545576Y-50341189D01*
X151723240Y-50202906D01*
X151844594Y-50071082D01*
X151875715Y-50037276D01*
X151875715Y-50037275D01*
X151875722Y-50037268D01*
X151966193Y-49898790D01*
X152019338Y-49853437D01*
X152088569Y-49844013D01*
X152151905Y-49873515D01*
X152173804Y-49898787D01*
X152264278Y-50037268D01*
X152264283Y-50037273D01*
X152264284Y-50037276D01*
X152390968Y-50174889D01*
X152416760Y-50202906D01*
X152594424Y-50341189D01*
X152594425Y-50341189D01*
X152594427Y-50341191D01*
X152654314Y-50373600D01*
X152792426Y-50448342D01*
X153005365Y-50521444D01*
X153227431Y-50558500D01*
X153452569Y-50558500D01*
X153674635Y-50521444D01*
X153887574Y-50448342D01*
X154085576Y-50341189D01*
X154263240Y-50202906D01*
X154384594Y-50071082D01*
X154415715Y-50037276D01*
X154415715Y-50037275D01*
X154415722Y-50037268D01*
X154506193Y-49898790D01*
X154559338Y-49853437D01*
X154628569Y-49844013D01*
X154691905Y-49873515D01*
X154713804Y-49898787D01*
X154804278Y-50037268D01*
X154804283Y-50037273D01*
X154804284Y-50037276D01*
X154930968Y-50174889D01*
X154956760Y-50202906D01*
X155134424Y-50341189D01*
X155134425Y-50341189D01*
X155134427Y-50341191D01*
X155194314Y-50373600D01*
X155332426Y-50448342D01*
X155545365Y-50521444D01*
X155767431Y-50558500D01*
X155992569Y-50558500D01*
X156214635Y-50521444D01*
X156427574Y-50448342D01*
X156625576Y-50341189D01*
X156803240Y-50202906D01*
X156924594Y-50071082D01*
X156955715Y-50037276D01*
X156955715Y-50037275D01*
X156955722Y-50037268D01*
X157046193Y-49898790D01*
X157099338Y-49853437D01*
X157168569Y-49844013D01*
X157231905Y-49873515D01*
X157253804Y-49898787D01*
X157344278Y-50037268D01*
X157344283Y-50037273D01*
X157344284Y-50037276D01*
X157470968Y-50174889D01*
X157496760Y-50202906D01*
X157674424Y-50341189D01*
X157674425Y-50341189D01*
X157674427Y-50341191D01*
X157734314Y-50373600D01*
X157872426Y-50448342D01*
X158085365Y-50521444D01*
X158307431Y-50558500D01*
X158532569Y-50558500D01*
X158754635Y-50521444D01*
X158967574Y-50448342D01*
X159165576Y-50341189D01*
X159343240Y-50202906D01*
X159464594Y-50071082D01*
X159495715Y-50037276D01*
X159495715Y-50037275D01*
X159495722Y-50037268D01*
X159586193Y-49898790D01*
X159639338Y-49853437D01*
X159708569Y-49844013D01*
X159771905Y-49873515D01*
X159793804Y-49898787D01*
X159884278Y-50037268D01*
X159884283Y-50037273D01*
X159884284Y-50037276D01*
X160010968Y-50174889D01*
X160036760Y-50202906D01*
X160214424Y-50341189D01*
X160214425Y-50341189D01*
X160214427Y-50341191D01*
X160274314Y-50373600D01*
X160412426Y-50448342D01*
X160625365Y-50521444D01*
X160847431Y-50558500D01*
X161072569Y-50558500D01*
X161294635Y-50521444D01*
X161507574Y-50448342D01*
X161705576Y-50341189D01*
X161883240Y-50202906D01*
X162004594Y-50071082D01*
X162035715Y-50037276D01*
X162035715Y-50037275D01*
X162035722Y-50037268D01*
X162126193Y-49898790D01*
X162179338Y-49853437D01*
X162248569Y-49844013D01*
X162311905Y-49873515D01*
X162333804Y-49898787D01*
X162424278Y-50037268D01*
X162424283Y-50037273D01*
X162424284Y-50037276D01*
X162550968Y-50174889D01*
X162576760Y-50202906D01*
X162754424Y-50341189D01*
X162754425Y-50341189D01*
X162754427Y-50341191D01*
X162814314Y-50373600D01*
X162952426Y-50448342D01*
X163165365Y-50521444D01*
X163387431Y-50558500D01*
X163612569Y-50558500D01*
X163834635Y-50521444D01*
X164047574Y-50448342D01*
X164245576Y-50341189D01*
X164423240Y-50202906D01*
X164544594Y-50071082D01*
X164575715Y-50037276D01*
X164575717Y-50037273D01*
X164575722Y-50037268D01*
X164698860Y-49848791D01*
X164789296Y-49642616D01*
X164844564Y-49424368D01*
X164856309Y-49282635D01*
X164863156Y-49200005D01*
X164863156Y-49199994D01*
X164844565Y-48975640D01*
X164844563Y-48975628D01*
X164789296Y-48757385D01*
X164779071Y-48734075D01*
X164698860Y-48551209D01*
X164682706Y-48526484D01*
X164575723Y-48362734D01*
X164575715Y-48362723D01*
X164423243Y-48197097D01*
X164423238Y-48197092D01*
X164245577Y-48058812D01*
X164245572Y-48058808D01*
X164047580Y-47951661D01*
X164047577Y-47951659D01*
X164047574Y-47951658D01*
X164047571Y-47951657D01*
X164047569Y-47951656D01*
X163834637Y-47878556D01*
X163612569Y-47841500D01*
X163387431Y-47841500D01*
X163165362Y-47878556D01*
X162952430Y-47951656D01*
X162952419Y-47951661D01*
X162754427Y-48058808D01*
X162754422Y-48058812D01*
X162576761Y-48197092D01*
X162576756Y-48197097D01*
X162424284Y-48362723D01*
X162424276Y-48362734D01*
X162333808Y-48501206D01*
X162280662Y-48546562D01*
X162211431Y-48555986D01*
X162148095Y-48526484D01*
X162126192Y-48501206D01*
X162035723Y-48362734D01*
X162035715Y-48362723D01*
X161883243Y-48197097D01*
X161883238Y-48197092D01*
X161705577Y-48058812D01*
X161705572Y-48058808D01*
X161507580Y-47951661D01*
X161507577Y-47951659D01*
X161507574Y-47951658D01*
X161507571Y-47951657D01*
X161507569Y-47951656D01*
X161294637Y-47878556D01*
X161072569Y-47841500D01*
X160847431Y-47841500D01*
X160625362Y-47878556D01*
X160412430Y-47951656D01*
X160412419Y-47951661D01*
X160214427Y-48058808D01*
X160214422Y-48058812D01*
X160036761Y-48197092D01*
X160036756Y-48197097D01*
X159884284Y-48362723D01*
X159884276Y-48362734D01*
X159793808Y-48501206D01*
X159740662Y-48546562D01*
X159671431Y-48555986D01*
X159608095Y-48526484D01*
X159586192Y-48501206D01*
X159495723Y-48362734D01*
X159495715Y-48362723D01*
X159343243Y-48197097D01*
X159343238Y-48197092D01*
X159165577Y-48058812D01*
X159165572Y-48058808D01*
X158967580Y-47951661D01*
X158967577Y-47951659D01*
X158967574Y-47951658D01*
X158967571Y-47951657D01*
X158967569Y-47951656D01*
X158754637Y-47878556D01*
X158532569Y-47841500D01*
X158307431Y-47841500D01*
X158085362Y-47878556D01*
X157872430Y-47951656D01*
X157872419Y-47951661D01*
X157674427Y-48058808D01*
X157674422Y-48058812D01*
X157496761Y-48197092D01*
X157496756Y-48197097D01*
X157344284Y-48362723D01*
X157344276Y-48362734D01*
X157253808Y-48501206D01*
X157200662Y-48546562D01*
X157131431Y-48555986D01*
X157068095Y-48526484D01*
X157046192Y-48501206D01*
X156955723Y-48362734D01*
X156955715Y-48362723D01*
X156803243Y-48197097D01*
X156803238Y-48197092D01*
X156625577Y-48058812D01*
X156625572Y-48058808D01*
X156427580Y-47951661D01*
X156427577Y-47951659D01*
X156427574Y-47951658D01*
X156427571Y-47951657D01*
X156427569Y-47951656D01*
X156214637Y-47878556D01*
X155992569Y-47841500D01*
X155767431Y-47841500D01*
X155545362Y-47878556D01*
X155332430Y-47951656D01*
X155332419Y-47951661D01*
X155134427Y-48058808D01*
X155134422Y-48058812D01*
X154956761Y-48197092D01*
X154956756Y-48197097D01*
X154804284Y-48362723D01*
X154804276Y-48362734D01*
X154713808Y-48501206D01*
X154660662Y-48546562D01*
X154591431Y-48555986D01*
X154528095Y-48526484D01*
X154506192Y-48501206D01*
X154415723Y-48362734D01*
X154415715Y-48362723D01*
X154263243Y-48197097D01*
X154263238Y-48197092D01*
X154085577Y-48058812D01*
X154085572Y-48058808D01*
X153887580Y-47951661D01*
X153887577Y-47951659D01*
X153887574Y-47951658D01*
X153887571Y-47951657D01*
X153887569Y-47951656D01*
X153674637Y-47878556D01*
X153452569Y-47841500D01*
X153227431Y-47841500D01*
X153005362Y-47878556D01*
X152792430Y-47951656D01*
X152792419Y-47951661D01*
X152594427Y-48058808D01*
X152594422Y-48058812D01*
X152416761Y-48197092D01*
X152416756Y-48197097D01*
X152264284Y-48362723D01*
X152264276Y-48362734D01*
X152173808Y-48501206D01*
X152120662Y-48546562D01*
X152051431Y-48555986D01*
X151988095Y-48526484D01*
X151966192Y-48501206D01*
X151875723Y-48362734D01*
X151875715Y-48362723D01*
X151723243Y-48197097D01*
X151723238Y-48197092D01*
X151545577Y-48058812D01*
X151545572Y-48058808D01*
X151347580Y-47951661D01*
X151347577Y-47951659D01*
X151347574Y-47951658D01*
X151347571Y-47951657D01*
X151347569Y-47951656D01*
X151134637Y-47878556D01*
X150912569Y-47841500D01*
X150687431Y-47841500D01*
X150465362Y-47878556D01*
X150252430Y-47951656D01*
X150252419Y-47951661D01*
X150054427Y-48058808D01*
X150054422Y-48058812D01*
X149876761Y-48197092D01*
X149876756Y-48197097D01*
X149724284Y-48362723D01*
X149724276Y-48362734D01*
X149633808Y-48501206D01*
X149580662Y-48546562D01*
X149511431Y-48555986D01*
X149448095Y-48526484D01*
X149426192Y-48501206D01*
X149335723Y-48362734D01*
X149335715Y-48362723D01*
X149183243Y-48197097D01*
X149183238Y-48197092D01*
X149005577Y-48058812D01*
X149005572Y-48058808D01*
X148807580Y-47951661D01*
X148807577Y-47951659D01*
X148807574Y-47951658D01*
X148807571Y-47951657D01*
X148807569Y-47951656D01*
X148594637Y-47878556D01*
X148372569Y-47841500D01*
X148147431Y-47841500D01*
X147925362Y-47878556D01*
X147712430Y-47951656D01*
X147712419Y-47951661D01*
X147514427Y-48058808D01*
X147514422Y-48058812D01*
X147336761Y-48197092D01*
X147273548Y-48265760D01*
X147213661Y-48301750D01*
X147143823Y-48299649D01*
X147086207Y-48260124D01*
X147066138Y-48225110D01*
X147020889Y-48103796D01*
X146987214Y-48058812D01*
X146933261Y-47986739D01*
X146816204Y-47899111D01*
X146679203Y-47848011D01*
X146618654Y-47841500D01*
X146618638Y-47841500D01*
X144821362Y-47841500D01*
X144821345Y-47841500D01*
X144760797Y-47848011D01*
X144760795Y-47848011D01*
X144623795Y-47899111D01*
X144506739Y-47986739D01*
X144419111Y-48103795D01*
X144368011Y-48240795D01*
X144368011Y-48240797D01*
X144361500Y-48301345D01*
X142675212Y-48301345D01*
X142579243Y-48197097D01*
X142579238Y-48197092D01*
X142401577Y-48058812D01*
X142401572Y-48058808D01*
X142203580Y-47951661D01*
X142203577Y-47951659D01*
X142203574Y-47951658D01*
X142203571Y-47951657D01*
X142203569Y-47951656D01*
X141990637Y-47878556D01*
X141768569Y-47841500D01*
X141543431Y-47841500D01*
X141321362Y-47878556D01*
X141108430Y-47951656D01*
X141108419Y-47951661D01*
X140910427Y-48058808D01*
X140910422Y-48058812D01*
X140732761Y-48197092D01*
X140732756Y-48197097D01*
X140580284Y-48362723D01*
X140580276Y-48362734D01*
X140489808Y-48501206D01*
X140436662Y-48546562D01*
X140367431Y-48555986D01*
X140304095Y-48526484D01*
X140282192Y-48501206D01*
X140191723Y-48362734D01*
X140191715Y-48362723D01*
X140039243Y-48197097D01*
X140039238Y-48197092D01*
X139861577Y-48058812D01*
X139861572Y-48058808D01*
X139663580Y-47951661D01*
X139663577Y-47951659D01*
X139663574Y-47951658D01*
X139663571Y-47951657D01*
X139663569Y-47951656D01*
X139450637Y-47878556D01*
X139228569Y-47841500D01*
X139003431Y-47841500D01*
X138781362Y-47878556D01*
X138568430Y-47951656D01*
X138568419Y-47951661D01*
X138370427Y-48058808D01*
X138370422Y-48058812D01*
X138192761Y-48197092D01*
X138192756Y-48197097D01*
X138040284Y-48362723D01*
X138040276Y-48362734D01*
X137949808Y-48501206D01*
X137896662Y-48546562D01*
X137827431Y-48555986D01*
X137764095Y-48526484D01*
X137742192Y-48501206D01*
X137651723Y-48362734D01*
X137651715Y-48362723D01*
X137499243Y-48197097D01*
X137499238Y-48197092D01*
X137321577Y-48058812D01*
X137321572Y-48058808D01*
X137123580Y-47951661D01*
X137123577Y-47951659D01*
X137123574Y-47951658D01*
X137123571Y-47951657D01*
X137123569Y-47951656D01*
X136910637Y-47878556D01*
X136688569Y-47841500D01*
X136463431Y-47841500D01*
X136241362Y-47878556D01*
X136028430Y-47951656D01*
X136028419Y-47951661D01*
X135830427Y-48058808D01*
X135830422Y-48058812D01*
X135652761Y-48197092D01*
X135652756Y-48197097D01*
X135500284Y-48362723D01*
X135500276Y-48362734D01*
X135409808Y-48501206D01*
X135356662Y-48546562D01*
X135287431Y-48555986D01*
X135224095Y-48526484D01*
X135202192Y-48501206D01*
X135111723Y-48362734D01*
X135111715Y-48362723D01*
X134959243Y-48197097D01*
X134959238Y-48197092D01*
X134781577Y-48058812D01*
X134781572Y-48058808D01*
X134583580Y-47951661D01*
X134583577Y-47951659D01*
X134583574Y-47951658D01*
X134583571Y-47951657D01*
X134583569Y-47951656D01*
X134370637Y-47878556D01*
X134148569Y-47841500D01*
X133923431Y-47841500D01*
X133701362Y-47878556D01*
X133488430Y-47951656D01*
X133488419Y-47951661D01*
X133290427Y-48058808D01*
X133290422Y-48058812D01*
X133112761Y-48197092D01*
X133112756Y-48197097D01*
X132960284Y-48362723D01*
X132960276Y-48362734D01*
X132869808Y-48501206D01*
X132816662Y-48546562D01*
X132747431Y-48555986D01*
X132684095Y-48526484D01*
X132662192Y-48501206D01*
X132571723Y-48362734D01*
X132571715Y-48362723D01*
X132419243Y-48197097D01*
X132419238Y-48197092D01*
X132241577Y-48058812D01*
X132241572Y-48058808D01*
X132043580Y-47951661D01*
X132043577Y-47951659D01*
X132043574Y-47951658D01*
X132043571Y-47951657D01*
X132043569Y-47951656D01*
X131830637Y-47878556D01*
X131608569Y-47841500D01*
X131383431Y-47841500D01*
X131161362Y-47878556D01*
X130948430Y-47951656D01*
X130948419Y-47951661D01*
X130750427Y-48058808D01*
X130750422Y-48058812D01*
X130572761Y-48197092D01*
X130572756Y-48197097D01*
X130420284Y-48362723D01*
X130420276Y-48362734D01*
X130329808Y-48501206D01*
X130276662Y-48546562D01*
X130207431Y-48555986D01*
X130144095Y-48526484D01*
X130122192Y-48501206D01*
X130031723Y-48362734D01*
X130031715Y-48362723D01*
X129879243Y-48197097D01*
X129879238Y-48197092D01*
X129701577Y-48058812D01*
X129701572Y-48058808D01*
X129503580Y-47951661D01*
X129503577Y-47951659D01*
X129503574Y-47951658D01*
X129503571Y-47951657D01*
X129503569Y-47951656D01*
X129290637Y-47878556D01*
X129068569Y-47841500D01*
X128843431Y-47841500D01*
X128621362Y-47878556D01*
X128408430Y-47951656D01*
X128408419Y-47951661D01*
X128210427Y-48058808D01*
X128210422Y-48058812D01*
X128032761Y-48197092D01*
X128032756Y-48197097D01*
X127880284Y-48362723D01*
X127880276Y-48362734D01*
X127786251Y-48506650D01*
X127733105Y-48552007D01*
X127663873Y-48561430D01*
X127600538Y-48531928D01*
X127580868Y-48509951D01*
X127454113Y-48328926D01*
X127454108Y-48328920D01*
X127287082Y-48161894D01*
X127093578Y-48026399D01*
X126879492Y-47926570D01*
X126879486Y-47926567D01*
X126666000Y-47869364D01*
X126666000Y-48766988D01*
X126608993Y-48734075D01*
X126481826Y-48700000D01*
X126350174Y-48700000D01*
X126223007Y-48734075D01*
X126166000Y-48766988D01*
X126166000Y-47869364D01*
X126165999Y-47869364D01*
X125952513Y-47926567D01*
X125952507Y-47926570D01*
X125738422Y-48026399D01*
X125738420Y-48026400D01*
X125544926Y-48161886D01*
X125544920Y-48161891D01*
X125377891Y-48328920D01*
X125377890Y-48328922D01*
X125251131Y-48509952D01*
X125196554Y-48553577D01*
X125127055Y-48560769D01*
X125064701Y-48529247D01*
X125045752Y-48506656D01*
X124951722Y-48362732D01*
X124951715Y-48362725D01*
X124951715Y-48362723D01*
X124799243Y-48197097D01*
X124799238Y-48197092D01*
X124621577Y-48058812D01*
X124621572Y-48058808D01*
X124423580Y-47951661D01*
X124423577Y-47951659D01*
X124423574Y-47951658D01*
X124423571Y-47951657D01*
X124423569Y-47951656D01*
X124210637Y-47878556D01*
X123988569Y-47841500D01*
X123763431Y-47841500D01*
X123541362Y-47878556D01*
X123328430Y-47951656D01*
X123328419Y-47951661D01*
X123130427Y-48058808D01*
X123130422Y-48058812D01*
X122952761Y-48197092D01*
X122952756Y-48197097D01*
X122800284Y-48362723D01*
X122800276Y-48362734D01*
X122709808Y-48501206D01*
X122656662Y-48546562D01*
X122587431Y-48555986D01*
X122524095Y-48526484D01*
X122502192Y-48501206D01*
X122411723Y-48362734D01*
X122411715Y-48362723D01*
X122259243Y-48197097D01*
X122259238Y-48197092D01*
X122081577Y-48058812D01*
X122081572Y-48058808D01*
X121883580Y-47951661D01*
X121883577Y-47951659D01*
X121883574Y-47951658D01*
X121883571Y-47951657D01*
X121883569Y-47951656D01*
X121670637Y-47878556D01*
X121448569Y-47841500D01*
X121223431Y-47841500D01*
X121001362Y-47878556D01*
X120788430Y-47951656D01*
X120788419Y-47951661D01*
X120590427Y-48058808D01*
X120590422Y-48058812D01*
X120412761Y-48197092D01*
X120349548Y-48265760D01*
X120289661Y-48301750D01*
X120219823Y-48299649D01*
X120162207Y-48260124D01*
X120142138Y-48225110D01*
X120096889Y-48103796D01*
X120063214Y-48058812D01*
X120009261Y-47986739D01*
X119892204Y-47899111D01*
X119755203Y-47848011D01*
X119694654Y-47841500D01*
X119694638Y-47841500D01*
X117897362Y-47841500D01*
X117897345Y-47841500D01*
X117836797Y-47848011D01*
X117836795Y-47848011D01*
X117699795Y-47899111D01*
X117582739Y-47986739D01*
X117495111Y-48103795D01*
X117444011Y-48240795D01*
X117444011Y-48240797D01*
X117437500Y-48301345D01*
X100075500Y-48301345D01*
X100075500Y-47428092D01*
X100076097Y-47415938D01*
X100087494Y-47300222D01*
X100092234Y-47276389D01*
X100124216Y-47170959D01*
X100133508Y-47148526D01*
X100185442Y-47051365D01*
X100198938Y-47031166D01*
X100268827Y-46946006D01*
X100286006Y-46928827D01*
X100371166Y-46858938D01*
X100391365Y-46845442D01*
X100488526Y-46793508D01*
X100510959Y-46784216D01*
X100616389Y-46752234D01*
X100640220Y-46747494D01*
X100755939Y-46736097D01*
X100768093Y-46735500D01*
X100786531Y-46735500D01*
X163417365Y-46735500D01*
X163484404Y-46755185D01*
G37*
%TD.AperFunction*%
%TD*%
M02*
