%TF.GenerationSoftware,KiCad,Pcbnew,8.0.8*%
%TF.CreationDate,2025-03-12T17:16:12-06:00*%
%TF.ProjectId,Final_Project_Space_PCB,46696e61-6c5f-4507-926f-6a6563745f53,rev?*%
%TF.SameCoordinates,Original*%
%TF.FileFunction,Copper,L1,Top*%
%TF.FilePolarity,Positive*%
%FSLAX46Y46*%
G04 Gerber Fmt 4.6, Leading zero omitted, Abs format (unit mm)*
G04 Created by KiCad (PCBNEW 8.0.8) date 2025-03-12 17:16:12*
%MOMM*%
%LPD*%
G01*
G04 APERTURE LIST*
G04 Aperture macros list*
%AMRoundRect*
0 Rectangle with rounded corners*
0 $1 Rounding radius*
0 $2 $3 $4 $5 $6 $7 $8 $9 X,Y pos of 4 corners*
0 Add a 4 corners polygon primitive as box body*
4,1,4,$2,$3,$4,$5,$6,$7,$8,$9,$2,$3,0*
0 Add four circle primitives for the rounded corners*
1,1,$1+$1,$2,$3*
1,1,$1+$1,$4,$5*
1,1,$1+$1,$6,$7*
1,1,$1+$1,$8,$9*
0 Add four rect primitives between the rounded corners*
20,1,$1+$1,$2,$3,$4,$5,0*
20,1,$1+$1,$4,$5,$6,$7,0*
20,1,$1+$1,$6,$7,$8,$9,0*
20,1,$1+$1,$8,$9,$2,$3,0*%
G04 Aperture macros list end*
%TA.AperFunction,ComponentPad*%
%ADD10R,1.800000X1.800000*%
%TD*%
%TA.AperFunction,ComponentPad*%
%ADD11C,1.800000*%
%TD*%
%TA.AperFunction,ComponentPad*%
%ADD12C,1.400000*%
%TD*%
%TA.AperFunction,ComponentPad*%
%ADD13O,1.400000X1.400000*%
%TD*%
%TA.AperFunction,ComponentPad*%
%ADD14R,1.700000X1.700000*%
%TD*%
%TA.AperFunction,ComponentPad*%
%ADD15O,1.700000X1.700000*%
%TD*%
%TA.AperFunction,ComponentPad*%
%ADD16C,1.440000*%
%TD*%
%TA.AperFunction,ComponentPad*%
%ADD17RoundRect,0.250000X-0.725000X0.600000X-0.725000X-0.600000X0.725000X-0.600000X0.725000X0.600000X0*%
%TD*%
%TA.AperFunction,ComponentPad*%
%ADD18O,1.950000X1.700000*%
%TD*%
%TA.AperFunction,ViaPad*%
%ADD19C,0.600000*%
%TD*%
%TA.AperFunction,Conductor*%
%ADD20C,0.600000*%
%TD*%
G04 APERTURE END LIST*
D10*
%TO.P,D3,1,K*%
%TO.N,GND*%
X116225000Y-72500000D03*
D11*
%TO.P,D3,2,A*%
%TO.N,Net-(D3-A)*%
X118765000Y-72500000D03*
%TD*%
D12*
%TO.P,R4,1*%
%TO.N,/\u002AD9*%
X121690000Y-77000000D03*
D13*
%TO.P,R4,2*%
%TO.N,Net-(D4-A)*%
X129310000Y-77000000D03*
%TD*%
D10*
%TO.P,D4,1,K*%
%TO.N,GND*%
X123225000Y-72500000D03*
D11*
%TO.P,D4,2,A*%
%TO.N,Net-(D4-A)*%
X125765000Y-72500000D03*
%TD*%
D14*
%TO.P,J4,1,Pin_1*%
%TO.N,GND*%
X139000000Y-71500000D03*
D15*
%TO.P,J4,2,Pin_2*%
%TO.N,Net-(J4-Pin_2)*%
X136460000Y-71500000D03*
%TD*%
D14*
%TO.P,J9,1,Pin_1*%
%TO.N,unconnected-(J9-Pin_1-Pad1)*%
X119000000Y-111500000D03*
D15*
%TO.P,J9,2,Pin_2*%
%TO.N,+5V*%
X119000000Y-108960000D03*
%TO.P,J9,3,Pin_3*%
%TO.N,/A3*%
X119000000Y-106420000D03*
%TO.P,J9,4,Pin_4*%
%TO.N,GND*%
X119000000Y-103880000D03*
%TD*%
D14*
%TO.P,J6,1,Pin_1*%
%TO.N,+5V*%
X125460000Y-112000000D03*
D15*
%TO.P,J6,2,Pin_2*%
%TO.N,unconnected-(J6-Pin_2-Pad2)*%
X128000000Y-112000000D03*
%TO.P,J6,3,Pin_3*%
%TO.N,GND*%
X130540000Y-112000000D03*
%TO.P,J6,4,Pin_4*%
%TO.N,/A5*%
X133080000Y-112000000D03*
%TO.P,J6,5,Pin_5*%
%TO.N,unconnected-(J6-Pin_5-Pad5)*%
X135620000Y-112000000D03*
%TO.P,J6,6,Pin_6*%
%TO.N,/A4*%
X138160000Y-112000000D03*
%TO.P,J6,7,Pin_7*%
%TO.N,unconnected-(J6-Pin_7-Pad7)*%
X140700000Y-112000000D03*
%TD*%
D12*
%TO.P,R1,1*%
%TO.N,/D12*%
X101690000Y-77000000D03*
D13*
%TO.P,R1,2*%
%TO.N,Net-(D1-A)*%
X109310000Y-77000000D03*
%TD*%
D16*
%TO.P,RV1,1,1*%
%TO.N,+5V*%
X109000000Y-91000000D03*
%TO.P,RV1,2,2*%
%TO.N,/A2*%
X106460000Y-88460000D03*
%TO.P,RV1,3,3*%
%TO.N,GND*%
X103920000Y-91000000D03*
%TD*%
D10*
%TO.P,D1,1,K*%
%TO.N,GND*%
X102225000Y-72500000D03*
D11*
%TO.P,D1,2,A*%
%TO.N,Net-(D1-A)*%
X104765000Y-72500000D03*
%TD*%
D14*
%TO.P,J3,1,Pin_1*%
%TO.N,GND*%
X145500000Y-71500000D03*
D15*
%TO.P,J3,2,Pin_2*%
%TO.N,Net-(J3-Pin_2)*%
X142960000Y-71500000D03*
%TD*%
D12*
%TO.P,R6,1*%
%TO.N,/D7*%
X118190000Y-80000000D03*
D13*
%TO.P,R6,2*%
%TO.N,Net-(J4-Pin_2)*%
X125810000Y-80000000D03*
%TD*%
D14*
%TO.P,J7,1,Pin_1*%
%TO.N,+5V*%
X132340000Y-88000000D03*
D15*
%TO.P,J7,2,Pin_2*%
%TO.N,GND*%
X134880000Y-88000000D03*
%TO.P,J7,3,Pin_3*%
%TO.N,/\u002AD3{slash}SCL*%
X137420000Y-88000000D03*
%TO.P,J7,4,Pin_4*%
%TO.N,/D2{slash}SDA*%
X139960000Y-88000000D03*
%TO.P,J7,5,Pin_5*%
%TO.N,unconnected-(J7-Pin_5-Pad5)*%
X142500000Y-88000000D03*
%TO.P,J7,6,Pin_6*%
%TO.N,unconnected-(J7-Pin_6-Pad6)*%
X145040000Y-88000000D03*
%TD*%
D12*
%TO.P,R3,1*%
%TO.N,/\u002AD10*%
X111690000Y-77000000D03*
D13*
%TO.P,R3,2*%
%TO.N,Net-(D3-A)*%
X119310000Y-77000000D03*
%TD*%
D12*
%TO.P,R5,1*%
%TO.N,/D8*%
X128690000Y-80000000D03*
D13*
%TO.P,R5,2*%
%TO.N,Net-(J3-Pin_2)*%
X136310000Y-80000000D03*
%TD*%
D10*
%TO.P,D2,1,K*%
%TO.N,GND*%
X109225000Y-72500000D03*
D11*
%TO.P,D2,2,A*%
%TO.N,Net-(D2-A)*%
X111765000Y-72500000D03*
%TD*%
D14*
%TO.P,J5,1,Pin_1*%
%TO.N,+5V*%
X126420000Y-93500000D03*
D15*
%TO.P,J5,2,Pin_2*%
%TO.N,unconnected-(J5-Pin_2-Pad2)*%
X128960000Y-93500000D03*
%TO.P,J5,3,Pin_3*%
%TO.N,GND*%
X131500000Y-93500000D03*
%TO.P,J5,4,Pin_4*%
%TO.N,unconnected-(J5-Pin_4-Pad4)*%
X134040000Y-93500000D03*
%TO.P,J5,5,Pin_5*%
%TO.N,/D14{slash}MISO*%
X136580000Y-93500000D03*
%TO.P,J5,6,Pin_6*%
%TO.N,/D16{slash}MOSI*%
X139120000Y-93500000D03*
%TO.P,J5,7,Pin_7*%
%TO.N,unconnected-(J5-Pin_7-Pad7)*%
X141660000Y-93500000D03*
%TD*%
D14*
%TO.P,J10,1,Pin_1*%
%TO.N,unconnected-(J10-Pin_1-Pad1)*%
X106000000Y-111500000D03*
D15*
%TO.P,J10,2,Pin_2*%
%TO.N,unconnected-(J10-Pin_2-Pad2)*%
X106000000Y-108960000D03*
%TO.P,J10,3,Pin_3*%
%TO.N,unconnected-(J10-Pin_3-Pad3)*%
X106000000Y-106420000D03*
%TO.P,J10,4,Pin_4*%
%TO.N,unconnected-(J10-Pin_4-Pad4)*%
X106000000Y-103880000D03*
%TD*%
D17*
%TO.P,J8,1,Pin_1*%
%TO.N,GND*%
X116500000Y-88500000D03*
D18*
%TO.P,J8,2,Pin_2*%
%TO.N,/\u002AD6*%
X116500000Y-91000000D03*
%TO.P,J8,3,Pin_3*%
%TO.N,+5V*%
X116500000Y-93500000D03*
%TD*%
D12*
%TO.P,R2,1*%
%TO.N,/\u002AD11*%
X106190000Y-80000000D03*
D13*
%TO.P,R2,2*%
%TO.N,Net-(D2-A)*%
X113810000Y-80000000D03*
%TD*%
D14*
%TO.P,J1,1,Pin_1*%
%TO.N,/\u002AD13*%
X103810000Y-98730000D03*
D15*
%TO.P,J1,2,Pin_2*%
%TO.N,+3V3*%
X106350000Y-98730000D03*
%TO.P,J1,3,Pin_3*%
%TO.N,/AREF*%
X108890000Y-98730000D03*
%TO.P,J1,4,Pin_4*%
%TO.N,/A0*%
X111430000Y-98730000D03*
%TO.P,J1,5,Pin_5*%
%TO.N,/A1*%
X113970000Y-98730000D03*
%TO.P,J1,6,Pin_6*%
%TO.N,/A2*%
X116510000Y-98730000D03*
%TO.P,J1,7,Pin_7*%
%TO.N,/A3*%
X119050000Y-98730000D03*
%TO.P,J1,8,Pin_8*%
%TO.N,/A4*%
X121590000Y-98730000D03*
%TO.P,J1,9,Pin_9*%
%TO.N,/A5*%
X124130000Y-98730000D03*
%TO.P,J1,10,Pin_10*%
%TO.N,unconnected-(J1-Pin_10-Pad10)*%
X126670000Y-98730000D03*
%TO.P,J1,11,Pin_11*%
%TO.N,unconnected-(J1-Pin_11-Pad11)*%
X129210000Y-98730000D03*
%TO.P,J1,12,Pin_12*%
%TO.N,+5V*%
X131750000Y-98730000D03*
%TO.P,J1,13,Pin_13*%
%TO.N,/~{RESET}*%
X134290000Y-98730000D03*
%TO.P,J1,14,Pin_14*%
%TO.N,GND*%
X136830000Y-98730000D03*
%TO.P,J1,15,Pin_15*%
%TO.N,VCC*%
X139370000Y-98730000D03*
%TO.P,J1,16,Pin_16*%
%TO.N,/D14{slash}MISO*%
X141910000Y-98730000D03*
%TO.P,J1,17,Pin_17*%
%TO.N,/D15{slash}SCK*%
X144450000Y-98730000D03*
%TD*%
D14*
%TO.P,J2,1,Pin_1*%
%TO.N,/D12*%
X103810000Y-83490000D03*
D15*
%TO.P,J2,2,Pin_2*%
%TO.N,/\u002AD11*%
X106350000Y-83490000D03*
%TO.P,J2,3,Pin_3*%
%TO.N,/\u002AD10*%
X108890000Y-83490000D03*
%TO.P,J2,4,Pin_4*%
%TO.N,/\u002AD9*%
X111430000Y-83490000D03*
%TO.P,J2,5,Pin_5*%
%TO.N,/D8*%
X113970000Y-83490000D03*
%TO.P,J2,6,Pin_6*%
%TO.N,/D7*%
X116510000Y-83490000D03*
%TO.P,J2,7,Pin_7*%
%TO.N,/\u002AD6*%
X119050000Y-83490000D03*
%TO.P,J2,8,Pin_8*%
%TO.N,/\u002AD5*%
X121590000Y-83490000D03*
%TO.P,J2,9,Pin_9*%
%TO.N,/D4*%
X124130000Y-83490000D03*
%TO.P,J2,10,Pin_10*%
%TO.N,/\u002AD3{slash}SCL*%
X126670000Y-83490000D03*
%TO.P,J2,11,Pin_11*%
%TO.N,/D2{slash}SDA*%
X129210000Y-83490000D03*
%TO.P,J2,12,Pin_12*%
%TO.N,GND*%
X131750000Y-83490000D03*
%TO.P,J2,13,Pin_13*%
%TO.N,/~{RESET}*%
X134290000Y-83490000D03*
%TO.P,J2,14,Pin_14*%
%TO.N,/D0{slash}RX*%
X136830000Y-83490000D03*
%TO.P,J2,15,Pin_15*%
%TO.N,/D1{slash}TX*%
X139370000Y-83490000D03*
%TO.P,J2,16,Pin_16*%
%TO.N,/D17{slash}SS*%
X141910000Y-83490000D03*
%TO.P,J2,17,Pin_17*%
%TO.N,/D16{slash}MOSI*%
X144450000Y-83490000D03*
%TD*%
D19*
%TO.N,/\u002AD9*%
X114500000Y-76000000D03*
X123000000Y-76000000D03*
%TO.N,/D8*%
X123500000Y-78500000D03*
X130500000Y-79500000D03*
%TO.N,+5V*%
X127500000Y-103000000D03*
X124000000Y-106500000D03*
X121540000Y-108960000D03*
%TD*%
D20*
%TO.N,/D14{slash}MISO*%
X136580000Y-93500000D02*
X141810000Y-98730000D01*
X141810000Y-98730000D02*
X141910000Y-98730000D01*
%TO.N,/D12*%
X103810000Y-83490000D02*
X103810000Y-79120000D01*
X103810000Y-79120000D02*
X101690000Y-77000000D01*
%TO.N,/\u002AD11*%
X106350000Y-80160000D02*
X106190000Y-80000000D01*
X106350000Y-83490000D02*
X106350000Y-80160000D01*
%TO.N,/\u002AD10*%
X108890000Y-79800000D02*
X111690000Y-77000000D01*
X108890000Y-83490000D02*
X108890000Y-79800000D01*
%TO.N,/\u002AD9*%
X113500000Y-78000000D02*
X114500000Y-77000000D01*
X111430000Y-80070000D02*
X113500000Y-78000000D01*
X114500000Y-77000000D02*
X114500000Y-76000000D01*
X122000000Y-77000000D02*
X121690000Y-77000000D01*
X111430000Y-83490000D02*
X111430000Y-80070000D01*
X123000000Y-76000000D02*
X122000000Y-77000000D01*
%TO.N,/D8*%
X117000000Y-78500000D02*
X123500000Y-78500000D01*
X113970000Y-83490000D02*
X115010000Y-82450000D01*
X128690000Y-80000000D02*
X130000000Y-80000000D01*
X115010000Y-80490000D02*
X117000000Y-78500000D01*
X115010000Y-82450000D02*
X115010000Y-80490000D01*
X130000000Y-80000000D02*
X130500000Y-79500000D01*
%TO.N,/D7*%
X116510000Y-81680000D02*
X118190000Y-80000000D01*
X116510000Y-83490000D02*
X116510000Y-81680000D01*
%TO.N,/\u002AD6*%
X117500000Y-91000000D02*
X116500000Y-91000000D01*
X119050000Y-83490000D02*
X119050000Y-89450000D01*
X119050000Y-89450000D02*
X117500000Y-91000000D01*
%TO.N,/\u002AD3{slash}SCL*%
X126670000Y-85030000D02*
X127640000Y-86000000D01*
X127640000Y-86000000D02*
X135420000Y-86000000D01*
X126670000Y-83490000D02*
X126670000Y-85030000D01*
X135420000Y-86000000D02*
X137420000Y-88000000D01*
%TO.N,+5V*%
X119000000Y-93500000D02*
X122000000Y-93500000D01*
X125460000Y-107960000D02*
X125460000Y-112000000D01*
X127500000Y-88000000D02*
X132340000Y-88000000D01*
X117000000Y-95500000D02*
X119000000Y-93500000D01*
X119000000Y-108960000D02*
X121540000Y-108960000D01*
X123740000Y-95240000D02*
X128260000Y-95240000D01*
X119000000Y-93500000D02*
X116500000Y-93500000D01*
X131750000Y-98730000D02*
X127500000Y-102980000D01*
X126420000Y-93500000D02*
X126520000Y-93500000D01*
X122000000Y-93500000D02*
X123740000Y-95240000D01*
X125460000Y-107960000D02*
X124000000Y-106500000D01*
X131750000Y-98730000D02*
X128260000Y-95240000D01*
X122000000Y-93500000D02*
X127500000Y-88000000D01*
X126520000Y-93500000D02*
X128260000Y-95240000D01*
X109000000Y-91000000D02*
X113500000Y-95500000D01*
X113500000Y-95500000D02*
X117000000Y-95500000D01*
X127500000Y-102980000D02*
X127500000Y-103000000D01*
%TO.N,/A5*%
X124130000Y-103050000D02*
X133080000Y-112000000D01*
X124130000Y-98730000D02*
X124130000Y-103050000D01*
%TO.N,/A4*%
X121590000Y-98730000D02*
X121590000Y-104090000D01*
X122500000Y-105000000D02*
X122500000Y-111500000D01*
X136660000Y-113500000D02*
X138160000Y-112000000D01*
X121590000Y-104090000D02*
X122500000Y-105000000D01*
X122500000Y-111500000D02*
X124500000Y-113500000D01*
X124500000Y-113500000D02*
X136660000Y-113500000D01*
%TO.N,Net-(D1-A)*%
X104765000Y-75265000D02*
X104765000Y-72500000D01*
X106500000Y-77000000D02*
X104765000Y-75265000D01*
X109310000Y-77000000D02*
X106500000Y-77000000D01*
%TO.N,/A2*%
X116510000Y-97510000D02*
X116000000Y-97000000D01*
X112500000Y-97000000D02*
X106460000Y-90960000D01*
X106460000Y-90960000D02*
X106460000Y-88460000D01*
X116000000Y-97000000D02*
X112500000Y-97000000D01*
X116510000Y-98730000D02*
X116510000Y-97510000D01*
%TO.N,/D2{slash}SDA*%
X129210000Y-83490000D02*
X130720000Y-85000000D01*
X136960000Y-85000000D02*
X139960000Y-88000000D01*
X130720000Y-85000000D02*
X136960000Y-85000000D01*
%TO.N,/D16{slash}MOSI*%
X142620000Y-90000000D02*
X139120000Y-93500000D01*
X147460000Y-86500000D02*
X147500000Y-86500000D01*
X147500000Y-89000000D02*
X146500000Y-90000000D01*
X144450000Y-83490000D02*
X147460000Y-86500000D01*
X147500000Y-86500000D02*
X147500000Y-89000000D01*
X146500000Y-90000000D02*
X142620000Y-90000000D01*
%TO.N,Net-(D2-A)*%
X113810000Y-80000000D02*
X115500000Y-78310000D01*
X115500000Y-78310000D02*
X115500000Y-75868629D01*
X115500000Y-75868629D02*
X112131371Y-72500000D01*
X112131371Y-72500000D02*
X111765000Y-72500000D01*
%TO.N,Net-(D3-A)*%
X119310000Y-73045000D02*
X118765000Y-72500000D01*
X119310000Y-77000000D02*
X119310000Y-73045000D01*
%TO.N,Net-(D4-A)*%
X129310000Y-77000000D02*
X128000000Y-77000000D01*
X128000000Y-77000000D02*
X125765000Y-74765000D01*
X125765000Y-74765000D02*
X125765000Y-72500000D01*
%TO.N,Net-(J3-Pin_2)*%
X136500000Y-80000000D02*
X142960000Y-73540000D01*
X136310000Y-80000000D02*
X136500000Y-80000000D01*
X142960000Y-73540000D02*
X142960000Y-71500000D01*
%TO.N,Net-(J4-Pin_2)*%
X130510000Y-77450000D02*
X136460000Y-71500000D01*
X127610000Y-78200000D02*
X129807057Y-78200000D01*
X129807057Y-78200000D02*
X130510000Y-77497057D01*
X125810000Y-80000000D02*
X127610000Y-78200000D01*
X130510000Y-77497057D02*
X130510000Y-77450000D01*
X136460000Y-71500000D02*
X136540000Y-71500000D01*
%TO.N,/A3*%
X117000000Y-104500000D02*
X116500000Y-104000000D01*
X117080000Y-104500000D02*
X119000000Y-106420000D01*
X117080000Y-104500000D02*
X117000000Y-104500000D01*
X119050000Y-98730000D02*
X116500000Y-101280000D01*
X116500000Y-104000000D02*
X116500000Y-101280000D01*
%TD*%
M02*
