%TF.GenerationSoftware,KiCad,Pcbnew,8.0.8*%
%TF.CreationDate,2025-03-12T17:16:12-06:00*%
%TF.ProjectId,Final_Project_Space_PCB,46696e61-6c5f-4507-926f-6a6563745f53,rev?*%
%TF.SameCoordinates,Original*%
%TF.FileFunction,Soldermask,Top*%
%TF.FilePolarity,Negative*%
%FSLAX46Y46*%
G04 Gerber Fmt 4.6, Leading zero omitted, Abs format (unit mm)*
G04 Created by KiCad (PCBNEW 8.0.8) date 2025-03-12 17:16:12*
%MOMM*%
%LPD*%
G01*
G04 APERTURE LIST*
G04 Aperture macros list*
%AMRoundRect*
0 Rectangle with rounded corners*
0 $1 Rounding radius*
0 $2 $3 $4 $5 $6 $7 $8 $9 X,Y pos of 4 corners*
0 Add a 4 corners polygon primitive as box body*
4,1,4,$2,$3,$4,$5,$6,$7,$8,$9,$2,$3,0*
0 Add four circle primitives for the rounded corners*
1,1,$1+$1,$2,$3*
1,1,$1+$1,$4,$5*
1,1,$1+$1,$6,$7*
1,1,$1+$1,$8,$9*
0 Add four rect primitives between the rounded corners*
20,1,$1+$1,$2,$3,$4,$5,0*
20,1,$1+$1,$4,$5,$6,$7,0*
20,1,$1+$1,$6,$7,$8,$9,0*
20,1,$1+$1,$8,$9,$2,$3,0*%
G04 Aperture macros list end*
%ADD10R,1.800000X1.800000*%
%ADD11C,1.800000*%
%ADD12C,1.400000*%
%ADD13O,1.400000X1.400000*%
%ADD14C,1.200000*%
%ADD15R,1.700000X1.700000*%
%ADD16O,1.700000X1.700000*%
%ADD17C,1.440000*%
%ADD18RoundRect,0.250000X-0.725000X0.600000X-0.725000X-0.600000X0.725000X-0.600000X0.725000X0.600000X0*%
%ADD19O,1.950000X1.700000*%
G04 APERTURE END LIST*
D10*
%TO.C,D3*%
X116225000Y-72500000D03*
D11*
X118765000Y-72500000D03*
%TD*%
D12*
%TO.C,R4*%
X121690000Y-77000000D03*
D13*
X129310000Y-77000000D03*
%TD*%
D10*
%TO.C,D4*%
X123225000Y-72500000D03*
D11*
X125765000Y-72500000D03*
%TD*%
D14*
%TO.C,MH2*%
X101270000Y-83490000D03*
%TD*%
D15*
%TO.C,J4*%
X139000000Y-71500000D03*
D16*
X136460000Y-71500000D03*
%TD*%
D15*
%TO.C,J9*%
X119000000Y-111500000D03*
D16*
X119000000Y-108960000D03*
X119000000Y-106420000D03*
X119000000Y-103880000D03*
%TD*%
D15*
%TO.C,J6*%
X125460000Y-112000000D03*
D16*
X128000000Y-112000000D03*
X130540000Y-112000000D03*
X133080000Y-112000000D03*
X135620000Y-112000000D03*
X138160000Y-112000000D03*
X140700000Y-112000000D03*
%TD*%
D12*
%TO.C,R1*%
X101690000Y-77000000D03*
D13*
X109310000Y-77000000D03*
%TD*%
D17*
%TO.C,RV1*%
X109000000Y-91000000D03*
X106460000Y-88460000D03*
X103920000Y-91000000D03*
%TD*%
D10*
%TO.C,D1*%
X102225000Y-72500000D03*
D11*
X104765000Y-72500000D03*
%TD*%
D15*
%TO.C,J3*%
X145500000Y-71500000D03*
D16*
X142960000Y-71500000D03*
%TD*%
D12*
%TO.C,R6*%
X118190000Y-80000000D03*
D13*
X125810000Y-80000000D03*
%TD*%
D14*
%TO.C,MH4*%
X146990000Y-98730000D03*
%TD*%
D15*
%TO.C,J7*%
X132340000Y-88000000D03*
D16*
X134880000Y-88000000D03*
X137420000Y-88000000D03*
X139960000Y-88000000D03*
X142500000Y-88000000D03*
X145040000Y-88000000D03*
%TD*%
D12*
%TO.C,R3*%
X111690000Y-77000000D03*
D13*
X119310000Y-77000000D03*
%TD*%
D14*
%TO.C,MH1*%
X101270000Y-98730000D03*
%TD*%
D12*
%TO.C,R5*%
X128690000Y-80000000D03*
D13*
X136310000Y-80000000D03*
%TD*%
D10*
%TO.C,D2*%
X109225000Y-72500000D03*
D11*
X111765000Y-72500000D03*
%TD*%
D14*
%TO.C,MH3*%
X146990000Y-83490000D03*
%TD*%
D15*
%TO.C,J5*%
X126420000Y-93500000D03*
D16*
X128960000Y-93500000D03*
X131500000Y-93500000D03*
X134040000Y-93500000D03*
X136580000Y-93500000D03*
X139120000Y-93500000D03*
X141660000Y-93500000D03*
%TD*%
D15*
%TO.C,J10*%
X106000000Y-111500000D03*
D16*
X106000000Y-108960000D03*
X106000000Y-106420000D03*
X106000000Y-103880000D03*
%TD*%
D18*
%TO.C,J8*%
X116500000Y-88500000D03*
D19*
X116500000Y-91000000D03*
X116500000Y-93500000D03*
%TD*%
D12*
%TO.C,R2*%
X106190000Y-80000000D03*
D13*
X113810000Y-80000000D03*
%TD*%
D15*
%TO.C,J1*%
X103810000Y-98730000D03*
D16*
X106350000Y-98730000D03*
X108890000Y-98730000D03*
X111430000Y-98730000D03*
X113970000Y-98730000D03*
X116510000Y-98730000D03*
X119050000Y-98730000D03*
X121590000Y-98730000D03*
X124130000Y-98730000D03*
X126670000Y-98730000D03*
X129210000Y-98730000D03*
X131750000Y-98730000D03*
X134290000Y-98730000D03*
X136830000Y-98730000D03*
X139370000Y-98730000D03*
X141910000Y-98730000D03*
X144450000Y-98730000D03*
%TD*%
D15*
%TO.C,J2*%
X103810000Y-83490000D03*
D16*
X106350000Y-83490000D03*
X108890000Y-83490000D03*
X111430000Y-83490000D03*
X113970000Y-83490000D03*
X116510000Y-83490000D03*
X119050000Y-83490000D03*
X121590000Y-83490000D03*
X124130000Y-83490000D03*
X126670000Y-83490000D03*
X129210000Y-83490000D03*
X131750000Y-83490000D03*
X134290000Y-83490000D03*
X136830000Y-83490000D03*
X139370000Y-83490000D03*
X141910000Y-83490000D03*
X144450000Y-83490000D03*
%TD*%
M02*
