%TF.GenerationSoftware,KiCad,Pcbnew,8.0.8*%
%TF.CreationDate,2025-01-31T10:38:55-07:00*%
%TF.ProjectId,Uno_Shield_ThermoPro,556e6f5f-5368-4696-956c-645f54686572,rev?*%
%TF.SameCoordinates,Original*%
%TF.FileFunction,Legend,Top*%
%TF.FilePolarity,Positive*%
%FSLAX46Y46*%
G04 Gerber Fmt 4.6, Leading zero omitted, Abs format (unit mm)*
G04 Created by KiCad (PCBNEW 8.0.8) date 2025-01-31 10:38:55*
%MOMM*%
%LPD*%
G01*
G04 APERTURE LIST*
%ADD10C,0.150000*%
%ADD11C,0.120000*%
G04 APERTURE END LIST*
D10*
X127000000Y-61000000D02*
X127000000Y-63000000D01*
X106500000Y-61000000D02*
X106500000Y-63000000D01*
X127000000Y-52000000D02*
X127000000Y-56000000D01*
X127000000Y-52000000D02*
X123000000Y-52000000D01*
X106500000Y-52000000D02*
X110500000Y-52000000D01*
X106500000Y-52000000D02*
X106500000Y-56000000D01*
X156954819Y-55976190D02*
X155954819Y-55976190D01*
X155954819Y-55976190D02*
X155954819Y-55595238D01*
X155954819Y-55595238D02*
X156002438Y-55500000D01*
X156002438Y-55500000D02*
X156050057Y-55452381D01*
X156050057Y-55452381D02*
X156145295Y-55404762D01*
X156145295Y-55404762D02*
X156288152Y-55404762D01*
X156288152Y-55404762D02*
X156383390Y-55452381D01*
X156383390Y-55452381D02*
X156431009Y-55500000D01*
X156431009Y-55500000D02*
X156478628Y-55595238D01*
X156478628Y-55595238D02*
X156478628Y-55976190D01*
X156954819Y-54833333D02*
X156907200Y-54928571D01*
X156907200Y-54928571D02*
X156859580Y-54976190D01*
X156859580Y-54976190D02*
X156764342Y-55023809D01*
X156764342Y-55023809D02*
X156478628Y-55023809D01*
X156478628Y-55023809D02*
X156383390Y-54976190D01*
X156383390Y-54976190D02*
X156335771Y-54928571D01*
X156335771Y-54928571D02*
X156288152Y-54833333D01*
X156288152Y-54833333D02*
X156288152Y-54690476D01*
X156288152Y-54690476D02*
X156335771Y-54595238D01*
X156335771Y-54595238D02*
X156383390Y-54547619D01*
X156383390Y-54547619D02*
X156478628Y-54500000D01*
X156478628Y-54500000D02*
X156764342Y-54500000D01*
X156764342Y-54500000D02*
X156859580Y-54547619D01*
X156859580Y-54547619D02*
X156907200Y-54595238D01*
X156907200Y-54595238D02*
X156954819Y-54690476D01*
X156954819Y-54690476D02*
X156954819Y-54833333D01*
X156288152Y-54166666D02*
X156954819Y-53976190D01*
X156954819Y-53976190D02*
X156478628Y-53785714D01*
X156478628Y-53785714D02*
X156954819Y-53595238D01*
X156954819Y-53595238D02*
X156288152Y-53404762D01*
X156907200Y-52642857D02*
X156954819Y-52738095D01*
X156954819Y-52738095D02*
X156954819Y-52928571D01*
X156954819Y-52928571D02*
X156907200Y-53023809D01*
X156907200Y-53023809D02*
X156811961Y-53071428D01*
X156811961Y-53071428D02*
X156431009Y-53071428D01*
X156431009Y-53071428D02*
X156335771Y-53023809D01*
X156335771Y-53023809D02*
X156288152Y-52928571D01*
X156288152Y-52928571D02*
X156288152Y-52738095D01*
X156288152Y-52738095D02*
X156335771Y-52642857D01*
X156335771Y-52642857D02*
X156431009Y-52595238D01*
X156431009Y-52595238D02*
X156526247Y-52595238D01*
X156526247Y-52595238D02*
X156621485Y-53071428D01*
X156954819Y-52166666D02*
X156288152Y-52166666D01*
X156478628Y-52166666D02*
X156383390Y-52119047D01*
X156383390Y-52119047D02*
X156335771Y-52071428D01*
X156335771Y-52071428D02*
X156288152Y-51976190D01*
X156288152Y-51976190D02*
X156288152Y-51880952D01*
X151954819Y-65166666D02*
X152764342Y-65166666D01*
X152764342Y-65166666D02*
X152859580Y-65119047D01*
X152859580Y-65119047D02*
X152907200Y-65071428D01*
X152907200Y-65071428D02*
X152954819Y-64976190D01*
X152954819Y-64976190D02*
X152954819Y-64785714D01*
X152954819Y-64785714D02*
X152907200Y-64690476D01*
X152907200Y-64690476D02*
X152859580Y-64642857D01*
X152859580Y-64642857D02*
X152764342Y-64595238D01*
X152764342Y-64595238D02*
X151954819Y-64595238D01*
X152288152Y-64119047D02*
X152954819Y-64119047D01*
X152383390Y-64119047D02*
X152335771Y-64071428D01*
X152335771Y-64071428D02*
X152288152Y-63976190D01*
X152288152Y-63976190D02*
X152288152Y-63833333D01*
X152288152Y-63833333D02*
X152335771Y-63738095D01*
X152335771Y-63738095D02*
X152431009Y-63690476D01*
X152431009Y-63690476D02*
X152954819Y-63690476D01*
X152954819Y-63214285D02*
X152288152Y-63214285D01*
X151954819Y-63214285D02*
X152002438Y-63261904D01*
X152002438Y-63261904D02*
X152050057Y-63214285D01*
X152050057Y-63214285D02*
X152002438Y-63166666D01*
X152002438Y-63166666D02*
X151954819Y-63214285D01*
X151954819Y-63214285D02*
X152050057Y-63214285D01*
X152288152Y-62880952D02*
X152288152Y-62500000D01*
X151954819Y-62738095D02*
X152811961Y-62738095D01*
X152811961Y-62738095D02*
X152907200Y-62690476D01*
X152907200Y-62690476D02*
X152954819Y-62595238D01*
X152954819Y-62595238D02*
X152954819Y-62500000D01*
X152907200Y-62214285D02*
X152954819Y-62119047D01*
X152954819Y-62119047D02*
X152954819Y-61928571D01*
X152954819Y-61928571D02*
X152907200Y-61833333D01*
X152907200Y-61833333D02*
X152811961Y-61785714D01*
X152811961Y-61785714D02*
X152764342Y-61785714D01*
X152764342Y-61785714D02*
X152669104Y-61833333D01*
X152669104Y-61833333D02*
X152621485Y-61928571D01*
X152621485Y-61928571D02*
X152621485Y-62071428D01*
X152621485Y-62071428D02*
X152573866Y-62166666D01*
X152573866Y-62166666D02*
X152478628Y-62214285D01*
X152478628Y-62214285D02*
X152431009Y-62214285D01*
X152431009Y-62214285D02*
X152335771Y-62166666D01*
X152335771Y-62166666D02*
X152288152Y-62071428D01*
X152288152Y-62071428D02*
X152288152Y-61928571D01*
X152288152Y-61928571D02*
X152335771Y-61833333D01*
X158359580Y-82571429D02*
X158407200Y-82619048D01*
X158407200Y-82619048D02*
X158454819Y-82761905D01*
X158454819Y-82761905D02*
X158454819Y-82857143D01*
X158454819Y-82857143D02*
X158407200Y-83000000D01*
X158407200Y-83000000D02*
X158311961Y-83095238D01*
X158311961Y-83095238D02*
X158216723Y-83142857D01*
X158216723Y-83142857D02*
X158026247Y-83190476D01*
X158026247Y-83190476D02*
X157883390Y-83190476D01*
X157883390Y-83190476D02*
X157692914Y-83142857D01*
X157692914Y-83142857D02*
X157597676Y-83095238D01*
X157597676Y-83095238D02*
X157502438Y-83000000D01*
X157502438Y-83000000D02*
X157454819Y-82857143D01*
X157454819Y-82857143D02*
X157454819Y-82761905D01*
X157454819Y-82761905D02*
X157502438Y-82619048D01*
X157502438Y-82619048D02*
X157550057Y-82571429D01*
X158454819Y-81714286D02*
X157931009Y-81714286D01*
X157931009Y-81714286D02*
X157835771Y-81761905D01*
X157835771Y-81761905D02*
X157788152Y-81857143D01*
X157788152Y-81857143D02*
X157788152Y-82047619D01*
X157788152Y-82047619D02*
X157835771Y-82142857D01*
X158407200Y-81714286D02*
X158454819Y-81809524D01*
X158454819Y-81809524D02*
X158454819Y-82047619D01*
X158454819Y-82047619D02*
X158407200Y-82142857D01*
X158407200Y-82142857D02*
X158311961Y-82190476D01*
X158311961Y-82190476D02*
X158216723Y-82190476D01*
X158216723Y-82190476D02*
X158121485Y-82142857D01*
X158121485Y-82142857D02*
X158073866Y-82047619D01*
X158073866Y-82047619D02*
X158073866Y-81809524D01*
X158073866Y-81809524D02*
X158026247Y-81714286D01*
X158454819Y-81095238D02*
X158407200Y-81190476D01*
X158407200Y-81190476D02*
X158311961Y-81238095D01*
X158311961Y-81238095D02*
X157454819Y-81238095D01*
X158454819Y-80714285D02*
X157788152Y-80714285D01*
X157454819Y-80714285D02*
X157502438Y-80761904D01*
X157502438Y-80761904D02*
X157550057Y-80714285D01*
X157550057Y-80714285D02*
X157502438Y-80666666D01*
X157502438Y-80666666D02*
X157454819Y-80714285D01*
X157454819Y-80714285D02*
X157550057Y-80714285D01*
X158454819Y-80238095D02*
X157454819Y-80238095D01*
X157835771Y-80238095D02*
X157788152Y-80142857D01*
X157788152Y-80142857D02*
X157788152Y-79952381D01*
X157788152Y-79952381D02*
X157835771Y-79857143D01*
X157835771Y-79857143D02*
X157883390Y-79809524D01*
X157883390Y-79809524D02*
X157978628Y-79761905D01*
X157978628Y-79761905D02*
X158264342Y-79761905D01*
X158264342Y-79761905D02*
X158359580Y-79809524D01*
X158359580Y-79809524D02*
X158407200Y-79857143D01*
X158407200Y-79857143D02*
X158454819Y-79952381D01*
X158454819Y-79952381D02*
X158454819Y-80142857D01*
X158454819Y-80142857D02*
X158407200Y-80238095D01*
X158454819Y-79333333D02*
X157788152Y-79333333D01*
X157978628Y-79333333D02*
X157883390Y-79285714D01*
X157883390Y-79285714D02*
X157835771Y-79238095D01*
X157835771Y-79238095D02*
X157788152Y-79142857D01*
X157788152Y-79142857D02*
X157788152Y-79047619D01*
X158454819Y-78285714D02*
X157931009Y-78285714D01*
X157931009Y-78285714D02*
X157835771Y-78333333D01*
X157835771Y-78333333D02*
X157788152Y-78428571D01*
X157788152Y-78428571D02*
X157788152Y-78619047D01*
X157788152Y-78619047D02*
X157835771Y-78714285D01*
X158407200Y-78285714D02*
X158454819Y-78380952D01*
X158454819Y-78380952D02*
X158454819Y-78619047D01*
X158454819Y-78619047D02*
X158407200Y-78714285D01*
X158407200Y-78714285D02*
X158311961Y-78761904D01*
X158311961Y-78761904D02*
X158216723Y-78761904D01*
X158216723Y-78761904D02*
X158121485Y-78714285D01*
X158121485Y-78714285D02*
X158073866Y-78619047D01*
X158073866Y-78619047D02*
X158073866Y-78380952D01*
X158073866Y-78380952D02*
X158026247Y-78285714D01*
X157788152Y-77952380D02*
X157788152Y-77571428D01*
X157454819Y-77809523D02*
X158311961Y-77809523D01*
X158311961Y-77809523D02*
X158407200Y-77761904D01*
X158407200Y-77761904D02*
X158454819Y-77666666D01*
X158454819Y-77666666D02*
X158454819Y-77571428D01*
X158407200Y-76857142D02*
X158454819Y-76952380D01*
X158454819Y-76952380D02*
X158454819Y-77142856D01*
X158454819Y-77142856D02*
X158407200Y-77238094D01*
X158407200Y-77238094D02*
X158311961Y-77285713D01*
X158311961Y-77285713D02*
X157931009Y-77285713D01*
X157931009Y-77285713D02*
X157835771Y-77238094D01*
X157835771Y-77238094D02*
X157788152Y-77142856D01*
X157788152Y-77142856D02*
X157788152Y-76952380D01*
X157788152Y-76952380D02*
X157835771Y-76857142D01*
X157835771Y-76857142D02*
X157931009Y-76809523D01*
X157931009Y-76809523D02*
X158026247Y-76809523D01*
X158026247Y-76809523D02*
X158121485Y-77285713D01*
X159954819Y-78476190D02*
X159954819Y-78952380D01*
X159954819Y-78952380D02*
X158954819Y-78952380D01*
X159954819Y-77999999D02*
X159907200Y-78095237D01*
X159907200Y-78095237D02*
X159859580Y-78142856D01*
X159859580Y-78142856D02*
X159764342Y-78190475D01*
X159764342Y-78190475D02*
X159478628Y-78190475D01*
X159478628Y-78190475D02*
X159383390Y-78142856D01*
X159383390Y-78142856D02*
X159335771Y-78095237D01*
X159335771Y-78095237D02*
X159288152Y-77999999D01*
X159288152Y-77999999D02*
X159288152Y-77857142D01*
X159288152Y-77857142D02*
X159335771Y-77761904D01*
X159335771Y-77761904D02*
X159383390Y-77714285D01*
X159383390Y-77714285D02*
X159478628Y-77666666D01*
X159478628Y-77666666D02*
X159764342Y-77666666D01*
X159764342Y-77666666D02*
X159859580Y-77714285D01*
X159859580Y-77714285D02*
X159907200Y-77761904D01*
X159907200Y-77761904D02*
X159954819Y-77857142D01*
X159954819Y-77857142D02*
X159954819Y-77999999D01*
X159907200Y-76809523D02*
X159954819Y-76904761D01*
X159954819Y-76904761D02*
X159954819Y-77095237D01*
X159954819Y-77095237D02*
X159907200Y-77190475D01*
X159907200Y-77190475D02*
X159859580Y-77238094D01*
X159859580Y-77238094D02*
X159764342Y-77285713D01*
X159764342Y-77285713D02*
X159478628Y-77285713D01*
X159478628Y-77285713D02*
X159383390Y-77238094D01*
X159383390Y-77238094D02*
X159335771Y-77190475D01*
X159335771Y-77190475D02*
X159288152Y-77095237D01*
X159288152Y-77095237D02*
X159288152Y-76904761D01*
X159288152Y-76904761D02*
X159335771Y-76809523D01*
X159954819Y-76380951D02*
X158954819Y-76380951D01*
X159573866Y-76285713D02*
X159954819Y-75999999D01*
X159288152Y-75999999D02*
X159669104Y-76380951D01*
X147954819Y-78619047D02*
X147954819Y-79095237D01*
X147954819Y-79095237D02*
X146954819Y-79095237D01*
X147954819Y-78285713D02*
X147288152Y-78285713D01*
X146954819Y-78285713D02*
X147002438Y-78333332D01*
X147002438Y-78333332D02*
X147050057Y-78285713D01*
X147050057Y-78285713D02*
X147002438Y-78238094D01*
X147002438Y-78238094D02*
X146954819Y-78285713D01*
X146954819Y-78285713D02*
X147050057Y-78285713D01*
X147288152Y-77380952D02*
X148097676Y-77380952D01*
X148097676Y-77380952D02*
X148192914Y-77428571D01*
X148192914Y-77428571D02*
X148240533Y-77476190D01*
X148240533Y-77476190D02*
X148288152Y-77571428D01*
X148288152Y-77571428D02*
X148288152Y-77714285D01*
X148288152Y-77714285D02*
X148240533Y-77809523D01*
X147907200Y-77380952D02*
X147954819Y-77476190D01*
X147954819Y-77476190D02*
X147954819Y-77666666D01*
X147954819Y-77666666D02*
X147907200Y-77761904D01*
X147907200Y-77761904D02*
X147859580Y-77809523D01*
X147859580Y-77809523D02*
X147764342Y-77857142D01*
X147764342Y-77857142D02*
X147478628Y-77857142D01*
X147478628Y-77857142D02*
X147383390Y-77809523D01*
X147383390Y-77809523D02*
X147335771Y-77761904D01*
X147335771Y-77761904D02*
X147288152Y-77666666D01*
X147288152Y-77666666D02*
X147288152Y-77476190D01*
X147288152Y-77476190D02*
X147335771Y-77380952D01*
X147954819Y-76904761D02*
X146954819Y-76904761D01*
X147954819Y-76476190D02*
X147431009Y-76476190D01*
X147431009Y-76476190D02*
X147335771Y-76523809D01*
X147335771Y-76523809D02*
X147288152Y-76619047D01*
X147288152Y-76619047D02*
X147288152Y-76761904D01*
X147288152Y-76761904D02*
X147335771Y-76857142D01*
X147335771Y-76857142D02*
X147383390Y-76904761D01*
X147288152Y-76142856D02*
X147288152Y-75761904D01*
X146954819Y-75999999D02*
X147811961Y-75999999D01*
X147811961Y-75999999D02*
X147907200Y-75952380D01*
X147907200Y-75952380D02*
X147954819Y-75857142D01*
X147954819Y-75857142D02*
X147954819Y-75761904D01*
X101650000Y-69465000D02*
X105650000Y-69465000D01*
X101650000Y-69465000D02*
X101650000Y-73465000D01*
X129000000Y-69000000D02*
X129000000Y-73000000D01*
X125000000Y-69000000D02*
X129000000Y-69000000D01*
X129000000Y-69000000D02*
X125000000Y-69000000D01*
X129500000Y-90500000D02*
X129500000Y-94500000D01*
X120000000Y-97500000D02*
X124000000Y-97500000D01*
X101500000Y-97500000D02*
X105500000Y-97500000D01*
X101500000Y-93500000D02*
X101500000Y-97500000D01*
X101500000Y-97500000D02*
X101500000Y-93500000D01*
X161833333Y-67954819D02*
X161500000Y-67478628D01*
X161261905Y-67954819D02*
X161261905Y-66954819D01*
X161261905Y-66954819D02*
X161642857Y-66954819D01*
X161642857Y-66954819D02*
X161738095Y-67002438D01*
X161738095Y-67002438D02*
X161785714Y-67050057D01*
X161785714Y-67050057D02*
X161833333Y-67145295D01*
X161833333Y-67145295D02*
X161833333Y-67288152D01*
X161833333Y-67288152D02*
X161785714Y-67383390D01*
X161785714Y-67383390D02*
X161738095Y-67431009D01*
X161738095Y-67431009D02*
X161642857Y-67478628D01*
X161642857Y-67478628D02*
X161261905Y-67478628D01*
X162738095Y-66954819D02*
X162261905Y-66954819D01*
X162261905Y-66954819D02*
X162214286Y-67431009D01*
X162214286Y-67431009D02*
X162261905Y-67383390D01*
X162261905Y-67383390D02*
X162357143Y-67335771D01*
X162357143Y-67335771D02*
X162595238Y-67335771D01*
X162595238Y-67335771D02*
X162690476Y-67383390D01*
X162690476Y-67383390D02*
X162738095Y-67431009D01*
X162738095Y-67431009D02*
X162785714Y-67526247D01*
X162785714Y-67526247D02*
X162785714Y-67764342D01*
X162785714Y-67764342D02*
X162738095Y-67859580D01*
X162738095Y-67859580D02*
X162690476Y-67907200D01*
X162690476Y-67907200D02*
X162595238Y-67954819D01*
X162595238Y-67954819D02*
X162357143Y-67954819D01*
X162357143Y-67954819D02*
X162261905Y-67907200D01*
X162261905Y-67907200D02*
X162214286Y-67859580D01*
X153253333Y-71954819D02*
X152920000Y-71478628D01*
X152681905Y-71954819D02*
X152681905Y-70954819D01*
X152681905Y-70954819D02*
X153062857Y-70954819D01*
X153062857Y-70954819D02*
X153158095Y-71002438D01*
X153158095Y-71002438D02*
X153205714Y-71050057D01*
X153205714Y-71050057D02*
X153253333Y-71145295D01*
X153253333Y-71145295D02*
X153253333Y-71288152D01*
X153253333Y-71288152D02*
X153205714Y-71383390D01*
X153205714Y-71383390D02*
X153158095Y-71431009D01*
X153158095Y-71431009D02*
X153062857Y-71478628D01*
X153062857Y-71478628D02*
X152681905Y-71478628D01*
X154110476Y-71288152D02*
X154110476Y-71954819D01*
X153872381Y-70907200D02*
X153634286Y-71621485D01*
X153634286Y-71621485D02*
X154253333Y-71621485D01*
X147833333Y-53954819D02*
X147500000Y-53478628D01*
X147261905Y-53954819D02*
X147261905Y-52954819D01*
X147261905Y-52954819D02*
X147642857Y-52954819D01*
X147642857Y-52954819D02*
X147738095Y-53002438D01*
X147738095Y-53002438D02*
X147785714Y-53050057D01*
X147785714Y-53050057D02*
X147833333Y-53145295D01*
X147833333Y-53145295D02*
X147833333Y-53288152D01*
X147833333Y-53288152D02*
X147785714Y-53383390D01*
X147785714Y-53383390D02*
X147738095Y-53431009D01*
X147738095Y-53431009D02*
X147642857Y-53478628D01*
X147642857Y-53478628D02*
X147261905Y-53478628D01*
X148166667Y-52954819D02*
X148785714Y-52954819D01*
X148785714Y-52954819D02*
X148452381Y-53335771D01*
X148452381Y-53335771D02*
X148595238Y-53335771D01*
X148595238Y-53335771D02*
X148690476Y-53383390D01*
X148690476Y-53383390D02*
X148738095Y-53431009D01*
X148738095Y-53431009D02*
X148785714Y-53526247D01*
X148785714Y-53526247D02*
X148785714Y-53764342D01*
X148785714Y-53764342D02*
X148738095Y-53859580D01*
X148738095Y-53859580D02*
X148690476Y-53907200D01*
X148690476Y-53907200D02*
X148595238Y-53954819D01*
X148595238Y-53954819D02*
X148309524Y-53954819D01*
X148309524Y-53954819D02*
X148214286Y-53907200D01*
X148214286Y-53907200D02*
X148166667Y-53859580D01*
X161833333Y-63454819D02*
X161500000Y-62978628D01*
X161261905Y-63454819D02*
X161261905Y-62454819D01*
X161261905Y-62454819D02*
X161642857Y-62454819D01*
X161642857Y-62454819D02*
X161738095Y-62502438D01*
X161738095Y-62502438D02*
X161785714Y-62550057D01*
X161785714Y-62550057D02*
X161833333Y-62645295D01*
X161833333Y-62645295D02*
X161833333Y-62788152D01*
X161833333Y-62788152D02*
X161785714Y-62883390D01*
X161785714Y-62883390D02*
X161738095Y-62931009D01*
X161738095Y-62931009D02*
X161642857Y-62978628D01*
X161642857Y-62978628D02*
X161261905Y-62978628D01*
X162214286Y-62550057D02*
X162261905Y-62502438D01*
X162261905Y-62502438D02*
X162357143Y-62454819D01*
X162357143Y-62454819D02*
X162595238Y-62454819D01*
X162595238Y-62454819D02*
X162690476Y-62502438D01*
X162690476Y-62502438D02*
X162738095Y-62550057D01*
X162738095Y-62550057D02*
X162785714Y-62645295D01*
X162785714Y-62645295D02*
X162785714Y-62740533D01*
X162785714Y-62740533D02*
X162738095Y-62883390D01*
X162738095Y-62883390D02*
X162166667Y-63454819D01*
X162166667Y-63454819D02*
X162785714Y-63454819D01*
X133833333Y-53954819D02*
X133500000Y-53478628D01*
X133261905Y-53954819D02*
X133261905Y-52954819D01*
X133261905Y-52954819D02*
X133642857Y-52954819D01*
X133642857Y-52954819D02*
X133738095Y-53002438D01*
X133738095Y-53002438D02*
X133785714Y-53050057D01*
X133785714Y-53050057D02*
X133833333Y-53145295D01*
X133833333Y-53145295D02*
X133833333Y-53288152D01*
X133833333Y-53288152D02*
X133785714Y-53383390D01*
X133785714Y-53383390D02*
X133738095Y-53431009D01*
X133738095Y-53431009D02*
X133642857Y-53478628D01*
X133642857Y-53478628D02*
X133261905Y-53478628D01*
X134785714Y-53954819D02*
X134214286Y-53954819D01*
X134500000Y-53954819D02*
X134500000Y-52954819D01*
X134500000Y-52954819D02*
X134404762Y-53097676D01*
X134404762Y-53097676D02*
X134309524Y-53192914D01*
X134309524Y-53192914D02*
X134214286Y-53240533D01*
X136666666Y-63454819D02*
X136666666Y-64169104D01*
X136666666Y-64169104D02*
X136619047Y-64311961D01*
X136619047Y-64311961D02*
X136523809Y-64407200D01*
X136523809Y-64407200D02*
X136380952Y-64454819D01*
X136380952Y-64454819D02*
X136285714Y-64454819D01*
X137047619Y-63454819D02*
X137714285Y-63454819D01*
X137714285Y-63454819D02*
X137285714Y-64454819D01*
X124624819Y-97793333D02*
X125339104Y-97793333D01*
X125339104Y-97793333D02*
X125481961Y-97840952D01*
X125481961Y-97840952D02*
X125577200Y-97936190D01*
X125577200Y-97936190D02*
X125624819Y-98079047D01*
X125624819Y-98079047D02*
X125624819Y-98174285D01*
X125624819Y-96793333D02*
X125624819Y-97364761D01*
X125624819Y-97079047D02*
X124624819Y-97079047D01*
X124624819Y-97079047D02*
X124767676Y-97174285D01*
X124767676Y-97174285D02*
X124862914Y-97269523D01*
X124862914Y-97269523D02*
X124910533Y-97364761D01*
X166026666Y-95934819D02*
X166026666Y-96649104D01*
X166026666Y-96649104D02*
X165979047Y-96791961D01*
X165979047Y-96791961D02*
X165883809Y-96887200D01*
X165883809Y-96887200D02*
X165740952Y-96934819D01*
X165740952Y-96934819D02*
X165645714Y-96934819D01*
X166407619Y-95934819D02*
X167026666Y-95934819D01*
X167026666Y-95934819D02*
X166693333Y-96315771D01*
X166693333Y-96315771D02*
X166836190Y-96315771D01*
X166836190Y-96315771D02*
X166931428Y-96363390D01*
X166931428Y-96363390D02*
X166979047Y-96411009D01*
X166979047Y-96411009D02*
X167026666Y-96506247D01*
X167026666Y-96506247D02*
X167026666Y-96744342D01*
X167026666Y-96744342D02*
X166979047Y-96839580D01*
X166979047Y-96839580D02*
X166931428Y-96887200D01*
X166931428Y-96887200D02*
X166836190Y-96934819D01*
X166836190Y-96934819D02*
X166550476Y-96934819D01*
X166550476Y-96934819D02*
X166455238Y-96887200D01*
X166455238Y-96887200D02*
X166407619Y-96839580D01*
X115480819Y-49533333D02*
X116195104Y-49533333D01*
X116195104Y-49533333D02*
X116337961Y-49580952D01*
X116337961Y-49580952D02*
X116433200Y-49676190D01*
X116433200Y-49676190D02*
X116480819Y-49819047D01*
X116480819Y-49819047D02*
X116480819Y-49914285D01*
X115576057Y-49104761D02*
X115528438Y-49057142D01*
X115528438Y-49057142D02*
X115480819Y-48961904D01*
X115480819Y-48961904D02*
X115480819Y-48723809D01*
X115480819Y-48723809D02*
X115528438Y-48628571D01*
X115528438Y-48628571D02*
X115576057Y-48580952D01*
X115576057Y-48580952D02*
X115671295Y-48533333D01*
X115671295Y-48533333D02*
X115766533Y-48533333D01*
X115766533Y-48533333D02*
X115909390Y-48580952D01*
X115909390Y-48580952D02*
X116480819Y-49152380D01*
X116480819Y-49152380D02*
X116480819Y-48533333D01*
X144166666Y-50454819D02*
X144166666Y-51169104D01*
X144166666Y-51169104D02*
X144119047Y-51311961D01*
X144119047Y-51311961D02*
X144023809Y-51407200D01*
X144023809Y-51407200D02*
X143880952Y-51454819D01*
X143880952Y-51454819D02*
X143785714Y-51454819D01*
X145071428Y-50788152D02*
X145071428Y-51454819D01*
X144833333Y-50407200D02*
X144595238Y-51121485D01*
X144595238Y-51121485D02*
X145214285Y-51121485D01*
X164407200Y-75833332D02*
X164454819Y-75690475D01*
X164454819Y-75690475D02*
X164454819Y-75452380D01*
X164454819Y-75452380D02*
X164407200Y-75357142D01*
X164407200Y-75357142D02*
X164359580Y-75309523D01*
X164359580Y-75309523D02*
X164264342Y-75261904D01*
X164264342Y-75261904D02*
X164169104Y-75261904D01*
X164169104Y-75261904D02*
X164073866Y-75309523D01*
X164073866Y-75309523D02*
X164026247Y-75357142D01*
X164026247Y-75357142D02*
X163978628Y-75452380D01*
X163978628Y-75452380D02*
X163931009Y-75642856D01*
X163931009Y-75642856D02*
X163883390Y-75738094D01*
X163883390Y-75738094D02*
X163835771Y-75785713D01*
X163835771Y-75785713D02*
X163740533Y-75833332D01*
X163740533Y-75833332D02*
X163645295Y-75833332D01*
X163645295Y-75833332D02*
X163550057Y-75785713D01*
X163550057Y-75785713D02*
X163502438Y-75738094D01*
X163502438Y-75738094D02*
X163454819Y-75642856D01*
X163454819Y-75642856D02*
X163454819Y-75404761D01*
X163454819Y-75404761D02*
X163502438Y-75261904D01*
X163454819Y-74928570D02*
X164454819Y-74690475D01*
X164454819Y-74690475D02*
X163740533Y-74499999D01*
X163740533Y-74499999D02*
X164454819Y-74309523D01*
X164454819Y-74309523D02*
X163454819Y-74071428D01*
X163788152Y-73261904D02*
X164454819Y-73261904D01*
X163407200Y-73499999D02*
X164121485Y-73738094D01*
X164121485Y-73738094D02*
X164121485Y-73119047D01*
X131904819Y-66168094D02*
X130904819Y-66168094D01*
X130904819Y-66168094D02*
X130904819Y-65929999D01*
X130904819Y-65929999D02*
X130952438Y-65787142D01*
X130952438Y-65787142D02*
X131047676Y-65691904D01*
X131047676Y-65691904D02*
X131142914Y-65644285D01*
X131142914Y-65644285D02*
X131333390Y-65596666D01*
X131333390Y-65596666D02*
X131476247Y-65596666D01*
X131476247Y-65596666D02*
X131666723Y-65644285D01*
X131666723Y-65644285D02*
X131761961Y-65691904D01*
X131761961Y-65691904D02*
X131857200Y-65787142D01*
X131857200Y-65787142D02*
X131904819Y-65929999D01*
X131904819Y-65929999D02*
X131904819Y-66168094D01*
X131904819Y-64644285D02*
X131904819Y-65215713D01*
X131904819Y-64929999D02*
X130904819Y-64929999D01*
X130904819Y-64929999D02*
X131047676Y-65025237D01*
X131047676Y-65025237D02*
X131142914Y-65120475D01*
X131142914Y-65120475D02*
X131190533Y-65215713D01*
X143157200Y-75583332D02*
X143204819Y-75440475D01*
X143204819Y-75440475D02*
X143204819Y-75202380D01*
X143204819Y-75202380D02*
X143157200Y-75107142D01*
X143157200Y-75107142D02*
X143109580Y-75059523D01*
X143109580Y-75059523D02*
X143014342Y-75011904D01*
X143014342Y-75011904D02*
X142919104Y-75011904D01*
X142919104Y-75011904D02*
X142823866Y-75059523D01*
X142823866Y-75059523D02*
X142776247Y-75107142D01*
X142776247Y-75107142D02*
X142728628Y-75202380D01*
X142728628Y-75202380D02*
X142681009Y-75392856D01*
X142681009Y-75392856D02*
X142633390Y-75488094D01*
X142633390Y-75488094D02*
X142585771Y-75535713D01*
X142585771Y-75535713D02*
X142490533Y-75583332D01*
X142490533Y-75583332D02*
X142395295Y-75583332D01*
X142395295Y-75583332D02*
X142300057Y-75535713D01*
X142300057Y-75535713D02*
X142252438Y-75488094D01*
X142252438Y-75488094D02*
X142204819Y-75392856D01*
X142204819Y-75392856D02*
X142204819Y-75154761D01*
X142204819Y-75154761D02*
X142252438Y-75011904D01*
X142204819Y-74678570D02*
X143204819Y-74440475D01*
X143204819Y-74440475D02*
X142490533Y-74249999D01*
X142490533Y-74249999D02*
X143204819Y-74059523D01*
X143204819Y-74059523D02*
X142204819Y-73821428D01*
X142204819Y-72964285D02*
X142204819Y-73440475D01*
X142204819Y-73440475D02*
X142681009Y-73488094D01*
X142681009Y-73488094D02*
X142633390Y-73440475D01*
X142633390Y-73440475D02*
X142585771Y-73345237D01*
X142585771Y-73345237D02*
X142585771Y-73107142D01*
X142585771Y-73107142D02*
X142633390Y-73011904D01*
X142633390Y-73011904D02*
X142681009Y-72964285D01*
X142681009Y-72964285D02*
X142776247Y-72916666D01*
X142776247Y-72916666D02*
X143014342Y-72916666D01*
X143014342Y-72916666D02*
X143109580Y-72964285D01*
X143109580Y-72964285D02*
X143157200Y-73011904D01*
X143157200Y-73011904D02*
X143204819Y-73107142D01*
X143204819Y-73107142D02*
X143204819Y-73345237D01*
X143204819Y-73345237D02*
X143157200Y-73440475D01*
X143157200Y-73440475D02*
X143109580Y-73488094D01*
X147907200Y-62083332D02*
X147954819Y-61940475D01*
X147954819Y-61940475D02*
X147954819Y-61702380D01*
X147954819Y-61702380D02*
X147907200Y-61607142D01*
X147907200Y-61607142D02*
X147859580Y-61559523D01*
X147859580Y-61559523D02*
X147764342Y-61511904D01*
X147764342Y-61511904D02*
X147669104Y-61511904D01*
X147669104Y-61511904D02*
X147573866Y-61559523D01*
X147573866Y-61559523D02*
X147526247Y-61607142D01*
X147526247Y-61607142D02*
X147478628Y-61702380D01*
X147478628Y-61702380D02*
X147431009Y-61892856D01*
X147431009Y-61892856D02*
X147383390Y-61988094D01*
X147383390Y-61988094D02*
X147335771Y-62035713D01*
X147335771Y-62035713D02*
X147240533Y-62083332D01*
X147240533Y-62083332D02*
X147145295Y-62083332D01*
X147145295Y-62083332D02*
X147050057Y-62035713D01*
X147050057Y-62035713D02*
X147002438Y-61988094D01*
X147002438Y-61988094D02*
X146954819Y-61892856D01*
X146954819Y-61892856D02*
X146954819Y-61654761D01*
X146954819Y-61654761D02*
X147002438Y-61511904D01*
X146954819Y-61178570D02*
X147954819Y-60940475D01*
X147954819Y-60940475D02*
X147240533Y-60749999D01*
X147240533Y-60749999D02*
X147954819Y-60559523D01*
X147954819Y-60559523D02*
X146954819Y-60321428D01*
X147050057Y-59988094D02*
X147002438Y-59940475D01*
X147002438Y-59940475D02*
X146954819Y-59845237D01*
X146954819Y-59845237D02*
X146954819Y-59607142D01*
X146954819Y-59607142D02*
X147002438Y-59511904D01*
X147002438Y-59511904D02*
X147050057Y-59464285D01*
X147050057Y-59464285D02*
X147145295Y-59416666D01*
X147145295Y-59416666D02*
X147240533Y-59416666D01*
X147240533Y-59416666D02*
X147383390Y-59464285D01*
X147383390Y-59464285D02*
X147954819Y-60035713D01*
X147954819Y-60035713D02*
X147954819Y-59416666D01*
X108184819Y-71308333D02*
X108899104Y-71308333D01*
X108899104Y-71308333D02*
X109041961Y-71355952D01*
X109041961Y-71355952D02*
X109137200Y-71451190D01*
X109137200Y-71451190D02*
X109184819Y-71594047D01*
X109184819Y-71594047D02*
X109184819Y-71689285D01*
X108184819Y-70403571D02*
X108184819Y-70594047D01*
X108184819Y-70594047D02*
X108232438Y-70689285D01*
X108232438Y-70689285D02*
X108280057Y-70736904D01*
X108280057Y-70736904D02*
X108422914Y-70832142D01*
X108422914Y-70832142D02*
X108613390Y-70879761D01*
X108613390Y-70879761D02*
X108994342Y-70879761D01*
X108994342Y-70879761D02*
X109089580Y-70832142D01*
X109089580Y-70832142D02*
X109137200Y-70784523D01*
X109137200Y-70784523D02*
X109184819Y-70689285D01*
X109184819Y-70689285D02*
X109184819Y-70498809D01*
X109184819Y-70498809D02*
X109137200Y-70403571D01*
X109137200Y-70403571D02*
X109089580Y-70355952D01*
X109089580Y-70355952D02*
X108994342Y-70308333D01*
X108994342Y-70308333D02*
X108756247Y-70308333D01*
X108756247Y-70308333D02*
X108661009Y-70355952D01*
X108661009Y-70355952D02*
X108613390Y-70403571D01*
X108613390Y-70403571D02*
X108565771Y-70498809D01*
X108565771Y-70498809D02*
X108565771Y-70689285D01*
X108565771Y-70689285D02*
X108613390Y-70784523D01*
X108613390Y-70784523D02*
X108661009Y-70832142D01*
X108661009Y-70832142D02*
X108756247Y-70879761D01*
X161657200Y-57583332D02*
X161704819Y-57440475D01*
X161704819Y-57440475D02*
X161704819Y-57202380D01*
X161704819Y-57202380D02*
X161657200Y-57107142D01*
X161657200Y-57107142D02*
X161609580Y-57059523D01*
X161609580Y-57059523D02*
X161514342Y-57011904D01*
X161514342Y-57011904D02*
X161419104Y-57011904D01*
X161419104Y-57011904D02*
X161323866Y-57059523D01*
X161323866Y-57059523D02*
X161276247Y-57107142D01*
X161276247Y-57107142D02*
X161228628Y-57202380D01*
X161228628Y-57202380D02*
X161181009Y-57392856D01*
X161181009Y-57392856D02*
X161133390Y-57488094D01*
X161133390Y-57488094D02*
X161085771Y-57535713D01*
X161085771Y-57535713D02*
X160990533Y-57583332D01*
X160990533Y-57583332D02*
X160895295Y-57583332D01*
X160895295Y-57583332D02*
X160800057Y-57535713D01*
X160800057Y-57535713D02*
X160752438Y-57488094D01*
X160752438Y-57488094D02*
X160704819Y-57392856D01*
X160704819Y-57392856D02*
X160704819Y-57154761D01*
X160704819Y-57154761D02*
X160752438Y-57011904D01*
X160704819Y-56678570D02*
X161704819Y-56440475D01*
X161704819Y-56440475D02*
X160990533Y-56249999D01*
X160990533Y-56249999D02*
X161704819Y-56059523D01*
X161704819Y-56059523D02*
X160704819Y-55821428D01*
X161704819Y-54916666D02*
X161704819Y-55488094D01*
X161704819Y-55202380D02*
X160704819Y-55202380D01*
X160704819Y-55202380D02*
X160847676Y-55297618D01*
X160847676Y-55297618D02*
X160942914Y-55392856D01*
X160942914Y-55392856D02*
X160990533Y-55488094D01*
X151494819Y-90080238D02*
X151018628Y-90413571D01*
X151494819Y-90651666D02*
X150494819Y-90651666D01*
X150494819Y-90651666D02*
X150494819Y-90270714D01*
X150494819Y-90270714D02*
X150542438Y-90175476D01*
X150542438Y-90175476D02*
X150590057Y-90127857D01*
X150590057Y-90127857D02*
X150685295Y-90080238D01*
X150685295Y-90080238D02*
X150828152Y-90080238D01*
X150828152Y-90080238D02*
X150923390Y-90127857D01*
X150923390Y-90127857D02*
X150971009Y-90175476D01*
X150971009Y-90175476D02*
X151018628Y-90270714D01*
X151018628Y-90270714D02*
X151018628Y-90651666D01*
X150494819Y-89794523D02*
X151494819Y-89461190D01*
X151494819Y-89461190D02*
X150494819Y-89127857D01*
X151494819Y-88270714D02*
X151494819Y-88842142D01*
X151494819Y-88556428D02*
X150494819Y-88556428D01*
X150494819Y-88556428D02*
X150637676Y-88651666D01*
X150637676Y-88651666D02*
X150732914Y-88746904D01*
X150732914Y-88746904D02*
X150780533Y-88842142D01*
X107604819Y-63393333D02*
X108319104Y-63393333D01*
X108319104Y-63393333D02*
X108461961Y-63440952D01*
X108461961Y-63440952D02*
X108557200Y-63536190D01*
X108557200Y-63536190D02*
X108604819Y-63679047D01*
X108604819Y-63679047D02*
X108604819Y-63774285D01*
X107604819Y-62440952D02*
X107604819Y-62917142D01*
X107604819Y-62917142D02*
X108081009Y-62964761D01*
X108081009Y-62964761D02*
X108033390Y-62917142D01*
X108033390Y-62917142D02*
X107985771Y-62821904D01*
X107985771Y-62821904D02*
X107985771Y-62583809D01*
X107985771Y-62583809D02*
X108033390Y-62488571D01*
X108033390Y-62488571D02*
X108081009Y-62440952D01*
X108081009Y-62440952D02*
X108176247Y-62393333D01*
X108176247Y-62393333D02*
X108414342Y-62393333D01*
X108414342Y-62393333D02*
X108509580Y-62440952D01*
X108509580Y-62440952D02*
X108557200Y-62488571D01*
X108557200Y-62488571D02*
X108604819Y-62583809D01*
X108604819Y-62583809D02*
X108604819Y-62821904D01*
X108604819Y-62821904D02*
X108557200Y-62917142D01*
X108557200Y-62917142D02*
X108509580Y-62964761D01*
X144753333Y-68034819D02*
X144420000Y-67558628D01*
X144181905Y-68034819D02*
X144181905Y-67034819D01*
X144181905Y-67034819D02*
X144562857Y-67034819D01*
X144562857Y-67034819D02*
X144658095Y-67082438D01*
X144658095Y-67082438D02*
X144705714Y-67130057D01*
X144705714Y-67130057D02*
X144753333Y-67225295D01*
X144753333Y-67225295D02*
X144753333Y-67368152D01*
X144753333Y-67368152D02*
X144705714Y-67463390D01*
X144705714Y-67463390D02*
X144658095Y-67511009D01*
X144658095Y-67511009D02*
X144562857Y-67558628D01*
X144562857Y-67558628D02*
X144181905Y-67558628D01*
X145610476Y-67034819D02*
X145420000Y-67034819D01*
X145420000Y-67034819D02*
X145324762Y-67082438D01*
X145324762Y-67082438D02*
X145277143Y-67130057D01*
X145277143Y-67130057D02*
X145181905Y-67272914D01*
X145181905Y-67272914D02*
X145134286Y-67463390D01*
X145134286Y-67463390D02*
X145134286Y-67844342D01*
X145134286Y-67844342D02*
X145181905Y-67939580D01*
X145181905Y-67939580D02*
X145229524Y-67987200D01*
X145229524Y-67987200D02*
X145324762Y-68034819D01*
X145324762Y-68034819D02*
X145515238Y-68034819D01*
X145515238Y-68034819D02*
X145610476Y-67987200D01*
X145610476Y-67987200D02*
X145658095Y-67939580D01*
X145658095Y-67939580D02*
X145705714Y-67844342D01*
X145705714Y-67844342D02*
X145705714Y-67606247D01*
X145705714Y-67606247D02*
X145658095Y-67511009D01*
X145658095Y-67511009D02*
X145610476Y-67463390D01*
X145610476Y-67463390D02*
X145515238Y-67415771D01*
X145515238Y-67415771D02*
X145324762Y-67415771D01*
X145324762Y-67415771D02*
X145229524Y-67463390D01*
X145229524Y-67463390D02*
X145181905Y-67511009D01*
X145181905Y-67511009D02*
X145134286Y-67606247D01*
X153657200Y-79583332D02*
X153704819Y-79440475D01*
X153704819Y-79440475D02*
X153704819Y-79202380D01*
X153704819Y-79202380D02*
X153657200Y-79107142D01*
X153657200Y-79107142D02*
X153609580Y-79059523D01*
X153609580Y-79059523D02*
X153514342Y-79011904D01*
X153514342Y-79011904D02*
X153419104Y-79011904D01*
X153419104Y-79011904D02*
X153323866Y-79059523D01*
X153323866Y-79059523D02*
X153276247Y-79107142D01*
X153276247Y-79107142D02*
X153228628Y-79202380D01*
X153228628Y-79202380D02*
X153181009Y-79392856D01*
X153181009Y-79392856D02*
X153133390Y-79488094D01*
X153133390Y-79488094D02*
X153085771Y-79535713D01*
X153085771Y-79535713D02*
X152990533Y-79583332D01*
X152990533Y-79583332D02*
X152895295Y-79583332D01*
X152895295Y-79583332D02*
X152800057Y-79535713D01*
X152800057Y-79535713D02*
X152752438Y-79488094D01*
X152752438Y-79488094D02*
X152704819Y-79392856D01*
X152704819Y-79392856D02*
X152704819Y-79154761D01*
X152704819Y-79154761D02*
X152752438Y-79011904D01*
X152704819Y-78678570D02*
X153704819Y-78440475D01*
X153704819Y-78440475D02*
X152990533Y-78249999D01*
X152990533Y-78249999D02*
X153704819Y-78059523D01*
X153704819Y-78059523D02*
X152704819Y-77821428D01*
X152704819Y-77535713D02*
X152704819Y-76916666D01*
X152704819Y-76916666D02*
X153085771Y-77249999D01*
X153085771Y-77249999D02*
X153085771Y-77107142D01*
X153085771Y-77107142D02*
X153133390Y-77011904D01*
X153133390Y-77011904D02*
X153181009Y-76964285D01*
X153181009Y-76964285D02*
X153276247Y-76916666D01*
X153276247Y-76916666D02*
X153514342Y-76916666D01*
X153514342Y-76916666D02*
X153609580Y-76964285D01*
X153609580Y-76964285D02*
X153657200Y-77011904D01*
X153657200Y-77011904D02*
X153704819Y-77107142D01*
X153704819Y-77107142D02*
X153704819Y-77392856D01*
X153704819Y-77392856D02*
X153657200Y-77488094D01*
X153657200Y-77488094D02*
X153609580Y-77535713D01*
D11*
%TO.C,R5*%
X157960000Y-67500000D02*
X158730000Y-67500000D01*
X158730000Y-66130000D02*
X158730000Y-68870000D01*
X158730000Y-68870000D02*
X165270000Y-68870000D01*
X165270000Y-66130000D02*
X158730000Y-66130000D01*
X165270000Y-68870000D02*
X165270000Y-66130000D01*
X166040000Y-67500000D02*
X165270000Y-67500000D01*
%TO.C,R4*%
X157460000Y-71500000D02*
X156690000Y-71500000D01*
X156690000Y-72870000D02*
X156690000Y-70130000D01*
X156690000Y-70130000D02*
X150150000Y-70130000D01*
X150150000Y-72870000D02*
X156690000Y-72870000D01*
X150150000Y-70130000D02*
X150150000Y-72870000D01*
X149380000Y-71500000D02*
X150150000Y-71500000D01*
%TO.C,R3*%
X152120000Y-53500000D02*
X151350000Y-53500000D01*
X151350000Y-54870000D02*
X151350000Y-52130000D01*
X151350000Y-52130000D02*
X144810000Y-52130000D01*
X144810000Y-54870000D02*
X151350000Y-54870000D01*
X144810000Y-52130000D02*
X144810000Y-54870000D01*
X144040000Y-53500000D02*
X144810000Y-53500000D01*
%TO.C,R2*%
X157960000Y-63000000D02*
X158730000Y-63000000D01*
X158730000Y-61630000D02*
X158730000Y-64370000D01*
X158730000Y-64370000D02*
X165270000Y-64370000D01*
X165270000Y-61630000D02*
X158730000Y-61630000D01*
X165270000Y-64370000D02*
X165270000Y-61630000D01*
X166040000Y-63000000D02*
X165270000Y-63000000D01*
%TO.C,R1*%
X138040000Y-53500000D02*
X137270000Y-53500000D01*
X137270000Y-54870000D02*
X137270000Y-52130000D01*
X137270000Y-52130000D02*
X130730000Y-52130000D01*
X130730000Y-54870000D02*
X137270000Y-54870000D01*
X130730000Y-52130000D02*
X130730000Y-54870000D01*
X129960000Y-53500000D02*
X130730000Y-53500000D01*
%TO.C,J7*%
X131650000Y-56250000D02*
X131650000Y-57500000D01*
X131940000Y-56540000D02*
X131940000Y-62510000D01*
X131940000Y-62510000D02*
X142060000Y-62510000D01*
X131950000Y-56550000D02*
X131950000Y-57300000D01*
X131950000Y-57300000D02*
X133750000Y-57300000D01*
X131950000Y-58800000D02*
X132700000Y-58800000D01*
X132700000Y-58800000D02*
X132700000Y-61750000D01*
X132700000Y-61750000D02*
X137000000Y-61750000D01*
X132900000Y-56250000D02*
X131650000Y-56250000D01*
X133750000Y-56550000D02*
X131950000Y-56550000D01*
X133750000Y-57300000D02*
X133750000Y-56550000D01*
X135250000Y-56550000D02*
X135250000Y-57300000D01*
X135250000Y-57300000D02*
X138750000Y-57300000D01*
X138750000Y-56550000D02*
X135250000Y-56550000D01*
X138750000Y-57300000D02*
X138750000Y-56550000D01*
X140250000Y-56550000D02*
X140250000Y-57300000D01*
X140250000Y-57300000D02*
X142050000Y-57300000D01*
X141300000Y-58800000D02*
X141300000Y-61750000D01*
X141300000Y-61750000D02*
X137000000Y-61750000D01*
X142050000Y-56550000D02*
X140250000Y-56550000D01*
X142050000Y-57300000D02*
X142050000Y-56550000D01*
X142050000Y-58800000D02*
X141300000Y-58800000D01*
X142060000Y-56540000D02*
X131940000Y-56540000D01*
X142060000Y-62510000D02*
X142060000Y-56540000D01*
%TO.C,J1*%
X126610000Y-96130000D02*
X127940000Y-96130000D01*
X126610000Y-97460000D02*
X126610000Y-96130000D01*
X129210000Y-96130000D02*
X147050000Y-96130000D01*
X129210000Y-98790000D02*
X129210000Y-96130000D01*
X129210000Y-98790000D02*
X147050000Y-98790000D01*
X147050000Y-98790000D02*
X147050000Y-96130000D01*
%TO.C,J3*%
X149470000Y-96130000D02*
X150800000Y-96130000D01*
X149470000Y-97460000D02*
X149470000Y-96130000D01*
X152070000Y-96130000D02*
X164830000Y-96130000D01*
X152070000Y-98790000D02*
X152070000Y-96130000D01*
X152070000Y-98790000D02*
X164830000Y-98790000D01*
X164830000Y-98790000D02*
X164830000Y-96130000D01*
%TO.C,J2*%
X117466000Y-47870000D02*
X118796000Y-47870000D01*
X117466000Y-49200000D02*
X117466000Y-47870000D01*
X120066000Y-47870000D02*
X142986000Y-47870000D01*
X120066000Y-50530000D02*
X120066000Y-47870000D01*
X120066000Y-50530000D02*
X142986000Y-50530000D01*
X142986000Y-50530000D02*
X142986000Y-47870000D01*
%TO.C,J4*%
X164830000Y-50530000D02*
X164830000Y-47870000D01*
X146990000Y-50530000D02*
X164830000Y-50530000D01*
X146990000Y-50530000D02*
X146990000Y-47870000D01*
X146990000Y-47870000D02*
X164830000Y-47870000D01*
X144390000Y-49200000D02*
X144390000Y-47870000D01*
X144390000Y-47870000D02*
X145720000Y-47870000D01*
%TO.C,SW4*%
X163250000Y-78000000D02*
X164750000Y-78000000D01*
X167250000Y-76750000D02*
X167250000Y-72250000D01*
X160750000Y-72250000D02*
X160750000Y-76750000D01*
X164750000Y-71000000D02*
X163250000Y-71000000D01*
%TO.C,D1*%
X136790000Y-70045000D02*
X136790000Y-66955000D01*
X136790000Y-70044830D02*
G75*
G02*
X131240000Y-68499538I-2560000J1544830D01*
G01*
X131240000Y-68500462D02*
G75*
G02*
X136790000Y-66955170I2990000J462D01*
G01*
X136730000Y-68500000D02*
G75*
G02*
X131730000Y-68500000I-2500000J0D01*
G01*
X131730000Y-68500000D02*
G75*
G02*
X136730000Y-68500000I2500000J0D01*
G01*
%TO.C,SW5*%
X142000000Y-77750000D02*
X143500000Y-77750000D01*
X146000000Y-76500000D02*
X146000000Y-72000000D01*
X139500000Y-72000000D02*
X139500000Y-76500000D01*
X143500000Y-70750000D02*
X142000000Y-70750000D01*
%TO.C,SW2*%
X148250000Y-57250000D02*
X146750000Y-57250000D01*
X144250000Y-58500000D02*
X144250000Y-63000000D01*
X150750000Y-63000000D02*
X150750000Y-58500000D01*
X146750000Y-64250000D02*
X148250000Y-64250000D01*
%TO.C,J6*%
X112770000Y-72305000D02*
X120450000Y-72305000D01*
X112770000Y-72305000D02*
X112770000Y-69645000D01*
X120450000Y-72305000D02*
X120450000Y-69645000D01*
X110170000Y-70975000D02*
X110170000Y-69645000D01*
X110170000Y-69645000D02*
X111500000Y-69645000D01*
X112770000Y-69645000D02*
X120450000Y-69645000D01*
%TO.C,SW1*%
X160500000Y-59750000D02*
X162000000Y-59750000D01*
X164500000Y-58500000D02*
X164500000Y-54000000D01*
X158000000Y-54000000D02*
X158000000Y-58500000D01*
X162000000Y-52750000D02*
X160500000Y-52750000D01*
%TO.C,RV1*%
X155925000Y-84600000D02*
X146155000Y-84600000D01*
X155925000Y-84600000D02*
X155925000Y-94370000D01*
X146155000Y-84600000D02*
X146155000Y-94370000D01*
X155925000Y-94370000D02*
X146155000Y-94370000D01*
%TO.C,J5*%
X109190000Y-64670000D02*
X127030000Y-64670000D01*
X106590000Y-64670000D02*
X107920000Y-64670000D01*
X106590000Y-66000000D02*
X106590000Y-64670000D01*
X127030000Y-67330000D02*
X127030000Y-64670000D01*
X109190000Y-67330000D02*
X109190000Y-64670000D01*
X109190000Y-67330000D02*
X127030000Y-67330000D01*
%TO.C,R6*%
X149040000Y-67500000D02*
X148270000Y-67500000D01*
X148270000Y-68870000D02*
X148270000Y-66130000D01*
X148270000Y-66130000D02*
X141730000Y-66130000D01*
X141730000Y-68870000D02*
X148270000Y-68870000D01*
X141730000Y-66130000D02*
X141730000Y-68870000D01*
X140960000Y-67500000D02*
X141730000Y-67500000D01*
%TO.C,SW3*%
X154000000Y-74750000D02*
X152500000Y-74750000D01*
X150000000Y-76000000D02*
X150000000Y-80500000D01*
X156500000Y-80500000D02*
X156500000Y-76000000D01*
X152500000Y-81750000D02*
X154000000Y-81750000D01*
%TD*%
M02*
