M48
; DRILL file {KiCad 8.0.8} date 2025-01-31T10:37:36-0700
; FORMAT={-:-/ absolute / inch / decimal}
; #@! TF.CreationDate,2025-01-31T10:37:36-07:00
; #@! TF.GenerationSoftware,Kicad,Pcbnew,8.0.8
; #@! TF.FileFunction,Plated,1,2,PTH
FMAT,2
INCH
; #@! TA.AperFunction,Plated,PTH,ComponentDrill
T1C0.0315
; #@! TA.AperFunction,Plated,PTH,ComponentDrill
T2C0.0354
; #@! TA.AperFunction,Plated,PTH,ComponentDrill
T3C0.0374
; #@! TA.AperFunction,Plated,PTH,ComponentDrill
T4C0.0394
; #@! TA.AperFunction,Plated,PTH,ComponentDrill
T5C0.0433
%
G90
G05
T1
X5.0756Y-2.1063
X5.4756Y-2.1063
X5.5087Y-2.6575
X5.6299Y-2.1063
X5.8402Y-2.815
X5.8465Y-3.5236
X5.9087Y-2.6575
X5.9465Y-3.6236
X6.0299Y-2.1063
X6.0465Y-3.5236
X6.178Y-2.4803
X6.178Y-2.6575
X6.2402Y-2.815
X6.578Y-2.4803
X6.578Y-2.6575
T2
X5.2346Y-2.6969
X5.3346Y-2.6969
T3
X5.2953Y-2.3228
X5.3937Y-2.3228
X5.4921Y-2.3228
T4
X4.2488Y-2.5984
X4.3488Y-2.5984
X4.3898Y-2.7943
X4.4488Y-2.5984
X4.4898Y-2.7943
X4.5488Y-2.5984
X4.5898Y-2.7943
X4.6488Y-2.5984
X4.677Y-1.937
X4.6898Y-2.7943
X4.7488Y-2.5984
X4.777Y-1.937
X4.8488Y-2.5984
X4.877Y-1.937
X4.9488Y-2.5984
X4.977Y-1.937
X5.037Y-3.837
X5.077Y-1.937
X5.137Y-3.837
X5.177Y-1.937
X5.237Y-3.837
X5.277Y-1.937
X5.337Y-3.837
X5.377Y-1.937
X5.437Y-3.837
X5.477Y-1.937
X5.537Y-3.837
X5.577Y-1.937
X5.637Y-3.837
X5.737Y-1.937
X5.737Y-3.837
X5.837Y-1.937
X5.937Y-1.937
X5.937Y-3.837
X6.037Y-1.937
X6.037Y-3.837
X6.137Y-1.937
X6.137Y-3.837
X6.237Y-1.937
X6.237Y-3.837
X6.337Y-1.937
X6.337Y-3.837
X6.437Y-1.937
X6.437Y-3.837
T5
X5.5315Y-2.7953
X5.5315Y-3.0512
X5.7087Y-2.7953
X5.7087Y-3.0512
X5.7185Y-2.2638
X5.7185Y-2.5197
X5.8957Y-2.2638
X5.8957Y-2.5197
X5.9449Y-2.9528
X5.9449Y-3.2087
X6.122Y-2.9528
X6.122Y-3.2087
X6.2598Y-2.0866
X6.2598Y-2.3425
X6.3681Y-2.8051
X6.3681Y-3.061
X6.437Y-2.0866
X6.437Y-2.3425
X6.5453Y-2.8051
X6.5453Y-3.061
M30
