M48
; DRILL file {KiCad 8.0.8} date 2025-03-12T17:15:39-0600
; FORMAT={-:-/ absolute / inch / decimal}
; #@! TF.CreationDate,2025-03-12T17:15:39-06:00
; #@! TF.GenerationSoftware,Kicad,Pcbnew,8.0.8
; #@! TF.FileFunction,Plated,1,2,PTH
FMAT,2
INCH
; #@! TA.AperFunction,Plated,PTH,ViaDrill
T1C0.0157
; #@! TA.AperFunction,Plated,PTH,ComponentDrill
T2C0.0276
; #@! TA.AperFunction,Plated,PTH,ComponentDrill
T3C0.0315
; #@! TA.AperFunction,Plated,PTH,ComponentDrill
T4C0.0354
; #@! TA.AperFunction,Plated,PTH,ComponentDrill
T5C0.0374
; #@! TA.AperFunction,Plated,PTH,ComponentDrill
T6C0.0394
%
G90
G05
T1
X4.5079Y-2.9921
X4.785Y-4.2898
X4.8425Y-2.9921
X4.8622Y-3.0906
X4.8819Y-4.1929
X5.0197Y-4.0551
X5.1378Y-3.1299
T2
X4.0035Y-3.0315
X4.1807Y-3.1496
X4.3035Y-3.0315
X4.3972Y-3.0315
X4.4807Y-3.1496
X4.6531Y-3.1496
X4.6972Y-3.0315
X4.7909Y-3.0315
X4.9531Y-3.1496
X5.0665Y-3.1496
X5.0909Y-3.0315
X5.3665Y-3.1496
T3
X4.0913Y-3.5827
X4.1913Y-3.4827
X4.2913Y-3.5827
T4
X4.0246Y-2.8543
X4.1246Y-2.8543
X4.3002Y-2.8543
X4.4002Y-2.8543
X4.5758Y-2.8543
X4.6758Y-2.8543
X4.8514Y-2.8543
X4.9514Y-2.8543
T5
X4.5866Y-3.4843
X4.5866Y-3.5827
X4.5866Y-3.6811
T6
X4.087Y-3.287
X4.087Y-3.887
X4.1732Y-4.0898
X4.1732Y-4.1898
X4.1732Y-4.2898
X4.1732Y-4.3898
X4.187Y-3.287
X4.187Y-3.887
X4.287Y-3.287
X4.287Y-3.887
X4.387Y-3.287
X4.387Y-3.887
X4.487Y-3.287
X4.487Y-3.887
X4.587Y-3.287
X4.587Y-3.887
X4.685Y-4.0898
X4.685Y-4.1898
X4.685Y-4.2898
X4.685Y-4.3898
X4.687Y-3.287
X4.687Y-3.887
X4.787Y-3.287
X4.787Y-3.887
X4.887Y-3.287
X4.887Y-3.887
X4.9394Y-4.4094
X4.9772Y-3.6811
X4.987Y-3.287
X4.987Y-3.887
X5.0394Y-4.4094
X5.0772Y-3.6811
X5.087Y-3.287
X5.087Y-3.887
X5.1394Y-4.4094
X5.1772Y-3.6811
X5.187Y-3.287
X5.187Y-3.887
X5.2102Y-3.4646
X5.2394Y-4.4094
X5.2772Y-3.6811
X5.287Y-3.287
X5.287Y-3.887
X5.3102Y-3.4646
X5.3394Y-4.4094
X5.3724Y-2.815
X5.3772Y-3.6811
X5.387Y-3.287
X5.387Y-3.887
X5.4102Y-3.4646
X5.4394Y-4.4094
X5.4724Y-2.815
X5.4772Y-3.6811
X5.487Y-3.287
X5.487Y-3.887
X5.5102Y-3.4646
X5.5394Y-4.4094
X5.5772Y-3.6811
X5.587Y-3.287
X5.587Y-3.887
X5.6102Y-3.4646
X5.6283Y-2.815
X5.687Y-3.287
X5.687Y-3.887
X5.7102Y-3.4646
X5.7283Y-2.815
M30
